<svg xmlns="http://www.w3.org/2000/svg" version="1.1" xmlns:xlink="http://www.w3.org/1999/xlink" xmlns:svgjs="http://svgjs.dev/svgjs" width="500" height="500"><svg width="500" height="500" viewBox="0 0 500 500" fill="none" xmlns="http://www.w3.org/2000/svg">
<path d="M204.849 76.695C206.165 76.711 207.482 76.7083 208.799 76.7043C208.799 76.7043 221.021 79.079 221.021 79.5223C225.257 80.4867 229.539 80.1677 233.847 80.0353C240.527 79.935 245.84 81.3173 250.81 86.0443C254.133 89.5583 256.703 93.3997 259.168 97.58C262.811 104.299 262.811 104.299 268.557 108.87C270.395 109.241 272.234 109.384 274.102 109.522C275.229 109.619 276.356 109.719 277.482 109.82C278.083 109.873 278.684 109.928 279.303 109.983C283.482 110.398 287.646 110.984 291.807 111.559C292.447 111.643 293.089 111.726 293.748 111.812C294.314 111.89 294.881 111.966 295.464 112.046C297.758 112.166 299.601 111.792 301.673 110.785C305.319 109.507 308.656 109.804 312.21 111.274C314.545 112.478 315.854 113.412 316.726 116.044C317.198 120.208 316.4 123.574 314.191 127.131C313.752 127.428 313.313 127.728 312.862 128.035C311.477 129.023 311.477 129.023 311.291 130.921C311.268 131.608 311.244 132.293 311.22 132.999C311.13 135.164 311.056 136.807 310.388 138.869C309.121 139.299 309.121 139.73 309.121 140.174C307.637 141.364 307.637 141.364 307.416 142.578C306.748 145.383 305.539 146.74 303.416 148.651C302.998 149.297 302.58 149.943 302.149 150.608C301.73 150.608 301.312 150.608 300.881 150.608C300.665 151.178 300.665 151.178 300.445 151.759C299.385 153.616 298.168 154.456 296.444 155.662C295.882 156.063 295.32 156.462 294.741 156.875C289.483 160.597 289.483 160.597 287.096 161.409C283.921 162.494 283.921 162.494 280.795 163.712C278.273 164.731 275.652 165.116 272.994 165.607C272.393 165.726 272.393 165.726 271.781 165.845C264.368 167.294 257.081 167.967 249.542 168.217C250.532 175.265 251.589 182.28 252.906 189.272C254.534 200.168 254.534 200.168 255.247 201.477C257.171 215.797 257.273 216.342 257.38 216.903C261.059 229.768 261.631 232.966 261.862 236.653C273.61 299.145 274.148 300.968 274.894 303.213C277.629 313.036 276.954 320.264 274.442 329.967C273.248 334.607 272.413 339.117 271.931 343.887C271.725 345.603 271.725 345.603 271.092 346.907C270.875 348.38 270.69 349.86 270.52 351.34C270.468 351.79 270.416 352.243 270.363 352.707C267.025 381.953 264.98 411.51 270.095 440.647C270.474 442.873 270.791 445.103 271.092 447.34C272.589 463.997 264.051 461.17 266.021 462.34C272.589 463.997 129.804 463.997 118.344 459.08C118.344 457.303 117.626 456.367 116.759 454.84C115.174 452.05 116.759 454.84 114.5 451C113.274 449.95 114.5 451 113.274 449.95C110.739 444.08 113.274 449.95 110.739 444.08C103.836 443.11 103.836 443.11 96.7937 442.123C78.638 436.293 75.8603 434.607 72.828 432.707C55.4187 421.22 54.7243 420.657 54.0323 420.09C47.663 414.79 44.466 410.947 41.1843 407.25C34.0907 400.423 32.9821 399.047 31.749 397.123C15.2184 367.563 13.0572 362.523 11.1634 357.34C3.32708 331.47 2.30293 326.6 1.45531 321.618C1.25801 320.484 1.04643 319.35 0.758263 318.238C-0.286659 313.659 -0.464491 306.964 1.60459 302.683C2.28995 301.655 2.28995 301.655 2.99089 300.605C3.46077 299.818 3.46077 299.818 3.94107 299.014C5.6272 297.208 7.85983 297.231 10.2002 297.18C12.8988 297.216 14.6135 297.815 16.9344 299.3C34.0983 334.81 36.6983 341.903 39.798 348.82C40.4537 350.327 41.034 351.85 41.6127 353.39C43.7947 359.39 43.7947 359.39 47.3567 364.517C52.511 374.9 52.511 374.9 52.8953 375.66C61.3157 388.987 61.3157 388.987 61.7753 389.54C91.1617 415.2 94.3847 417.177 98.097 418.737C99.33 419.297 99.33 419.297 101.23 420.6C103.113 421.033 104.996 421.463 106.935 421.907C106.935 413.083 106.935 404.26 106.935 395.167C115.593 362.56 116.011 362.56 116.442 362.56C116.55 361.937 116.658 361.313 116.769 360.673C134.319 318.449 134.449 318.032 134.582 317.603C136.776 311.577 136.829 310.81 136.882 310.02C141.579 299.3 140.833 302.5 142.429 299.3C142.429 298.655 142.429 298.009 142.429 297.343C144.277 294.305 144.813 292.917 145.559 291.27C146.588 288.969 147.249 286.803 147.781 284.338C148.168 282.861 148.721 281.543 149.322 280.143C151.318 275.23 152.168 269.934 153.203 264.736C155.378 258.728 156.313 254.1 157.381 249.465C158.056 246.462 158.495 243.519 158.751 240.447C163.895 203.624 163.584 182.735 163.474 161.787C163.455 157.571 163.447 153.356 163.436 149.139C163.417 140.933 163.385 132.728 163.344 124.522C163.168 124.877 162.991 125.231 162.809 125.597C161.996 127.225 161.178 128.851 160.359 130.475C160.081 131.033 159.803 131.593 159.516 132.167C156.718 137.701 153.355 143.179 147.519 145.681C143.622 146.776 140.189 146.4 136.675 144.339C133.646 142.091 131.113 139.384 130.109 135.609C128.083 121.755 132.023 108.147 139.894 96.8053C140.51 96.0293 141.145 95.2693 141.794 94.5227C142.171 94.0833 142.546 93.6453 142.934 93.1923C148.221 87.3827 156.151 82.422 164.067 82.0707C165.689 82.044 167.309 82.0427 168.93 82.0493C169.478 82.0467 170.025 82.0453 170.59 82.0427C173.167 82.0467 175.641 82.1337 178.189 82.537C180.729 82.8133 181.641 82.279 183.727 80.858C185.432 79.8603 187.157 79.5773 189.07 79.2207C190.488 78.896 191.679 78.4353 193.016 77.8677C196.88 76.5173 200.816 76.644 204.849 76.695Z" fill="#E99942" stroke="black"></path>
<path d="M172.172 82.1112C157.714 81.2212 150.464 85.7376 143.113 93.3935L141.901 94.7333L141.899 94.7365C141.214 95.4818 140.546 96.2414 139.895 97.0153C131.576 108.39 127.424 122.012 129.551 135.866C130.579 139.5 132.665 142.349 135.832 144.582C139.428 146.574 142.496 147.62 146.506 146.609C150.643 144.961 153.464 143.259 155.523 140.627C157.644 137.916 159.869 133.279 164.392 123.831C165.637 121.224 166.9 118.625 168.166 116.029L169.101 114.114C171.163 109.885 173.281 105.696 175.589 101.578L175.59 101.576L176.473 100.019L178.888 96.4277L181.73 92.3726L186 86.7969L180.129 82.7418L172.172 82.1112ZM172.172 82.1112L180.129 82.7418L186 86.7969L181.73 92.3726M172.172 82.1112L180.129 82.7418L186 86.7969L181.73 92.3726M181.73 92.3726L186 86.7969L180.129 82.7418L172.172 82.1112C179.596 81.7281 182.121 82.6084 186 85.7831C182.268 91.5472 185.462 86.6086 181.73 92.3726ZM181.73 92.3726C176.473 100.019 178.229 96.9218 176.473 100.019L178.888 96.4277L181.73 92.3726Z"></path>
<path d="M172.172 82.1112C157.714 81.2212 150.464 85.7376 143.113 93.3935L141.901 94.7333L141.899 94.7365C141.214 95.4818 140.546 96.2414 139.895 97.0153C131.576 108.39 127.424 122.012 129.551 135.866C130.579 139.5 132.665 142.349 135.832 144.582C139.428 146.574 142.496 147.62 146.506 146.609C150.643 144.961 153.464 143.259 155.523 140.627C157.644 137.916 159.869 133.279 164.392 123.831C165.637 121.224 166.9 118.625 168.166 116.029L169.101 114.114C171.163 109.885 173.281 105.696 175.589 101.578L175.59 101.576L176.473 100.019L178.888 96.4277L181.73 92.3726L186 86.7969L180.129 82.7418L172.172 82.1112ZM172.172 82.1112L180.129 82.7418L186 86.7969L181.73 92.3726M172.172 82.1112L180.129 82.7418L186 86.7969L181.73 92.3726M181.73 92.3726L186 86.7969L180.129 82.7418L172.172 82.1112C179.596 81.7281 182.121 82.6084 186 85.7831C182.268 91.5472 185.462 86.6086 181.73 92.3726ZM181.73 92.3726C176.473 100.019 178.229 96.9218 176.473 100.019L178.888 96.4277L181.73 92.3726Z" fill="#221225"></path>
<path d="M178.888 96.4277L178.478 96.1406L178.473 96.1487L178.888 96.4277ZM181.73 92.3726L181.333 92.0686L181.327 92.077L181.321 92.0856L181.73 92.3726ZM186 86.7969L186.397 87.1009L186.716 86.684L186.284 86.3855L186 86.7969ZM180.129 82.7418L180.413 82.3304L180.303 82.254L180.169 82.2434L180.129 82.7418ZM176.888 100.298L179.303 96.7066L178.473 96.1487L176.058 99.7405L176.888 100.298ZM179.297 96.7147L182.14 92.6596L181.321 92.0856L178.478 96.1407L179.297 96.7147ZM182.127 92.6766L186.397 87.1009L185.603 86.4929L181.333 92.0686L182.127 92.6766ZM186.284 86.3855L180.413 82.3304L179.845 83.1532L185.716 87.2083L186.284 86.3855ZM180.169 82.2434L172.211 81.6127L172.132 82.6096L180.09 83.2403L180.169 82.2434ZM172.172 82.1112L172.11 83.1093L172.167 83.1128L172.223 83.1098L172.172 82.1112ZM143.113 93.3935L142.391 92.7009L142.381 92.7117L142.371 92.7228L143.113 93.3935ZM141.901 94.7333L141.159 94.0626L141.108 94.1198L141.065 94.1843L141.901 94.7333ZM141.899 94.7365L142.635 95.4134L142.69 95.3535L142.735 95.2855L141.899 94.7365ZM139.895 97.0153L139.13 96.3721L139.108 96.3978L139.088 96.4249L139.895 97.0153ZM129.551 135.866L128.563 136.018L128.572 136.079L128.589 136.138L129.551 135.866ZM135.832 144.582L135.256 145.399L135.3 145.43L135.347 145.456L135.832 144.582ZM146.506 146.609L146.75 147.579L146.815 147.563L146.876 147.538L146.506 146.609ZM155.523 140.627L154.736 140.011L154.736 140.011L155.523 140.627ZM164.392 123.831L165.294 124.263L165.295 124.262L164.392 123.831ZM168.166 116.029L167.267 115.59L167.267 115.591L168.166 116.029ZM169.101 114.114L169.999 114.553L170 114.552L169.101 114.114ZM175.589 101.578L176.461 102.067L176.468 102.054L176.475 102.041L175.589 101.578ZM175.59 101.576L174.72 101.082L174.711 101.097L174.703 101.113L175.59 101.576ZM176.473 100.019L177.343 100.513L177.343 100.513L176.473 100.019ZM181.73 92.3726L182.554 92.9391L182.562 92.9277L182.57 92.9161L181.73 92.3726ZM186 85.7831L186.839 86.3266L187.326 85.5758L186.633 85.0093L186 85.7831ZM172.233 81.1131C164.887 80.6608 159.295 81.5785 154.578 83.6307C149.868 85.6803 146.11 88.8276 142.391 92.7009L143.834 94.0861C147.466 90.3035 151.009 87.3647 155.376 85.4646C159.737 83.5671 164.999 82.6715 172.11 83.1093L172.233 81.1131ZM142.371 92.7228L141.159 94.0626L142.643 95.404L143.854 94.0642L142.371 92.7228ZM141.065 94.1843L141.063 94.1875L142.735 95.2855L142.737 95.2823L141.065 94.1843ZM141.163 94.0596C140.468 94.8157 139.79 95.5865 139.13 96.3721L140.661 97.6584C141.301 96.8962 141.96 96.1478 142.635 95.4134L141.163 94.0596ZM139.088 96.4249C130.639 107.977 126.389 121.861 128.563 136.018L130.54 135.714C128.459 122.163 132.513 108.803 140.703 97.6056L139.088 96.4249ZM128.589 136.138C129.683 140.006 131.913 143.043 135.256 145.399L136.408 143.764C133.417 141.656 131.475 138.993 130.513 135.594L128.589 136.138ZM135.347 145.456C139.039 147.501 142.383 148.68 146.75 147.579L146.262 145.639C142.609 146.56 139.817 145.646 136.316 143.707L135.347 145.456ZM146.876 147.538C151.081 145.863 154.093 144.078 156.311 141.243L154.736 140.011C152.836 142.439 150.206 144.059 146.136 145.68L146.876 147.538ZM156.311 141.243C158.518 138.422 160.8 133.649 165.294 124.263L163.491 123.399C158.937 132.909 156.771 137.41 154.736 140.011L156.311 141.243ZM165.295 124.262C166.538 121.659 167.799 119.063 169.065 116.467L167.267 115.591C166.001 118.187 164.736 120.79 163.49 123.4L165.295 124.262ZM169.064 116.468L169.999 114.553L168.202 113.675L167.267 115.59L169.064 116.468ZM170 114.552C172.058 110.331 174.166 106.161 176.461 102.067L174.716 101.089C172.395 105.231 170.268 109.44 168.202 113.676L170 114.552ZM176.475 102.041L176.476 102.039L174.703 101.113L174.702 101.115L176.475 102.041ZM176.459 102.069L177.343 100.513L175.604 99.5256L174.72 101.082L176.459 102.069ZM172.223 83.1098C175.908 82.9197 178.263 83.052 180.147 83.5763C182.001 84.0925 183.477 85.0107 185.367 86.557L186.633 85.0093C184.644 83.3809 182.917 82.2715 180.683 81.6496C178.479 81.0359 175.859 80.9196 172.12 81.1125L172.223 83.1098ZM185.161 85.2397C183.294 88.1223 183.161 88.3271 183.027 88.5319C182.892 88.7398 182.756 88.9477 180.891 91.8292L182.57 92.9161C184.436 90.0334 184.57 89.8287 184.703 89.6239C184.838 89.416 184.974 89.208 186.839 86.3266L185.161 85.2397ZM180.906 91.8061C178.285 95.6188 177.421 96.741 176.996 97.2921C176.511 97.9227 176.481 97.9789 175.603 99.5263L177.343 100.513C178.222 98.9623 178.192 99.0186 178.581 98.5119C179.033 97.9257 179.919 96.7733 182.554 92.9391L180.906 91.8061Z" fill="black" mask="url(#path-2-inside-1_42_159)"></path>
<path d="M224.122 369.033L225.795 369.077C227.533 369.34 228.953 369.89 230.553 370.633C230.479 372.28 230.399 373.927 230.316 375.573L230.257 376.927C230.134 379.293 229.952 381.617 229.619 383.963C228.493 391.897 228.463 399.76 228.49 407.767C228.497 410.123 228.49 412.48 228.482 414.837C228.476 423.283 228.727 431.547 229.921 439.91C230.517 444.153 230.982 447.063 231.463 449.97L232.599 457.027C232.854 458.24 232.982 458.847 233.28 459.593C233.577 460.34 234.044 461.223 234.972 462.983H220.479L222.989 459.71L222.992 459.707V459.703C223.444 457.457 223.356 455.36 222.993 453.1L222.992 453.097L222.99 453.093C222.246 451.943 221.451 451.143 220.526 450.533C219.602 449.923 218.548 449.507 217.285 449.127H217.283C215.784 448.92 214.29 448.757 212.783 448.63C211.438 448.307 211.283 448.143 210.968 447.817C208.642 433.54 209.947 418.04 211.19 403.277C211.473 399.913 211.753 396.59 211.986 393.327H211.969C212.159 390.663 212.322 388.003 212.468 385.34H212.485C212.593 383.49 212.735 381.643 212.877 379.797L212.907 379.41L212.998 377.383C213.167 375.563 213.349 374.247 214.13 372.613C217.011 370.207 220.411 368.853 224.122 369.033Z" fill="#96512E" stroke="black"></path>
<path d="M183.417 408.17C185.105 426.313 187.617 446.233 195.642 462.73H175.414L178.57 456.897L178.571 456.893L178.572 456.89C179.177 453.633 179.045 450.717 177.62 447.727L177.618 447.723L176.671 446.467V445.16C175.613 444.697 174.554 444.27 173.491 443.853L171.629 443.12C166.462 441.687 160.979 442.267 155.853 443.527C149.807 444.93 143.613 444.75 137.438 444.573C136.571 444.547 135.705 444.523 134.839 444.503V442.577L135.88 442.287V442.283C148.998 438.543 160.891 433.037 168.085 420.397V420.393C173.957 409.57 177.091 397.27 173.859 384.967V384.963C171.804 378.133 168.437 372.533 162.72 368.333H162.718L161.459 367.687V366.41C164.021 366.25 166.176 366.4 168.202 367.007C170.233 367.617 172.135 368.683 174.187 370.353C179.799 375.783 180.54 382.527 181.354 389.933C181.408 390.427 181.462 390.92 181.518 391.417C181.685 392.89 181.867 394.36 182.06 395.833C182.587 399.94 183.034 404.047 183.417 408.17Z" fill="#96512E" stroke="black"></path>
<path d="M252.434 186.411L252.417 186.414C251.761 182.99 251.202 179.579 250.753 176.118C250.409 173.281 249.843 170.766 248.896 168.075C238.048 167.422 227.905 165.884 217.569 162.379L215.333 161.573L253.962 198.657C253.962 198.651 253.961 198.645 253.961 198.64C253.966 198.64 253.972 198.641 253.978 198.642C253.73 194.507 253.207 190.475 252.434 186.411ZM252.434 186.411C251.777 182.987 251.218 179.577 250.77 176.116ZM252.434 186.411L250.77 176.116ZM250.77 176.116C250.425 173.275 249.858 170.755 248.908 168.059L250.77 176.116Z" fill="#96512E"></path>
<path d="M252.434 186.411L252.417 186.414C251.761 182.99 251.202 179.579 250.753 176.118C250.409 173.281 249.843 170.766 248.896 168.075C238.048 167.422 227.905 165.884 217.569 162.379L215.333 161.573L253.962 198.657C253.962 198.651 253.961 198.645 253.961 198.64C253.966 198.64 253.972 198.641 253.978 198.642C253.73 194.507 253.207 190.475 252.434 186.411ZM252.434 186.411C251.777 182.987 251.218 179.577 250.77 176.116M252.434 186.411L250.77 176.116M250.77 176.116C250.425 173.275 249.858 170.755 248.908 168.059L250.77 176.116Z" stroke="black"></path>
<path d="M306.282 109.96C308.687 109.968 311.101 110.664 313.62 111.96C314.492 112.525 315.097 113.029 315.568 113.641C316.039 114.253 316.376 114.975 316.709 115.98C317.234 120.601 316.163 124.439 313.341 128.127C312.501 128.961 311.699 129.556 310.822 129.96C309.945 130.364 308.993 130.577 307.853 130.649C303.896 130.348 301.649 127.913 299.111 124.999C297.934 123.584 297.214 122.459 296.795 121.225C296.377 119.99 296.258 118.646 296.287 116.794C296.421 115.664 296.683 114.857 297.118 114.147C297.554 113.437 298.162 112.824 298.989 112.084C301.479 110.63 303.877 109.951 306.282 109.96Z" fill="black"></path>
<path d="M226.322 113.725L226.351 113.779L226.392 113.825H226.393L226.398 113.831L226.419 113.854C226.438 113.876 226.466 113.908 226.503 113.951C226.576 114.037 226.684 114.165 226.817 114.332C227.084 114.667 227.454 115.154 227.86 115.761C228.675 116.979 229.626 118.666 230.202 120.561C230.778 122.456 230.97 124.532 230.305 126.556C229.642 128.572 228.11 130.598 225.12 132.367C219.025 135.971 213.945 137.082 209.578 135.798C205.207 134.513 201.407 130.786 197.974 124.375C196.676 121.95 195.274 120.759 194.075 119.954C193.792 119.765 193.521 119.597 193.274 119.444L193.242 119.424C192.984 119.264 192.755 119.121 192.548 118.977C192.137 118.69 191.856 118.425 191.674 118.086C191.309 117.403 191.252 116.233 192.022 113.561C192.782 110.925 194.3 106.967 196.872 100.829C198.921 96.5969 201.328 94.5868 203.818 94.021C206.323 93.4516 209.064 94.3093 211.849 96.1532C217.425 99.8444 222.877 107.291 226.322 113.725Z" fill="#D3B99E" stroke="black"></path>
<path d="M214.683 103.606C216.505 104.42 216.505 104.42 217.852 106.211C218.435 109.85 218.349 112.964 216.782 116.302C213.144 120.341 213.144 120.341 210.246 120.9C208.344 120.533 208.344 120.533 206.522 119.313C204.892 116.85 204.719 115.367 204.863 112.441C205.492 109.067 207.287 106.681 209.572 104.257C211.43 103.332 212.641 103.307 214.683 103.606Z" fill="black"></path>
<path d="M214.683 105.56C215.526 109.734 215.526 109.734 214.603 111.419C213.415 112.07 213.415 112.07 211.791 111.948C210.246 111.419 210.246 111.419 208.978 110.117C208.748 108.272 208.752 107.249 209.691 105.641C211.464 104.549 212.741 105.072 214.683 105.56Z" fill="white"></path>
<path d="M268.724 369.333C268.774 369.42 268.82 369.557 268.861 369.733C268.905 369.923 268.943 370.157 268.976 370.433C269.042 370.987 269.088 371.7 269.116 372.523C269.173 374.167 269.162 376.24 269.118 378.32C269.029 382.48 268.805 386.66 268.711 387.457C266.69 406.387 266.359 425.277 270.605 444.02C271.014 445.877 271.355 447.737 271.679 449.603C271.523 449.87 271.498 450.01 271.481 450.183C271.446 450.533 271.441 451.023 271.454 451.61C271.482 452.767 271.584 454.29 271.686 455.817L271.691 455.887C271.794 457.44 271.898 458.993 271.922 460.163C271.934 460.75 271.927 461.24 271.89 461.587C271.872 461.763 271.846 461.9 271.812 461.993C271.795 462.043 271.777 462.077 271.757 462.103C271.737 462.127 271.716 462.14 271.695 462.143C269.131 462.643 266.824 462.637 261.147 462.617C259.947 462.613 258.598 462.61 257.064 462.61C257.063 462.593 257.073 462.577 257.098 462.55C257.13 462.52 257.181 462.487 257.251 462.447C257.367 462.383 257.531 462.307 257.729 462.213C257.768 462.197 257.808 462.177 257.849 462.16C258.353 461.923 259.035 461.593 259.703 461.11C261.04 460.143 262.324 458.557 262.031 455.873H262.032L262.031 455.87C261.447 454.007 261.081 453.13 260.53 452.517C260.255 452.207 259.934 451.967 259.519 451.7C259.301 451.56 259.056 451.413 258.777 451.247C258.526 451.097 258.246 450.93 257.935 450.737H257.933L257.93 450.733L252.244 449.253L252.037 449.243L251.35 449.213L249.718 449.133L247.752 449.053C245.833 444.457 245.696 438.703 246.364 432.953C247.032 427.2 248.508 421.453 249.81 416.877L250.177 415.553C250.565 414.197 251.005 412.583 251.496 410.783C252.956 405.43 254.867 398.42 257.2 391.573C258.76 386.997 260.507 382.493 262.433 378.603C264.356 374.72 266.455 371.453 268.724 369.333Z" fill="#96512E" stroke="black"></path>
<path d="M269.167 363.833L269.606 359.167L269.931 354.667L270.432 348.833L271.333 342.333L272 337.167L273.167 331L273.844 324.667L274.667 320.333L275.833 315.167L276.5 312L276.333 310.5L275.833 308L275.167 305L273.333 298L272 290.5L271.333 286.333C271.333 286.333 271.389 286.414 271 286.333C270.15 286.157 269.702 285.908 269.325 284.805H268.543C268.492 284.053 266.824 281.601 266.199 281.462V279.335L266.459 279.487C266.459 278.836 266.445 278.179 266.431 277.52C266.399 276.095 266.368 274.662 266.481 273.258C266.494 273.107 266.511 272.934 266.53 272.747C266.626 271.811 266.759 270.513 266.423 269.836C266.252 269.492 265.957 269.396 265.66 269.298C265.418 269.219 265.175 269.139 264.995 268.926C264.84 268.742 264.712 268.563 264.592 268.396C264.228 267.89 263.939 267.488 263.203 267.332V266.269L259.947 264.141V263.23L257.733 262.014V261.406C257.17 261.371 256.848 261.049 256.507 260.709C256.284 260.486 256.053 260.255 255.741 260.091C255.376 259.898 255.017 259.698 254.66 259.498C253.266 258.719 251.9 257.956 250.309 257.76V257.152L244.708 255.481C244.122 254.518 242.721 254.545 241.702 254.564C241.568 254.567 241.44 254.569 241.322 254.569V253.961L238.598 253.852H229.998L227.256 254.265V254.417H227.516V254.569C225.737 254.575 223.992 254.803 222.27 255.373C222.089 255.433 221.899 255.458 221.715 255.482C221.242 255.544 220.8 255.602 220.613 256.241C219.897 256.083 219.462 256.395 218.962 256.754C218.743 256.911 218.512 257.077 218.24 257.216C216.036 258.342 213.968 259.582 213.84 262.774C213.832 262.984 213.768 263.351 213.692 263.788C213.466 265.089 213.134 267.004 213.84 267.18L213.971 274.929C214.71 275.737 214.91 277.155 215.098 278.488C215.17 278.998 215.24 279.496 215.338 279.943C216.038 283.128 216.789 286.39 217.878 289.515H218.008V289.211H218.138C218.146 290.152 218.48 290.857 218.831 291.598C218.977 291.906 219.126 292.22 219.256 292.56C219.453 293.076 219.599 293.63 219.745 294.188C219.883 294.713 220.022 295.241 220.205 295.745C220.254 295.879 220.298 296.018 220.342 296.157C220.547 296.803 220.75 297.443 221.395 297.568V298.48L221.915 298.328L222.436 301.518L222.697 301.367V302.43H222.827L224.39 304.253L224.26 305.621H224.911L225.302 306.988L225.041 306.836C225.282 307.748 226.005 309.084 226.735 309.571C226.572 310.741 227.124 312.376 228.167 312.762V313.37L228.688 313.066C228.696 314.166 229.273 315.901 230.251 316.257L230.121 317.168C230.934 318.116 232.331 320.418 232.596 321.726H232.986L233.117 323.094L234.94 325.525C235.025 326.309 235.307 326.959 235.982 327.196L237.154 329.779H237.675L238.847 332.97C239.897 333.009 240.986 334.803 241.061 336.01L242.234 336.463C242.245 337.667 243.255 339.553 244.318 339.807V340.567C244.854 340.817 245.112 341.12 245.229 341.783C245.633 341.927 245.733 342.047 245.75 342.543C246.616 342.62 247.306 343.507 247.997 344.397C248.598 345.17 249.2 345.947 249.918 346.19C249.975 346.767 250.218 346.977 250.499 347.223C250.656 347.36 250.824 347.507 250.978 347.733C251.89 349.067 253.776 351.803 255.258 351.963C255.366 352.427 255.747 353.217 256.17 352.723H256.43L257.603 354.393L259.296 355.307L259.686 355.76V356.52L260.207 357.127H261.249C261.519 358.223 263.388 359.97 264.375 359.863V360.623L265.547 360.773C265.568 361.49 265.706 361.747 266.329 361.84C266.602 362.87 267.629 363.5 268.5 363.5C269.472 363.743 266.818 363.08 268.5 363.5L269.167 363.833Z" fill="#D3B99E"></path>
<path d="M381.667 320.833C379.586 318.324 380.592 319.374 379.586 318.324C368.309 306.227 363.106 293.044 362.436 275.825C362.392 274.761 362.349 273.697 362.299 272.633C362.149 269.491 362.012 266.349 361.889 263.205C368.426 263.406 373.952 261.507 379.296 257.268C382.546 254.395 385.189 252.308 385.779 247.581C376.956 237.664 364.462 234.469 352.409 232.577C351.652 232.47 350.919 232.366 350.186 232.262C349.472 232.156 348.776 232.053 348.082 231.95C345.996 231.664 344.556 231.3 342.669 230.256C340.942 228.889 340.536 227.776 339.939 225.564C340.199 226.002 340.452 226.427 340.706 226.851C342.522 229.265 344.302 230.368 347.106 230.954C359.716 232.323 371.956 235.045 382.469 243.275C384.232 244.802 385.489 245.726 387.716 246.16C389.296 243.062 389.976 240.459 390.299 236.927C378.629 227.621 362.959 226.001 349.039 225.689C347.036 225.662 345.732 225.557 343.812 224.854C357.759 225.283 370.539 225.803 383.479 232.089C386.212 233.467 388.596 234.385 391.589 234.797C391.576 232.98 391.566 231.164 391.556 229.347C391.552 228.221 391.552 228.221 391.549 227.118C391.542 226.368 391.539 225.641 391.533 224.914C391.529 224.194 391.529 223.496 391.526 222.798C391.519 221.589 391.536 220.38 391.589 219.172C392.999 214.52 392.999 214.52 394.262 204.481C394.379 203.516 394.379 203.516 394.496 202.571C395.682 192.807 396.822 183.022 396.989 173.161C396.702 171.234 396.229 170.61 394.816 169.458C392.222 168.927 390.689 169.474 388.522 170.967C387.166 171.989 385.809 172.987 384.402 173.92C381.622 175.711 378.889 177.56 376.199 179.51C375.829 179.779 375.469 180.041 375.109 180.302C373.636 181.376 372.159 182.451 370.686 183.529C369.559 184.356 368.436 185.183 367.306 186.005C366.939 186.269 366.586 186.526 366.232 186.783C365.019 187.671 363.789 188.531 362.536 189.344C360.932 189.95 360.359 190.242 358.799 189.518C352.956 185.897 346.146 183.953 339.616 182.558C339.066 182.45 338.536 182.346 338.002 182.241C337.652 178.816 337.196 175.477 336.529 172.109C336.419 171.575 336.316 171.056 336.209 170.537C335.982 169.406 335.756 168.276 335.526 167.145C335.169 165.388 334.812 163.631 334.459 161.872C334.229 160.713 333.996 159.554 333.762 158.396C333.646 157.83 333.536 157.281 333.426 156.732C332.689 153.036 332.076 149.317 330.093 146.154C328.963 145.311 328.963 145.311 327.067 145C323.894 145.499 323.894 145.499 312.959 161.654C312.473 162.375 312.002 163.076 311.531 163.776C309.495 166.798 307.418 169.793 305.565 172.956C302.719 177.887 300.311 182.666 295.633 185.704C294.458 186.409 293.301 187.15 292.162 187.923C289.875 190.22 286.508 192.945 286.238 196.537C287.199 198.218 287.199 198.218 290.202 199.341C298.264 202.183 305.594 206.349 312.782 211.227C315.394 213.007 317.922 214.598 320.852 215.666C322.014 216.002 322.014 216.002 323.152 216.331C318.098 215.313 318.098 215.313 313.624 212.253C308.214 208.776 302.918 205.268 297.05 202.804C295.907 202.338 294.773 201.84 293.65 201.317C290.537 199.866 287.788 198.899 284.415 198.576C283.537 200.991 282.685 203.335 281.832 205.678C284.243 206.583 286.647 207.492 289.094 208.27C295.785 210.295 302.097 212.681 308.424 215.843C312.725 218.075 316.419 219.731 321.216 219.882C321.874 219.882 322.513 219.882 323.152 219.882C318.877 220.546 315.389 220.089 311.489 218.137C306.974 215.767 302.488 213.58 297.757 211.769C296.725 211.383 296.725 211.383 295.713 211.005C290.954 209.155 286.899 208.135 281.832 208.519C281.689 211.288 281.6 214.043 281.636 216.817C281.974 225.215 287.044 233.662 292.405 239.369C293.705 240.603 293.705 240.603 294.745 241.899C295.36 243.53 295.509 244.328 295.025 246.016C293.688 248.9 292.531 251.83 291.489 254.858C291.25 255.565 291.25 255.565 291.015 256.258C289.081 261.953 287.291 267.696 285.552 273.466C285.385 274.022 285.223 274.562 285.061 275.101C282.522 283.514 279.972 291.922 277.777 300.454C277.543 301.369 277.543 301.369 277.313 302.267C275.245 310.264 272.969 318.247 271.946 326.502C271.817 327.895 271.669 329.287 271.502 330.675C270.231 335.793 269.621 340.92 269.083 346.187C269.028 346.737 268.974 347.273 268.92 347.81C266.061 376.02 263.616 405.82 268.575 433.9C268.692 434.54 268.806 435.163 268.92 435.787C269.42 438.617 269.932 441.44 270.524 444.253C270.637 444.753 270.747 445.24 270.857 445.73C268.926 445.683 267.441 445.477 265.692 446.44C263.535 448.543 261.569 450.683 260.719 453.767C260.56 456.103 260.702 457.827 262.006 459.73C264.62 462.31 266.5 463.267 270.015 463.333C270.574 463.323 271.116 463.31 271.659 463.3C273.535 463.317 275.41 463.327 277.286 463.31C278.659 463.297 280.033 463.293 281.406 463.293C285.149 463.31 288.892 463.31 292.635 463.29C296.614 463.267 300.593 463.26 304.572 463.26C311.233 463.263 317.894 463.25 324.555 463.223C331.886 463.19 339.216 463.167 346.546 463.167C354.499 463.17 362.449 463.167 370.402 463.147C373.589 463.14 376.776 463.133 379.966 463.13C383.786 463.13 387.606 463.123 391.426 463.103C392.832 463.097 394.236 463.09 395.642 463.083C397.606 463.083 399.566 463.087 401.529 463.073C402.129 463.067 402.716 463.063 403.299 463.057C405.252 463.07 407.069 462.983 409.019 462.773C410.632 461.763 411.359 461.043 412.376 459.367C413.109 458.013 413.109 458.013 414.126 456.74C417.932 454.943 417.932 454.943 422.219 455.05C427.096 455.133 432.292 455.65 437.059 454.323C438.222 453.927 438.222 453.927 439.366 453.54C455.776 449.393 467.899 441.013 478.172 426.247C478.789 425.327 478.789 425.327 479.392 424.423C492.432 405.25 498.766 383.29 498.283 359.423C497.749 342.24 492.572 325.899 481.029 313.832C480.472 313.281 479.932 312.745 479.392 312.209C474.879 307.725 469.942 304.391 463.846 303.346C458.606 303.072 454.552 304.576 450.516 308.256C448.006 311.355 448.006 311.355 448.226 319.459C448.556 323.168 450.702 325.571 453.256 327.884C462.906 335.86 468.572 347.433 470.356 360.503C471.869 379.567 465.309 399.513 454.882 414.587C447.242 425.157 437.249 431.207 425.163 432.943C427.279 423.683 427.986 414.657 427.989 405.14C427.986 404.23 427.986 404.23 427.986 403.337C427.996 396.887 428.056 390.517 426.822 384.177C426.696 383.613 426.576 383.067 426.453 382.52C422.059 362.343 411.506 348.027 397.036 335.247C394.129 332.7 391.422 329.976 388.722 327.168C386.872 325.21 385.169 323.292 382.932 321.883C382.582 321.733 382.358 321.667 381.667 320.833ZM381.667 320.833C381.667 321.302 381.667 320.35 381.667 320.833Z" fill="#FDF8ED"></path>
<path d="M381.667 320.833C379.586 318.324 380.592 319.374 379.586 318.324C368.309 306.227 363.106 293.044 362.436 275.825C362.392 274.761 362.349 273.697 362.299 272.633C362.149 269.491 362.012 266.349 361.889 263.205C368.426 263.406 373.952 261.507 379.296 257.268C382.546 254.395 385.189 252.308 385.779 247.581C376.956 237.664 364.462 234.469 352.409 232.577C351.652 232.47 350.919 232.366 350.186 232.262C349.472 232.156 348.776 232.053 348.082 231.95C345.996 231.664 344.556 231.3 342.669 230.256C340.942 228.889 340.536 227.776 339.939 225.564C340.199 226.002 340.452 226.427 340.706 226.851C342.522 229.265 344.302 230.368 347.106 230.954C359.716 232.323 371.956 235.045 382.469 243.275C384.232 244.802 385.489 245.726 387.716 246.16C389.296 243.062 389.976 240.459 390.299 236.927C378.629 227.621 362.959 226.001 349.039 225.689C347.036 225.662 345.732 225.557 343.812 224.854C357.759 225.283 370.539 225.803 383.479 232.089C386.212 233.467 388.596 234.385 391.589 234.797C391.576 232.98 391.566 231.164 391.556 229.347C391.552 228.221 391.552 228.221 391.549 227.118C391.542 226.368 391.539 225.641 391.533 224.914C391.529 224.194 391.529 223.496 391.526 222.798C391.519 221.589 391.536 220.38 391.589 219.172C392.999 214.52 392.999 214.52 394.262 204.481C394.379 203.516 394.379 203.516 394.496 202.571C395.682 192.807 396.822 183.022 396.989 173.161C396.702 171.234 396.229 170.61 394.816 169.458C392.222 168.927 390.689 169.474 388.522 170.967C387.166 171.989 385.809 172.987 384.402 173.92C381.622 175.711 378.889 177.56 376.199 179.51C375.829 179.779 375.469 180.041 375.109 180.302C373.636 181.376 372.159 182.451 370.686 183.529C369.559 184.356 368.436 185.183 367.306 186.005C366.939 186.269 366.586 186.526 366.232 186.783C365.019 187.671 363.789 188.531 362.536 189.344C360.932 189.95 360.359 190.242 358.799 189.518C352.956 185.897 346.146 183.953 339.616 182.558C339.066 182.45 338.536 182.346 338.002 182.241C337.652 178.816 337.196 175.477 336.529 172.109C336.419 171.575 336.316 171.056 336.209 170.537C335.982 169.406 335.756 168.276 335.526 167.145C335.169 165.388 334.812 163.631 334.459 161.872C334.229 160.713 333.996 159.554 333.762 158.396C333.646 157.83 333.536 157.281 333.426 156.732C332.689 153.036 332.076 149.317 330.093 146.154C328.963 145.311 328.963 145.311 327.067 145C323.894 145.499 323.894 145.499 312.959 161.654C312.473 162.375 312.002 163.076 311.531 163.776C309.495 166.798 307.418 169.793 305.565 172.956C302.719 177.887 300.311 182.666 295.633 185.704C294.458 186.409 293.301 187.15 292.162 187.923C289.875 190.22 286.508 192.945 286.238 196.537C287.199 198.218 287.199 198.218 290.202 199.341C298.264 202.183 305.594 206.349 312.782 211.227C315.394 213.007 317.922 214.598 320.852 215.666C322.014 216.002 322.014 216.002 323.152 216.331C318.098 215.313 318.098 215.313 313.624 212.253C308.214 208.776 302.918 205.268 297.05 202.804C295.907 202.338 294.773 201.84 293.65 201.317C290.537 199.866 287.788 198.899 284.415 198.576C283.537 200.991 282.685 203.335 281.832 205.678C284.243 206.583 286.647 207.492 289.094 208.27C295.785 210.295 302.097 212.681 308.424 215.843C312.725 218.075 316.419 219.731 321.216 219.882C321.874 219.882 322.513 219.882 323.152 219.882C318.877 220.546 315.389 220.089 311.489 218.137C306.974 215.767 302.488 213.58 297.757 211.769C296.725 211.383 296.725 211.383 295.713 211.005C290.954 209.155 286.899 208.135 281.832 208.519C281.689 211.288 281.6 214.043 281.636 216.817C281.974 225.215 287.044 233.662 292.405 239.369C293.705 240.603 293.705 240.603 294.745 241.899C295.36 243.53 295.509 244.328 295.025 246.016C293.688 248.9 292.531 251.83 291.489 254.858C291.25 255.565 291.25 255.565 291.015 256.258C289.081 261.953 287.291 267.696 285.552 273.466C285.385 274.022 285.223 274.562 285.061 275.101C282.522 283.514 279.972 291.922 277.777 300.454C277.543 301.369 277.543 301.369 277.313 302.267C275.245 310.264 272.969 318.247 271.946 326.502C271.817 327.895 271.669 329.287 271.502 330.675C270.231 335.793 269.621 340.92 269.083 346.187C269.028 346.737 268.974 347.273 268.92 347.81C266.061 376.02 263.616 405.82 268.575 433.9C268.692 434.54 268.806 435.163 268.92 435.787C269.42 438.617 269.932 441.44 270.524 444.253C270.637 444.753 270.747 445.24 270.857 445.73C268.926 445.683 267.441 445.477 265.692 446.44C263.535 448.543 261.569 450.683 260.719 453.767C260.56 456.103 260.702 457.827 262.006 459.73C264.62 462.31 266.5 463.267 270.015 463.333C270.574 463.323 271.116 463.31 271.659 463.3C273.535 463.317 275.41 463.327 277.286 463.31C278.659 463.297 280.033 463.293 281.406 463.293C285.149 463.31 288.892 463.31 292.635 463.29C296.614 463.267 300.593 463.26 304.572 463.26C311.233 463.263 317.894 463.25 324.555 463.223C331.886 463.19 339.216 463.167 346.546 463.167C354.499 463.17 362.449 463.167 370.402 463.147C373.589 463.14 376.776 463.133 379.966 463.13C383.786 463.13 387.606 463.123 391.426 463.103C392.832 463.097 394.236 463.09 395.642 463.083C397.606 463.083 399.566 463.087 401.529 463.073C402.129 463.067 402.716 463.063 403.299 463.057C405.252 463.07 407.069 462.983 409.019 462.773C410.632 461.763 411.359 461.043 412.376 459.367C413.109 458.013 413.109 458.013 414.126 456.74C417.932 454.943 417.932 454.943 422.219 455.05C427.096 455.133 432.292 455.65 437.059 454.323C438.222 453.927 438.222 453.927 439.366 453.54C455.776 449.393 467.899 441.013 478.172 426.247C478.789 425.327 478.789 425.327 479.392 424.423C492.432 405.25 498.766 383.29 498.283 359.423C497.749 342.24 492.572 325.899 481.029 313.832C480.472 313.281 479.932 312.745 479.392 312.209C474.879 307.725 469.942 304.391 463.846 303.346C458.606 303.072 454.552 304.576 450.516 308.256C448.006 311.355 448.006 311.355 448.226 319.459C448.556 323.168 450.702 325.571 453.256 327.884C462.906 335.86 468.572 347.433 470.356 360.503C471.869 379.567 465.309 399.513 454.882 414.587C447.242 425.157 437.249 431.207 425.163 432.943C427.279 423.683 427.986 414.657 427.989 405.14C427.986 404.23 427.986 404.23 427.986 403.337C427.996 396.887 428.056 390.517 426.822 384.177C426.696 383.613 426.576 383.067 426.453 382.52C422.059 362.343 411.506 348.027 397.036 335.247C394.129 332.7 391.422 329.976 388.722 327.168C386.872 325.21 385.169 323.292 382.932 321.883C382.582 321.733 382.358 321.667 381.667 320.833ZM381.667 320.833C381.667 320.35 381.667 321.302 381.667 320.833Z" stroke="black"></path>
<path d="M371.953 207.302L371.953 207.302C367.182 203.015 364.216 199.776 362.443 197.337C360.662 194.886 360.129 193.298 360.121 192.301C360.114 191.363 360.571 190.898 361.035 190.639C361.278 190.504 361.526 190.426 361.718 190.381C361.812 190.36 361.89 190.347 361.942 190.34C361.968 190.336 361.988 190.334 361.999 190.333L362.011 190.332L362.011 190.332L362.011 190.332L362.012 190.332L362.152 190.322L362.267 190.24L378.014 178.968L378.024 178.966C378.099 178.951 378.209 178.928 378.351 178.9C378.634 178.842 379.045 178.76 379.551 178.662C380.563 178.465 381.957 178.202 383.485 177.939C386.557 177.412 390.121 176.893 392.232 176.893C392.996 176.893 393.637 177.475 394.155 178.689C394.664 179.88 394.969 181.5 395.145 183.165C395.319 184.821 395.361 186.482 395.358 187.732C395.357 188.356 395.345 188.876 395.333 189.239C395.327 189.421 395.321 189.563 395.317 189.66C395.315 189.708 395.313 189.745 395.312 189.769L395.311 189.79L392.52 213.098C392.474 213.109 392.423 213.12 392.366 213.132C392.05 213.201 391.583 213.289 390.991 213.368C389.804 213.526 388.115 213.644 386.117 213.486C382.124 213.168 376.896 211.744 371.953 207.302Z" fill="#D3B99E" stroke="black"></path>
<path d="M362.452 376.367C366.579 376.607 368.422 376.727 370.266 376.853C370.266 378.097 370.179 378.787 369.916 379.393C369.686 379.923 369.319 380.39 368.752 381.113C368.672 381.217 368.586 381.327 368.496 381.443L368.492 381.447C364.322 387.37 363.352 393.783 363.446 401.12L363.462 403.463C363.729 415.16 367.572 424.593 374.142 433.663L374.999 434.95C377.986 439.187 382.086 441.94 386.406 444.317V445.713L384.372 445.81L367.309 446.673C363.119 446.93 359.722 448.163 356.069 450.51V450.507L356.066 450.51V450.513C355.319 451.293 354.942 451.687 354.732 452.207L354.409 454.65V454.657C354.486 455.86 354.526 456.467 354.702 456.937C354.879 457.407 355.196 457.737 355.822 458.387L355.826 458.39V458.393L358 460.667C360.833 462.757 362.147 462.713 366 462.757H392.5C409.009 462.757 403.346 462.703 409.009 462.757L330 463.167L338.309 446.333L340.642 432.667L341.309 425.333L343.309 394.667C345.087 382.444 349.976 376.333 357.976 376.333L362.452 376.367Z" fill="#F0D397" stroke="black"></path>
<path d="M316.542 410.903C317.804 417.963 318.407 424.87 318.471 432.063C318.487 433.227 318.518 434.39 318.564 435.553C318.71 439.297 318.752 442.773 317.972 446.43C316.429 448.197 315.179 448.98 313.107 449.85C312.098 450.383 311.452 450.933 310.941 451.627C310.431 452.32 310.054 453.15 309.579 454.243L309.577 454.25C309.462 455.033 309.404 455.423 309.389 455.807C309.374 456.193 309.401 456.567 309.456 457.313L309.577 459.933L311.833 462.073L314.097 462.667L315.833 463.267L284.667 463.333L286.371 461.357L287.573 460.21C290.063 457.15 290.404 453.857 290.378 449.863L290.371 447.277L290.345 444.49C290.341 443.52 290.338 442.547 290.335 441.573C290.326 439.01 290.311 436.447 290.293 433.88C290.127 409.763 290.127 409.763 290.401 399.25L290.429 397.24C290.593 392.37 291.442 387.27 294.399 383.46C296.414 381.507 298.598 380.58 300.861 380.45C303.125 380.32 305.47 380.987 307.808 382.223C312.42 386.72 313.512 391.947 314.5 398.457L314.874 400.743L315.642 405.667C315.911 407.313 316.214 409.107 316.542 410.903Z" fill="#F0D397" stroke="black"></path>
<path d="M304.445 249.732C304.32 253.282 304.487 256.241 305.429 259.641L305.858 261.07C307.092 265.273 308.404 268.908 310.898 272.426C311.806 273.039 312.473 273.394 313.187 273.612C313.902 273.83 314.665 273.911 315.768 273.975C316.95 273.904 317.854 273.828 318.681 273.547C319.508 273.267 320.259 272.783 321.133 271.894L322.494 270.296L324.017 268.565H324.018L325.561 266.745C325.713 266.569 325.857 266.403 325.993 266.245C326.808 265.305 327.361 264.667 327.722 263.935C328.141 263.083 328.3 262.105 328.301 260.377C324.01 259.153 320.114 257.457 316.134 255.319L304.445 249.732Z" fill="#F0D397" stroke="black"></path>
<path d="M386.739 201.62C386.209 204.387 385.669 207.152 385.119 209.915C383.053 208.922 381.789 207.755 380.262 205.934C377.252 202.518 373.849 199.847 370.302 197.15C371.162 194.969 372.003 193.765 373.743 192.361L375.046 191.299L376.426 190.2L377.832 189.065C379.189 187.972 380.549 186.888 381.916 185.806L383.986 184.144C386.086 182.489 387.132 181.662 387.842 181.249C388.196 181.043 388.463 180.94 388.736 180.889C389.003 180.839 389.272 180.838 389.636 180.838C389.779 184.923 389.239 188.589 388.466 192.581L388.113 194.457C387.763 196.304 387.409 198.149 387.052 199.994L386.739 201.62Z" fill="#FF9B79" stroke="black"></path>
<path d="M328.301 180.094H311.552C312.072 177.808 312.399 176.702 313.485 174.815L314.282 173.419L315.137 171.952L323.642 157.333H325.642C326.42 161.333 327.198 165.333 327.976 169.333L328.301 180.094Z" fill="#FF9B79" stroke="black"></path>
<path d="M331.243 212.188C331.842 212.664 332.506 213.19 333.479 213.277C333.852 213.433 334.216 213.579 334.572 213.722C336.579 214.527 338.339 215.234 339.922 216.976C340.182 218.034 340.182 218.036 340.322 218.348C340.456 218.658 340.729 219.28 341.536 221.581C341.052 222.31 340.812 222.672 340.492 222.936C340.172 223.2 339.772 223.365 338.966 223.698C336.252 223.99 334.869 223.354 332.829 222.417C332.256 222.154 331.63 221.867 330.91 221.57C330.469 221.133 329.955 220.785 329.424 220.469C329.178 220.322 328.927 220.182 328.679 220.043C328.661 220.033 328.642 220.022 328.623 220.012C328.356 219.863 328.093 219.715 327.84 219.56C326.828 218.944 325.983 218.231 325.752 216.967C326.183 214.601 327.158 213.393 328.651 211.654C329.152 211.379 329.562 211.33 329.93 211.414C330.3 211.497 330.629 211.713 330.968 211.973C331.059 212.042 331.15 212.115 331.243 212.188Z" fill="black" stroke="black" stroke-width="0.1"></path>
<path d="M339.292 224.854C339.912 225.667 339.912 225.667 340.542 226.496C344.259 230.555 349.996 230.916 354.949 231.557C368.062 233.475 382.422 239.017 390.782 250.954C392.932 254.217 392.932 254.217 392.689 256.336C392.539 256.728 392.389 257.12 392.236 257.523C391.382 256.268 390.536 255.01 389.692 253.751C388.986 252.7 388.986 252.7 388.262 251.628C387.069 249.711 388.262 251.628 386.102 248.291C383.842 246.16 386.102 248.291 383.842 246.16C382.946 245.507 382.059 244.84 381.179 244.163C371.622 237.143 361.506 234.553 350.242 233.035C346.356 232.47 343.569 232.001 340.586 229.115C339.292 226.985 339.292 226.985 339.292 224.854Z" fill="black"></path>
<path d="M263.11 193.604C282.411 192.446 300.204 201.357 316.19 212.553C317.929 213.755 319.584 214.758 321.539 215.488C322.285 215.766 323.03 216.044 323.799 216.331C323.799 216.565 323.799 216.8 323.799 217.041C319.296 216.787 316.453 215.24 312.661 212.647C311.576 211.93 310.49 211.215 309.403 210.502C308.882 210.159 308.36 209.815 307.823 209.46C304.841 207.533 301.747 205.876 298.619 204.258C297.707 203.778 297.707 203.778 296.776 203.289C286.004 197.749 274.835 196.307 263.11 195.025C263.11 194.556 263.11 194.087 263.11 193.604Z" fill="black"></path>
<path d="M343.166 224.143C363.106 224.589 383.899 225.893 398.693 242.609C399.329 243.663 399.329 243.663 399.983 244.739C398.046 244.739 398.489 243.94 397.076 242.609C395.463 241.188 396.753 242.254 395.139 240.833C394.779 240.646 395.369 241.035 393.849 239.768C392.556 238.703 392.879 239.058 391.409 238.006C379.456 229.567 365.189 226.819 351.223 226.542C350.553 226.526 349.883 226.51 349.193 226.493C348.593 226.484 347.989 226.476 347.369 226.467C345.686 226.266 344.616 225.792 343.166 224.854C343.166 224.619 343.166 224.385 343.166 224.143Z" fill="black"></path>
<path d="M296.682 209.939C297.161 210.118 297.639 210.296 298.131 210.479C302.071 211.968 305.921 213.599 309.67 215.599C315.091 218.459 318.962 219.981 325.09 218.462C323.963 220.028 323.361 220.549 321.551 220.929C316.135 220.999 312.227 219.481 307.375 216.953C302.017 214.307 296.737 211.936 291.073 210.206C290.53 210.039 289.987 209.872 289.427 209.701C284.414 208.229 279.623 207.693 274.449 207.72C273.666 207.716 273.666 207.716 272.869 207.712C269.56 207.718 266.385 207.998 263.11 208.519C263.11 207.816 263.11 207.113 263.11 206.388C274.46 203.63 285.886 205.846 296.682 209.939Z" fill="black"></path>
<path d="M332.169 222.03L331.892 223.183C330.802 228.054 329.841 232.59 332.016 237.201V237.204C333.289 238.836 334.476 239.96 336.049 241.197V242.586C334.436 242.077 333.316 241.387 332.359 240.464C331.395 239.537 330.595 238.375 329.624 236.92C329.005 234.877 328.911 233.589 328.939 231.468L328.957 229.729L328.98 228.405V228.369L328.952 228.392L326.935 230.079C324.944 231.625 323.09 232.497 321.14 232.957C319.194 233.416 317.15 233.464 314.776 233.36V231.971L316.415 231.812C318.876 231.498 320.986 231.123 322.914 230.323C324.843 229.523 326.59 228.298 328.33 226.285L328.331 226.284C329.275 224.905 330.083 223.498 330.91 222.03H332.169Z" fill="black" stroke="black" stroke-width="0.1"></path>
<path d="M322.221 191.66C324.077 192.548 324.077 192.548 325.449 194.501C326.044 198.471 325.955 201.868 324.36 205.509C320.654 209.916 320.654 209.916 317.702 210.525C315.765 210.125 315.765 210.125 313.908 208.794C312.248 206.107 312.072 204.489 312.219 201.298C312.86 197.617 314.688 195.013 317.016 192.37C318.908 191.361 320.142 191.333 322.221 191.66Z" fill="black"></path>
<path d="M322.221 193.791C323.081 198.345 323.081 198.345 322.141 200.183C320.93 200.893 320.93 200.893 319.276 200.76C317.702 200.183 317.702 200.183 316.411 198.762C316.176 196.75 316.181 195.634 317.137 193.88C318.943 192.688 320.244 193.259 322.221 193.791Z" fill="white"></path>
<path d="M360.959 203.024C362.816 203.911 362.816 203.911 364.186 205.864C364.782 209.834 364.692 213.232 363.096 216.873C359.392 221.279 359.392 221.279 356.439 221.888C354.502 221.489 354.502 221.489 352.646 220.157C350.986 217.471 350.809 215.853 350.956 212.661C351.596 208.98 353.426 206.377 355.752 203.734C357.646 202.724 358.879 202.697 360.959 203.024Z" fill="black"></path>
<path d="M360.959 205.154C361.819 209.708 361.819 209.708 360.879 211.546C359.669 212.256 359.669 212.256 358.012 212.123C356.439 211.546 356.439 211.546 355.149 210.126C354.912 208.113 354.919 206.997 355.876 205.243C357.679 204.052 358.982 204.623 360.959 205.154Z" fill="white"></path>
<path d="M311.67 278.371L313.115 277.902C314.474 278.133 315.983 277.764 317.431 277.41C318.061 277.256 318.68 277.105 319.27 277.007C320.056 276.877 320.725 276.953 321.426 277.034C321.736 277.069 322.052 277.106 322.387 277.125C323.016 277.161 323.652 277.115 324.287 277.068C324.891 277.025 325.494 276.981 326.089 277.007C326.619 277.031 327.138 277.092 327.649 277.18L327.664 277.182C329.128 277.436 330.528 277.911 331.922 278.385C333.359 278.873 334.789 279.359 336.279 279.6L336.209 280.018L338.099 280.918L337.896 281.313L339.412 282.006L339.292 282.703C339.902 283.037 341.106 284.045 341.502 284.671C341.646 284.906 341.749 285.19 341.852 285.476C342.086 286.128 342.329 286.795 343.062 286.941L344.192 289.864C344.006 290.832 344.522 291.691 345.049 292.571C345.546 293.393 346.049 294.233 346.002 295.199L346.532 295.291C346.489 296.128 346.739 296.858 346.989 297.582C347.169 298.11 347.349 298.634 347.412 299.193C347.446 299.44 347.482 299.701 347.519 299.973C347.682 301.149 347.869 302.505 347.822 303.551C347.782 304.268 347.622 304.98 347.462 305.686C347.319 306.325 347.176 306.959 347.126 307.588C347.106 307.82 347.156 308.04 347.206 308.261C347.256 308.475 347.302 308.69 347.292 308.917C347.189 310.304 346.599 311.911 345.979 313.138C345.819 313.452 345.662 313.888 345.496 314.363C345.012 315.728 344.416 317.41 343.262 317.407C343.432 317.979 343.179 318.389 342.902 318.841C342.812 318.989 342.719 319.143 342.636 319.308C342.259 320.061 341.766 320.721 341.272 321.382C340.672 322.186 340.072 322.99 339.679 323.966C339.079 324.198 338.806 324.746 338.619 325.362C337.999 325.452 337.776 325.852 337.539 326.28C337.399 326.536 337.252 326.802 337.012 327.017C336.269 327.68 335.652 328.455 335.036 329.232C334.472 329.939 333.909 330.648 333.249 331.274C333.072 331.443 332.876 331.613 332.676 331.788C331.902 332.464 331.047 333.21 330.82 334.21C330.261 334.443 329.675 335.13 329.188 335.697C329.061 335.847 328.94 335.987 328.828 336.11C328.184 336.807 327.478 337.45 326.777 338.09C326.367 338.467 325.958 338.84 325.564 339.223C325.427 339.36 325.29 339.513 325.149 339.677C324.594 340.307 323.984 341 323.141 340.78L323.177 341.36L321.817 342.13C321.532 342.753 320.681 343.733 320.024 343.83L318.05 345.787L317.52 345.697C317.119 346.903 315.814 347.797 314.669 348.58C314.31 348.827 313.967 349.06 313.672 349.29C313.531 349.4 313.4 349.52 313.271 349.64C312.879 350 312.504 350.343 311.947 350.333C311.597 351.137 310.911 351.587 310.229 352.033C309.498 352.51 308.771 352.987 308.469 353.897L307.361 353.993C307.03 355.323 305.685 356.08 304.345 356.833C303.337 357.397 302.332 357.963 301.764 358.77L301.234 358.677L301.162 359.097L300.632 359.003L296.672 362.197C296.185 362.267 296.027 362.433 295.866 362.92C294.894 363.007 293.56 363.467 293.145 364.46C292.255 364.767 291.045 365.47 290.509 366.303C289.952 366.37 289.435 366.69 288.931 367C288.741 367.12 288.552 367.237 288.364 367.337C288.043 367.51 287.691 367.687 287.325 367.87C285.823 368.62 284.081 369.493 283.191 370.783C282.266 370.687 281.659 371.167 281.071 371.63C280.554 372.037 280.052 372.433 279.362 372.42C279.119 373.15 278.692 373.15 278.026 373.05C277.843 373.41 277.566 373.55 277.265 373.7C277.106 373.777 276.939 373.86 276.777 373.983C275.666 374.797 274.071 375.927 272.633 375.853C272.26 376.72 270.156 377.72 269.311 377.72L269.239 378.137L267.938 377.77C267.897 378.51 267.291 378.167 266.476 378.167L267.142 367.87L267.938 358.677L269.142 346.5L270.142 337.833L271.476 331.167L272.809 321.167L274.142 314.833L276.476 305.833L277.562 305.593C278.664 305.826 279.771 305.638 281.001 305.428C281.171 305.399 281.342 305.37 281.517 305.341C281.733 305.306 281.956 305.286 282.179 305.267C282.784 305.213 283.395 305.159 283.911 304.79C285.229 303.847 285.983 302.482 286.738 301.117C286.987 300.666 287.236 300.215 287.506 299.78C287.712 299.447 287.959 299.147 288.206 298.847C288.563 298.415 288.919 297.983 289.15 297.455C290.071 297.1 291.055 295.498 291.027 294.477C292.048 294.378 292.289 293.49 292.447 292.569C293.145 292.322 293.684 291.835 293.928 291.102C294.798 290.735 295.895 289.455 296.732 288.481C296.954 288.221 297.158 287.984 297.334 287.79C297.44 287.675 297.538 287.557 297.634 287.441C298.032 286.962 298.392 286.528 299.079 286.535L299.549 286.185C299.978 284.778 302.402 282.752 303.822 282.76L304.979 281.743L309.297 279.509L311.67 278.371Z" fill="#D3B99E"></path>
<path d="M259.491 96.8364C262.084 101.188 264.628 105.174 268.22 108.742C264.031 108.861 260.048 108.384 255.904 107.763L253.958 107.481C252.391 107.253 250.825 107.022 249.26 106.788L248.899 105.631C245.871 96.089 241.305 87.9126 232.369 83.0825C231.041 82.4721 229.715 81.9014 228.35 81.3858V80.1724C235.466 78.8117 242.608 78.7266 248.722 83.1612C253.243 87.0364 256.455 91.6951 259.491 96.8364Z" fill="#221225" stroke="black"></path>
</svg><style>@media (prefers-color-scheme: light) { :root { filter: none; } }
@media (prefers-color-scheme: dark) { :root { filter: none; } }
</style></svg>