<?xml version="1.0" encoding="UTF-8"?>
<svg version="1.1" xmlns="http://www.w3.org/2000/svg" width="550" height="500">
<path d="M0 0 C8.29900417 2.18766266 15.9429024 6.60098506 23.484375 10.60546875 C24.24443848 11.00749512 25.00450195 11.40952148 25.78759766 11.82373047 C39.75078107 19.25814283 52.17675963 27.04805723 62.546875 39.16796875 C63.85387917 40.65199381 65.16754626 42.13015443 66.484375 43.60546875 C66.9892041 44.18441895 67.4940332 44.76336914 68.01416016 45.35986328 C69.76600928 47.3460266 71.55821292 49.28900006 73.359375 51.23046875 C73.92406494 51.88345947 74.48875488 52.5364502 75.07055664 53.20922852 C76.81232953 55.04404113 78.24856977 56.4150819 80.484375 57.60546875 C83.74104707 57.60686034 86.45400981 56.73913577 89.484375 55.60546875 C90.31324219 55.34765625 91.14210938 55.08984375 91.99609375 54.82421875 C92.71410156 54.58703125 93.43210937 54.34984375 94.171875 54.10546875 C128.03807175 45.06530512 168.23464501 49.89874691 202.484375 54.60546875 C203.53802246 54.74436523 204.59166992 54.88326172 205.67724609 55.02636719 C230.5909824 58.45642442 256.82108593 67.91497425 278.484375 80.60546875 C278.73445313 79.8784375 278.98453125 79.15140625 279.2421875 78.40234375 C280.59511952 75.35611945 282.17554228 73.36727634 284.359375 70.85546875 C288.29821721 66.16546913 291.86817073 61.32348184 295.359375 56.29296875 C300.78828177 48.49399891 306.52352882 41.0030926 312.484375 33.60546875 C313.85978212 31.89746318 315.23481734 30.18915802 316.609375 28.48046875 C317.24101562 27.69800781 317.87265625 26.91554688 318.5234375 26.109375 C320.75190609 23.26386033 322.86078057 20.34244095 324.984375 17.41796875 C329.53050255 11.35906463 334.09691407 5.38737921 341.546875 2.98046875 C346.23614529 2.53387158 348.47513864 3.16848194 352.484375 5.60546875 C355.35547361 9.475096 356.31898991 13.38634329 357.0859375 18.05859375 C357.21094635 18.79676331 357.3359552 19.53493286 357.4647522 20.29547119 C358.83270551 28.95143553 359.26269903 37.65905165 359.70733643 46.40182495 C360.6469885 64.65638658 362.26397658 82.73722045 364.45159912 100.88137817 C366.04452791 114.1936292 366.86751451 127.2561893 367.03173828 140.65820312 C367.25450088 151.40124451 369.11493729 161.45188501 371.33984375 171.93359375 C372.74910117 178.64939618 373.35643698 185.19133314 373.43603516 192.05029297 C373.49401189 195.11486138 373.6416025 198.17227497 373.77734375 201.234375 C375.14646341 242.04271463 363.32722448 276.80870544 343.75195312 312.30419922 C342.66852703 314.27114344 341.61053431 316.24847556 340.5625 318.234375 C336.50770963 325.63919456 331.40827361 331.83019594 325.81591797 338.10205078 C324.61374679 339.4593977 323.43981254 340.84162644 322.26953125 342.2265625 C293.50170498 375.70866943 246.18419273 394.84870458 203.44140625 401.625 C199.63904028 402.22867714 195.88306458 402.92472889 192.12109375 403.7421875 C178.98686656 406.47538964 166.10295523 407.00725868 152.734375 407.04296875 C151.87958557 407.04905151 151.02479614 407.05513428 150.144104 407.06140137 C126.51184821 407.17147982 104.18058906 403.16651223 82.484375 393.60546875 C81.46053711 393.15494141 80.43669922 392.70441406 79.38183594 392.24023438 C30.62725701 370.59924197 -1.73055181 340.03057274 -21.26513672 289.67333984 C-22.62536564 286.01984846 -23.81682069 282.32928675 -24.91699219 278.58984375 C-25.32593938 277.23424719 -25.75738992 275.88528889 -26.20800781 274.54296875 C-30.00517532 263.1977105 -30.99689444 252.17982589 -31.015625 240.29296875 C-31.02182861 238.99053223 -31.02803223 237.6880957 -31.03442383 236.34619141 C-30.77256856 215.52805903 -26.69899282 195.65077388 -21.52758789 175.54882812 C-20.56934116 171.8213001 -19.63186362 168.08898921 -18.69726562 164.35546875 C-18.08712615 161.94370939 -17.47583972 159.53223984 -16.86328125 157.12109375 C-16.58710464 156.0250885 -16.31092804 154.92908325 -16.02638245 153.79986572 C-14.44617483 147.68438776 -12.59209286 141.80041578 -10.29658508 135.91389465 C-9.24540916 132.80674259 -9.25147677 130.28449074 -9.640625 127.04296875 C-9.76953125 125.85574219 -9.8984375 124.66851562 -10.03125 123.4453125 C-10.19109375 122.17816406 -10.3509375 120.91101563 -10.515625 119.60546875 C-10.65987182 118.23214642 -10.80038308 116.85842751 -10.9375 115.484375 C-11.56727406 109.30979023 -12.27788397 103.15010258 -13.171875 97.0078125 C-15.03041453 84.21812601 -16.39467521 71.4045285 -17.640625 58.54296875 C-17.72689148 57.65519745 -17.81315796 56.76742615 -17.90203857 55.85275269 C-20.69364085 27.00541837 -20.69364085 27.00541837 -20.703125 15.60546875 C-20.71537109 14.79980469 -20.72761719 13.99414062 -20.74023438 13.1640625 C-20.7507471 8.90991157 -20.67880947 5.4000249 -18.515625 1.60546875 C-13.16499286 -1.96161934 -6.19631008 -0.97178155 0 0 Z M-10.515625 8.60546875 C-10.95882352 24.45884408 -9.77367968 39.96378389 -8.11694336 55.72583008 C-7.70349833 59.66441232 -7.30652946 63.60439346 -6.91210938 67.54492188 C-5.62646936 80.19883085 -4.13757419 92.77492404 -2.16479492 105.33959961 C-1.23351385 111.32402164 -0.59218542 117.32182532 -0.078125 123.35546875 C0.09493164 124.9796875 0.09493164 124.9796875 0.27148438 126.63671875 C0.36107422 127.69375 0.45066406 128.75078125 0.54296875 129.83984375 C0.62861084 130.75991211 0.71425293 131.67998047 0.80249023 132.62792969 C0.42557313 136.15585065 -0.81816826 138.39692246 -2.47602844 141.48919678 C-4.17748366 144.9527923 -5.03150986 148.57305485 -5.94140625 152.30859375 C-6.14832596 153.12612122 -6.35524567 153.94364868 -6.56843567 154.78594971 C-7.00468818 156.5148733 -7.43674519 158.24486041 -7.86480713 159.97583008 C-8.50629482 162.56777002 -9.16029869 165.15623926 -9.81787109 167.74414062 C-10.91383478 172.06933888 -11.98944327 176.39925429 -13.05541992 180.73193359 C-13.48919915 182.4889602 -13.92640604 184.24514393 -14.36694336 186.00048828 C-18.25418346 201.49500153 -20.75145593 216.60886292 -21.515625 232.60546875 C-21.60457031 233.90226563 -21.69351563 235.1990625 -21.78515625 236.53515625 C-23.72206055 275.79189199 -1.97978713 316.91897926 23.59375 345.4921875 C35.75595812 358.74002092 50.59335726 367.64083684 66.69067383 375.29345703 C68.92374903 376.35636075 71.14671062 377.43847937 73.36914062 378.5234375 C85.44040657 384.36470228 97.96998169 390.13806389 111.171875 392.85546875 C111.90623779 393.01112305 112.64060059 393.16677734 113.3972168 393.32714844 C135.47771514 397.74278525 158.25813458 397.81458424 180.484375 394.60546875 C181.60634277 394.44949219 182.72831055 394.29351562 183.88427734 394.1328125 C235.5504906 386.84161816 290.62499627 367.9998426 323.20629883 324.78588867 C329.24625592 316.54916399 333.97055642 307.7470317 338.484375 298.60546875 C339.06300293 297.44192871 339.06300293 297.44192871 339.65332031 296.25488281 C344.92938461 285.58512107 349.529758 274.82941409 353.484375 263.60546875 C353.78988281 262.81527344 354.09539062 262.02507812 354.41015625 261.2109375 C356.7171047 255.02358346 357.65860321 248.54847278 358.72265625 242.05859375 C359.18923108 239.23596849 359.71767833 236.44470653 360.33984375 233.65234375 C362.48136745 223.71889111 362.86732944 214.28593179 362.55810547 204.13916016 C362.48725403 201.70440456 362.45444672 199.27149687 362.42578125 196.8359375 C362.16406615 184.71890065 360.12171727 173.13866745 357.73828125 161.2734375 C355.12730943 147.75112057 354.18675554 134.72005613 354.02078247 120.98626709 C353.851644 107.6029196 353.66657428 94.26107012 352.28295898 80.93945312 C351.4900463 73.25218278 351.06990169 65.55952199 350.66522217 57.84454346 C350.74016125 35.04731672 350.74016125 35.04731672 345.484375 13.60546875 C336.66175976 15.13394814 331.06674691 25.66587224 326.11474609 32.4152832 C322.94035481 36.72593412 319.64126599 40.83491709 316.109375 44.85546875 C310.78442648 50.96515676 306.21563514 57.54181764 301.62792969 64.21484375 C298.18055422 69.22088317 294.63556761 74.09321864 290.859375 78.85546875 C287.3808458 83.28061409 284.83557569 87.51120059 282.484375 92.60546875 C279.59350062 94.05090594 277.71792342 93.89637622 274.484375 93.60546875 C271.63944626 92.54023045 268.99042139 91.1289077 266.296875 89.73046875 C224.31898258 68.99545465 177.33209406 61.46658851 130.81054688 61.36523438 C128.12078121 61.35550999 125.43177579 61.32436854 122.7421875 61.29296875 C108.75525059 61.20761296 96.47258857 63.18056201 83.0703125 67.34765625 C79.53892514 67.6997281 78.30263805 66.71588899 75.484375 64.60546875 C66.42555638 56.90483227 57.56034827 48.52807448 49.921875 39.41796875 C43.47183415 31.94064725 35.315604 27.112957 26.671875 22.54296875 C25.70572266 22.02492676 24.73957031 21.50688477 23.74414062 20.97314453 C20.99679207 19.50570567 18.24283945 18.05188421 15.484375 16.60546875 C14.45304443 16.0638208 14.45304443 16.0638208 13.40087891 15.51123047 C3.84374895 10.29152246 3.84374895 10.29152246 -6.71484375 8.55224609 C-7.96910156 8.56980957 -9.22335938 8.58737305 -10.515625 8.60546875 Z " fill="currentColor" transform="translate(103.515625,46.39453125)"/>
<path d="M0 0 C6.34126155 1.04364233 10.20788905 5.7578214 14.5 10.1875 C15.08265625 10.78111328 15.6653125 11.37472656 16.265625 11.98632812 C45.35759416 41.76953209 45.35759416 41.76953209 46.25 54.625 C45.31119203 59.08433786 43.92418345 60.23025066 40.5 63.1875 C38.08155505 64.6839215 35.57094664 65.91339735 33 67.125 C31.95030029 67.63160156 31.95030029 67.63160156 30.87939453 68.1484375 C29.4482257 68.83659307 28.0147918 69.52005834 26.57910156 70.19873047 C24.63321418 71.12414661 22.70230138 72.07488359 20.7734375 73.03515625 C19.65195313 73.58042969 18.53046875 74.12570313 17.375 74.6875 C16.38242188 75.1721875 15.38984375 75.656875 14.3671875 76.15625 C11.18567458 77.30055437 8.85613206 77.50420542 5.5 77.1875 C-0.34065317 72.80701012 -0.96707531 66.32295957 -1.97265625 59.5546875 C-2.10063095 58.7222049 -2.22860565 57.88972229 -2.36045837 57.03201294 C-2.62964517 55.27242891 -2.89590488 53.5123949 -3.15942383 51.75195312 C-3.55818129 49.09131583 -3.96677256 46.43233498 -4.37695312 43.7734375 C-9.40529204 10.86592676 -9.40529204 10.86592676 -5.5 2.1875 C-3.5 0.1875 -3.5 0.1875 0 0 Z M19.5 30.1875 C19.17 30.8475 18.84 31.5075 18.5 32.1875 C19.16 32.1875 19.82 32.1875 20.5 32.1875 C20.17 31.5275 19.84 30.8675 19.5 30.1875 Z M25.5 38.1875 C24.18 39.8375 22.86 41.4875 21.5 43.1875 C24.60551666 43.1875 25.85261084 42.6481285 28.5 41.1875 C27.51 40.1975 26.52 39.2075 25.5 38.1875 Z " fill="currentColor" transform="translate(119.5,80.8125)"/>
<path d="M0 0 C3.56060988 1.35303175 3.78594639 1.76773757 5.3125 5.0625 C5.93141096 6.76554708 6.53387329 8.47461082 7.125 10.1875 C7.39562256 10.97125 7.66624512 11.755 7.94506836 12.5625 C10.38917689 20.50023274 10.58632201 28.04981788 10.5 36.3125 C10.49451645 37.334646 10.49451645 37.334646 10.48892212 38.37744141 C10.29938222 68.48468304 10.29938222 68.48468304 2.78271484 77.86206055 C0.13873123 79.97607926 -2.11697925 79.67577536 -5.39599609 79.55712891 C-9.77711907 78.90388682 -13.34671253 77.00490561 -17.1875 74.875 C-18.00766602 74.42930664 -18.82783203 73.98361328 -19.67285156 73.52441406 C-26.72382992 69.54630025 -34.15129705 64.89595209 -38.875 58.1875 C-38.81095271 54.02442644 -37.57680392 51.16145729 -35.375 47.6875 C-34.83359375 46.82511719 -34.2921875 45.96273437 -33.734375 45.07421875 C-33.12078125 44.12160156 -32.5071875 43.16898438 -31.875 42.1875 C-31.19953125 41.12144531 -30.5240625 40.05539063 -29.828125 38.95703125 C-5.28579665 0.34472587 -5.28579665 0.34472587 0 0 Z M-24.875 47.1875 C-25.205 48.1775 -25.535 49.1675 -25.875 50.1875 C-21.255 50.1875 -16.635 50.1875 -11.875 50.1875 C-11.875 49.8575 -11.875 49.5275 -11.875 49.1875 C-16.165 48.5275 -20.455 47.8675 -24.875 47.1875 Z M-13.875 65.1875 C-8.91253604 69.09976716 -8.91253604 69.09976716 -2.875 70.1875 C-3.205 69.1975 -3.535 68.2075 -3.875 67.1875 C-7.4787898 65.66589986 -9.92720686 65.1875 -13.875 65.1875 Z " fill="currentColor" transform="translate(435.875,91.8125)"/>
<path d="M0 0 C4.94118699 4.82067023 7.20224538 8.8974538 7.875 15.625 C7.17422243 24.31464188 3.00857094 30.92386934 -2.4375 37.5 C-3.05496094 38.32757813 -3.67242187 39.15515625 -4.30859375 40.0078125 C-14.54765108 51.99408512 -32.55146339 55.44819992 -47.55517578 56.67285156 C-63.08126137 57.54292653 -77.89823814 54.38865393 -90.375 44.6875 C-96.0866913 39.31096907 -99.17472402 32.80479012 -99.5625 24.9765625 C-99.2123173 18.03856773 -96.58611164 12.57019965 -91.83984375 7.54296875 C-66.71710654 -13.82157037 -27.20250298 -21.14994606 0 0 Z M-84.625 15.5703125 C-87.00041129 18.09930642 -88.28770709 20.10193286 -88.66015625 23.578125 C-88.24077842 29.26529751 -86.57117729 32.69931101 -82.57421875 36.77734375 C-72.83966187 44.62549656 -58.90828679 44.96192685 -47.01953125 43.984375 C-44.28378089 43.72268657 -44.28378089 43.72268657 -42.4375 41.5 C-43.10136719 41.20867187 -43.76523437 40.91734375 -44.44921875 40.6171875 C-51.16925608 37.49752053 -54.59089754 34.76990369 -58.6875 28.625 C-61.21492183 21.46397147 -60.64468591 15.32471884 -57.4375 8.5 C-55.3307547 5.58072245 -53.00177172 3.02101894 -50.4375 0.5 C-49.7775 -0.16 -49.1175 -0.82 -48.4375 -1.5 C-62.08042423 -1.5 -74.81296233 6.84460757 -84.625 15.5703125 Z " fill="currentColor" transform="translate(419.4375,230.5)"/>
<path d="M0 0 C5.82096494 5.40056192 9.65530354 11.52226288 10.109375 19.58203125 C9.67862494 27.54395979 6.47396342 34.2772501 0.59375 39.6171875 C-11.24638839 48.73036489 -28.48325649 53.55707378 -43.390625 52.14453125 C-44.41027344 52.05171875 -45.42992187 51.95890625 -46.48046875 51.86328125 C-63.280104 49.89796959 -80.41743807 44.67666302 -92.390625 32.14453125 C-96.37500532 26.61781016 -97.1970433 20.84130933 -96.390625 14.14453125 C-91.3111822 3.35071531 -77.93329064 -1.81546175 -67.390625 -5.85546875 C-46.69250566 -12.97569646 -17.92912038 -13.91557546 0 0 Z M-63.453125 3.33203125 C-64.12053711 3.55544189 -64.78794922 3.77885254 -65.47558594 4.0090332 C-77.11854443 7.66899551 -77.11854443 7.66899551 -85.578125 15.45703125 C-86.43910957 18.3049033 -86.70397731 20.19006659 -86.390625 23.14453125 C-80.46609457 31.47740739 -69.13941084 35.80188743 -59.42578125 37.734375 C-56.77750702 38.07304894 -56.77750702 38.07304894 -53.390625 38.14453125 C-54.55121597 35.79811907 -55.74772418 33.49900582 -57.015625 31.20703125 C-59.78479808 24.65143784 -59.47304174 16.25197321 -57.015625 9.64453125 C-56.479375 8.48953125 -55.943125 7.33453125 -55.390625 6.14453125 C-54.99875 5.15453125 -54.606875 4.16453125 -54.203125 3.14453125 C-53.935 2.48453125 -53.666875 1.82453125 -53.390625 1.14453125 C-57.03217006 1.14453125 -60.04371163 2.18500598 -63.453125 3.33203125 Z " fill="currentColor" transform="translate(226.390625,230.85546875)"/>
<path d="M0 0 C4.69001506 2.67606742 8.48126679 5.2111055 11.46875 9.828125 C15.63134351 9.27311253 18.03698521 6.93288581 21.21875 4.328125 C25.97103253 0.61741879 29.30254525 -1.71277015 35.46875 -1.171875 C38.46875 0.328125 38.46875 0.328125 40.46875 2.828125 C41.48993369 7.56270392 40.42978317 10.33108404 37.90625 14.265625 C32.85948375 21.21973718 27.79372463 27.23206249 20.46875 31.828125 C19.80875 31.828125 19.14875 31.828125 18.46875 31.828125 C18.41419876 34.49507448 18.37481608 37.16087998 18.34375 39.828125 C18.32699219 40.57191406 18.31023437 41.31570313 18.29296875 42.08203125 C18.23813657 48.38773218 18.8137284 54.16826886 22.21875 59.640625 C25.41197462 62.74514893 28.11567454 64.68677418 32.6796875 64.9609375 C36.91583943 64.72168639 39.00802398 64.19082421 42.40625 61.515625 C44.49892189 59.02702886 44.49892189 59.02702886 45.40625 56.578125 C46.46875 54.828125 46.46875 54.828125 49.46875 53.953125 C50.95375 53.89125 50.95375 53.89125 52.46875 53.828125 C54.46875 55.828125 54.46875 55.828125 54.84375 58.578125 C54.23412261 63.86156237 51.41960752 67.15194951 47.53125 70.578125 C41.45837265 75.03983081 35.85421302 75.78714764 28.46875 74.828125 C21.84025681 72.64362866 17.44839127 69.49609894 13.46875 63.828125 C12.47219467 62.4922151 11.47286467 61.15836239 10.46875 59.828125 C10.06785156 60.40820312 9.66695313 60.98828125 9.25390625 61.5859375 C4.4927029 68.12854347 -0.7227978 73.2253076 -8.53125 75.828125 C-15.29467725 76.56092973 -21.01072372 76.03599281 -26.53125 71.828125 C-32.05408285 65.90687883 -32.7851227 60.69817875 -32.53125 52.828125 C-31.53125 50.828125 -31.53125 50.828125 -29.71875 50.015625 C-27.53125 49.828125 -27.53125 49.828125 -25.40625 50.703125 C-23.31436791 53.0739247 -23.10271621 54.22281808 -22.53125 57.265625 C-21.96578299 60.20797028 -21.53747737 61.81830492 -19.90625 64.390625 C-16.41743962 66.50227339 -13.41580426 66.744626 -9.53125 65.828125 C-3.49248092 62.78093765 0.87131181 58.03414695 3.46875 51.828125 C5.62405887 44.95989833 7.09792121 37.88789327 8.46875 30.828125 C7.62570312 30.61542969 6.78265625 30.40273438 5.9140625 30.18359375 C1.64002276 28.50208378 -1.22817238 26.13742834 -4.65625 23.140625 C-5.26339844 22.63595703 -5.87054688 22.13128906 -6.49609375 21.61132812 C-10.97245306 17.75424728 -14.96974582 13.58831031 -15.87890625 7.5 C-15.37869098 4.12868615 -14.91375482 2.18812954 -12.40625 -0.171875 C-7.79132691 -1.77706564 -4.53909519 -2.10143296 0 0 Z " fill="currentColor" transform="translate(255.53125,290.171875)"/>
</svg>
