<?xml version="1.0" encoding="UTF-8"?>
<svg version="1.1" xmlns="http://www.w3.org/2000/svg" width="550" height="500">
<path d="M0 0 C6.25260791 6.27012222 9.87387331 15.21751915 13.98046875 22.9296875 C15.55368406 25.77050455 17.21838917 28.47468924 19 31.1875 C22.3430837 36.3070654 25.22615838 41.62262639 28.125 47 C32.53031844 55.1198997 37.29341356 62.66399727 42.75 70.125 C50.49253787 80.76462456 57.75729175 91.38952472 63.75 103.125 C64.06807617 103.74101074 64.38615234 104.35702148 64.71386719 104.99169922 C75.15002545 125.62955659 79.16242588 149.50165537 79.0625 172.4375 C79.06034485 173.11509369 79.0581897 173.79268738 79.05596924 174.49081421 C79.0024139 185.01196145 78.49431915 194.93032391 75.75 205.125 C75.56195801 205.8277002 75.37391602 206.53040039 75.18017578 207.25439453 C70.12352792 225.52993252 60.70394041 241.77604301 49.75 257.125 C49.02167969 258.14851563 48.29335938 259.17203125 47.54296875 260.2265625 C33.20389449 279.81037924 16.87960829 296.18231756 -3.546875 309.36328125 C-5.16997973 310.42111396 -6.77261742 311.51303361 -8.328125 312.66796875 C-57.15586849 348.51983553 -149.75218195 347.72497683 -207.25 339.125 C-251.1085262 332.35328559 -303.91527048 320.86886846 -336.27734375 288.0703125 C-338.13407651 286.23931663 -339.99034275 284.79990174 -342.125 283.3125 C-361.24259374 269.00080783 -364.69475252 242.16038812 -368.25 220.125 C-371.95872167 192.61146017 -368.89262651 162.96234658 -362.25 136.125 C-362.06663086 135.35172363 -361.88326172 134.57844727 -361.69433594 133.78173828 C-358.74142543 121.64782429 -353.92228705 110.8495289 -348.35083008 99.69946289 C-344.2615996 91.4520074 -340.76520207 83.10424869 -337.5 74.5 C-329.49207078 53.63962835 -317.77232332 26.65983839 -300.25 12.125 C-295.91062877 10.8524235 -295.91062877 10.8524235 -293.328125 11.91796875 C-288.14322528 15.87311661 -284.5870104 20.43869931 -280.796875 25.71875 C-278.01786481 29.52488235 -274.93002169 33.03247834 -271.8125 36.5625 C-266.50540433 42.60726443 -261.4913493 48.79079749 -256.67089844 55.23144531 C-255.05274786 57.38786728 -253.42096757 59.53365698 -251.7890625 61.6796875 C-228.90786353 91.86530368 -228.90786353 91.86530368 -225.10565186 99.38957214 C-222.50669524 104.23908694 -222.50669524 104.23908694 -217.9127655 106.87306213 C-214.98663881 107.07337466 -212.19985373 106.97708053 -209.2734375 106.77734375 C-208.18090668 106.73931137 -207.08837585 106.70127899 -205.96273804 106.66209412 C-202.38848096 106.52672299 -198.82107603 106.32665557 -195.25 106.125 C-192.83252202 106.02098776 -190.41487133 105.92091795 -187.99707031 105.82470703 C-180.95955794 105.53082077 -173.92662784 105.16902571 -166.89300919 104.79442215 C-160.67540244 104.46498863 -154.45705304 104.15034498 -148.23828125 103.84375 C-147.55503218 103.80996309 -146.8717831 103.77617619 -146.16782951 103.74136543 C-137.02344266 103.29429492 -127.88507143 102.98036687 -118.73046875 102.84375 C-117.20903259 102.81969337 -117.20903259 102.81969337 -115.65686035 102.79515076 C-111.00149747 102.72696426 -106.34774239 102.6851576 -101.69189453 102.67993164 C-100.07193569 102.66334938 -98.45198086 102.64636783 -96.83203125 102.62890625 C-95.75226265 102.64135376 -95.75226265 102.64135376 -94.65068054 102.65405273 C-91.3666189 102.60351753 -89.57585933 102.37641956 -86.94262695 100.34472656 C-85.38639053 98.3038638 -83.93065963 96.29096609 -82.5859375 94.10546875 C-82.10922607 93.33879883 -81.63251465 92.57212891 -81.14135742 91.78222656 C-80.64095947 90.9672168 -80.14056152 90.15220703 -79.625 89.3125 C-78.54705341 87.58110863 -77.46760958 85.85064859 -76.38671875 84.12109375 C-75.85353027 83.26757324 -75.3203418 82.41405273 -74.77099609 81.53466797 C-72.71473042 78.27698864 -70.58989438 75.06970627 -68.4375 71.875 C-64.84047034 66.53478307 -61.31536704 61.15210079 -57.81640625 55.74707031 C-52.19478787 47.06862624 -46.48382739 38.48864579 -40.47290039 30.07495117 C-37.17444323 25.45441532 -33.96063396 20.78676471 -30.8125 16.0625 C-30.39589111 15.44149414 -29.97928223 14.82048828 -29.55004883 14.18066406 C-27.41980689 10.98160056 -25.47164242 7.74312853 -23.625 4.375 C-21.51172765 0.98787359 -19.31814755 -0.37054173 -15.49609375 -1.46875 C-9.74037808 -2.50978379 -5.18619232 -2.99203403 0 0 Z M-10.25 9.125 C-10.87003906 10.19234375 -11.49007813 11.2596875 -12.12890625 12.359375 C-17.69049056 21.77499271 -23.69802249 30.61738661 -30.34130859 39.30102539 C-37.33306285 48.46527414 -43.84616283 57.94544555 -50.38818359 67.43310547 C-69.6636517 95.30240934 -69.6636517 95.30240934 -77.70703125 104.6640625 C-79.95695782 108.25255298 -81.0262856 112.09011737 -82.25 116.125 C-89.75995842 140.18608638 -99.47080494 167.36256965 -122.25 181.125 C-126.39831778 182.50777259 -130.25953777 182.67790618 -134.5 181.5 C-138.39436911 178.44013856 -139.48801318 173.81576292 -140.25 169.125 C-140.64027038 161.755777 -140.04324228 154.44832604 -139.25 147.125 C-139.9925 148.0840625 -139.9925 148.0840625 -140.75 149.0625 C-141.575 150.073125 -142.4 151.08375 -143.25 152.125 C-143.84425781 152.88425781 -144.43851563 153.64351562 -145.05078125 154.42578125 C-150.27224398 160.78278539 -150.27224398 160.78278539 -155 162.4375 C-158.25 162.125 -158.25 162.125 -160.25 160.65234375 C-162.99612332 157.18214495 -164.14295031 153.55000492 -165.5 149.375 C-165.768125 148.58222656 -166.03625 147.78945312 -166.3125 146.97265625 C-166.96887841 145.02696311 -167.61088477 143.07643182 -168.25 141.125 C-168.58 141.125 -168.91 141.125 -169.25 141.125 C-169.22643433 142.59924438 -169.22643433 142.59924438 -169.20239258 144.10327148 C-169.14764417 147.78775676 -169.11348859 151.47220689 -169.08520508 155.15698242 C-169.07021987 156.74460926 -169.04982454 158.33219543 -169.02368164 159.91967773 C-168.75140935 176.89131723 -168.75140935 176.89131723 -172.25 184.125 C-176.51471377 185.54657126 -179.9929071 186.02610427 -184.28515625 184.3125 C-197.93348474 176.38606603 -205.3983504 161.10691931 -211.25 147.125 C-211.91296458 145.6025492 -212.57881525 144.08134479 -213.25 142.5625 C-213.53488281 141.91023437 -213.81976563 141.25796875 -214.11328125 140.5859375 C-216.99199324 134.35367443 -220.15476097 128.25173172 -223.25 122.125 C-223.58 121.465 -223.91 120.805 -224.25 120.125 C-225.57804535 119.81764549 -226.91457397 119.54666207 -228.25390625 119.29296875 C-235.38792011 117.02876225 -238.46062459 110.45443729 -242.1875 104.4375 C-242.98691755 103.18846369 -243.78853125 101.94083037 -244.59228516 100.69458008 C-246.84267597 97.19033379 -249.05055713 93.66144305 -251.25 90.125 C-251.73581543 89.34866211 -252.22163086 88.57232422 -252.72216797 87.77246094 C-254.22611389 85.36832973 -255.72633221 82.96219746 -257.20947266 80.54516602 C-262.47066748 72.02949932 -268.12140749 63.75912525 -273.6965332 55.44726562 C-277.62383541 49.58814588 -281.5324215 43.72312102 -285.328125 37.77734375 C-285.92520264 36.8430957 -286.52228027 35.90884766 -287.13745117 34.94628906 C-288.22556974 33.23536892 -289.30687221 31.5200878 -290.38012695 29.79980469 C-290.85409912 29.05504883 -291.32807129 28.31029297 -291.81640625 27.54296875 C-292.21802979 26.90125732 -292.61965332 26.2595459 -293.03344727 25.59838867 C-294.28345618 23.8192911 -294.28345618 23.8192911 -297.25 23.125 C-307.03024775 43.74328443 -316.52057752 64.43947171 -324.8359375 85.703125 C-325.68181293 87.86477073 -326.52816047 90.02623178 -327.375 92.1875 C-327.78290771 93.22865967 -328.19081543 94.26981934 -328.61108398 95.3425293 C-331.0824341 101.53597681 -333.83028673 107.41971193 -337.0625 113.25 C-341.1677194 120.65972216 -343.93726701 127.94016058 -346.25 136.125 C-346.60707031 137.3521875 -346.96414063 138.579375 -347.33203125 139.84375 C-353.83832852 163.8220141 -356.90865663 191.42906774 -353.25 216.125 C-352.17105469 216.0528125 -351.09210938 215.980625 -349.98046875 215.90625 C-341.72197854 215.38131047 -333.46252502 214.98757411 -325.1875 214.875 C-324.04800903 214.8430957 -324.04800903 214.8430957 -322.88549805 214.81054688 C-317.25627901 214.77608352 -312.43573389 215.91978057 -307.25 218.125 C-306.25 219.125 -306.25 219.125 -306 222 C-306.25 225.125 -306.25 225.125 -307.51953125 226.6953125 C-318.77708925 235.9961392 -336.43318829 235.96449704 -350.25 237.125 C-349.59 239.105 -348.93 241.085 -348.25 243.125 C-347.3935791 243.02888428 -346.5371582 242.93276855 -345.65478516 242.83374023 C-342.43133796 242.47700627 -339.20704574 242.12965758 -335.98193359 241.78833008 C-334.59481693 241.63965303 -333.20807794 241.48740188 -331.82177734 241.33129883 C-312.23548054 239.13225973 -312.23548054 239.13225973 -306.25 242.125 C-305.92983756 245.5667462 -305.93203459 247.57868545 -307.69140625 250.6015625 C-311.19454576 254.05656727 -314.8369408 255.24809606 -319.4375 256.8125 C-320.25025391 257.10705078 -321.06300781 257.40160156 -321.90039062 257.70507812 C-327.28872544 259.61264296 -332.65070354 260.98263097 -338.25 262.125 C-335.98949202 272.44061521 -325.69572097 282.63176923 -317.046875 288.1796875 C-306.98695067 293.94854964 -296.09722989 298.1054472 -285.25 302.125 C-284.4544873 302.4226123 -283.65897461 302.72022461 -282.83935547 303.02685547 C-254.97333789 313.30112434 -224.69292961 319.95157817 -195.125 322.375 C-194.14926025 322.45540527 -193.17352051 322.53581055 -192.16821289 322.61865234 C-174.83536058 323.83355205 -157.35364838 323.11986392 -140 322.6875 C-139.06866241 322.6647702 -138.13732483 322.64204041 -137.17776489 322.61862183 C-130.8682352 322.46385252 -124.55903248 322.29882631 -118.25 322.125 C-117.19036041 322.09599609 -117.19036041 322.09599609 -116.10931396 322.06640625 C-72.4427052 320.85250406 -27.45092995 313.28274198 6.75 284.125 C7.53117187 283.46628906 8.31234375 282.80757813 9.1171875 282.12890625 C14.13069017 277.79906304 18.52075439 273.21413372 22.75 268.125 C23.96042969 266.69414063 23.96042969 266.69414063 25.1953125 265.234375 C29.89416843 259.66379359 34.47612156 254.03198646 38.75 248.125 C38.42 247.465 38.09 246.805 37.75 246.125 C36.698125 246.29 35.64625 246.455 34.5625 246.625 C18.0614148 248.66180658 18.0614148 248.66180658 12.75 245.125 C11.31264754 242.25029507 11.36827351 240.30605412 11.75 237.125 C19.6723583 229.58805373 31.12787979 228.67206932 41.5690918 227.80810547 C45.60360071 227.45991145 49.17689155 227.1176951 52.75 225.125 C53.08 224.135 53.41 223.145 53.75 222.125 C45.4864898 222.77189467 45.4864898 222.77189467 37.25 223.6875 C28.21248038 224.68621141 20.21583606 224.71656682 11.75 221.125 C10.81724362 218.15713881 10.60940926 216.53673003 11.625 213.5625 C20.61342071 203.25225272 41.45701005 203.96902657 54.13842773 202.85888672 C58.39742657 202.5650635 58.39742657 202.5650635 61.75 200.125 C70.07444201 170.14612714 63.38163454 132.82308928 48.5 106 C43.525565 97.32454316 37.75335247 89.21364192 31.57421875 81.359375 C23.92932301 71.57614462 17.90262337 60.88516019 11.75 50.125 C11.23550293 49.23586914 10.72100586 48.34673828 10.19091797 47.43066406 C4.5492255 37.66050277 -0.38503321 28.17475125 -3.8359375 17.41015625 C-5.40863464 13.7564593 -7.28691447 11.73628106 -10.25 9.125 Z M-186.25 117.125 C-187.31775224 119.08966413 -188.31553465 121.09355359 -189.25 123.125 C-188.92 123.785 -188.59 124.445 -188.25 125.125 C-187.08035398 123.9822081 -185.91435444 122.83568285 -184.75 121.6875 C-184.1003125 121.04941406 -183.450625 120.41132813 -182.78125 119.75390625 C-181.13584524 118.37617073 -181.13584524 118.37617073 -181.25 117.125 C-182.9 117.125 -184.55 117.125 -186.25 117.125 Z M-214.25 118.125 C-215.26111093 121.17413228 -215.26111093 121.17413228 -214.25 124.125 C-213.26 123.795 -212.27 123.465 -211.25 123.125 C-210.03130071 120.62052484 -210.03130071 120.62052484 -209.25 118.125 C-210.9 118.125 -212.55 118.125 -214.25 118.125 Z M-179.25 128.125 C-179.58 128.785 -179.91 129.445 -180.25 130.125 C-179.59 130.125 -178.93 130.125 -178.25 130.125 C-178.58 129.465 -178.91 128.805 -179.25 128.125 Z M-158.25 140.125 C-159.5523998 142.14433138 -159.5523998 142.14433138 -158.47265625 144.5078125 C-157.89837891 145.86519531 -157.89837891 145.86519531 -157.3125 147.25 C-156.93222656 148.16007813 -156.55195313 149.07015625 -156.16015625 150.0078125 C-155.85980469 150.70648438 -155.55945313 151.40515625 -155.25 152.125 C-154.26 151.465 -153.27 150.805 -152.25 150.125 C-152.25 149.465 -152.25 148.805 -152.25 148.125 C-153.24 147.795 -154.23 147.465 -155.25 147.125 C-155.58 144.815 -155.91 142.505 -156.25 140.125 C-156.91 140.125 -157.57 140.125 -158.25 140.125 Z M-130.25 150.125 C-129.25 152.125 -129.25 152.125 -129.25 152.125 Z M-127.25 153.125 C-126.26 154.61 -126.26 154.61 -125.25 156.125 C-125.25 155.135 -125.25 154.145 -125.25 153.125 C-125.91 153.125 -126.57 153.125 -127.25 153.125 Z M-190.25 166.125 C-189.59 166.785 -188.93 167.445 -188.25 168.125 C-188.25 167.465 -188.25 166.805 -188.25 166.125 C-188.91 166.125 -189.57 166.125 -190.25 166.125 Z M-185.25 171.125 C-185.25 171.785 -185.25 172.445 -185.25 173.125 C-184.59 173.125 -183.93 173.125 -183.25 173.125 C-183.25 172.465 -183.25 171.805 -183.25 171.125 C-183.91 171.125 -184.57 171.125 -185.25 171.125 Z " fill="#000000" transform="translate(417.25,79.875)"/>
<path d="M0 0 C9.46149325 8.22738544 16.01876686 21.12835231 17.16015625 33.62109375 C17.31831142 39.23904037 17.28112777 42.82991157 13.875 47.5 C8.07016076 50.63775094 1.30911884 50.68591396 -5.15625 50.921875 C-5.91039185 50.94977112 -6.66453369 50.97766724 -7.44152832 51.00640869 C-9.02815518 51.0625198 -10.61487083 51.11616879 -12.20166016 51.16748047 C-13.81747946 51.22250232 -15.43307092 51.28468046 -17.04833984 51.35400391 C-19.39652911 51.45477021 -21.74461195 51.53439984 -24.09375 51.609375 C-24.80954224 51.64359558 -25.52533447 51.67781616 -26.26281738 51.71307373 C-30.98697852 51.8311568 -34.14384681 51.05733139 -38.125 48.5 C-39.9910862 43.82335947 -38.43064059 40.45778214 -36.68359375 35.984375 C-33.23729288 28.27986278 -29.20912341 20.88126766 -25.125 13.5 C-24.74730469 12.8085791 -24.36960937 12.1171582 -23.98046875 11.40478516 C-22.96767286 9.56840206 -21.92877903 7.75060448 -20.875 5.9375 C-20.29234375 4.92558594 -19.7096875 3.91367188 -19.109375 2.87109375 C-14.43973825 -2.70857063 -6.21328724 -2.98237787 0 0 Z M-0.125 37.5 C-0.785 38.82 -1.445 40.14 -2.125 41.5 C-0.805 41.5 0.515 41.5 1.875 41.5 C1.545 40.18 1.215 38.86 0.875 37.5 C0.545 37.5 0.215 37.5 -0.125 37.5 Z M-14.125 39.5 C-14.125 40.49 -14.125 41.48 -14.125 42.5 C-13.465 41.84 -12.805 41.18 -12.125 40.5 C-12.785 40.17 -13.445 39.84 -14.125 39.5 Z " fill="#000000" transform="translate(417.125,133.5)"/>
<path d="M0 0 C0.92683594 0.05285156 1.85367188 0.10570312 2.80859375 0.16015625 C6.62164935 1.23646556 8.10773397 2.84631314 10.5625 5.9375 C11.67379125 8.56497155 12.51643082 10.90067366 13.25 13.625 C13.45351074 14.3581543 13.65702148 15.09130859 13.86669922 15.84667969 C15.32746146 21.40487412 16.40759483 26.994954 17.1875 32.6875 C17.30569092 33.43733154 17.42388184 34.18716309 17.5456543 34.9597168 C17.98215911 38.81470661 17.8163894 40.58536222 15.5234375 43.765625 C8.69421351 48.77492386 2.70973864 49.50073679 -5.5625 50.0625 C-7.50278176 50.20859783 -9.44289466 50.35695941 -11.3828125 50.5078125 C-12.23375488 50.56727051 -13.08469727 50.62672852 -13.96142578 50.68798828 C-16.50354475 50.94415527 -18.93684238 51.42070081 -21.4375 51.9375 C-25.91584382 52.41732255 -27.71150557 52.47813415 -31.375 49.75 C-33.58413138 46.73754811 -33.95568998 45.56482988 -33.4375 41.9375 C-31.9525 41.4425 -31.9525 41.4425 -30.4375 40.9375 C-30.334375 39.679375 -30.23125 38.42125 -30.125 37.125 C-28.73801004 24.87325535 -25.29755398 14.22868093 -15.48046875 6.37109375 C-6.55616486 -0.50012353 -6.55616486 -0.50012353 0 0 Z M-12.4375 29.9375 C-12.7675 30.5975 -13.0975 31.2575 -13.4375 31.9375 C-12.7775 31.9375 -12.1175 31.9375 -11.4375 31.9375 C-11.7675 31.2775 -12.0975 30.6175 -12.4375 29.9375 Z M6.5625 34.9375 C6.5625 35.5975 6.5625 36.2575 6.5625 36.9375 C7.2225 36.9375 7.8825 36.9375 8.5625 36.9375 C8.5625 36.2775 8.5625 35.6175 8.5625 34.9375 C7.9025 34.9375 7.2425 34.9375 6.5625 34.9375 Z " fill="#000000" transform="translate(132.4375,150.0625)"/>
<path d="M0 0 C8.14980033 4.56592883 12.23180982 11.45412206 15.75 19.9375 C16.5625 22.875 16.5625 22.875 16.75 25.9375 C16.811875 26.71351563 16.87375 27.48953125 16.9375 28.2890625 C17.39159763 38.13730483 15.0864075 48.45861559 8.64453125 56.15625 C-0.66048159 64.90488063 -9.76976126 67.4273086 -22.19921875 67.18359375 C-29.31794891 66.60935559 -34.42926147 63.0555528 -39.25 57.9375 C-46.45983934 48.71694849 -48.28930529 41.54694651 -47.25 29.9375 C-45.28418836 19.81238584 -40.49357559 11.70533294 -32.0625 5.6875 C-21.76466105 -0.58227269 -11.62142484 -5.22096847 0 0 Z M-33.25 18.9375 C-34.06752303 20.51824564 -34.87881997 22.10221223 -35.6875 23.6875 C-36.13996094 24.56921875 -36.59242188 25.4509375 -37.05859375 26.359375 C-39.68822693 32.04972876 -40.28196688 37.9060973 -38.25 43.875 C-34.39672852 49.77532195 -30.27033387 55.90612903 -23.25 57.9375 C-15.26087824 58.78599983 -7.9276556 58.39531523 -1.34765625 53.53125 C4.5576721 48.23767871 7.392447 42.16477216 8.05859375 34.2890625 C8.40570384 27.22233621 8.40570384 27.22233621 5.75 20.9375 C5.37488281 21.54078125 4.99976563 22.1440625 4.61328125 22.765625 C0.05324756 29.88708819 -4.01657547 34.19302516 -12.25 36.9375 C-16.54503296 37.48360385 -20.04924084 37.4444872 -24.0625 35.75 C-29.97052868 30.85477623 -31.16304957 26.30301935 -32.25 18.9375 C-32.58 18.9375 -32.91 18.9375 -33.25 18.9375 Z " fill="#000000" transform="translate(187.25,267.0625)"/>
<path d="M0 0 C4.52856781 4.13752156 7.75303819 10.91092186 8.75 16.9375 C8.68305023 30.07639259 6.71458693 42.61943073 -2.375 52.5625 C-9.41998066 59.2755972 -18.7970492 62.76912914 -28.4375 63.3125 C-39.08237436 63.0178322 -48.2679423 58.85675395 -55.73828125 51.46484375 C-61.04721316 45.59213146 -62.84865337 39.65174824 -62.59375 31.8984375 C-61.27169786 20.51076109 -55.86411434 10.69742186 -47.3125 3.125 C-33.93543061 -6.4755498 -14.12548229 -8.96424837 0 0 Z M-43.25 11.9375 C-48.88239657 17.98582739 -52.76634798 25.31402061 -53.48046875 33.6171875 C-53.2564841 39.07577629 -51.8274292 42.56771639 -48 46.46875 C-41.30686402 52.08620341 -34.96745123 53.30212148 -26.421875 53.21875 C-18.90587257 52.55230644 -12.42899318 49.36311191 -7.25 43.9375 C-2.24443115 36.52859511 -0.86785023 27.72694469 -1.25 18.9375 C-3.44080996 21.12830996 -4.15085477 22.86254946 -5.375 25.6875 C-7.95408904 30.99151942 -11.14583494 34.04371604 -16.25 36.9375 C-21.75795581 38.77348527 -28.06418134 39.00810506 -33.3125 36.4375 C-34.2715625 35.695 -34.2715625 35.695 -35.25 34.9375 C-35.91 34.9375 -36.57 34.9375 -37.25 34.9375 C-37.91666667 33.60416667 -38.58333333 32.27083333 -39.25 30.9375 C-39.5903125 30.32132812 -39.930625 29.70515625 -40.28125 29.0703125 C-42.62980963 23.89969332 -42.39311913 17.51914602 -42.25 11.9375 C-42.58 11.9375 -42.91 11.9375 -43.25 11.9375 Z " fill="#000000" transform="translate(384.25,272.0625)"/>
<path d="M0 0 C3.5625 0.25 3.5625 0.25 7 1 C8.82895197 4.65790394 7.99428938 8.20181455 7 12 C4.27342028 18.57158655 0.94299717 25.08550425 -3 31 C-3.55290918 37.93263053 -0.73362538 44.31566024 3 50 C5.286416 52.37993027 5.286416 52.37993027 8 53 C10.60122542 52.49450467 10.60122542 52.49450467 13 51 C14.42661106 48.42991093 14.42661106 48.42991093 15.25 45.4375 C16.96380952 40.03619048 16.96380952 40.03619048 18 39 C20.9375 38.75 20.9375 38.75 24 39 C26.24189866 42.36284799 26.21797195 43.89577917 25.60546875 47.80859375 C23.94150842 53.83105663 20.18749334 58.58717543 15 62 C9.66832422 63.77722526 5.01095919 63.48228071 0 61 C-2.1328125 59.046875 -2.1328125 59.046875 -4.125 56.75 C-4.78757812 56.00234375 -5.45015625 55.2546875 -6.1328125 54.484375 C-8.15701849 51.79108 -9.58108778 49.0493393 -11 46 C-11.36351562 46.79664063 -11.72703125 47.59328125 -12.1015625 48.4140625 C-15.0610291 54.65170748 -17.63713548 59.59053362 -23 64 C-27.25512532 65.41837511 -30.9469227 65.97568261 -35.12890625 63.98828125 C-43.35141782 58.94574653 -43.35141782 58.94574653 -45 54 C-45.1441942 52.00346488 -45.2205659 50.00151894 -45.25 48 C-45.27578125 46.948125 -45.3015625 45.89625 -45.328125 44.8125 C-45 42 -45 42 -43.484375 40.125 C-42.99453125 39.75375 -42.5046875 39.3825 -42 39 C-37.125 40.875 -37.125 40.875 -36 42 C-35.79700913 44.51708673 -35.68087304 47.0317619 -35.57421875 49.5546875 C-35.20282491 52.13513062 -35.20282491 52.13513062 -33.109375 53.80859375 C-31.04780253 55.16941327 -31.04780253 55.16941327 -28.5625 55.1875 C-23.52936269 52.85507052 -21.77398475 47.8589879 -19.7265625 42.94140625 C-17.40313322 37.55734508 -17.40313322 37.55734508 -17.6484375 31.96875 C-19.35635621 29.48091466 -21.19604374 27.12117856 -23.0625 24.75 C-26.57290103 19.9758546 -28.3188932 16.952673 -28 11 C-26.9375 9 -26.9375 9 -25 8 C-20.82859862 7.24156339 -18.5196097 8.05237231 -15.125 10.375 C-13.3203125 11.7109375 -13.3203125 11.7109375 -12 13 C-12 13.66 -12 14.32 -12 15 C-11.34 15 -10.68 15 -10 15 C-9.79375 14.34 -9.5875 13.68 -9.375 13 C-7.12938713 8.10048102 -3.80714206 3.80714206 0 0 Z " fill="#000000" transform="translate(277,302)"/>
</svg>
