<?xml version="1.0" encoding="UTF-8"?>
<svg version="1.1" xmlns="http://www.w3.org/2000/svg" width="550" height="500">
<path d="M0 0 C7.37302081 4.98763173 9.8776792 16.09519712 11.5625 24.3125 C11.74490234 25.14072266 11.92730469 25.96894531 12.11523438 26.82226562 C12.77511997 29.87563456 13.38829498 32.93659825 14 36 C14.21748398 37.05344604 14.21748398 37.05344604 14.43936157 38.12817383 C17.59487715 53.45456076 19.6638422 68.84886173 21.5625 84.375 C21.85548183 86.73445431 22.14909957 89.09382974 22.44335938 91.453125 C22.87818979 94.94175884 23.31262613 98.43043651 23.74502563 101.91937256 C24.67488246 109.42001654 25.6195171 116.91854177 26.58984375 124.4140625 C26.7125766 125.37019943 26.83530945 126.32633636 26.96176147 127.31144714 C27.58445792 132.0927209 28.30910716 136.82866402 29.16796875 141.57421875 C30.63694247 150.90212563 30.34572968 160.39519 30.3125 169.8125 C30.31134186 170.82622681 30.31018372 171.83995361 30.30899048 172.88439941 C30.27144988 189.56291807 29.40109535 205.91045716 27.41894531 222.47460938 C27.00665248 225.94401994 26.63447219 229.41554178 26.2734375 232.890625 C20.80709968 284.5096039 6.67169136 328.31133513 -28.67431641 367.52734375 C-29.90332499 368.89260706 -31.114575 370.2738 -32.32421875 371.65625 C-34.51355264 374.1403775 -36.74152737 376.57858388 -39 379 C-39.44279297 379.47679199 -39.88558594 379.95358398 -40.34179688 380.44482422 C-66.47591886 408.34452303 -106.26064411 424.85984964 -144.26171875 426.22265625 C-190.26002345 427.2642187 -223.36354291 403.80739697 -255.51831055 373.41992188 C-257.7147666 371.31503006 -259.86122187 369.16332148 -262 367 C-262.74378906 366.26523437 -263.48757813 365.53046875 -264.25390625 364.7734375 C-290.89787279 337.09256533 -306.37996328 295.5769122 -311 258 C-311.13148438 256.99582031 -311.26296875 255.99164063 -311.3984375 254.95703125 C-316.73803751 204.9523987 -302.42675865 153.15279935 -284.671875 106.86328125 C-280.36892721 95.58501904 -276.9983655 84.44585315 -274.5625 72.625 C-272.28136555 61.5659996 -269.7430781 50.63473452 -266.69430542 39.75897217 C-266.28235084 38.28605993 -265.87608412 36.81154142 -265.47634888 35.33526611 C-263.30037822 27.33251802 -260.68080771 19.75419351 -257.05859375 12.28125 C-256.74712906 11.62362671 -256.43566437 10.96600342 -256.11476135 10.28845215 C-253.78151637 5.70330296 -251.22947841 2.95873206 -247 0 C-241.87474929 -0.92422554 -239.0124331 -0.35435886 -234.5625 2.3125 C-219.579666 13.33080404 -210.70320896 32.30888588 -205.16015625 49.56640625 C-202.71231199 56.81103622 -199.82703012 63.89672169 -197 71 C-196.74508789 71.64727051 -196.49017578 72.29454102 -196.22753906 72.96142578 C-195.55528443 74.66486612 -194.87181202 76.36386751 -194.1875 78.0625 C-193.80980469 79.00222656 -193.43210937 79.94195312 -193.04296875 80.91015625 C-192.18175987 83.15936931 -192.18175987 83.15936931 -190 84 C-186.17331571 84.25253739 -182.33402065 84.18969998 -178.5 84.1875 C-176.74743896 84.1884668 -176.74743896 84.1884668 -174.95947266 84.18945312 C-167.05109547 84.14276473 -159.24878547 83.71132738 -151.375 83 C-141.53694872 82.11219236 -131.80391457 81.90284808 -121.9375 82 C-109.09315088 82.12262504 -96.40448727 81.61521194 -83.62597656 80.24658203 C-81.86671569 80.08138554 -80.10119259 79.97348699 -78.33496094 79.92138672 C-72.81562147 79.68127986 -69.60958087 78.76572684 -65.63134766 74.85498047 C-62.59811614 71.4059393 -59.85713591 67.79802897 -57.1875 64.0625 C-56.27411865 62.80179688 -56.27411865 62.80179688 -55.34228516 61.515625 C-48.95224826 52.64328512 -42.82774767 43.62248073 -37.10546875 34.3046875 C-14.04554702 -3.14813985 -14.04554702 -3.14813985 0 0 Z M-242 14 C-242.33 15.32 -242.66 16.64 -243 18 C-242.34 17.67 -241.68 17.34 -241 17 C-241.33 16.01 -241.66 15.02 -242 14 Z M-9.65527344 16.49414062 C-15.01049627 22.41940966 -19.17174583 28.80060553 -23.18334961 35.67559814 C-25.00801088 38.79650395 -26.87023887 41.89474516 -28.734375 44.9921875 C-29.10062988 45.60113861 -29.46688477 46.21008972 -29.84423828 46.8374939 C-39.01379518 62.00128319 -49.36633063 75.57142846 -63 87 C-64.09634766 87.96292969 -64.09634766 87.96292969 -65.21484375 88.9453125 C-75.16136465 97.30108928 -86.72588952 98.1030808 -99.27368164 98.20532227 C-100.04552795 98.21522186 -100.81737427 98.22512146 -101.61260986 98.23532104 C-104.12842896 98.26655644 -106.64426685 98.2915409 -109.16015625 98.31640625 C-110.91849723 98.3370087 -112.67683363 98.35800596 -114.43516541 98.37937927 C-119.03653217 98.43426043 -123.63794108 98.48381774 -128.23937988 98.53222656 C-132.9454315 98.58269142 -137.65142281 98.63824634 -142.35742188 98.69335938 C-151.57156292 98.80052485 -160.7857566 98.90206012 -170 99 C-170.52746826 100.07741455 -171.05493652 101.1548291 -171.59838867 102.26489258 C-172.30887035 103.70404332 -173.01957566 105.14308368 -173.73046875 106.58203125 C-174.24861145 107.64266785 -174.24861145 107.64266785 -174.77722168 108.72473145 C-180.74618278 120.77004645 -189.1416411 130.98231532 -198 141 C-198.45133301 141.51449707 -198.90266602 142.02899414 -199.36767578 142.55908203 C-223.46858038 169.92555064 -256.6162587 192.36734216 -294 195 C-300.36016139 247.58490576 -293.49391802 300.82185618 -260.3671875 344.0625 C-251.85683997 354.62319529 -242.3434453 364.23654812 -232 373 C-231.14019531 373.74894531 -230.28039062 374.49789063 -229.39453125 375.26953125 C-217.89225635 385.1264065 -205.32761154 394.14865355 -191.81933594 401.06054688 C-190.59769351 401.69136814 -189.38720112 402.34422449 -188.18847656 403.01757812 C-167.48567266 414.42414128 -136.61787739 410.90406745 -114.6015625 404.81640625 C-92.17602096 398.14875753 -71.22955016 386.88022592 -54.5078125 370.47705078 C-52.92528466 368.92680897 -51.32263421 367.39920761 -49.71875 365.87109375 C2.18668544 315.85326652 12.2932603 246.10810108 13.95874023 177.15820312 C14.00089813 174.10460437 14.01315621 171.05381945 14 168 C13.99589111 166.72697021 13.99589111 166.72697021 13.99169922 165.42822266 C13.8824602 155.63047536 12.63190622 146.07103884 11.1875 136.390625 C9.68554973 126.10476997 8.3277385 115.8110543 7.10546875 105.48828125 C6.95000076 104.17806 6.79453278 102.86783875 6.63435364 101.51791382 C6.39567036 99.5044188 6.15715612 97.49090415 5.91898632 95.47734833 C2.72636197 68.5036363 -0.96080955 41.70150584 -6 15 C-8.12420966 14.77664906 -8.12420966 14.77664906 -9.65527344 16.49414062 Z M-226 30 C-225.34 31.65 -224.68 33.3 -224 35 C-223.67 34.01 -223.34 33.02 -223 32 C-223.33 31.34 -223.66 30.68 -224 30 C-224.66 30 -225.32 30 -226 30 Z M-229 56 C-228.67 56.99 -228.34 57.98 -228 59 C-227.34 59 -226.68 59 -226 59 C-226 58.34 -226 57.68 -226 57 C-226.99 56.67 -227.98 56.34 -229 56 Z M-239 64 C-239 64.99 -239 65.98 -239 67 C-238.34 67 -237.68 67 -237 67 C-237.33 66.01 -237.66 65.02 -238 64 C-238.33 64 -238.66 64 -239 64 Z M-220 67 C-220 68.32 -220 69.64 -220 71 C-218.02 71.495 -218.02 71.495 -216 72 C-216.66 70.35 -217.32 68.7 -218 67 C-218.66 67 -219.32 67 -220 67 Z M-248 71 C-247.67 71.99 -247.34 72.98 -247 74 C-246.67 73.01 -246.34 72.02 -246 71 C-246.66 71 -247.32 71 -248 71 Z M-268 101 C-268.33 101.99 -268.66 102.98 -269 104 C-268.34 104 -267.68 104 -267 104 C-267.33 103.01 -267.66 102.02 -268 101 Z M-271 104 C-271 104.99 -271 105.98 -271 107 C-270.34 106.01 -269.68 105.02 -269 104 C-269.66 104 -270.32 104 -271 104 Z M-253 125 C-253.33 126.32 -253.66 127.64 -254 129 C-253.34 127.68 -252.68 126.36 -252 125 C-252.33 125 -252.66 125 -253 125 Z M-222 138 C-222.33 138.99 -222.66 139.98 -223 141 C-222.01 141 -221.02 141 -220 141 C-219.67 140.34 -219.34 139.68 -219 139 C-219.99 138.67 -220.98 138.34 -222 138 Z M-233 140 C-233.33 141.65 -233.66 143.3 -234 145 C-233.34 144.67 -232.68 144.34 -232 144 C-232.33 142.68 -232.66 141.36 -233 140 Z M-260 162 C-259 164 -259 164 -259 164 Z M-261 164 C-261.66 165.65 -262.32 167.3 -263 169 C-262.01 168.67 -261.02 168.34 -260 168 C-260.33 166.68 -260.66 165.36 -261 164 Z " fill="#000000" transform="translate(414,37)"/>
<path d="M0 0 C3.4375 0.25 3.4375 0.25 7 1 C10.90277723 6.85416584 10.15816256 14.58943082 10.125 21.4375 C10.13080078 22.62956055 10.13080078 22.62956055 10.13671875 23.84570312 C10.13015684 27.87799981 10.00336198 31.89024929 9.6796875 35.91015625 C9.62280762 36.62437744 9.56592773 37.33859863 9.50732422 38.07446289 C8.8669544 40.50497145 7.95368446 41.44789657 6 43 C0.1142413 44.96191957 -6.37594691 44.67812052 -12 42 C-13.9375 40.3125 -13.9375 40.3125 -15 38 C-14.61653517 31.24371486 -12.07430342 25.21192882 -9.6875 18.9375 C-9.29626953 17.87466797 -8.90503906 16.81183594 -8.50195312 15.71679688 C-4.14268381 4.14268381 -4.14268381 4.14268381 0 0 Z " fill="#000000" transform="translate(394,93)"/>
<path d="M0 0 C3.76955723 3.18962535 6.01129625 5.55658009 7.375 10.375 C7.51180085 18.44624988 3.96008382 23.35898419 -1.3984375 29.01953125 C-11.97940373 39.00842175 -24.81572935 39.56081113 -38.65112305 39.45361328 C-41.12409422 39.4375059 -43.59543713 39.45354519 -46.06835938 39.47265625 C-58.21919496 39.48983948 -68.24470082 38.65558146 -77.5625 30.0625 C-80.8673486 26.58501005 -83.39576084 23.76323946 -83.875 18.875 C-83.44892502 13.67688529 -81.86972024 10.15026742 -78.04296875 6.6875 C-58.58462464 -6.8782301 -20.79049598 -12.54598895 0 0 Z M-30.5625 3.0625 C-29.82 4.2071875 -29.82 4.2071875 -29.0625 5.375 C-27.02661999 10.37987169 -26.72486945 14.72732164 -27.5625 20.0625 C-28.89925846 23.0282831 -30.59396354 25.48726705 -32.5625 28.0625 C-32.8925 28.7225 -33.2225 29.3825 -33.5625 30.0625 C-23.25426665 30.43734485 -15.68560044 28.70581082 -7.5625 22.0625 C-4.66882544 19.26528126 -1.70285934 16.27328009 -1.5625 12.0625 C-2.40172572 8.98533902 -3.4150741 8.1559896 -6.125 6.4375 C-14.28535196 3.17335922 -21.81859852 2.79618828 -30.5625 3.0625 Z M-72.25 13.5 C-74.66747636 15.83465358 -74.66747636 15.83465358 -75.375 18.5 C-74.05008055 22.67859211 -71.18506329 24.74937702 -67.5625 27.0625 C-62.22949662 29.57435396 -57.41557786 30.43610071 -51.5625 30.0625 C-52.201875 29.11375 -52.84125 28.165 -53.5 27.1875 C-57.03738182 21.00335376 -57.18216557 13.90108798 -55.5625 7.0625 C-61.19249936 7.0625 -67.8113891 10.13644833 -72.25 13.5 Z " fill="#000000" transform="translate(397.5625,230.9375)"/>
<path d="M0 0 C13.46398881 -0.33520304 27.99191888 0.97588765 38.734375 9.89453125 C42.96973379 13.94763075 45.30137447 17.08682174 46.265625 22.96875 C46.14207862 26.66827786 45.07293683 28.271452 42.390625 30.78125 C24.13807392 44.78976386 -1.65126567 47.69670475 -23.93896484 44.82373047 C-32.70377841 43.24427043 -39.6902598 40.66583845 -46.234375 34.40625 C-48.77246585 30.52446399 -49.29145726 27.61816232 -48.359375 23.15625 C-44.7616325 13.72174439 -35.84901393 9.92052046 -27.22900391 5.96386719 C-18.29527623 2.10479548 -9.62044147 0.44746239 0 0 Z M2.640625 9.15625 C3.135625 10.331875 3.630625 11.5075 4.140625 12.71875 C6.48606006 19.07376213 5.98132967 24.04891672 3.58984375 30.26171875 C2.49962875 32.43766226 1.14853303 34.25130176 -0.359375 36.15625 C12.03764459 34.85843701 27.14837837 32.95394199 36.640625 24.15625 C36.970625 23.16625 37.300625 22.17625 37.640625 21.15625 C31.9264448 14.9063654 25.27307313 10.11386884 16.640625 9.15625 C11.9683746 9.00992682 7.31317782 9.03812366 2.640625 9.15625 Z M-39.359375 23.15625 C-40.69294277 26.20208626 -40.69294277 26.20208626 -39.359375 29.15625 C-36.87427407 31.19681779 -34.22466475 32.71081365 -31.359375 34.15625 C-30.17255774 30.59579823 -30.26247668 27.71816663 -30.296875 23.96875 C-30.30589844 22.69644531 -30.31492188 21.42414063 -30.32421875 20.11328125 C-30.33582031 19.13746094 -30.34742188 18.16164062 -30.359375 17.15625 C-33.54981298 17.15625 -37.19374417 21.06677322 -39.359375 23.15625 Z " fill="#000000" transform="translate(202.359375,231.84375)"/>
<path d="M0 0 C2.83056148 2.18725205 4.51261552 3.71818458 5.12109375 7.32421875 C5.29752716 13.93528233 3.91011795 17.98158145 -0.25 23.125 C-0.91 23.785 -1.57 24.445 -2.25 25.125 C-2.48375165 31.11349462 -1.45232187 37.98154467 1.75 43.125 C5.02889325 46.58524797 7.98585457 48.98098813 12.8125 49.375 C18.12202685 47.11562687 21.82324882 44.01414663 24.375 38.8125 C25.75 36.125 25.75 36.125 28.3125 35.125 C29.116875 35.125 29.92125 35.125 30.75 35.125 C32.75 37.125 32.75 37.125 33.125 39.875 C32.3050417 46.98130524 27.13548305 50.84167956 22.06640625 55.390625 C17.43645738 58.8572309 13.69918971 59.59095567 8.0859375 58.7890625 C3.85528764 57.5863694 0.92654954 55.08039736 -2.25 52.125 C-2.81976563 51.60808594 -3.38953125 51.09117187 -3.9765625 50.55859375 C-8.61352158 45.81884494 -9.93430425 40.5072785 -11.25 34.125 C-11.65089844 34.94742188 -12.05179687 35.76984375 -12.46484375 36.6171875 C-17.92484222 47.33908926 -25.21816666 59.11438889 -37.25 63.125 C-43.18977698 63.65661515 -48.22048951 63.68245864 -53.25 60.125 C-57.0140631 55.06298411 -57.80850306 50.38023422 -57.25 44.125 C-55.25 41.6875 -55.25 41.6875 -53.25 40.125 C-50.875 41 -50.875 41 -48.25 43.125 C-47.19753553 46.40932381 -46.67949815 49.70824609 -46.25 53.125 C-40.03909611 53.5533382 -37.35270842 53.01277784 -32.25 49.125 C-31.59 49.125 -30.93 49.125 -30.25 49.125 C-29.99089844 48.58230469 -29.73179687 48.03960937 -29.46484375 47.48046875 C-28.03901243 44.71591477 -26.42815295 42.09550969 -24.8125 39.4375 C-20.36845655 32.20975148 -20.36845655 32.20975148 -18.25 24.125 C-19.84676613 20.86134675 -19.84676613 20.86134675 -21.23046875 18.93359375 C-23.19988635 15.43995256 -23.11335013 11.96723762 -22.25 8.125 C-20.07271803 3.70119388 -17.21331587 0.25936594 -12.75 -1.9375 C-7.4536313 -3.35617019 -4.71892128 -2.72245458 0 0 Z " fill="#000000" transform="translate(291.25,263.875)"/>
</svg>
