<?xml version="1.0" encoding="UTF-8"?>
<svg version="1.1" xmlns="http://www.w3.org/2000/svg" width="550" height="500">
<path d="M0 0 C4.2618886 4.21848851 6.16129592 9.54337747 8.375 15 C8.7985376 16.02746338 9.2220752 17.05492676 9.65844727 18.11352539 C13.93520084 28.60823778 17.87219291 39.230062 21.83682251 49.84545898 C26.40337123 62.05269295 31.35091909 73.99488669 36.7109375 85.87890625 C44 102.04018949 44 102.04018949 44 106 C59.4172759 105.93834295 74.83440958 105.86011719 90.25150776 105.76428509 C97.41659891 105.72009806 104.58164837 105.68064703 111.74682617 105.65356445 C129.52838062 105.58397924 147.30416964 105.40249873 165.08283234 105.06877899 C168.96413985 105.00062964 172.84540006 104.94909567 176.72698975 104.89996338 C182.74392018 104.8158431 188.75443292 104.6568917 194.7679348 104.43827248 C196.96528851 104.36832576 199.1635157 104.32141355 201.36187172 104.29935265 C212.11264852 104.63809928 212.11264852 104.63809928 221.63281631 100.61816025 C224.71554867 96.81761016 226.28005341 92.55838332 228 88 C229.22481727 85.9098454 230.48983464 83.84215021 231.8125 81.8125 C234.1274959 78.0985787 236.3746627 74.36892832 238.52734375 70.55859375 C244.34658841 60.26382092 250.59255167 50.53175679 257.56542969 40.98144531 C258.95467915 39.06259768 260.31418277 37.12637738 261.6640625 35.1796875 C266.65239764 28.00865762 271.93091649 21.30523462 278 15 C278.68320312 14.26007812 279.36640625 13.52015625 280.0703125 12.7578125 C282 11 282 11 285 10.5 C288.8548444 11.14247407 289.64252408 11.88214268 292 15 C293.11007339 18.26538195 293.72890653 21.59939828 294.3671875 24.984375 C294.56730942 25.97950607 294.76743134 26.97463715 294.97361755 27.99992371 C295.62256023 31.24715526 296.24925501 34.49822547 296.875 37.75 C297.31816491 39.99834331 297.7624255 42.24647092 298.20776367 44.49438477 C299.29663477 50.01156594 300.36678487 55.53217716 301.43048096 61.05426025 C302.07750142 64.4008628 302.73667396 67.74494891 303.39808655 71.08872986 C316.94601097 139.70962424 333.09021143 229.11976092 291.90527344 291.51855469 C284.67591589 302.03352712 276.45974348 311.65508019 267.7734375 320.98046875 C265.67870962 323.23835767 263.64519297 325.54240723 261.625 327.8671875 C252.50336081 338.3317003 242.79541819 348.29372106 233 358.125 C232.3188916 358.81070068 231.6377832 359.49640137 230.93603516 360.20288086 C227.0885124 364.0386533 223.13073799 367.67825366 219.01806641 371.22705078 C215.47651641 374.33843913 212.09687244 377.62042091 208.6875 380.875 C179.65169801 408.3407039 147.43095127 426.03395797 106.6796875 425.40234375 C77.47581267 424.20294462 47.40805138 409.88558162 24 393 C22.99582031 392.28070313 21.99164063 391.56140625 20.95703125 390.8203125 C14.26380429 385.91703597 8.0924445 380.62299244 2 375 C-1.69436015 371.70687159 -5.43541128 368.47090404 -9.22265625 365.28515625 C-43.31610268 336.52631482 -66.26360237 302.1987746 -70.25469971 257.12342834 C-72.26336044 233.10278378 -72.27523333 209.12895116 -72.19561768 185.03973389 C-72.18470582 180.86968023 -72.18515227 176.69965895 -72.18575573 172.52959347 C-72.18548243 168.46036376 -72.17997868 164.39115465 -72.17275429 160.32193184 C-72.16961199 158.40486365 -72.16761084 156.48779319 -72.16686058 154.57072258 C-72.1428413 125.36524197 -66.79303169 101.05877712 -51 76 C-47.58546581 70.44354017 -44.34829642 64.8352046 -41.3125 59.0625 C-38.27556402 53.29598944 -35.0947266 47.63037151 -31.8125 42 C-27.51692095 34.62962658 -23.26762255 27.23491278 -19.0625 19.8125 C-18.51891846 18.85666016 -17.97533691 17.90082031 -17.4152832 16.91601562 C-15.08039439 12.78805148 -12.82351382 8.68095152 -10.80859375 4.38671875 C-8.22857737 -0.44454303 -5.22468355 -0.63975717 0 0 Z M-4 11 C-4.43530029 11.80328735 -4.43530029 11.80328735 -4.87939453 12.62280273 C-9.74763685 21.59785407 -14.61833626 30.57040643 -19.6328125 39.46484375 C-20.23593262 40.53484619 -20.83905273 41.60484863 -21.46044922 42.70727539 C-22.61228574 44.74616746 -23.76730787 46.78326485 -24.92626953 48.81811523 C-32.88722154 62.91038869 -39.66795451 77.45441634 -46.12915039 92.28466797 C-47.32407824 95.02656761 -48.52582469 97.76540408 -49.72851562 100.50390625 C-50.50299976 102.27326439 -51.27710235 104.04278961 -52.05078125 105.8125 C-52.58050285 107.0205127 -52.58050285 107.0205127 -53.1209259 108.25292969 C-54.09642417 110.49556928 -55.04977132 112.74656235 -56 115 C-56.29705841 115.66490448 -56.59411682 116.32980896 -56.900177 117.01486206 C-59.10032216 122.24828334 -59.41025286 126.86917321 -59.328125 132.5078125 C-59.32670502 133.414245 -59.32528503 134.32067749 -59.32382202 135.25457764 C-59.31468406 138.21169611 -59.28311982 141.16806039 -59.25 144.125 C-59.23669337 146.19547043 -59.22417034 148.26594603 -59.21240234 150.33642578 C-59.16948697 156.55806881 -59.0915094 162.7788989 -59 169 C-58.98690796 169.90548584 -58.97381592 170.81097168 -58.96032715 171.74389648 C-58.53290382 200.07557926 -57.40528997 228.34037594 -54.125 256.5 C-54.04986176 257.16770416 -53.97472351 257.83540833 -53.89730835 258.52334595 C-50.03700797 292.30136744 -35.18536628 317.43477132 -11 341 C-10.40703125 341.60328125 -9.8140625 342.2065625 -9.203125 342.828125 C-5.30454455 346.78714855 -1.31585943 350.55539103 2.8984375 354.17578125 C5.13739053 356.11925907 7.316039 358.11999233 9.5 360.125 C41.49082399 388.88244821 79.66493732 413.14078963 124 411 C129.12938318 410.5127849 134.03990443 409.38029809 139 408 C140.18078125 407.68289063 141.3615625 407.36578125 142.578125 407.0390625 C162.50758058 401.06022583 179.07883152 389.81101828 194.1171875 375.703125 C196.80098722 373.18660819 199.51418442 370.7097241 202.25 368.25 C203.05566406 367.52554687 203.86132812 366.80109375 204.69140625 366.0546875 C206.84060703 364.14186244 209.01014625 362.25563184 211.1875 360.375 C214.47100553 357.52441102 217.53729705 354.51247794 220.5546875 351.3828125 C222 350 222 350 224 349 C224 348.34 224 347.68 224 347 C224.59361328 346.74412109 225.18722656 346.48824219 225.79882812 346.22460938 C228.21865414 344.87835302 229.47054711 343.53961388 231.21875 341.40625 C235.73399879 336.07267253 240.70151046 331.24842712 245.68359375 326.35546875 C249.76359783 322.31973234 253.65465322 318.1998479 257.39648438 313.84863281 C258.84552655 312.17808662 260.32650175 310.55376733 261.84375 308.9453125 C280.65895731 288.96798944 292.22228898 264.7005462 298 238 C298.15307617 237.29649414 298.30615234 236.59298828 298.46386719 235.86816406 C300.53174382 225.97488463 301.43733046 216.00726456 302.1875 205.9375 C302.27153076 204.81480713 302.35556152 203.69211426 302.44213867 202.53540039 C303.43628224 187.64259243 303.06808653 172.82371398 302.1875 157.9375 C302.14365173 157.17931976 302.09980347 156.42113953 302.05462646 155.63998413 C301.33455334 143.38255777 300.1276961 131.27070327 298.41650391 119.109375 C297.96567037 115.74371506 297.57757569 112.37455958 297.19921875 109 C295.33199666 92.61970682 292.81812927 76.41933553 289.9375 60.1875 C289.67992416 58.72529526 289.67992416 58.72529526 289.41714478 57.23355103 C286.82806323 42.47579975 286.82806323 42.47579975 283 28 C277.90996253 31.54467505 274.58468838 36.13488079 270.9375 41.0625 C270.27919189 41.9479248 269.62088379 42.83334961 268.94262695 43.74560547 C259.83743731 56.13887193 251.87892171 69.12908172 244.52416992 82.62426758 C241.41601602 88.32096362 238.08326964 93.83053017 234.59375 99.30078125 C232.94076061 101.92231976 232.94076061 101.92231976 231.9921875 104.68359375 C230.88068853 107.27855001 229.9408978 108.19258401 227.625 109.75 C227.03976562 110.15734375 226.45453125 110.5646875 225.8515625 110.984375 C222.54725783 112.79686279 220.16444063 113.00158624 216.35546875 112.96484375 C215.67806641 112.96162109 215.00066406 112.95839844 214.30273438 112.95507812 C212.90355979 112.94345064 211.50420302 112.89707962 210.10742188 112.81445312 C206.52745677 112.85848297 204.68275308 113.30388929 202.12817383 115.90844727 C197.80675037 121.88181451 194.56608226 128.46776494 191.3125 135.0625 C186.39142937 144.76386048 180.83262736 153.56366831 174.30615234 162.25146484 C172.51074397 164.65496293 170.79378494 167.11256848 169.0625 169.5625 C165.59911313 174.30187151 161.94200244 178.87564601 158.25 183.4375 C157.69449463 184.12465088 157.13898926 184.81180176 156.56665039 185.51977539 C154.33229639 188.25651251 152.13293948 190.86944996 149.609375 193.34765625 C147.76742298 194.85435601 147.76742298 194.85435601 148 197 C147.42765625 197.25007812 146.8553125 197.50015625 146.265625 197.7578125 C143.68867493 199.17069202 141.87541112 200.8489786 139.75 202.875 C132.89689441 209.03496929 126.4217314 212.38550456 117 212 C105.81448343 208.64434503 101.50899291 200.5194535 96 191 C95.43410156 190.03707031 94.86820313 189.07414063 94.28515625 188.08203125 C93.14918745 186.14420213 92.02198323 184.20121574 90.90234375 182.25390625 C89.52828803 179.90362203 88.13007468 177.58711089 86.69140625 175.27734375 C75.35428347 156.89033953 66.88066364 137.50895518 64 116 C63.40574219 115.97494385 62.81148438 115.9498877 62.19921875 115.92407227 C59.46598993 115.80691112 56.73300633 115.68473727 54 115.5625 C53.06542969 115.52318359 52.13085938 115.48386719 51.16796875 115.44335938 C48.44328733 115.31951022 45.72216364 115.17018278 43 115 C42.20940186 114.95174072 41.41880371 114.90348145 40.60424805 114.85375977 C38.44921875 114.6640625 38.44921875 114.6640625 35 114 C33.07557688 111.1958406 32.10220442 109.15326309 31 106 C30.68289062 105.11054688 30.36578125 104.22109375 30.0390625 103.3046875 C29.24408671 101.05507515 28.45882607 98.80202141 27.6796875 96.546875 C25.9675875 91.77414837 23.98636154 87.1198027 22.02783203 82.4440918 C17.89504317 72.5541807 14.14368012 62.83259549 11.43139648 52.46191406 C9.02210988 43.51828514 5.81857941 34.87417476 2.625 26.1875 C2.2089299 25.0557132 2.2089299 25.0557132 1.78445435 23.90106201 C0.19942585 19.59703719 -1.39606244 15.29701177 -3 11 C-3.33 11 -3.66 11 -4 11 Z M144 121 C144 124 144 124 144 124 Z M110 124 C108.36323743 125.9600281 108.36323743 125.9600281 107 128 C110.12197478 126.6910428 110.12197478 126.6910428 112 124 C111.34 124 110.68 124 110 124 Z M92.375 153 C91.42753906 153.8353125 91.42753906 153.8353125 90.4609375 154.6875 C89.97882813 155.120625 89.49671875 155.55375 89 156 C89.66 157.65 90.32 159.3 91 161 C93.40575607 158.81482901 94.79535581 156.74080329 96.1875 153.8125 C96.53167969 153.09707031 96.87585938 152.38164062 97.23046875 151.64453125 C97.48441406 151.10183594 97.73835937 150.55914062 98 150 C95.22957891 150 94.41835044 151.1836885 92.375 153 Z M102 165 C100.35 166.65 98.7 168.3 97 170 C97.99 170.99 98.98 171.98 100 173 C101.06775224 171.03533587 102.06553465 169.03144641 103 167 C102.67 166.34 102.34 165.68 102 165 Z M111 180 C109.28350327 181.73242436 109.28350327 181.73242436 108 184 C108.21717352 186.20800528 108.21717352 186.20800528 109 188 C110.9451 185.08235 111.45276317 183.37462715 112 180 C111.67 180 111.34 180 111 180 Z M110 188 C111 190 111 190 111 190 Z M122 188 C121.62875 188.495 121.2575 188.99 120.875 189.5 C118.22454058 191.62036754 116.30439359 191.28122499 113 191 C112.34 190.67 111.68 190.34 111 190 C112.30613942 193.91841827 113.83129848 196.32640809 117 199 C117.66 199 118.32 199 119 199 C119.69699552 197.54618103 120.38233866 196.08677047 121.0625 194.625 C121.44535156 193.81289062 121.82820312 193.00078125 122.22265625 192.1640625 C122.47917969 191.44992188 122.73570312 190.73578125 123 190 C122.67 189.34 122.34 188.68 122 188 Z " fill="#000000" transform="translate(158,35)"/>
<path d="M0 0 C3.87452582 5.87049367 4.89931592 11.85100085 6.14453125 18.703125 C7.21585538 24.37249246 8.76286758 29.91640041 10.28686523 35.4777832 C12.02648402 41.87760303 13.1643158 47.96451025 13.3125 54.625 C13.36857422 56.28402344 13.36857422 56.28402344 13.42578125 57.9765625 C12.90569594 61.66964537 11.91962479 62.7589907 9 65 C5.42758721 66.19080426 2.16404282 66.16216094 -1.5546875 66.16796875 C-2.66253098 66.17296135 -2.66253098 66.17296135 -3.79275513 66.17805481 C-5.35450621 66.18311412 -6.91626808 66.18546344 -8.47802734 66.18530273 C-10.85923226 66.18748555 -13.239971 66.20564119 -15.62109375 66.22460938 C-17.14062342 66.2275443 -18.66015529 66.22952843 -20.1796875 66.23046875 C-20.88817841 66.23765427 -21.59666931 66.24483978 -22.32662964 66.25224304 C-27.49861859 66.22851618 -31.27426765 65.72573235 -35 62 C-34.75462675 55.49039198 -32.7534632 50.27629492 -30.125 44.375 C-29.73223877 43.47491211 -29.33947754 42.57482422 -28.93481445 41.64746094 C-24.7007048 32.08043855 -19.96703706 22.77014662 -15.20458984 13.45849609 C-13.65742711 10.30082915 -12.30054402 7.07640456 -10.9855957 3.81591797 C-10 2 -10 2 -7 -0.125 C-3.9023076 -1.02849362 -2.9199111 -1.12801395 0 0 Z M-6 13 C-6.99 15.97 -7.98 18.94 -9 22 C-6.35426499 19.77122275 -6.35426499 19.77122275 -4 17 C-4.04497842 14.72476911 -4.04497842 14.72476911 -5 13 C-5.33 13 -5.66 13 -6 13 Z M-5.55078125 42.390625 C-6.13214844 43.00421875 -6.71351563 43.6178125 -7.3125 44.25 C-10.05499241 47.07855389 -12.85296122 49.61587971 -16 52 C-15.67 52.66 -15.34 53.32 -15 54 C-13.01752198 52.21188257 -11.03896272 50.41974481 -9.0625 48.625 C-8.49853516 48.11710937 -7.93457031 47.60921875 -7.35351562 47.0859375 C-4.26615288 44.37315113 -4.26615288 44.37315113 -2 41 C-4.09899314 40.7774611 -4.09899314 40.7774611 -5.55078125 42.390625 Z M0.2734375 50.49609375 C-0.66628906 51.45708984 -0.66628906 51.45708984 -1.625 52.4375 C-2.57246094 53.39462891 -2.57246094 53.39462891 -3.5390625 54.37109375 C-5.11128025 55.75939527 -5.11128025 55.75939527 -5 57 C-2.03 57 0.94 57 4 57 C4 54.36 4 51.72 4 49 C1.87115151 48.78171152 1.87115151 48.78171152 0.2734375 50.49609375 Z " fill="#000000" transform="translate(152,90)"/>
<path d="M0 0 C3.03685598 2.19790718 3.71205344 4.63102137 4.625 8.1875 C4.86476563 9.08855469 5.10453125 9.98960938 5.3515625 10.91796875 C7.05063055 18.99365965 7.21638006 26.90954274 7.24023438 35.14624023 C7.25002917 37.19359655 7.28117518 39.2399837 7.3125 41.28710938 C7.32023437 43.23907227 7.32023437 43.23907227 7.328125 45.23046875 C7.34214355 47.00006958 7.34214355 47.00006958 7.35644531 48.80541992 C6.96432167 52.3197609 6.08163341 54.17440085 4 57 C-1.84853221 61.29238173 -12.33157097 59.46450114 -19.21484375 58.4296875 C-28.85384159 56.73382094 -28.85384159 56.73382094 -31.921875 54.76953125 C-33.52386852 52.14017232 -33.17444919 50.04026813 -33 47 C-32.22485352 44.41723633 -32.22485352 44.41723633 -31.12890625 41.83203125 C-30.72406006 40.86499268 -30.31921387 39.8979541 -29.90209961 38.90161133 C-29.46003174 37.88220459 -29.01796387 36.86279785 -28.5625 35.8125 C-28.1094751 34.75764404 -27.6564502 33.70278809 -27.18969727 32.6159668 C-26.25520012 30.4536085 -25.31467222 28.29384662 -24.36816406 26.13671875 C-23.09919596 23.22742143 -21.87096007 20.30402579 -20.6484375 17.375 C-19.91405076 15.68637018 -19.17721249 13.99880364 -18.4375 12.3125 C-18.12304932 11.54204346 -17.80859863 10.77158691 -17.48461914 9.9777832 C-15.12204571 4.7747535 -12.29705569 2.41888951 -7.30102539 -0.29614258 C-4.47701888 -1.15997396 -2.80391462 -0.84143954 0 0 Z M-5 12 C-6.32 14.64 -7.64 17.28 -9 20 C-6.52733235 19.65555119 -6.52733235 19.65555119 -4 19 C-2.66667905 16.3333581 -3.32897967 14.83319697 -4 12 C-4.33 12 -4.66 12 -5 12 Z M-3 29 C-3.66 29.66 -4.32 30.32 -5 31 C-4.01 31 -3.02 31 -2 31 C-2.33 30.34 -2.66 29.68 -3 29 Z M-23 44 C-23.33 45.65 -23.66 47.3 -24 49 C-21.11424181 48.60196439 -20.17810487 48.20990931 -18.25 45.9375 C-17.8375 45.298125 -17.425 44.65875 -17 44 C-18.98 44 -20.96 44 -23 44 Z " fill="#000000" transform="translate(439,99)"/>
<path d="M0 0 C8.05677611 6.57263314 16.41722817 16.23277318 18.2265625 26.81640625 C19.12625238 39.35306851 17.51658425 48.79134814 9.328125 58.65234375 C-0.41556527 68.6858092 -13.12236909 74.8252704 -27.1484375 75.06640625 C-39.68598367 74.94134345 -53.46207618 72.87610915 -62.7734375 63.81640625 C-69.61598106 54.79096536 -73.65725056 44.36401338 -72.33203125 33.046875 C-70.24814094 19.43050953 -65.39135233 9.22242681 -54.7734375 0.09765625 C-49.11226204 -3.86516657 -42.83129104 -5.47335107 -36.2109375 -7.12109375 C-35.32446533 -7.34506836 -34.43799316 -7.56904297 -33.5246582 -7.79980469 C-21.05531409 -10.63790287 -10.3548707 -7.299635 0 0 Z M-5.7734375 9.81640625 C-5.71542969 11.07195312 -5.65742188 12.3275 -5.59765625 13.62109375 C-5.24893063 24.26573072 -5.13161632 32.51228432 -12.5703125 40.82421875 C-18.83014777 46.80862126 -25.26859381 49.99603697 -33.9609375 50.25390625 C-40.09128284 50.02051747 -43.65685777 48.62324261 -48.3359375 44.62890625 C-54.25931403 37.79424103 -56.9463524 32.22539534 -56.8359375 23.12890625 C-56.83142578 22.42701172 -56.82691406 21.72511719 -56.82226562 21.00195312 C-56.81050677 19.27340087 -56.79257204 17.5448926 -56.7734375 15.81640625 C-62.2266234 22.62527245 -63.96093125 31.19169386 -63.7734375 39.81640625 C-62.66960516 46.35366573 -59.39908363 53.06353214 -54.7734375 57.81640625 C-49.275987 61.43270171 -43.64819046 62.69303594 -37.2109375 63.56640625 C-35.99374023 63.75396484 -35.99374023 63.75396484 -34.75195312 63.9453125 C-22.74536469 65.70899216 -14.04781262 64.03801518 -3.9609375 57.06640625 C2.18627665 52.34183309 7.83342784 46.71083598 9.2265625 38.81640625 C9.49745529 28.13307184 5.57037648 20.03565204 -1.34375 12.09375 C-2.86333264 10.56630183 -2.86333264 10.56630183 -5.7734375 9.81640625 Z " fill="#000000" transform="translate(408.7734375,215.18359375)"/>
<path d="M0 0 C5.98815403 6.8817093 9.30386525 16.59332308 9 25.69140625 C7.64474092 38.49107538 3.44939093 48.79455414 -6.55859375 57.12890625 C-18.00672622 65.16589459 -29.28643066 69.30470954 -43.24609375 67.015625 C-49.96169022 65.73567221 -55.89833168 64.49282115 -61.24609375 60.015625 C-62.10460937 59.30986328 -62.10460937 59.30986328 -62.98046875 58.58984375 C-70.02870028 52.27956808 -73.64620957 43.70285844 -74.484375 34.359375 C-74.7841884 22.87178774 -72.15286638 12.55214058 -64.24609375 4.015625 C-63.18648437 2.85546875 -63.18648437 2.85546875 -62.10546875 1.671875 C-55.20919409 -5.55279369 -49.18189894 -9.44233803 -39.24609375 -10.984375 C-38.38886719 -11.11972656 -37.53164062 -11.25507813 -36.6484375 -11.39453125 C-22.81531334 -13.12615974 -10.27707964 -9.55041745 0 0 Z M-8.24609375 7.015625 C-8.08625 7.73492187 -7.92640625 8.45421875 -7.76171875 9.1953125 C-6.08213432 18.38213035 -6.61628114 28.67718438 -11.98046875 36.56640625 C-18.0995823 43.81210078 -24.70268584 48.00532937 -34.24609375 49.015625 C-40.64747407 49.10265283 -45.26209316 48.30418364 -50.24609375 44.015625 C-56.19099524 37.79421646 -58.40886573 32.97674299 -58.49609375 24.515625 C-58.39038159 19.93300294 -58.08416754 15.52027161 -57.24609375 11.015625 C-63.33915172 16.54545913 -65.42452849 23.86178787 -65.87109375 31.953125 C-65.56058835 39.65566222 -62.7467761 46.63294318 -57.16015625 52.03125 C-49.21853591 57.77150891 -39.85265201 59.07565901 -30.24609375 58.015625 C-19.47609026 55.42964872 -10.44991252 49.23929207 -4.24609375 40.015625 C-0.56199162 32.0464679 0.00352754 23.53221077 -2.49609375 15.140625 C-3.7849349 11.65643722 -5.2852775 9.36385858 -8.24609375 7.015625 Z " fill="#000000" transform="translate(218.24609375,219.984375)"/>
<path d="M0 0 C3.38662191 2.38400358 5.53636581 5.14546322 6.546875 9.1875 C6.9266448 15.26381683 4.91310264 19.46947819 1 24 C-3.38713062 28.3487032 -7.84800793 32.56533862 -13 36 C-12.51357131 42.4857159 -9.49701132 47.33652126 -5.125 52 C-1.86956395 53.53196991 0.43981631 53.42239468 4 53 C7.68722734 51.61728975 10.42524355 50.04501173 12.375 46.5 C12.76472322 44.9411071 13.14194951 43.3789709 13.5 41.8125 C14 40 14 40 16 38 C20.55555556 38.55555556 20.55555556 38.55555556 22 40 C22.43522505 44.05094086 22.45719865 47.79985354 21 51.625 C16.10899409 57.43306952 10.92693865 62.42272926 3.1328125 63.3359375 C-3.56145043 63.42287598 -7.66563249 63.16080666 -13 59 C-16.61934176 55.38065824 -19.54427218 51.50216766 -22 47 C-22.3403125 47.49628906 -22.680625 47.99257813 -23.03125 48.50390625 C-28.25611072 55.8270488 -34.14237894 62.35825337 -43 65 C-47.23327049 65.51910571 -50.77829793 65.43438296 -54.8125 64 C-58.4754493 60.65101779 -60.61543994 56.71091103 -61.31640625 51.76953125 C-61.375 49.625 -61.375 49.625 -61 46 C-59 44 -59 44 -56.5625 43.6875 C-54 44 -54 44 -52.1875 45 C-50.26381554 48.23988962 -50.81717616 51.2825819 -51 55 C-43.73490294 54.96636529 -39.13749346 53.18048504 -34 48 C-29.58724068 43.05950527 -29.58724068 43.05950527 -28.1484375 36.94921875 C-29.1642174 34.62410787 -30.41400082 33.25014927 -32.1875 31.4375 C-37.13627883 25.94680944 -42.20703258 19.26371495 -42.625 11.625 C-41.91176312 7.48822611 -41.16531277 5.74882425 -38 3 C-35.125 1.9375 -35.125 1.9375 -32 2 C-26.83146798 4.58426601 -23.5251314 8.54983411 -20 13 C-19.22076172 11.96939453 -19.22076172 11.96939453 -18.42578125 10.91796875 C-17.72839844 10.01691406 -17.03101563 9.11585938 -16.3125 8.1875 C-15.62800781 7.29417969 -14.94351563 6.40085937 -14.23828125 5.48046875 C-10.05931093 0.84932363 -6.27308077 -1.10054049 0 0 Z " fill="#000000" transform="translate(299,288)"/>
</svg>
