<?xml version="1.0" encoding="UTF-8"?>
<svg version="1.1" xmlns="http://www.w3.org/2000/svg" width="550" height="500">
<path d="M0 0 C2.75 0.46484375 2.75 0.46484375 5.1875 3.2109375 C6.05086791 4.43496768 6.90449146 5.66590962 7.75 6.90234375 C14.77993439 16.5039392 23.42988516 21.78762668 33.87890625 27.34765625 C37.75765976 29.6635717 40.27832119 32.75732554 42.75 36.46484375 C44.66284168 37.4408473 44.66284168 37.4408473 46.875 38.21484375 C59.65979105 43.6824253 70.02279949 57.57952825 77.81640625 68.7109375 C80.65767168 72.75758827 83.66668165 76.67214075 86.6875 80.5859375 C88.75 83.46484375 88.75 83.46484375 90.125 86.1875 C91.46036113 88.82066523 92.49020448 90.55375415 94.75 92.46484375 C99.06166509 93.53869241 103.15252426 93.53939015 107.57469177 93.48782349 C110.90270145 93.45266673 114.23044499 93.47145659 117.55859375 93.48046875 C127.04157494 93.48813089 136.51935834 93.35756489 146 93.15234375 C146.8958783 93.13316895 147.79175659 93.11399414 148.71478271 93.09423828 C175.01089505 92.50193438 201.26160983 90.82692016 227.50805664 89.16381836 C235.62498787 88.65657031 243.73216334 88.31083234 251.86254883 88.12719727 C256.81496816 88.01403121 261.76425421 87.82098382 266.71437073 87.63478088 C270.93586869 87.4881897 275.12945549 87.49028429 279.3515625 87.58984375 C288.61235918 87.79396594 288.61235918 87.79396594 296.66357422 83.84960938 C300.35471217 79.61635821 302.95070525 74.85010751 305.48828125 69.86572266 C307.40290825 66.22244828 309.68209315 62.86032366 312 59.46484375 C312.40726318 58.85237793 312.81452637 58.23991211 313.23413086 57.60888672 C316.7725042 52.30960908 320.66407947 47.35319111 324.75 42.46484375 C325.18699219 41.90539062 325.62398438 41.3459375 326.07421875 40.76953125 C330.44997503 35.21624587 336.26360165 29.44508083 342.75 26.46484375 C345.5625 26.27734375 345.5625 26.27734375 347.75 26.46484375 C347.8015625 25.89636719 347.853125 25.32789062 347.90625 24.7421875 C348.76207916 18.91671401 350.55467409 15.29837925 355.23828125 11.640625 C360.24825531 9.29536498 365.44182638 10.74674667 370.75 11.46484375 C381.47498835 12.22618552 389.96177955 10.98789398 400.10546875 7.55859375 C403.26686664 6.60983554 405.49762121 6.2122318 408.75 6.46484375 C409.41 8.11484375 410.07 9.76484375 410.75 11.46484375 C407.2852616 15.73194263 403.59317667 16.78407504 398.5 18.21484375 C397.75492187 18.43527344 397.00984375 18.65570313 396.2421875 18.8828125 C394.41480965 19.42165469 392.5828255 19.94483279 390.75 20.46484375 C399.40183689 20.80144259 406.60335153 20.40923168 414.75 17.46484375 C416.8359375 16.7421875 416.8359375 16.7421875 418.75 16.46484375 C419.74 17.12484375 420.73 17.78484375 421.75 18.46484375 C421.9375 21.08984375 421.9375 21.08984375 421.75 23.46484375 C419.85667466 24.28317097 417.96022267 25.09426643 416.0625 25.90234375 C415.00675781 26.35480469 413.95101563 26.80726562 412.86328125 27.2734375 C408.40820075 28.97833029 404.42514297 29.59168512 399.66796875 29.5625 C398.73662109 29.55927734 397.80527344 29.55605469 396.84570312 29.55273438 C395.88599609 29.54435547 394.92628906 29.53597656 393.9375 29.52734375 C392.95845703 29.52283203 391.97941406 29.51832031 390.97070312 29.51367188 C388.56373889 29.50193059 386.15690143 29.48550794 383.75 29.46484375 C391.9726901 32.61875228 398.80621816 33.89741712 407.54296875 33.4921875 C409.27716504 33.41992932 411.01454644 33.43553573 412.75 33.46484375 C413.41 34.12484375 414.07 34.78484375 414.75 35.46484375 C414.66771289 38.67404098 414.19564029 40.03405814 411.875 42.27734375 C400.31552907 46.6699427 386.30475928 41.12014261 375.47705078 36.49365234 C371.47971232 34.64301571 367.59475089 32.61637653 363.75 30.46484375 C364.636875 31.41359375 365.52375 32.36234375 366.4375 33.33984375 C378.85434047 47.9823443 378.92997845 67.4477636 378.88037109 85.6784668 C378.8750032 88.02594435 378.88034841 90.37323131 378.88671875 92.72070312 C378.88962323 100.02865447 378.79617353 107.21635572 377.75 114.46484375 C378.71679688 114.68398437 379.68359375 114.903125 380.6796875 115.12890625 C391.54288112 117.71851039 401.13837683 120.797409 407.6328125 130.5390625 C411.42099221 137.06903661 411.87896806 144.81975226 410.1015625 152.1328125 C409.98554688 152.90238281 409.86953125 153.67195312 409.75 154.46484375 C410.90699065 155.91934628 412.07736619 157.36682126 413.3359375 158.734375 C416.76581879 162.93171591 418.54394636 167.75754216 419.1875 173.08984375 C418.14237626 181.1522269 414.04451551 186.68280843 407.9375 191.83984375 C406.8546875 192.64421875 406.8546875 192.64421875 405.75 193.46484375 C406.100625 194.39296875 406.45125 195.32109375 406.8125 196.27734375 C408.81102365 203.38001053 407.71314342 211.1947808 404.12890625 217.609375 C401.16095912 221.60307157 397.21688223 225.23140263 392.75 227.46484375 C391.88525663 230.18660796 391.11698646 232.89666173 390.375 235.65234375 C379.27652509 274.47188004 359.21370701 321.92447821 324.56933594 344.58081055 C320.51215368 347.24165752 316.63865584 350.03750613 312.8125 353.02734375 C298.38749503 363.98109084 281.34184533 371.52485101 264.625 378.27734375 C263.95807129 378.55529785 263.29114258 378.83325195 262.60400391 379.11962891 C249.91663375 384.08635494 236.26904397 385.10981728 222.8125 386.08984375 C222.00197174 386.15077209 221.19144348 386.21170044 220.35635376 386.2744751 C215.52650294 386.63740262 210.69558621 386.98133967 205.86364746 387.31518555 C203.98301962 387.44834464 202.103246 387.59344653 200.22363281 387.74023438 C162.1063025 390.70290839 118.45060887 385.25502836 85.75 364.46484375 C85.11900391 364.06894043 84.48800781 363.67303711 83.83789062 363.26513672 C53.26659013 343.95161635 25.82165232 317.98747685 12.30859375 283.8203125 C11.00763467 280.69578686 9.88446793 278.0937096 7.75 275.46484375 C4.87001128 274.53738976 2.51019581 274.46319502 -0.5078125 274.5 C-5.74365624 274.4328738 -9.42022652 272.15839667 -13.19140625 268.66796875 C-19.54450325 261.82413148 -21.76569992 255.74159016 -21.5546875 246.421875 C-21.13305109 242.32983961 -19.96870423 239.1887029 -18.25 235.46484375 C-18.8275 235.20703125 -19.405 234.94921875 -20 234.68359375 C-26.65217533 231.08033211 -31.20148194 225.16713419 -33.62890625 218.08984375 C-37.02996532 203.71555634 -31.21916014 189.65569264 -24.36425781 177.25048828 C-22.5886564 174.4050131 -20.47386096 171.97153023 -18.25 169.46484375 C-18.53875 168.8821875 -18.8275 168.29953125 -19.125 167.69921875 C-23.08521903 158.95373507 -23.65120845 150.96355695 -20.6875 141.77734375 C-16.61774211 131.92200671 -10.18292531 126.00842762 -1.25 120.46484375 C-0.36570313 119.90539062 0.51859375 119.3459375 1.4296875 118.76953125 C3.75 117.46484375 3.75 117.46484375 5.75 117.46484375 C5.86102051 116.36648193 5.97204102 115.26812012 6.08642578 114.13647461 C6.74661229 108.88428419 8.04336719 103.83724042 9.3671875 98.71875 C9.62501007 97.70820053 9.88283264 96.69765106 10.14846802 95.65647888 C10.69249295 93.52876543 11.23891284 91.40166304 11.78759766 89.27514648 C12.62111578 86.04240841 13.44590078 82.80753527 14.26953125 79.57226562 C14.80156477 77.4959608 15.33410035 75.41978455 15.8671875 73.34375 C16.23298416 71.90897057 16.23298416 71.90897057 16.60617065 70.44520569 C18.09434645 64.69804202 19.78965635 59.06885204 21.75 53.46484375 C20.80680908 53.79806641 19.86361816 54.13128906 18.8918457 54.47460938 C15.38155368 55.71245381 11.86773774 56.94001529 8.3527832 58.16455078 C6.83390291 58.69529266 5.31598376 59.22879373 3.79907227 59.76513672 C1.61463167 60.53695808 -0.5731083 61.29868982 -2.76171875 62.05859375 C-3.43587326 62.29920532 -4.11002777 62.53981689 -4.80461121 62.78771973 C-8.37227929 64.01482898 -11.47021449 64.94742417 -15.25 64.46484375 C-15.91 63.80484375 -16.57 63.14484375 -17.25 62.46484375 C-17.1875 60.02734375 -17.1875 60.02734375 -16.25 57.46484375 C-12.85126423 55.09730803 -9.43369362 53.70123579 -5.51171875 52.421875 C-4.44501953 52.07060547 -3.37832031 51.71933594 -2.27929688 51.35742188 C-1.17650391 51.00099609 -0.07371094 50.64457031 1.0625 50.27734375 C2.18462891 49.90931641 3.30675781 49.54128906 4.46289062 49.16210938 C7.22352819 48.25756005 9.98587867 47.35867905 12.75 46.46484375 C12.13068604 46.45026123 11.51137207 46.43567871 10.87329102 46.4206543 C8.01912227 46.34536958 5.16602251 46.24898061 2.3125 46.15234375 C1.33861328 46.12978516 0.36472656 46.10722656 -0.63867188 46.08398438 C-15.1652832 45.54956055 -15.1652832 45.54956055 -19.25 41.46484375 C-19.375 38.96484375 -19.375 38.96484375 -19.25 36.46484375 C-18.755 35.96984375 -18.755 35.96984375 -18.25 35.46484375 C-16.78998738 35.55649445 -15.33399767 35.71378028 -13.8828125 35.8984375 C-8.27756413 36.52046631 -2.75912051 36.57877884 2.875 36.52734375 C3.83148438 36.52283203 4.78796875 36.51832031 5.7734375 36.51367188 C8.09902758 36.50204392 10.4244776 36.48570477 12.75 36.46484375 C11.84378906 36.02914062 10.93757813 35.5934375 10.00390625 35.14453125 C-9.61721568 25.59970389 -9.61721568 25.59970389 -15.25 18.46484375 C-15.0625 16.15234375 -15.0625 16.15234375 -14.25 14.46484375 C-11.23928103 13.43410397 -9.13968084 13.05443305 -6.19335938 14.41357422 C-3.90665179 15.84148467 -1.69895506 17.34270753 0.5 18.90234375 C2.01315688 19.94629484 3.52866962 20.98684209 5.046875 22.0234375 C5.71041992 22.49064209 6.37396484 22.95784668 7.05761719 23.43920898 C8.70525142 24.63760461 8.70525142 24.63760461 10.75 24.46484375 C10.16992188 23.91957031 9.58984375 23.37429687 8.9921875 22.8125 C-1.73504085 12.45700728 -1.73504085 12.45700728 -4.25 6.46484375 C-3.6390699 0.75182173 -3.6390699 0.75182173 0 0 Z M342.75 38.46484375 C342.42 39.12484375 342.09 39.78484375 341.75 40.46484375 C342.41 40.46484375 343.07 40.46484375 343.75 40.46484375 C343.42 39.80484375 343.09 39.14484375 342.75 38.46484375 Z M358.75 43.46484375 C358.75 44.78484375 358.75 46.10484375 358.75 47.46484375 C359.74 47.13484375 360.73 46.80484375 361.75 46.46484375 C360.76 45.47484375 359.77 44.48484375 358.75 43.46484375 Z M37.0625 49.77734375 C30.51404251 57.38771327 28.85320747 68.94456502 26.39550781 78.46582031 C25.75805963 80.93364163 25.11037033 83.39859004 24.4609375 85.86328125 C22.31379519 94.06451321 20.28580408 102.28457757 18.4375 110.55859375 C18.18021118 111.70817566 18.18021118 111.70817566 17.91772461 112.88098145 C17.05482596 116.63756542 17.05482596 116.63756542 16.75 120.46484375 C16.09 120.46484375 15.43 120.46484375 14.75 120.46484375 C14.234375 121.00109375 13.71875 121.53734375 13.1875 122.08984375 C10.98555204 124.23533151 8.93752118 125.7356283 6.375 127.40234375 C-1.69625896 132.70820415 -6.98071611 137.79163403 -10.625 146.90234375 C-11.41685395 151.41591125 -11.76575339 155.08202853 -10.25 159.46484375 C-8.36795853 162.07240455 -8.36795853 162.07240455 -6.125 164.58984375 C-2.29924511 169.04977783 -2.29924511 169.04977783 -1.8125 173.15234375 C-3.45688811 176.94158592 -5.39573846 178.6501187 -8.40234375 181.37890625 C-11.94886773 185.38280436 -13.49636199 190.4797829 -15.25 195.46484375 C-15.61351563 196.43550781 -15.97703125 197.40617188 -16.3515625 198.40625 C-18.17665306 204.61949309 -18.91941556 212.01328682 -16.03515625 217.9765625 C-12.28151731 222.6134106 -7.7099642 225.1150707 -2.2890625 227.45703125 C-0.25 228.46484375 -0.25 228.46484375 0.75 230.46484375 C1.38778209 236.77180001 -1.14760375 239.75201083 -4.71875 244.68359375 C-6.50987918 247.9368692 -6.67570737 249.80376038 -6.25 253.46484375 C-4.07950176 257.28192686 -2.74063125 258.91577987 1.390625 260.4375 C3.29229705 260.94342612 5.20559013 261.40807823 7.12890625 261.82421875 C11.66915914 262.93390798 11.66915914 262.93390798 13.75 264.46484375 C14.52090838 266.11413299 15.27990898 267.77195503 15.93212891 269.47167969 C17.39790515 273.04379827 19.45460607 276.28527359 21.4375 279.58984375 C21.88029297 280.33121582 22.32308594 281.07258789 22.77929688 281.83642578 C23.67836868 283.33929869 24.57922514 284.84110551 25.48193359 286.34179688 C26.61726561 288.24261458 27.72910618 290.15449209 28.83203125 292.07421875 C33.34841253 299.76402476 38.60726707 306.02815166 44.75 312.46484375 C45.90396075 313.79114929 47.05056574 315.12391411 48.1875 316.46484375 C74.30783105 346.21299856 110.50826251 366.85486744 149.75 372.46484375 C150.78205566 372.61928955 150.78205566 372.61928955 151.83496094 372.77685547 C169.01837525 375.23885213 186.43919682 374.8483308 203.75 374.46484375 C204.54063843 374.44764282 205.33127686 374.43044189 206.14587402 374.41271973 C225.33233037 373.96647804 243.61556178 373.36409204 261.75 366.46484375 C263.03321245 366.01638873 264.3170415 365.56969305 265.6015625 365.125 C279.0754762 360.14801903 297.6830497 353.02837007 307.75 342.46484375 C308.17539062 341.33433594 308.60078125 340.20382812 309.0390625 339.0390625 C311.2402235 334.44074672 313.6071418 333.28092701 318 331.02734375 C327.83420371 325.52715401 332.3941717 319.30979958 337.8828125 309.515625 C339.71673026 306.51920289 341.70717889 303.99576287 344 301.33984375 C360.00961926 282.31313155 369.30262044 258.91145224 376.99609375 235.56787109 C383.48391482 215.88767821 383.48391482 215.88767821 390.75 211.46484375 C392.63331982 208.43515534 392.75376164 206.66797234 392.6875 203.08984375 C391.81803091 199.72789658 391.2344389 198.55840838 389.1875 195.96484375 C387.08846676 193.24772784 386.72516573 192.31583815 386.125 188.71484375 C386.75 185.46484375 386.75 185.46484375 388.6875 183.71484375 C391.22199512 182.68035594 393.70419606 181.84082468 396.3125 181.02734375 C400.01566392 179.82180625 402.6362866 178.9236475 404.75 175.46484375 C405.19199405 171.04490327 404.45779114 169.36407554 401.69921875 165.859375 C400.08916641 164.07984347 398.45020466 162.32597293 396.78125 160.6015625 C394.15802997 157.84213681 393.80144048 156.92780804 393.375 153.08984375 C393.75 149.46484375 393.75 149.46484375 396.25 147.02734375 C397.075 146.51171875 397.9 145.99609375 398.75 145.46484375 C398.42 144.14484375 398.09 142.82484375 397.75 141.46484375 C396.97140625 141.83996094 396.1928125 142.21507812 395.390625 142.6015625 C388.18431628 145.8975355 381.07288989 148.37003491 373.375 150.27734375 C372.54387695 150.48383545 371.71275391 150.69032715 370.85644531 150.90307617 C360.82998592 153.28942161 351.28795364 153.64728078 341 153.65234375 C339.70578125 153.66458984 338.4115625 153.67683594 337.078125 153.68945312 C316.73573605 153.72021279 302.71884915 147.63607885 286.75 135.46484375 C286.17636719 134.8821875 285.60273438 134.29953125 285.01171875 133.69921875 C283.80591513 132.2317375 283.80591513 132.2317375 281.75 132.46484375 C281.36714844 131.59472656 281.36714844 131.59472656 280.9765625 130.70703125 C279.62775365 128.24137432 278.08642336 126.59815372 276.125 124.58984375 C269.23615866 117.01086348 264.64319347 107.88038242 260.75 98.46484375 C252.73824765 98.32547611 244.81306473 98.71269887 236.82110596 99.25537491 C219.94548394 100.38923762 203.07195337 101.01791794 186.16601562 101.47021484 C182.48626996 101.56868863 178.80685286 101.67619942 175.12743473 101.7861557 C158.37677123 102.28290366 141.6421102 102.56125923 124.88366699 102.48757935 C117.67786198 102.45677207 110.48418108 102.50095063 103.28039551 102.68510437 C90.75844084 102.81057886 90.75844084 102.81057886 86.33984375 99.078125 C83.63402142 96.19172241 81.72774218 92.88169147 79.75 89.46484375 C78.42332521 87.81732247 77.07001704 86.19079315 75.6875 84.58984375 C71.98842194 79.98103308 68.84900365 75.080069 65.80639648 70.02197266 C63.5924934 66.30061175 63.5924934 66.30061175 59.75 64.46484375 C59.07725207 63.13456842 58.41211218 61.80044462 57.75 60.46484375 C56.06241388 58.486198 54.37613629 56.63024687 52.5625 54.77734375 C51.87704102 54.03000977 51.87704102 54.03000977 51.17773438 53.26757812 C47.05646043 49.05484734 42.59758003 47.07416513 37.0625 49.77734375 Z M338.72265625 58.4140625 C331.99868456 68.05313031 324.00548626 80.18036701 324.75 92.46484375 C331.3286879 95.7541877 344.74828051 95.52850844 351.75 93.46484375 C354.87639454 88.77525194 354.09579086 84.56482913 353.21484375 79.21484375 C351.31406399 67.03281553 351.31406399 67.03281553 345.75 56.46484375 C342.38194128 55.94799157 341.22331397 56.00976924 338.72265625 58.4140625 Z M322.75 60.46484375 C321.05344828 62.25448084 321.05344828 62.25448084 319.75 64.46484375 C320.08 65.45484375 320.41 66.44484375 320.75 67.46484375 C321.74 67.46484375 322.73 67.46484375 323.75 67.46484375 C323.75 65.15484375 323.75 62.84484375 323.75 60.46484375 C323.42 60.46484375 323.09 60.46484375 322.75 60.46484375 Z M363.75 64.46484375 C363.42 66.44484375 363.09 68.42484375 362.75 70.46484375 C363.74 70.79484375 364.73 71.12484375 365.75 71.46484375 C365.42 69.15484375 365.09 66.84484375 364.75 64.46484375 C364.42 64.46484375 364.09 64.46484375 363.75 64.46484375 Z M312.75 74.46484375 C312.09 76.11484375 311.43 77.76484375 310.75 79.46484375 C312.07 79.46484375 313.39 79.46484375 314.75 79.46484375 C314.42 77.81484375 314.09 76.16484375 313.75 74.46484375 C313.42 74.46484375 313.09 74.46484375 312.75 74.46484375 Z M305.75 85.46484375 C306.08 86.45484375 306.41 87.44484375 306.75 88.46484375 C306.75 87.47484375 306.75 86.48484375 306.75 85.46484375 C306.42 85.46484375 306.09 85.46484375 305.75 85.46484375 Z M363.75 95.46484375 C362.43 97.11484375 361.11 98.76484375 359.75 100.46484375 C361.4 99.80484375 363.05 99.14484375 364.75 98.46484375 C364.42 97.47484375 364.09 96.48484375 363.75 95.46484375 Z M315.75 109.46484375 C316.41 111.44484375 317.07 113.42484375 317.75 115.46484375 C318.41 115.46484375 319.07 115.46484375 319.75 115.46484375 C319.47382467 113.52409514 319.47382467 113.52409514 318.75 111.46484375 C317.76 110.80484375 316.77 110.14484375 315.75 109.46484375 Z M305.75 117.46484375 C306.03109113 119.11251622 306.32518526 120.7579752 306.625 122.40234375 C306.78742188 123.31886719 306.94984375 124.23539062 307.1171875 125.1796875 C307.32601563 125.93378906 307.53484375 126.68789062 307.75 127.46484375 C308.41 127.79484375 309.07 128.12484375 309.75 128.46484375 C310.64724685 126.82153428 310.64724685 126.82153428 310.75 124.46484375 C309.61915563 121.96197966 308.22860484 119.79476653 306.75 117.46484375 C306.42 117.46484375 306.09 117.46484375 305.75 117.46484375 Z M325.75 120.46484375 C325.09 122.44484375 324.43 124.42484375 323.75 126.46484375 C324.41 126.46484375 325.07 126.46484375 325.75 126.46484375 C326.08 124.48484375 326.41 122.50484375 326.75 120.46484375 C326.42 120.46484375 326.09 120.46484375 325.75 120.46484375 Z M297.75 127.46484375 C297.75 129.11484375 297.75 130.76484375 297.75 132.46484375 C298.41 132.46484375 299.07 132.46484375 299.75 132.46484375 C299.42 130.81484375 299.09 129.16484375 298.75 127.46484375 C298.42 127.46484375 298.09 127.46484375 297.75 127.46484375 Z M333.75 128.46484375 C334.75 130.46484375 334.75 130.46484375 334.75 130.46484375 Z M384.75 128.46484375 C385.08 130.11484375 385.41 131.76484375 385.75 133.46484375 C387.4 132.80484375 389.05 132.14484375 390.75 131.46484375 C389.43798827 129.90234566 389.43798827 129.90234566 387.75 128.46484375 C386.76 128.46484375 385.77 128.46484375 384.75 128.46484375 Z M332.75 130.46484375 C333.75 132.46484375 333.75 132.46484375 333.75 132.46484375 Z M316.75 136.46484375 C316.09 138.11484375 315.43 139.76484375 314.75 141.46484375 C316.07 141.79484375 317.39 142.12484375 318.75 142.46484375 C318.42 140.48484375 318.09 138.50484375 317.75 136.46484375 C317.42 136.46484375 317.09 136.46484375 316.75 136.46484375 Z M343.75 139.46484375 C342.76 140.12484375 341.77 140.78484375 340.75 141.46484375 C339.09450469 141.84984266 337.4277567 142.1927751 335.75 142.46484375 C335.75 142.79484375 335.75 143.12484375 335.75 143.46484375 C339.38 143.46484375 343.01 143.46484375 346.75 143.46484375 C346.75 142.47484375 346.75 141.48484375 346.75 140.46484375 C345.76 140.13484375 344.77 139.80484375 343.75 139.46484375 Z M354.75 140.46484375 C354.09 141.12484375 353.43 141.78484375 352.75 142.46484375 C353.74 142.46484375 354.73 142.46484375 355.75 142.46484375 C355.42 141.80484375 355.09 141.14484375 354.75 140.46484375 Z " fill="#000000" transform="translate(82.25,62.53515625)"/>
<path d="M0 0 C9.64884555 8.62237262 16.66380032 26.78761673 18.328125 39.5078125 C18.17414109 43.55758935 16.58808111 45.78613475 13.75 48.4375 C8.57053365 52.64295166 2.48771729 52.20820875 -3.875 52.25 C-4.65230469 52.270625 -5.42960937 52.29125 -6.23046875 52.3125 C-11.55932173 52.34832422 -15.36593896 51.72591826 -20 49 C-21.88073458 46.50981218 -22.0748132 44.87320726 -21.81103516 41.79443359 C-21.39655836 39.06960328 -20.87293461 36.38605943 -20.3125 33.6875 C-19.92001892 31.71234959 -19.52809611 29.73708816 -19.13671875 27.76171875 C-18.93997559 26.7876709 -18.74323242 25.81362305 -18.54052734 24.81005859 C-18.05388126 22.28011441 -17.64033324 19.75609193 -17.26953125 17.20703125 C-15.56373666 5.79301251 -15.56373666 5.79301251 -12 2.0625 C-7.63104123 -0.94115915 -5.06772705 -1.58987515 0 0 Z M-5 9 C-4 11 -4 11 -4 11 Z M-6 13 C-5 15 -5 15 -5 15 Z M-7 15 C-6 19 -6 19 -6 19 Z M-8 20 C-7 22 -7 22 -7 22 Z " fill="#000000" transform="translate(133,127)"/>
<path d="M0 0 C5.80505013 4.90901996 11.01162558 9.86550345 14 17 C13.92495773 20.22681771 13.46818363 21.47979596 11.3125 23.875 C9 25 9 25 6.1875 25.25 C1.90049782 23.56882268 0.43235872 20.88737091 -2.21875 17.23046875 C-5.67068067 12.90798539 -9.40856896 11.42438161 -14.75 10 C-22.69577013 9.36865005 -30.28818343 13.56543075 -36.28515625 18.421875 C-38.8371125 20.77037232 -40.89764599 23.23690616 -43 26 C-43.598125 26.78375 -44.19625 27.5675 -44.8125 28.375 C-45.204375 28.91125 -45.59625 29.4475 -46 30 C-50.75 29.25 -50.75 29.25 -53 27 C-53 18.03095896 -48.18620149 12.20419456 -42.375 5.75 C-31.76810339 -4.50879382 -12.75691816 -8.07674849 0 0 Z " fill="#000000" transform="translate(372,232)"/>
<path d="M0 0 C6.18935873 4.44925283 11.2265065 8.57799666 14.3203125 15.66796875 C14.90960513 19.42470927 14.84600245 20.89965267 12.6953125 24.04296875 C10.3203125 25.66796875 10.3203125 25.66796875 7.5703125 26.35546875 C3.36983639 25.46690649 1.53114241 23.50404285 -1.546875 20.61328125 C-10.08583668 12.82499752 -19.03616124 8.97069158 -30.62890625 9.32421875 C-41.54627567 10.55434488 -49.60810524 16.22498708 -56.9296875 24.10546875 C-59.6796875 26.66796875 -59.6796875 26.66796875 -62.4296875 27.16796875 C-64.6796875 26.66796875 -64.6796875 26.66796875 -66.6796875 24.66796875 C-67.32867581 21.36402827 -67.5387263 19.83534493 -66.6796875 16.66796875 C-64.08331159 12.91113588 -60.97286969 9.81729899 -57.6796875 6.66796875 C-56.98746094 5.99121094 -56.29523438 5.31445312 -55.58203125 4.6171875 C-40.22114823 -9.64430827 -17.56947374 -11.43993065 0 0 Z " fill="#000000" transform="translate(220.6796875,240.33203125)"/>
<path d="M0 0 C2 2 2 2 2.4375 4.4375 C2 7 2 7 0.07861328 8.61181641 C-4.18303685 10.53344548 -8.06496967 10.59906744 -12.6953125 10.7734375 C-14.69035847 10.87414783 -16.68539383 10.97506858 -18.68041992 11.07617188 C-20.25586075 11.14856079 -20.25586075 11.14856079 -21.86312866 11.22241211 C-39.71076411 12.05731109 -57.44894046 13.3536953 -75.1875 15.5 C-76.08383148 15.60804962 -76.98016296 15.71609924 -77.90365601 15.8274231 C-88.77986448 17.1494021 -99.63489667 18.60840308 -110.4777832 20.1809082 C-116.66446425 21.04571308 -122.75209511 21.35589332 -129 21 C-129.625 18.125 -129.625 18.125 -130 15 C-127.70503368 12.70503368 -126.94490706 12.63233428 -123.8269043 12.17797852 C-122.95853439 12.04756668 -122.09016449 11.91715485 -121.19548035 11.78279114 C-119.77420586 11.58286812 -119.77420586 11.58286812 -118.32421875 11.37890625 C-117.34056839 11.23438522 -116.35691803 11.0898642 -115.34346008 10.94096375 C-112.12611886 10.47180333 -108.907059 10.01617485 -105.6875 9.5625 C-104.04044067 9.32714539 -104.04044067 9.32714539 -102.36010742 9.08703613 C-85.27245838 6.64728222 -68.20650521 4.42136967 -51 3 C-50.21911011 2.93532532 -49.43822021 2.87065063 -48.63366699 2.80401611 C-42.38216076 2.28867993 -36.12914732 1.79465666 -29.875 1.3125 C-28.58094238 1.2118927 -28.58094238 1.2118927 -27.26074219 1.10925293 C-4.90276579 -0.61083842 -4.90276579 -0.61083842 0 0 Z " fill="#000000" transform="translate(447,268)"/>
<path d="M0 0 C3.76868343 0.84603097 6.17047294 3.0268264 9.10546875 5.47265625 C11.33240344 4.43872229 13.07938561 3.49604113 14.91796875 1.84765625 C18.11215918 -0.16012059 20.41812478 0.00335793 24.10546875 0.47265625 C26.10546875 1.97265625 26.10546875 1.97265625 27.10546875 4.47265625 C27.22221448 11.47740021 24.68063433 15.33982123 20.10546875 20.47265625 C19.54601562 20.99472656 18.9865625 21.51679688 18.41015625 22.0546875 C16.83744982 23.44280055 16.83744982 23.44280055 17.10546875 25.84765625 C18.66833478 29.95017958 21.45543482 32.35489133 25.04296875 34.78515625 C27.94316111 35.75188704 30.06408007 35.84507119 33.10546875 35.47265625 C36.28043063 33.38006774 37.99007732 31.64574339 40.10546875 28.47265625 C43.10546875 28.09765625 43.10546875 28.09765625 46.10546875 28.47265625 C48.10546875 31.47265625 48.10546875 31.47265625 47.98046875 33.84765625 C46.08513554 39.53365587 42.15703582 42.52590879 37.10546875 45.47265625 C31.97263881 47.52578823 26.48319389 46.96303299 21.41796875 45.16015625 C16.56308912 42.68691568 12.91283241 40.37620594 9.10546875 36.47265625 C8.23535156 37.30410156 8.23535156 37.30410156 7.34765625 38.15234375 C6.56648438 38.87679687 5.7853125 39.60125 4.98046875 40.34765625 C4.21476562 41.06695312 3.4490625 41.78625 2.66015625 42.52734375 C-2.20955565 46.235473 -6.88912926 46.76540164 -12.89453125 46.78515625 C-14.07015625 46.80191406 -15.24578125 46.81867188 -16.45703125 46.8359375 C-21.45514232 46.30772803 -24.71001377 44.59642925 -28.33203125 41.16015625 C-29.89453125 38.47265625 -29.89453125 38.47265625 -29.70703125 35.22265625 C-28.89453125 32.47265625 -28.89453125 32.47265625 -27.89453125 31.47265625 C-25.01953125 31.16015625 -25.01953125 31.16015625 -21.89453125 31.47265625 C-21.20230469 32.44332031 -21.20230469 32.44332031 -20.49609375 33.43359375 C-19.06460893 35.64846043 -19.06460893 35.64846043 -16.66015625 36.1875 C-10.78565184 36.70744837 -6.96923132 36.61897029 -1.89453125 33.47265625 C1.24846214 30.00245875 1.24846214 30.00245875 1.9765625 25.59765625 C0.75764103 22.62414378 -1.13412524 20.74169494 -3.33203125 18.41015625 C-9.75669566 11.5523684 -9.75669566 11.5523684 -10.26953125 7.53515625 C-9.89453125 4.47265625 -9.89453125 4.47265625 -8.39453125 2.09765625 C-5.55323908 0.25081634 -3.38316343 -0.14599017 0 0 Z " fill="#000000" transform="translate(269.89453125,279.52734375)"/>
<path d="M0 0 C2 2 2 2 2.125 4.625 C2.08375 5.40875 2.0425 6.1925 2 7 C-4.28575668 10.30527631 -10.76405844 11.10060642 -17.74414062 12.07662964 C-19.92204051 12.38158678 -22.09779178 12.6991536 -24.2734375 13.01977539 C-30.30225092 13.90517617 -36.33463017 14.76510011 -42.36816406 15.61767578 C-61.38895775 18.30984841 -79.93555983 21.73806897 -98.52880859 26.67089844 C-100.07298241 27.08053212 -101.61793879 27.48723214 -103.16381836 27.89038086 C-105.07617608 28.39191318 -106.9836838 28.91184482 -108.890625 29.43359375 C-112.02373758 30.00432406 -113.9781113 29.93193283 -117 29 C-118 28 -118 28 -118.0625 25.4375 C-118.041875 24.633125 -118.02125 23.82875 -118 23 C-113.50120803 20.54276867 -109.08414081 19.0741279 -104.12109375 17.9140625 C-103.36529022 17.73203278 -102.60948669 17.55000305 -101.83078003 17.36245728 C-99.36850967 16.77371832 -96.90346962 16.19803451 -94.4375 15.625 C-93.58787689 15.42579956 -92.73825378 15.22659912 -91.86288452 15.0213623 C-68.54545884 9.57119603 -45.02852498 5.88405529 -21.31958008 2.61035156 C-20.23258316 2.45953125 -20.23258316 2.45953125 -19.12362671 2.30566406 C-17.15162396 2.03282025 -15.17921819 1.76289392 -13.20678711 1.49316406 C-2.45599849 -0.16017381 -2.45599849 -0.16017381 0 0 Z " fill="#000000" transform="translate(235,282)"/>
<path d="M0 0 C0.81281213 0.02007016 1.62562426 0.04014032 2.46306705 0.06081867 C3.86164448 0.08805515 3.86164448 0.08805515 5.28847599 0.11584187 C6.82751842 0.16163631 6.82751842 0.16163631 8.39765263 0.2083559 C10.01483189 0.24458057 10.01483189 0.24458057 11.66468143 0.28153706 C15.24341843 0.36476424 18.82153911 0.463298 22.39984989 0.56309223 C24.87843977 0.6265036 27.35704211 0.68942983 29.83565617 0.75188923 C35.03703491 0.88552457 40.23812841 1.02706168 45.43915653 1.17368793 C50.7885088 1.32448068 56.13800864 1.46297193 61.48798466 1.58970356 C67.9356551 1.74270217 74.38279032 1.90986587 80.8297987 2.08856869 C83.29172935 2.15487902 85.75378792 2.21660003 88.21594906 2.27371502 C91.65467491 2.35520261 95.0923812 2.45513553 98.53046513 2.5599184 C99.55446918 2.58032688 100.57847324 2.60073536 101.63350773 2.62176228 C102.5687125 2.65401905 103.50391727 2.68627583 104.46746159 2.71951008 C105.68724532 2.75244301 105.68724532 2.75244301 106.93167114 2.78604126 C109.52533289 3.30745154 110.47426909 4.09026065 112.02875614 6.20762348 C111.60770351 10.62867611 111.60770351 10.62867611 110.02875614 12.20762348 C107.29731053 12.31436734 104.59684305 12.34434187 101.86469364 12.32871723 C100.9544846 12.32585209 100.04427555 12.32298695 99.10648441 12.32003498 C84.66741496 12.22895163 70.23122409 11.79764093 55.79779911 11.40806293 C51.49869038 11.2920614 47.19946461 11.18131595 42.90017986 11.07205772 C39.53340633 10.98587138 36.16671423 10.89677768 32.80003834 10.80686474 C31.21595837 10.76491121 29.63185481 10.72383725 28.04772663 10.68374538 C23.04002861 10.55607314 18.03450819 10.39641779 13.02875614 10.20762348 C12.31709042 10.18358826 11.60542469 10.15955303 10.87219334 10.13478947 C8.79101901 10.05948025 6.71179756 9.96375277 4.63178349 9.86167622 C3.43097141 9.80849735 2.23015934 9.75531849 0.99295902 9.70052814 C-1.97124386 9.20762348 -1.97124386 9.20762348 -3.89565182 7.79565144 C-4.97124386 6.20762348 -4.97124386 6.20762348 -4.78374386 4.14512348 C-3.70605498 1.57525 -2.86041013 0.30127592 0 0 Z " fill="#000000" transform="translate(325.9712438583374,289.7923765182495)"/>
<path d="M0 0 C0.6875 2.3125 0.6875 2.3125 1 5 C-1.47737443 8.59774649 -5.76480936 9.80936785 -9.65625 11.40625 C-10.42235596 11.7272467 -11.18846191 12.04824341 -11.9777832 12.37896729 C-13.62496378 13.0676956 -15.27362068 13.75290159 -16.92358398 14.43493652 C-19.52043097 15.50844595 -22.11307652 16.59160707 -24.70507812 17.67675781 C-32.36161263 20.87492817 -40.03139462 24.03260499 -47.75 27.078125 C-59.47024468 31.70980555 -70.67656265 36.59734266 -81.58789062 42.94238281 C-87.34105076 46.26395869 -93.41729298 49.74678302 -100 51 C-102.82421875 50.09545898 -102.82421875 50.09545898 -105 49 C-105 47.02 -105 45.04 -105 43 C-103.989375 42.5771875 -102.97875 42.154375 -101.9375 41.71875 C-98.21699236 40.12318159 -94.6057426 38.33777776 -91 36.5 C-76.64724045 29.27908899 -62.29783865 22.06952863 -47.29345703 16.28930664 C-41.67483214 14.112518 -36.14321285 11.77656887 -30.625 9.359375 C-29.12817242 8.70790542 -27.63126431 8.05662083 -26.13427734 7.40551758 C-23.88949935 6.42883044 -21.64744334 5.44751653 -19.41192627 4.44979858 C-17.31413739 3.51415603 -15.20893261 2.59740855 -13.1015625 1.68359375 C-12.47419189 1.39760315 -11.84682129 1.11161255 -11.20043945 0.81695557 C-7.07106573 -0.94749688 -4.33622627 -1.13272004 0 0 Z " fill="#000000" transform="translate(232,294)"/>
</svg>
