<?xml version="1.0" encoding="UTF-8"?>
<svg version="1.1" xmlns="http://www.w3.org/2000/svg" width="550" height="500">
<path d="M0 0 C8.85118435 7.91948073 10.22952657 22.07561799 12.19921875 33.13671875 C14.24649796 44.50590075 16.40826428 55.85025494 18.625 67.1875 C18.91080933 68.65381363 18.91080933 68.65381363 19.20239258 70.14974976 C22.22863351 85.65076205 25.44537224 101.10249928 28.89941406 116.51391602 C29.05931824 117.23484436 29.21922241 117.95577271 29.38397217 118.69854736 C29.8088073 120.61213834 30.23911993 122.52451106 30.66992188 124.43676758 C32.12387582 132.04233622 32.53225122 139.49882529 32.54296875 147.23046875 C32.54733948 148.17932953 32.55171021 149.12819031 32.55621338 150.10580444 C32.70812342 195.85262716 29.7448494 239.04510851 13.375 282.125 C12.98521973 283.16624023 12.59543945 284.20748047 12.19384766 285.28027344 C1.44938867 313.70879927 -15.18430144 334.97767765 -35.625 357.125 C-36.23214844 357.80949219 -36.83929688 358.49398438 -37.46484375 359.19921875 C-60.48536721 383.97183279 -105.69441265 398.2032168 -138.625 400.125 C-161.69207146 400.77013961 -185.36181327 399.41036048 -207.625 393.125 C-208.31029785 392.93566895 -208.9955957 392.74633789 -209.70166016 392.55126953 C-225.28596013 388.08894507 -237.78327364 378.84445942 -249.625 368.125 C-250.71735974 367.15484862 -251.80980833 366.18479728 -252.90234375 365.21484375 C-260.12859218 358.73181143 -266.79091231 351.84809421 -273.265625 344.61962891 C-274.51476582 343.24620216 -275.80262053 341.90824967 -277.09375 340.57421875 C-283.25924183 334.1236785 -287.63171637 327.04672884 -291.625 319.125 C-291.97530273 318.43245117 -292.32560547 317.73990234 -292.68652344 317.02636719 C-314.14379667 273.78408161 -321.84581172 225.18325175 -321.875 177.3125 C-321.87567474 176.31400024 -321.87634949 175.31550049 -321.87704468 174.28674316 C-321.86068726 159.0208353 -321.33602206 144.18507841 -318.625 129.125 C-318.44275879 128.09084961 -318.26051758 127.05669922 -318.07275391 125.99121094 C-315.59066446 112.19353078 -312.46837992 98.60389576 -308.625 85.125 C-308.3269043 84.06958008 -308.02880859 83.01416016 -307.72167969 81.92675781 C-304.35198572 70.05723759 -300.93278972 58.44734268 -296.0703125 47.1015625 C-293.5469628 40.66302921 -292.17635155 33.79332165 -290.62841797 27.06958008 C-290.39525879 26.07079834 -290.16209961 25.0720166 -289.921875 24.04296875 C-289.71916992 23.14344482 -289.51646484 22.2439209 -289.30761719 21.31713867 C-288.625 19.125 -288.625 19.125 -286.625 17.125 C-283.49206559 16.20672612 -281.77272711 15.72874357 -278.625 16.125 C-275.52359735 18.00445001 -273.14820678 20.54059604 -270.625 23.125 C-264.06152107 29.55378067 -257.04669752 34.66666765 -249.3815918 39.67138672 C-240.33994368 45.57833253 -231.83532655 52.11243394 -223.3671875 58.8125 C-220.17199771 61.2196385 -218.08383185 61.26020317 -214.125 61.25 C-213.1453125 61.25257812 -212.165625 61.25515625 -211.15625 61.2578125 C-208.3989661 61.15410934 -205.74975946 60.93658636 -203.01327515 60.63130188 C-197.96074753 60.11679075 -192.9571498 59.94450337 -187.88134766 59.89135742 C-186.96235687 59.87812943 -186.04336609 59.86490143 -185.0965271 59.85127258 C-183.11386005 59.82289681 -181.13116783 59.79623671 -179.14845657 59.77113914 C-175.97038729 59.72957049 -172.79251761 59.68042351 -169.61459351 59.62898254 C-160.58191587 59.48289444 -151.54926617 59.33990261 -142.51611328 59.22631836 C-110.86025945 58.88006065 -110.86025945 58.88006065 -79.27235031 56.93703651 C-77.76028313 56.8070159 -76.2467366 56.69296183 -74.73213577 56.59685326 C-68.69762308 56.1951641 -63.51225013 55.78351568 -58.79670715 51.63949585 C-56.53149294 48.89427931 -54.5644101 46.10541262 -52.625 43.125 C-51.57393145 41.8554722 -50.50512945 40.59987127 -49.40234375 39.375 C-48.93103027 38.83528564 -48.4597168 38.29557129 -47.97412109 37.73950195 C-47.27536865 36.94032349 -47.27536865 36.94032349 -46.5625 36.125 C-43.00187786 32.02009686 -39.63799923 27.88141406 -36.5 23.4375 C-28.70747493 12.49892443 -15.51207184 -5.17069061 0 0 Z M-19.625 23.125 C-23.26538848 26.9463223 -26.54675128 30.99743138 -29.75 35.1875 C-33.53318623 40.12097934 -37.61454541 44.77483812 -41.70751953 49.45068359 C-45.81470234 54.1532478 -49.7646596 58.94710625 -53.625 63.85546875 C-56.25471759 66.83958187 -59.05335629 69.33917814 -62.625 71.125 C-63.41613046 72.45116825 -64.14989966 73.81189871 -64.8515625 75.1875 C-67.43125529 79.96512885 -70.50708 83.98692674 -74 88.125 C-75.16216496 89.52675821 -76.32363028 90.92909677 -77.484375 92.33203125 C-78.30711914 93.32130615 -78.30711914 93.32130615 -79.14648438 94.33056641 C-80.89680915 96.45488726 -82.58241357 98.62278093 -84.25 100.8125 C-88.44211447 106.25599193 -92.91886742 111.46070595 -97.38818359 116.67675781 C-98.39775439 117.85890822 -99.39758396 119.04937197 -100.39453125 120.2421875 C-111.13055942 132.90798276 -124.33920742 148.44431852 -141.8125 150.5 C-145.81728252 149.966029 -148.43903119 148.64981704 -150.9375 145.4375 C-153.59319086 136.50472165 -150.54692205 127.53978373 -146.4375 119.625 C-143.31008443 114.03375914 -139.7710494 109.00196388 -135.625 104.125 C-139.91628307 104.125 -141.99320083 106.66216995 -145.125 109.3125 C-151.68629915 114.72006626 -158.49906262 119.58357033 -165.55664062 124.3190918 C-170.04179254 127.33567423 -174.42742918 130.4319134 -178.73608398 133.69555664 C-187.02012177 139.96452927 -195.82127104 146.30211031 -206.625 146.125 C-211.12027358 144.61592947 -213.97058168 143.10662748 -216.625 139.125 C-217.74823686 128.07983755 -211.30903085 120.92854704 -204.6875 112.7890625 C-196.7637342 103.22886681 -188.54929119 94.65290735 -178.625 87.125 C-177.95227051 86.61453125 -177.27954102 86.1040625 -176.58642578 85.578125 C-171.95161928 82.06793313 -167.295121 78.58803828 -162.625 75.125 C-169.34548052 75.125 -174.13095375 79.00445978 -178.9375 83.3125 C-180.07984392 84.30700734 -181.22308041 85.30049031 -182.3671875 86.29296875 C-182.92245117 86.77813965 -183.47771484 87.26331055 -184.04980469 87.76318359 C-188.80524727 91.87444502 -193.80374228 95.70341979 -198.7578125 99.5703125 C-205.20592372 104.60565106 -211.57802386 109.71395448 -217.875 114.9375 C-251.68440424 142.90196722 -251.68440424 142.90196722 -261.71484375 142.62890625 C-264.16766844 141.98184207 -265.04843233 141.0974545 -266.625 139.125 C-267.42920056 132.4396605 -264.25016536 126.42204753 -261.125 120.75 C-260.67286133 119.91637939 -260.22072266 119.08275879 -259.75488281 118.22387695 C-256.03588528 111.53735881 -251.89798909 105.69048156 -246.625 100.125 C-246.10921387 99.57505371 -245.59342773 99.02510742 -245.06201172 98.45849609 C-238.13077097 91.11894662 -231.05572618 84.55991687 -222.7578125 78.796875 C-222.05398437 78.24515625 -221.35015625 77.6934375 -220.625 77.125 C-220.625 76.465 -220.625 75.805 -220.625 75.125 C-221.78515625 74.59712891 -221.78515625 74.59712891 -222.96875 74.05859375 C-230.61597738 70.43373226 -237.30853917 66.65012655 -242.3828125 59.7265625 C-245.21419309 56.44137178 -248.38008251 54.40169656 -252 52.0625 C-257.72713965 48.24484617 -263.15229395 44.23570397 -268.375 39.75 C-268.94653809 39.26265381 -269.51807617 38.77530762 -270.10693359 38.27319336 C-272.62170597 36.07644575 -274.81055287 33.89145931 -276.890625 31.2734375 C-277.46296875 30.56445312 -278.0353125 29.85546875 -278.625 29.125 C-279.285 29.125 -279.945 29.125 -280.625 29.125 C-280.8209375 29.90617187 -281.016875 30.68734375 -281.21875 31.4921875 C-283.3805388 39.85980106 -285.81602456 48.12030019 -288.375 56.375 C-288.71837402 57.4889917 -289.06174805 58.6029834 -289.41552734 59.75073242 C-290.82391601 64.31778753 -292.2322676 68.88451362 -293.67480469 73.44091797 C-300.94253913 96.40517785 -306.52520655 120.07282046 -308.625 144.125 C-308.73457031 145.34445313 -308.84414063 146.56390625 -308.95703125 147.8203125 C-312.01205101 188.14657329 -307.29573428 229.40768615 -295.625 268.125 C-295.36638184 268.99157227 -295.10776367 269.85814453 -294.84130859 270.75097656 C-290.52009376 284.99644932 -284.89284571 298.63102238 -278.625 312.125 C-278.21830078 313.0113916 -277.81160156 313.8977832 -277.39257812 314.81103516 C-274.91356781 320.0210431 -272.39537564 323.98706952 -268.375 328.125 C-267.40707527 329.13886793 -266.43963477 330.15319834 -265.47265625 331.16796875 C-264.9945752 331.66216309 -264.51649414 332.15635742 -264.02392578 332.66552734 C-261.90325972 334.87797791 -259.85848587 337.15610459 -257.8125 339.4375 C-256.72195313 340.64792969 -256.72195313 340.64792969 -255.609375 341.8828125 C-253.88616724 343.82990159 -252.21887204 345.80882415 -250.5625 347.8125 C-247.2554285 351.6752312 -243.54657827 354.89878146 -239.625 358.125 C-239.12967773 358.5379834 -238.63435547 358.9509668 -238.12402344 359.37646484 C-219.05461098 375.19917003 -199.37007092 383.01961828 -174.625 385.125 C-172.82869141 385.28935547 -172.82869141 385.28935547 -170.99609375 385.45703125 C-166.87176174 385.77428756 -162.75795666 385.97107238 -158.625 386.125 C-157.7469873 386.16431641 -156.86897461 386.20363281 -155.96435547 386.24414062 C-120.08099758 387.69845498 -74.20294961 375.54560983 -47.0625 350.5625 C-43.35230733 347.01659855 -39.80712061 343.32532879 -36.515625 339.38671875 C-35.01181336 337.58773747 -33.48218001 335.83122092 -31.921875 334.08203125 C-14.02309608 313.88022941 -3.52418259 292.47185531 5.375 267.125 C5.67180664 266.30612305 5.96861328 265.48724609 6.27441406 264.64355469 C10.29574262 253.42466522 12.41934358 242.00129413 14.1875 230.25 C14.34575256 229.22099579 14.34575256 229.22099579 14.50720215 228.17120361 C17.47194847 208.55045373 17.56180285 188.7330068 17.56030273 168.92700195 C17.56251499 165.66539931 17.58084666 162.40412265 17.59960938 159.14257812 C17.64923355 142.05866588 15.6095732 126.38395726 11.7774353 109.75680542 C6.28509257 85.83637568 2.10357414 61.74074364 -1.875 37.53125 C-2.05828857 36.41886963 -2.24157715 35.30648926 -2.43041992 34.16040039 C-2.75352168 32.18647732 -3.07190288 30.21177163 -3.3840332 28.23608398 C-4.16373561 23.40211177 -5.17157562 18.80261469 -6.625 14.125 C-12.14078484 14.125 -15.8461706 19.43270868 -19.625 23.125 Z M-218.625 85.125 C-220.5198204 86.09729848 -220.5198204 86.09729848 -222.3125 87.5625 C-222.93511719 88.03558594 -223.55773437 88.50867188 -224.19921875 88.99609375 C-224.66972656 89.36863281 -225.14023438 89.74117188 -225.625 90.125 C-225.295 90.785 -224.965 91.445 -224.625 92.125 C-221.655 90.145 -218.685 88.165 -215.625 86.125 C-216.615 85.795 -217.605 85.465 -218.625 85.125 Z M-171.5625 91.375 C-172.36977539 91.96861328 -172.36977539 91.96861328 -173.19335938 92.57421875 C-176.18071254 94.82117982 -178.56595824 96.99697838 -180.625 100.125 C-173.68501352 97.96336487 -167.19382431 95.2313786 -160.625 92.125 C-161.285 91.795 -161.945 91.465 -162.625 91.125 C-163.25 89.0625 -163.25 89.0625 -163.625 87.125 C-166.88984282 87.125 -169.05235382 89.47075117 -171.5625 91.375 Z M-106.625 94.125 C-107.98118499 95.25034105 -107.98118499 95.25034105 -107.6875 98.1875 C-107.666875 99.156875 -107.64625 100.12625 -107.625 101.125 C-106.965 101.125 -106.305 101.125 -105.625 101.125 C-104.965 98.815 -104.305 96.505 -103.625 94.125 C-104.615 94.125 -105.605 94.125 -106.625 94.125 Z M-119.625 98.125 C-119.955 98.785 -120.285 99.445 -120.625 100.125 C-119.965 100.125 -119.305 100.125 -118.625 100.125 C-118.955 99.465 -119.285 98.805 -119.625 98.125 Z M-237.33203125 101.69921875 C-240.98215535 105.36288691 -244.51470086 108.97793448 -247.625 113.125 C-247.295 113.785 -246.965 114.445 -246.625 115.125 C-244.6420112 113.83889867 -242.66366624 112.54650861 -240.6875 111.25 C-239.58535156 110.53070313 -238.48320312 109.81140625 -237.34765625 109.0703125 C-234.57118034 107.40716717 -234.57118034 107.40716717 -233.625 105.125 C-233.90442455 103.44845271 -234.23328247 101.77891846 -234.625 100.125 C-235.88949469 100.01201155 -235.88949469 100.01201155 -237.33203125 101.69921875 Z M-130.625 110.125 C-130.955 111.115 -131.285 112.105 -131.625 113.125 C-130.635 112.795 -129.645 112.465 -128.625 112.125 C-128.625 111.465 -128.625 110.805 -128.625 110.125 C-129.285 110.125 -129.945 110.125 -130.625 110.125 Z M-192.625 111.125 C-195.265 114.095 -197.905 117.065 -200.625 120.125 C-200.295 120.785 -199.965 121.445 -199.625 122.125 C-197.61992073 121.00907791 -195.62103904 119.88201288 -193.625 118.75 C-192.51125 118.12351562 -191.3975 117.49703125 -190.25 116.8515625 C-189.38375 116.28179687 -188.5175 115.71203125 -187.625 115.125 C-187.625 114.465 -187.625 113.805 -187.625 113.125 C-190.1 112.135 -190.1 112.135 -192.625 111.125 Z M-136.625 118.125 C-138.275 121.425 -139.925 124.725 -141.625 128.125 C-140.305 128.455 -138.985 128.785 -137.625 129.125 C-135.84202131 123.71558098 -135.84202131 123.71558098 -136.625 118.125 Z M-252.625 121.125 C-253.49127399 122.72266103 -254.34266465 124.32839944 -255.1875 125.9375 C-255.66316406 126.83082031 -256.13882813 127.72414062 -256.62890625 128.64453125 C-257.96228333 131.19144576 -257.96228333 131.19144576 -256.625 134.125 C-252.72317002 131.52378001 -252.70179384 129.58600304 -251.625 125.125 C-251.41875 124.320625 -251.2125 123.51625 -251 122.6875 C-250.814375 121.9140625 -250.814375 121.9140625 -250.625 121.125 C-251.285 121.125 -251.945 121.125 -252.625 121.125 Z M-208.625 132.125 C-208.295 133.445 -207.965 134.765 -207.625 136.125 C-206.965 135.135 -206.305 134.145 -205.625 133.125 C-206.615 132.795 -207.605 132.465 -208.625 132.125 Z " fill="#000000" transform="translate(419.625,42.875)"/>
<path d="M0 0 C6.01198087 6.01198087 4.26736024 22.7229767 4.375 30.75 C4.40094238 31.79752441 4.42688477 32.84504883 4.45361328 33.92431641 C4.47146654 41.23106052 4.47146654 41.23106052 2.359375 44.67578125 C-3.73032182 48.093674 -12.09701592 46.49360848 -18.5625 44.6875 C-21.88229146 43.62942144 -24.54700559 42.51740565 -27 40 C-28.50162648 35.02283481 -27.9821434 31.95173493 -25.59912109 27.35473633 C-25.23641113 26.70142334 -24.87370117 26.04811035 -24.5 25.375 C-24.13342285 24.68494873 -23.7668457 23.99489746 -23.38916016 23.28393555 C-22.63550328 21.86916189 -21.87458914 20.45823017 -21.10644531 19.05126953 C-20.07168718 17.13290285 -19.08625481 15.19828037 -18.1171875 13.24609375 C-9.94116188 -2.86764285 -9.94116188 -2.86764285 0 0 Z " fill="#000000" transform="translate(408,85)"/>
<path d="M0 0 C1.8359375 2.01171875 1.8359375 2.01171875 3.375 4.6875 C3.9525 5.67878906 4.53 6.67007813 5.125 7.69140625 C5.74375 8.78324219 6.3625 9.87507813 7 11 C7.72510268 12.17829185 8.45437694 13.35402531 9.1875 14.52734375 C17.02064542 27.25836843 17.02064542 27.25836843 16 34 C14.64878689 38.34813449 12.63075873 40.54945805 8.9375 43.1875 C7.64077725 43.82482544 6.32587616 44.42578226 5 45 C4.18273437 45.37253906 3.36546875 45.74507812 2.5234375 46.12890625 C-4.07689033 48.85843664 -10.87632681 50.43955357 -18 49 C-20.34765625 47.59375 -20.34765625 47.59375 -22 45 C-23.19037323 37.87723501 -21.29794722 31.70966967 -18.75 25.125 C-18.1004112 23.37803183 -17.45196942 21.63063672 -16.8046875 19.8828125 C-16.49112305 19.04782227 -16.17755859 18.21283203 -15.85449219 17.35253906 C-14.73536358 14.27141813 -13.8089508 11.14147086 -12.875 8 C-11.74421576 4.61243874 -10.9740508 2.96927069 -8.625 0.1875 C-5.21641526 -1.35447881 -3.57084829 -1.01631836 0 0 Z " fill="#000000" transform="translate(155,89)"/>
<path d="M0 0 C7.19585985 6.22498987 16.30239573 14.20561388 17.203125 24.26953125 C17.32878791 31.08674404 16.39656398 35.18051296 11.875 40.5 C-3.84861367 54.17270754 -25.42697457 59.62966051 -46 59 C-49.83088137 58.72641435 -53.62886907 58.30433029 -57.4375 57.8125 C-58.33662109 57.6995459 -59.23574219 57.5865918 -60.16210938 57.47021484 C-71.00491373 55.8798035 -79.68997148 52.32586006 -86.796875 43.859375 C-89.49876653 40.21553963 -90.96630106 37.97726935 -91.125 33.375 C-88.30693764 24.92081292 -83.05867443 19.37365139 -77 13 C-76.11570312 12.05125 -75.23140625 11.1025 -74.3203125 10.125 C-55.16913885 -9.8399629 -23.85619781 -17.0302915 0 0 Z M-18 3 C-17.505 4.175625 -17.01 5.35125 -16.5 6.5625 C-13.33966904 16.10368966 -13.63138379 27.86271115 -18 37 C-19.82301347 39.8342525 -21.79898777 42.44995994 -24 45 C-13.43193844 44.37834932 -2.70945287 40.4059311 5 33 C7.54942138 29.17586794 7.59616601 27.54576584 7 23 C5.35002859 20.01126175 3.26329385 17.54432368 1 15 C0.47019531 14.37738281 -0.05960938 13.75476563 -0.60546875 13.11328125 C-4.98733571 8.31508489 -9.97297627 5.39097651 -16 3 C-16.66 3 -17.32 3 -18 3 Z M-70 19 C-76.62171537 25.2732632 -76.62171537 25.2732632 -81 33 C-75.48187632 39.83674025 -71.7089179 43.66387028 -63.0625 45.6875 C-59.34309178 46.06703145 -55.73811399 46.06445024 -52 46 C-52.40992188 45.41992188 -52.81984375 44.83984375 -53.2421875 44.2421875 C-54.05042969 43.07042969 -54.05042969 43.07042969 -54.875 41.875 C-55.40867187 41.10929687 -55.94234375 40.34359375 -56.4921875 39.5546875 C-61.19529846 31.58620416 -61.20545377 22.02506833 -59 13.1875 C-58.67 12.135625 -58.34 11.08375 -58 10 C-62.57093762 10 -66.8862473 15.9898951 -70 19 Z " fill="#000000" transform="translate(401,212)"/>
<path d="M0 0 C8.73623323 9.08769088 8.73623323 9.08769088 9.5 14.625 C9.24836384 22.27194341 3.60678766 27.65823315 -1.625 32.6875 C-18.69585566 47.35256791 -45.09335916 50.42553856 -66.94238281 49.16845703 C-77.93764799 48.26827514 -92.84430157 46.48909346 -101.828125 39.59765625 C-104.5703612 35.85907424 -104.27331733 30.99682428 -103.66796875 26.57421875 C-100.56886325 14.03783716 -90.54971734 3.57147153 -79.7421875 -2.97265625 C-55.27125643 -15.86505953 -21.81575958 -20.35301708 0 0 Z M-33 -1 C-32.7834375 -0.3709375 -32.566875 0.258125 -32.34375 0.90625 C-29.41257281 9.91690581 -29.05523143 17.86973766 -32 27 C-33.47800429 29.59924892 -35.08470042 31.68147946 -37 34 C-36.67 34.66 -36.34 35.32 -36 36 C-24.03984833 32.4804762 -12.78175671 28.35656886 -6 17 C-6.30186472 12.86127588 -8.69403858 10.64171866 -11.56640625 7.8828125 C-17.39984787 3.3696201 -25.43326829 -1.69956576 -33 -1 Z M-85.796875 14.73046875 C-90.2899006 19.35892243 -93.51040886 23.30892112 -94 30 C-82.74269968 36.04558721 -72.59680399 37.54676512 -60 38 C-60.40992188 37.55269531 -60.81984375 37.10539062 -61.2421875 36.64453125 C-61.78101563 36.03996094 -62.31984375 35.43539062 -62.875 34.8125 C-63.40867187 34.22082031 -63.94234375 33.62914062 -64.4921875 33.01953125 C-68.84213935 27.19330041 -68.5830601 20.97982095 -68 14 C-67.21541287 10.2539366 -66.20132689 6.63258368 -65 3 C-73.18956045 3 -80.16121908 9.38722894 -85.796875 14.73046875 Z " fill="#000000" transform="translate(233,227)"/>
<path d="M0 0 C2.99785416 3.0683919 3.43192836 5.40170052 3.4375 9.625 C3.26620638 16.99062549 1.06066295 22.90900558 -3 29 C-4.40416513 39.79565922 -1.11744971 49.6474195 4 59 C6.42919865 59.13440778 6.42919865 59.13440778 9 58 C11.22758476 54.30238967 11.95329338 50.36197627 12.5 46.125 C12.665 45.09375 12.83 44.0625 13 43 C16 41 16 41 18.6875 41.375 C19.450625 41.58125 20.21375 41.7875 21 42 C23.69160824 47.68228406 22.88167994 52.22119146 21 58 C18.50495234 63.45733271 15.52209759 67.34939316 10 70 C4.79500079 70.6506249 1.365558 69.910372 -3 67 C-7 61.94736842 -7 61.94736842 -7 58 C-7.66 58 -8.32 58 -9 58 C-9.20625 59.010625 -9.4125 60.02125 -9.625 61.0625 C-11.21659528 66.48490047 -14.35658745 70.39219988 -19.18359375 73.328125 C-23.41903102 75.35656376 -27.27382548 76.9452349 -32 76 C-37.5939607 72.38037837 -39.95758398 68.56057008 -41.46875 61.94921875 C-42.15594779 57.80260479 -42.37461971 54.56192956 -40 51 C-37.5625 50.0625 -37.5625 50.0625 -35 50 C-32 52 -32 52 -31.33984375 55.00390625 C-31.20707031 56.17824219 -31.07429687 57.35257812 -30.9375 58.5625 C-30.68974725 60.71676914 -30.39173719 62.86720865 -30 65 C-29.34 65.33 -28.68 65.66 -28 66 C-23.79738071 64.0897185 -21.62185394 62.97423785 -19.125 59.0625 C-16.35202168 51.51383679 -14.9696513 41.91912321 -17 34 C-19.47058386 30.73649227 -22.04060626 28.59683302 -25.2890625 26.125 C-30.34214591 22.16408159 -31.92750632 17.49488557 -32.9375 11.3125 C-33.15855049 8.25989793 -32.99266926 6.98186606 -31.8125 4.0625 C-29.84602923 1.82479189 -28.86894103 0.79692806 -26 0 C-20.68462908 0.19328622 -17.86633601 1.36798738 -14 5 C-13.236875 4.195625 -12.47375 3.39125 -11.6875 2.5625 C-7.70344892 -1.23624638 -5.19685951 -1.40748278 0 0 Z " fill="#000000" transform="translate(287,278)"/>
</svg>
