<?xml version="1.0" encoding="utf-8"?>
<!-- Generator: Adobe Illustrator 28.1.0, SVG Export Plug-In . SVG Version: 6.00 Build 0)  -->
<svg version="1.1" id="Layer_1" xmlns="http://www.w3.org/2000/svg" xmlns:xlink="http://www.w3.org/1999/xlink" x="0px" y="0px"
	 viewBox="0 0 3200 3200" style="enable-background:new 0 0 3200 3200;" xml:space="preserve">
<style type="text/css">
	.st0{fill:none;stroke:#000000;stroke-width:15;stroke-linecap:round;stroke-linejoin:round;stroke-miterlimit:10;}
	.st1{fill:none;}
</style>
<g>
	<polygon class="st1" points="1664.5,1009 1675.3,1010.9 1675.3,960.1 1664.5,958.2 	"/>
	<polygon class="st1" points="1690.3,1013.5 1914.7,1052.4 1914.8,1002.4 1690.3,962.7 	"/>
	<polygon class="st1" points="1623.5,1001.9 1649.5,1006.4 1649.5,955.5 1623.5,950.9 	"/>
	<path class="st1" d="M1452.9,1465.8l-20.8-4c-0.3,0.6-0.7,1.1-1.1,1.6l-50.1,55.9c-6.8,7.6-10.5,17.4-10.5,27.5v154.7l111.3,22.4
		v-152c0-13.9,5.1-27.2,14.4-37.5l45.9-51.2l-29-5.6c-0.3,0.8-0.8,1.5-1.3,2.1c-10,11.2-24.2,18.2-39.2,19.1c-1,0.1-2,0.1-3,0.1
		c-4.1,0-7.5-0.6-10.7-1.9c-5.7-2.3-10-6.9-11.4-12.3c-1.4-5.1-0.2-10.9,3.2-15.9C1451.4,1467.7,1452.1,1466.7,1452.9,1465.8z
		 M1449,1538.5c4.1,0.8,6.7,4.8,5.9,8.8c-0.7,3.6-3.8,6-7.3,6c-0.5,0-1,0-1.5-0.1l-53.7-10.6c-4.1-0.8-6.7-4.8-5.9-8.8
		c0.8-4.1,4.8-6.7,8.8-5.9L1449,1538.5z"/>
	<polygon class="st1" points="2363.9,801.3 1308.7,618.8 1308.7,880 2363.9,1066.6 	"/>
	<polygon class="st1" points="1929.7,1054.6 1955.6,1059.1 1955.7,1010.1 1929.7,1005.5 	"/>
	<path class="st1" d="M1298.4,1450.1c1.7,0.7,3.9,0.9,7,0.7c8.6-0.6,16.9-3.8,23.7-9.2l-24.8-4.8c-0.4,0.6-0.9,1.2-1.5,1.7
		c-2.3,1.9-4.5,3.7-5.9,5.7c-1,1.5-1.3,2.9-1.1,3.6C1296,1448.5,1296.9,1449.5,1298.4,1450.1z"/>
	<polygon class="st1" points="1970.6,1062.1 1981.2,1063.9 1981.2,1014.1 1970.7,1012.3 	"/>
	<path class="st1" d="M1315.6,1538.9c0-13.9,5.1-27.2,14.4-37.5l45.5-50.7l-28.8-5.6c-0.3,0.6-0.6,1.1-1.1,1.6
		c-10,11.2-24.2,18.2-39.2,19.1c-1,0.1-2,0.1-2.9,0.1c-4.1,0-7.5-0.6-10.7-1.9c-5.7-2.3-10-6.9-11.4-12.4
		c-1.4-5.1-0.2-10.9,3.2-15.9c0.6-0.9,1.2-1.6,1.8-2.4l-20.6-4c-0.2,0.4-0.5,0.8-0.8,1.1l-50.1,55.9c-6.8,7.6-10.5,17.4-10.5,27.5
		v154.2l111.3,22.4V1538.9z M1288.8,1514.4c-0.7,3.6-3.8,6-7.3,6c-0.5,0-1,0-1.5-0.1l-53.7-10.6c-4.1-0.8-6.7-4.8-5.9-8.8
		c0.8-4.1,4.7-6.7,8.8-5.9l53.7,10.6C1286.9,1506.4,1289.6,1510.3,1288.8,1514.4z"/>
	<path class="st1" d="M1156,1955.1c-0.7-1.9-1.4-3.7-2.2-5.6l-20.3-39.5c-1.8-3.4-3.6-7-6.1-9.3c-1.8-1.7-4-2.5-5.4-2.1
		c-2.5,0.7-5,5.4-6,7.4c-6.9,13.2-12.6,27-17.1,41.1c0,0.3-0.1,0.7-0.1,1c-0.2,0.8-0.5,1.6-0.9,2.2c-1.6,5.4-3.1,10.9-4.4,16.4
		c-1,4-5,6.5-9,5.6c-4-0.9-6.5-5-5.6-9c0.9-3.7,1.8-7.4,2.9-11c-16-2.8-25.7-2.1-45.7,1.1c-3,0.5-6-0.9-7.5-3.4l-24.9-39.8
		c-4.6-7.3-6.9-7.6-7.5-7.5c-0.9,0.1-2.6,1.3-5.4,6.4c-9.1,16.8-16,32.7-20.5,47.4c-0.7,2.2-2.3,4-4.5,4.8
		c-18.9,7.3-33.2,24.9-36.5,44.9c-3.2,20,4.8,41.3,20.4,54.2c3.2,2.6,3.6,7.4,1,10.6c-1.5,1.8-3.6,2.7-5.8,2.7c-1,0-2-0.2-2.9-0.6
		c-6.9,8.1-13.6,16.5-20.2,24.9c0.1,0.5,0.2,1,0.3,1.4c4.1,17.8,14.8,33.8,29.8,44.3c1.2,0.9,2.5,1.7,3.7,2.5
		c9.1,6.2,20.5,13.9,21.7,27.3c1.1,11.8-7.1,23.3-19.5,27.6c-3.7,1.3-7.7,1.9-11.9,1.9c-5.9,0-12.3-1.3-19-3.9
		c-20.4-7.7-36.9-24.4-45.1-44.5c-8.7,13.7-17,27.6-24.7,41.8c-1.1,1.9-2.1,3.9-3.2,5.9c7.1,13.5,18.4,24.6,32.1,31.4
		c0.7,0.3,1.4,0.7,2.1,1c6.8,3.3,15.3,7.4,18.6,16.4c2.6,7,1.2,15.3-3.8,21.8c-3.7,4.9-9.2,8.5-16.2,11c-5.2,1.8-10.6,2.6-16.1,2.6
		c-9,0-18.1-2.4-25.8-7.1c-6.7-4.1-12.4-9.8-16.5-16.4c-5.9,21.1-8.3,43.4-3.9,65.4c4.8,24.3,17.6,43.8,35.1,53.7
		c16.7,9.4,37.8,10.2,56.4,10.9l101.6,3.9c8.6,0.3,17.4,0.7,24.9-2.1c5.7-2.1,11.9-7.2,12.2-13.6c0.1-2.4-1.4-5.4-3.6-7.1
		c-0.7-0.5-1.8-1.2-3-1.3c-0.6,0.9-1.2,1.9-1.8,2.8c-1.4,2.2-3.8,3.4-6.3,3.4c-1.4,0-2.8-0.4-4.1-1.2c-3.5-2.2-4.5-6.9-2.2-10.4
		c11.1-17.2,22.6-35.1,26.2-55c3.1-17.1-0.9-39.1-17-49.5c-9.7-6.3-23.2-7-33.5-1.7c-3.7,1.9-8.2,0.4-10.1-3.2
		c-1.9-3.7-0.4-8.2,3.2-10.1c15.2-7.8,34.2-6.8,48.5,2.4c21.9,14.2,27.6,42.7,23.6,64.8c-0.2,1.2-0.5,2.5-0.8,3.7
		c2.3,0.9,4,3,4.5,5.5l10.9,57.1c0.6,3.3,1.3,6.8,2.7,9.3c1,1.7,2.4,2.9,3.6,3c1,0.1,2.5-0.7,3.7-2c1.8-1.9,3-4.7,4.2-7.3
		c7.8-18.1,12.1-38.2,12.6-57.9c0.1-4.1,3.5-7.4,7.7-7.3c4.1,0.1,7.4,3.5,7.3,7.7c-0.2,11.3-1.7,22.7-4.2,33.9
		c2,1.2,3.4,3.3,3.6,5.8c0.5,6.8,2.6,13.6,6,19.6C1200.8,2256.5,1208.4,2093.1,1156,1955.1z M975.3,2011.4c-4,0-7.3-5-7.3-11.2
		s3.3-11.2,7.3-11.2s7.3,5,7.3,11.2S979.3,2011.4,975.3,2011.4z M1001,2026.3c-4.4,0-7.9-5.1-7.9-8s3.6-5.2,7.9-5.2s7.9,2.3,7.9,5.2
		S1005.3,2026.3,1001,2026.3z M1026.7,2011.4c-4,0-7.3-5-7.3-11.2s3.3-11.2,7.3-11.2c4,0,7.3,5,7.3,11.2
		S1030.7,2011.4,1026.7,2011.4z M1128.3,2049.5c-0.6,3.6-3.8,6.2-7.4,6.2c-0.4,0-0.9,0-1.3-0.1l-46.4-8c-4.1-0.7-6.8-4.6-6.1-8.7
		c0.7-4.1,4.6-6.8,8.7-6.1l46.4,8C1126.3,2041.5,1129,2045.4,1128.3,2049.5z M1128.2,2003.8c-17.2,1.4-34.4,6.3-49.7,14.2
		c-1.1,0.6-2.3,0.8-3.4,0.8c-2.7,0-5.3-1.5-6.7-4.1c-1.9-3.7-0.5-8.2,3.2-10.1c17.1-8.8,36.2-14.3,55.4-15.8
		c4.1-0.3,7.7,2.8,8.1,6.9C1135.4,1999.9,1132.4,2003.5,1128.2,2003.8z"/>
	<path class="st1" d="M807.2,2303.9c-0.3-0.4-0.6-0.9-0.8-1.3c-15.7-35.2-8-75.6,2.7-113.9l1.5-5.4c9.3-33.3,19-67.7,10.7-99.9
		c-9.5-36.8-43.9-65.3-81.8-67.9c-9.2-0.6-22.5,0-33.9,6.6c-10,5.8-16.8,15.6-17.6,25.6c-0.8,10.3,5.5,20.5,14.3,23.2
		c5.8,1.8,12.6,0.8,19.8-0.3c7.5-1.1,15.3-2.3,23.4-0.6c19.9,4.1,31.6,23.1,34.4,40.3c2.7,16.6-0.9,32.9-4.4,48.6l-0.2,1.1
		c-7.3,32.6-12.1,60.1-12.4,87.9c-0.3,32.4,6.2,60.5,19.1,83.5c7.6,13.6,24.1,27,42.3,37.2c-6.9-10.7-12-23.3-14.7-37.2
		C807.9,2322.1,807.1,2312.9,807.2,2303.9z"/>
	<path class="st1" d="M852.6,2266.5c8.6,5.2,19.8,6.4,29.3,3.1c2.9-1,6.8-2.8,9.2-5.9c1.8-2.3,2.4-5.2,1.6-7.3
		c-1.3-3.4-6.3-5.8-11.1-8.2c-0.8-0.4-1.5-0.7-2.3-1.1c-13.4-6.7-25-16.8-33.4-29.1c-3.5,7.3-6.9,14.9-10,22.7
		c0.2,0.4,0.3,0.9,0.4,1.4C837.7,2251.9,844,2261.3,852.6,2266.5z"/>
	<path class="st1" d="M1791.2,2395.5c-5.2-0.8-10.6-1.2-15.9-1.2c-14,0-28.1,2.7-41.1,7.9c-1.1,0.4-2,0.9-2.7,1.4
		c0.4,0.1,0.8,0.3,1.3,0.5c18.7,6.3,39.6,7.1,58.8,2.5c7.1-1.8,9.4-4.7,9.4-5.7C1801,2399.4,1798,2396.5,1791.2,2395.5z"/>
	<polygon class="st1" points="1430.2,2224.8 1682.7,2168.7 1576.6,2151.2 1335.6,2209.9 1402.9,2220.5 	"/>
	<path class="st1" d="M1431.7,2239.8c-0.1,0-0.2,0-0.3,0c-0.1,0-0.1,0-0.2,0c-0.1,0-0.1,0-0.2,0h-0.1c-0.1,0-0.2,0-0.3,0
		c-0.1,0-0.1,0-0.2,0h0c0,0-0.1,0-0.1,0h-0.1c-0.1,0-0.2,0-0.3,0c-0.1,0-0.3,0-0.4-0.1c-0.1,0-0.1,0-0.2,0l-124.4-19.6V2325
		l125.3,19.7l284.5-63.2v-103.7l-282.6,61.9C1432,2239.7,1431.9,2239.8,1431.7,2239.8z M1348.9,2312.5c-14.3,0-25.9-13.7-25.9-30.5
		c0-16.9,11.6-30.6,25.9-30.6s26,13.7,26,30.6C1374.8,2298.8,1363.2,2312.5,1348.9,2312.5z M1439.1,2257.2v69.5
		c0,4.1-3.4,7.5-7.5,7.5s-7.5-3.4-7.5-7.5v-69.5c0-4.1,3.4-7.5,7.5-7.5S1439.1,2253,1439.1,2257.2z"/>
	<path class="st1" d="M1348.9,2266.4c-5.9,0-10.9,7.1-10.9,15.6c0,8.4,5,15.5,10.9,15.5c5.9,0,11-7.1,11-15.5
		C1359.8,2273.5,1354.8,2266.4,1348.9,2266.4z"/>
	<path class="st1" d="M2378.9,795v269.5l19.6-7.8V777.3L1345.2,594l-21.8,12.1l1049.3,181.5C2376.3,788.2,2378.9,791.3,2378.9,795z"
		/>
	<path class="st1" d="M1391.2,1455.5l-50.1,55.9c-6.8,7.6-10.5,17.3-10.5,27.5v154.6l24.8,5v-151.7c0-13.9,5.1-27.2,14.4-37.5
		l45.5-50.8l-23.1-4.5C1392,1454.5,1391.6,1455,1391.2,1455.5z"/>
	<path class="st1" d="M1320.1,1791c-15.3-2.6-31-5.2-46-8c-30.1,33.4-42.2,81.7-31.8,125.4c26.6,2.5,57.2,8.6,87.8,17.2
		c-3-21.2-2-43.9,3-66.2c5-22.3,13.7-43.5,25.5-61.8C1345.9,1795.3,1332.8,1793.1,1320.1,1791z"/>
	<polygon class="st1" points="1189.3,1654.6 1171.5,1661.5 1189.3,1665.1 	"/>
	<path class="st1" d="M1557.3,1488.5l-50.1,55.9c-6.8,7.6-10.5,17.4-10.5,27.5V1727l24.9,5v-155.7c0-13.9,5.1-27.2,14.4-37.5
		l43.3-48.3l-20.6-4C1558.3,1487.2,1557.9,1487.9,1557.3,1488.5z"/>
	<path class="st1" d="M1673.3,1573.9c-6.8,7.6-10.5,17.4-10.5,27.5v156.9c0.4,0.7,0.6,1.5,0.7,2.3l19.6,4v-152.6
		c0-13.9,5.1-27.2,14.4-37.6l46.5-51.8l-20.9-4.1L1673.3,1573.9z"/>
	<path class="st1" d="M1365.5,1941.3c-12.6-60.8,14.8-132.5,64.4-172.2l-157.4-30.7c-50.1,34-79.9,105.9-67.8,163.9
		c1.4,6.7,3.3,13.6,5.1,20.3c4.9,18,10,36.5,7.1,55.8l160.8,32.4c2-15.7-2.3-31.5-6.9-48.3C1369,1955.6,1367,1948.5,1365.5,1941.3z
		 M1344.7,1941.7c-1.4,1.3-3.2,2-5.1,2c-0.7,0-1.5-0.1-2.2-0.3c-35.5-10.9-71.6-18.2-101.6-20.6c-3.1-0.2-5.8-2.4-6.6-5.4
		c-14.5-51.3,0-109.2,36.8-147.7c1.8-1.8,4.3-2.7,6.8-2.2c16,3,33.2,5.9,49.8,8.7c16.7,2.8,33.9,5.7,50.1,8.8
		c2.5,0.5,4.7,2.2,5.6,4.6c0.9,2.4,0.6,5.1-1,7.2c-28.5,38.2-40.4,92.3-30.4,137.8C1347.5,1937.2,1346.7,1939.9,1344.7,1941.7z"/>
	<path class="st1" d="M1547.3,1977.3c-12.6-61,15-133,64.9-172.6l-162.5-31.7c-0.4,0.5-0.9,0.9-1.4,1.2
		c-50.2,33.9-80.1,106-68.1,164.1c1.4,6.7,3.3,13.6,5.1,20.3c4.9,17.8,9.9,36.2,7.1,55.2l166.9,33.6c2.2-15.9-2.1-31.9-6.8-48.9
		C1550.7,1991.6,1548.8,1984.4,1547.3,1977.3z M1520.6,1983.5c-1.4,1.3-3.2,2-5.1,2c-0.7,0-1.5-0.1-2.2-0.3
		c-35.5-10.9-71.6-18.2-101.6-20.6c-3.1-0.2-5.8-2.4-6.6-5.4c-14.5-51.3,0-109.2,36.8-147.7c1.8-1.8,4.3-2.6,6.8-2.2
		c16,3,33.2,5.9,49.8,8.7c16.7,2.8,33.9,5.7,50.1,8.8c2.5,0.5,4.7,2.2,5.6,4.6c0.9,2.4,0.6,5.1-1,7.2
		c-28.5,38.2-40.4,92.3-30.4,137.8C1523.4,1979,1522.6,1981.7,1520.6,1983.5z"/>
	<path class="st1" d="M1496,1832.8c-15.3-2.6-31-5.2-46-8c-30,33.4-42.2,81.7-31.8,125.4c26.6,2.5,57.2,8.6,87.8,17.2
		c-3-21.2-2-43.9,3-66.2c5-22.3,13.7-43.5,25.5-61.8C1521.8,1837.1,1508.7,1834.9,1496,1832.8z"/>
	<path class="st1" d="M1630.6,1512.6c1.7,0.7,3.9,0.9,7,0.7c7.6-0.5,14.9-3.1,21.2-7.3l-24.1-4.7c-2.2,1.8-4.2,3.5-5.5,5.4
		c-1,1.5-1.3,2.9-1.1,3.6C1628.2,1511,1629.2,1512,1630.6,1512.6z"/>
	<path class="st1" d="M1781.6,1529.9l-21.2-4.1c-0.3,1-0.8,1.9-1.6,2.7l-50.1,55.9c-6.8,7.6-10.5,17.4-10.5,27.5v155.6l111.3,22.4
		v-153c0-13.9,5.1-27.2,14.4-37.6l46.8-52.2l-29.5-5.8c-0.3,1.2-0.8,2.3-1.7,3.2c-10,11.2-24.2,18.2-39.2,19.1c-1,0.1-2,0.1-3,0.1
		c-4.1,0-7.5-0.6-10.7-1.9c-5.7-2.3-10-6.9-11.4-12.3c-1.4-5.1-0.2-11,3.2-16C1779.3,1532.3,1780.4,1531,1781.6,1529.9z
		 M1776.7,1603.6c4.1,0.8,6.7,4.8,5.9,8.8c-0.7,3.6-3.8,6-7.3,6c-0.5,0-1,0-1.5-0.1l-53.7-10.6c-4.1-0.8-6.7-4.8-5.9-8.8
		c0.8-4.1,4.8-6.7,8.8-5.9L1776.7,1603.6z"/>
	<path class="st1" d="M1464.5,1483.1c1.7,0.7,3.9,0.9,7,0.7c8.9-0.6,17.4-4,24.3-9.6l-25.1-4.9c-0.4,0.8-1.1,1.6-1.8,2.2
		c-2.3,1.9-4.5,3.7-5.9,5.7c-1,1.5-1.3,2.9-1.1,3.6C1462.1,1481.5,1463.1,1482.5,1464.5,1483.1z"/>
	<path class="st1" d="M1885,1553.6l-50.1,55.9c-6.8,7.6-10.6,17.4-10.6,27.5v156l22.6,4.5v-157.4c0-13.9,5.1-27.2,14.4-37.6
		l43.6-48.6l-18.2-3.5C1886.4,1551.5,1885.9,1552.6,1885,1553.6z"/>
	<path class="st1" d="M1617.1,1497.8l-20.7-4l-49.3,55c-6.8,7.6-10.5,17.4-10.5,27.5v156.9c0.3,0.6,0.5,1.3,0.6,2l110.6,22.3v-156
		c0-13.9,5.1-27.2,14.4-37.5l43.7-48.7l-28.5-5.6c-9.9,10.9-24,17.7-38.8,18.7c-1,0.1-2,0.1-2.9,0.1c-4.1,0-7.5-0.6-10.7-1.9
		c-5.7-2.3-10-6.9-11.4-12.3c-1.4-5.1-0.2-10.9,3.2-15.9C1616.9,1498,1617,1497.9,1617.1,1497.8z M1615.1,1568
		c4.1,0.8,6.7,4.8,5.9,8.8c-0.7,3.6-3.8,6-7.3,6c-0.5,0-1,0-1.5-0.1l-53.7-10.6c-4.1-0.8-6.7-4.8-5.9-8.8c0.8-4.1,4.8-6.7,8.8-5.9
		L1615.1,1568z"/>
	<path class="st1" d="M1956,1576.3c1.7,0.7,3.9,0.9,7.1,0.7c7.7-0.5,15.2-3.2,21.5-7.6l-24.2-4.7c-2.3,1.9-4.5,3.7-5.9,5.6
		c-1,1.5-1.3,2.9-1.1,3.6C1953.6,1574.7,1954.6,1575.7,1956,1576.3z"/>
	<path class="st1" d="M1942.7,1561.3l-20.6-4l-49.6,55.2c-6.8,7.6-10.5,17.4-10.5,27.5v156.9c0.6,1.2,0.8,2.5,0.7,3.8l110.6,22.3
		v-157.8c0-13.9,5.1-27.2,14.4-37.5l43.9-49l-28.5-5.5c-9.9,11.1-24.2,18-39,19c-1,0.1-2,0.1-2.9,0.1c-4.1,0-7.5-0.6-10.7-1.9
		c-5.7-2.3-10-6.9-11.4-12.3c-1.4-5.1-0.2-10.9,3.2-15.9C1942.3,1561.7,1942.5,1561.5,1942.7,1561.3z M1940.5,1631.8
		c4.1,0.8,6.7,4.8,5.9,8.8c-0.7,3.6-3.8,6-7.3,6c-0.5,0-1,0-1.5-0.1l-53.7-10.6c-4.1-0.8-6.7-4.8-5.9-8.8c0.8-4.1,4.8-6.7,8.8-5.9
		L1940.5,1631.8z"/>
	<path class="st1" d="M1792.2,1548.1c1.7,0.7,3.9,0.9,7,0.7c9.4-0.6,18.4-4.4,25.4-10.6l-25.7-5c-0.4,1.2-1.2,2.4-2.3,3.3
		c-2.3,1.9-4.5,3.7-5.9,5.7c-1,1.5-1.3,2.9-1.1,3.6C1789.8,1546.5,1790.8,1547.6,1792.2,1548.1z"/>
	<polygon class="st1" points="762.6,829.7 773.2,831.5 773.2,781.7 762.7,779.9 	"/>
	<path class="st1" d="M94.8,1206.1c-2.3,1.9-4.5,3.7-5.9,5.7c-1,1.5-1.3,2.9-1.1,3.6c0.2,0.7,1.1,1.7,2.6,2.3c1.7,0.7,3.9,0.9,7,0.7
		c8.6-0.5,16.9-3.8,23.7-9.2l-24.8-4.8C95.9,1205.1,95.4,1205.6,94.8,1206.1z"/>
	<path class="st1" d="M1669.1,1871.5c-15.3-2.6-31-5.2-46-8c-30.1,33.4-42.2,81.7-31.8,125.4c26.6,2.5,57.2,8.5,87.8,17.2
		c-3-21.2-2-43.9,3-66.2c5-22.3,13.7-43.5,25.5-61.8C1694.8,1875.9,1681.8,1873.7,1669.1,1871.5z"/>
	<path class="st1" d="M748,1343.9c1.7,0.7,3.9,0.9,7,0.7c7.7-0.5,15.2-3.2,21.6-7.6l-24.2-4.7c-2.3,1.9-4.5,3.7-5.9,5.6
		c-1,1.5-1.3,2.9-1.1,3.6C745.7,1342.3,746.6,1343.3,748,1343.9z"/>
	<path class="st1" d="M884.2,1153.7c2.8-2.6,5.6-5.2,8.4-7.8c2.4-2.2,4.8-4.5,7.2-6.7c3-2.7,5.9-5.4,8.8-8.2
		c2.9-2.6,5.7-5.3,8.6-7.9c2.6-2.4,5.1-4.7,7.7-7.1c3.2-3,6.4-5.9,9.6-8.9c2.2-2.1,4.5-4.1,6.7-6.2c3.5-3.2,6.9-6.4,10.4-9.6
		c2.3-2.1,4.5-4.1,6.8-6.2c3.4-3.1,6.8-6.3,10.2-9.4c2.8-2.6,5.6-5.1,8.3-7.6c2.9-2.6,5.7-5.2,8.6-7.9c4.6-4.2,9.2-8.5,13.8-12.7
		c1-0.9,2-1.8,2.9-2.7c5.6-5.2,11.3-10.4,16.9-15.5c34.5-31.7,70.2-64.4,105.5-97c6.5-6,12.9-12,19.4-17.9c1-1,2.1-1.9,3.1-2.9
		l-15.3-2.7c-45.7,42.2-91.5,83.1-135.9,122.7c-42.1,37.6-85.6,76.4-128.9,116.3l10,3.3L884.2,1153.7z"/>
	<path class="st1" d="M584.2,1315.8c1.7,0.7,3.9,0.9,7,0.7c9.4-0.6,18.4-4.4,25.4-10.6l-25.7-5c-0.4,1.2-1.2,2.4-2.3,3.3
		c-2.3,1.9-4.5,3.7-5.9,5.7c-1,1.5-1.3,2.9-1.1,3.6C581.8,1314.2,582.8,1315.2,584.2,1315.8z"/>
	<path class="st1" d="M422.6,1280.2c1.7,0.7,3.9,0.9,7,0.7c7.6-0.5,14.9-3.1,21.2-7.3l-24.2-4.7c-2.2,1.8-4.2,3.5-5.5,5.4
		c-1,1.5-1.3,2.9-1.1,3.6C420.3,1278.6,421.2,1279.6,422.6,1280.2z"/>
	<path class="st1" d="M184.3,1221.6c-0.3,0.5-0.6,1.1-1.1,1.5l-50.1,55.9c-6.8,7.6-10.5,17.4-10.5,27.5v154.6l24.9,5v-151.7
		c0-13.9,5.1-27.2,14.4-37.5l45.5-50.8L184.3,1221.6z"/>
	<path class="st1" d="M256.5,1250.7c1.7,0.7,3.9,0.9,7,0.7c8.9-0.6,17.4-4,24.3-9.6l-25.1-4.9c-0.4,0.8-1.1,1.6-1.8,2.2
		c-2.3,1.9-4.5,3.7-5.9,5.7c-1,1.5-1.3,2.9-1.1,3.6C254.1,1249.1,255.1,1250.1,256.5,1250.7z"/>
	<polygon class="st1" points="1156,568.9 100.7,386.4 100.7,647.6 1156,834.2 	"/>
	<path class="st1" d="M1171,562.6v269.5l19.6-7.8V544.9L137.2,361.6l-21.8,12.1l1049.3,181.5C1168.3,555.8,1171,558.9,1171,562.6z"
		/>
	<path class="st1" d="M305,1245.1c-0.3,0.8-0.8,1.5-1.3,2.1c-9.9,11.2-24.2,18.2-39.2,19.1c-1,0.1-2,0.1-3,0.1
		c-4.1,0-7.5-0.6-10.7-1.9c-5.7-2.3-10-6.9-11.4-12.4c-1.4-5.1-0.2-11,3.2-15.9c0.7-1,1.5-2,2.3-2.9l-20.8-4.1
		c-0.3,0.6-0.7,1.1-1.1,1.6l-50.1,55.9c-6.8,7.6-10.5,17.4-10.5,27.5v154.7l111.3,22.4v-152c0-13.9,5.1-27.2,14.4-37.5l45.9-51.2
		L305,1245.1z M246.9,1315c-0.7,3.6-3.8,6-7.3,6c-0.5,0-1,0-1.5-0.1l-53.7-10.6c-4.1-0.8-6.7-4.8-5.9-8.8c0.8-4.1,4.8-6.7,8.8-5.9
		l53.7,10.6C245.1,1306.9,247.7,1310.9,246.9,1315z"/>
	<polygon class="st1" points="415.5,769.5 441.5,774 441.5,723.1 415.5,718.5 	"/>
	<polygon class="st1" points="482.3,781.1 706.7,820 706.8,770 482.3,730.3 	"/>
	<polygon class="st1" points="456.5,776.6 467.3,778.5 467.3,727.7 456.5,725.8 	"/>
	<polygon class="st1" points="721.7,822.3 747.6,826.7 747.7,777.7 721.8,773.1 	"/>
	<path class="st1" d="M288,1600.4c-15.3-2.6-31-5.2-46-8c-30.1,33.4-42.2,81.7-31.8,125.4c26.6,2.5,57.2,8.6,87.8,17.2
		c-3-21.2-2-43.9,3-66.2c5-22.3,13.7-43.5,25.5-61.8C313.8,1604.7,300.7,1602.5,288,1600.4z"/>
	<path class="st1" d="M634.1,1670.9c-15.3-2.6-31-5.2-46-8c-30.1,33.4-42.2,81.7-31.8,125.4c26.6,2.5,57.2,8.6,87.8,17.2
		c-3-21.2-2-43.9,3-66.2c5-22.3,13.7-43.5,25.5-61.8C659.9,1675.2,646.9,1673,634.1,1670.9z"/>
	<path class="st1" d="M932.2,2185.1c5.6,2.1,13.7,4.2,20.7,1.8c5.6-1.9,9.8-7.3,9.4-12c-0.6-6.3-7.7-11.1-15.2-16.3
		c-1.3-0.9-2.7-1.8-3.9-2.7c-15.1-10.6-26.5-25.9-32.7-43.1c-6.2,8.4-12.2,16.9-18,25.5C896.7,2159.2,912.2,2177.5,932.2,2185.1z"/>
	<path class="st1" d="M461.1,1639.1c-15.3-2.6-31-5.2-46-8c-30.1,33.4-42.2,81.7-31.8,125.4c26.6,2.5,57.2,8.6,87.8,17.2
		c-3-21.2-2-43.9,3-66.2c5-22.3,13.7-43.5,25.5-61.8C486.9,1643.5,473.8,1641.3,461.1,1639.1z"/>
	<path class="st1" d="M339.3,1744.9c-12.6-61,15-133,64.9-172.6l-162.5-31.7c-0.4,0.4-0.9,0.9-1.4,1.2
		c-50.2,33.9-80.1,106-68.1,164.1c1.4,6.7,3.3,13.6,5.1,20.3c4.9,17.8,9.9,36.2,7.1,55.2l166.9,33.6c2.2-15.9-2.2-32-6.8-48.9
		C342.7,1759.2,340.8,1752,339.3,1744.9z M312.6,1751.1c-1.4,1.3-3.2,2-5.1,2c-0.7,0-1.5-0.1-2.2-0.3
		c-35.5-10.9-71.6-18.2-101.6-20.6c-3.1-0.2-5.8-2.4-6.6-5.4c-14.5-51.3,0-109.3,36.8-147.7c1.8-1.8,4.3-2.7,6.8-2.2
		c16,3,33.2,5.9,49.8,8.7c16.7,2.8,33.9,5.7,50.1,8.8c2.5,0.5,4.7,2.2,5.6,4.6s0.6,5.1-1,7.2c-28.5,38.2-40.4,92.3-30.4,137.8
		C315.4,1746.6,314.6,1749.3,312.6,1751.1z"/>
	<path class="st1" d="M508.5,1776.6c-12.5-60.4,14.5-131.8,63.6-171.6l-148.3-28.9c-0.5,0.6-1.1,1.2-1.8,1.6
		c-50.2,33.9-80.1,106-68.1,164.1c1.4,6.7,3.3,13.6,5.1,20.3c4.9,18,10,36.6,7.1,55.9l154.2,31.1c0-0.3,0-0.7,0.1-1
		c2.7-16.3-1.8-32.8-6.6-50.2C512,1790.9,510,1783.8,508.5,1776.6z M485.7,1789.9c-1.4,1.3-3.2,2-5.1,2c-0.7,0-1.5-0.1-2.2-0.3
		c-35.5-10.9-71.6-18.2-101.6-20.5c-3.1-0.2-5.8-2.4-6.6-5.4c-14.5-51.3,0-109.2,36.8-147.7c1.8-1.8,4.3-2.6,6.8-2.2
		c16,3,33.2,5.9,49.8,8.7c16.7,2.8,33.9,5.7,50.1,8.8c2.6,0.5,4.7,2.2,5.6,4.7c0.9,2.4,0.6,5.1-1,7.2
		c-28.5,38.2-40.4,92.3-30.3,137.8C488.5,1785.4,487.6,1788.1,485.7,1789.9z"/>
	<path class="st1" d="M66.1,1550.6c-30,33.4-42.2,81.7-31.8,125.4c26.6,2.5,57.2,8.6,87.8,17.2c-3-21.2-2-43.9,3-66.2
		c5-22.3,13.7-43.5,25.5-61.8c-12.6-2.3-25.7-4.5-38.4-6.6C96.8,1556,81.1,1553.4,66.1,1550.6z"/>
	<path class="st1" d="M695.1,1832.5c-1.9-6.9-3.9-14-5.3-21.2c-12.5-60.2,14.3-131.1,63-171.1L592,1608.9c-0.2,0.2-0.5,0.4-0.7,0.6
		c-50.2,33.9-80.1,106-68.1,164.1c1.4,6.7,3.3,13.6,5.1,20.3c5,18.2,10.2,37.1,7,56.6c-0.1,0.5-0.2,1-0.4,1.5l166.9,33.6
		c-0.2-0.9-0.3-1.9-0.1-2.9C704.4,1866.4,699.9,1849.9,695.1,1832.5z M658.7,1821.6c-1.4,1.3-3.2,2-5.1,2c-0.7,0-1.5-0.1-2.2-0.3
		c-35.5-10.9-71.6-18.2-101.6-20.6c-3.1-0.2-5.8-2.4-6.6-5.4c-14.5-51.3,0-109.2,36.8-147.7c1.8-1.8,4.3-2.6,6.8-2.2
		c16.1,3,33.2,5.9,49.8,8.7c16.7,2.8,33.9,5.7,50.1,8.8c2.5,0.5,4.6,2.2,5.6,4.6c0.9,2.4,0.6,5.1-1,7.2
		c-28.5,38.2-40.4,92.3-30.3,137.8C661.6,1817.1,660.7,1819.8,658.7,1821.6z"/>
	<path class="st1" d="M845.2,1711.8c-8.3-1.4-16.7-2.9-24.9-4.2c-15.3-2.6-31.1-5.2-46.2-8c-30,33.4-42.2,81.7-31.8,125.4
		c19.9,1.9,41.7,5.6,64.7,11.2c4,1,6.5,5,5.5,9c-0.8,3.4-3.9,5.8-7.3,5.8c-0.6,0-1.2-0.1-1.8-0.2c-24.4-5.9-47.1-9.7-67.7-11.3
		c-3.1-0.2-5.8-2.4-6.6-5.4c-14.5-51.3,0-109.2,36.8-147.7c1.8-1.8,4.3-2.6,6.8-2.2c16.1,3.1,33.3,5.9,49.9,8.8
		c7.4,1.2,14.9,2.5,22.4,3.8v-38.4l-72.7-14.2c0,0,0,0-0.1,0c-50.2,33.9-80.2,106-68.1,164.1c1.4,6.7,3.3,13.6,5.1,20.3
		c5,18.2,10.2,37.1,7,56.6c-0.2,1.2-0.7,2.2-1.3,3.2l130.1,26.2V1711.8z"/>
	<path class="st1" d="M469.4,1277.2c-9.9,10.9-24,17.7-38.8,18.7c-1,0.1-2,0.1-2.9,0.1c-4.1,0-7.5-0.6-10.7-1.9
		c-5.7-2.3-10-6.9-11.4-12.4c-1.4-5.1-0.2-10.9,3.2-15.9c0.1-0.1,0.2-0.2,0.3-0.4l-20.7-4l-49.3,55c-6.8,7.6-10.5,17.4-10.5,27.5
		v156.9c0.3,0.6,0.5,1.3,0.6,2l110.6,22.3v-156c0-13.9,5.1-27.2,14.4-37.6l43.7-48.7L469.4,1277.2z M413,1344.4
		c-0.7,3.6-3.8,6-7.3,6c-0.5,0-1,0-1.5-0.1l-53.7-10.6c-4.1-0.8-6.7-4.8-5.9-8.8c0.8-4.1,4.8-6.7,8.8-5.9l53.7,10.6
		C411.2,1336.4,413.8,1340.4,413,1344.4z"/>
	<path class="st1" d="M515,1286.1l-49.7,55.4c-6.8,7.6-10.5,17.4-10.5,27.5v156.9c0.4,0.7,0.6,1.5,0.7,2.3l19.6,3.9v-152.6
		c0-13.9,5.1-27.2,14.4-37.6l46.5-51.8L515,1286.1z"/>
	<path class="st1" d="M350.7,1254c-0.3,0.7-0.8,1.5-1.3,2.1l-50.1,55.9c-6.8,7.6-10.5,17.4-10.5,27.5v155.1l24.9,5v-155.7
		c0-13.9,5.1-27.2,14.4-37.5l43.3-48.3L350.7,1254z"/>
	<path class="st1" d="M633.1,1309.1c-0.3,1.2-0.8,2.3-1.7,3.2c-9.9,11.2-24.2,18.2-39.2,19.1c-1,0.1-2,0.1-2.9,0.1
		c-4.1,0-7.5-0.6-10.7-1.9c-5.7-2.3-10-6.9-11.4-12.4c-1.4-5.1-0.2-10.9,3.2-15.9c1-1.4,2.1-2.7,3.2-3.9l-21.2-4.1
		c-0.3,1-0.8,1.9-1.6,2.7l-50.1,55.9c-6.8,7.6-10.5,17.4-10.5,27.5v155.7l111.3,22.4v-152.9c0-13.9,5.1-27.2,14.4-37.6l46.8-52.2
		L633.1,1309.1z M574.6,1380c-0.7,3.6-3.8,6-7.3,6c-0.5,0-1,0-1.5-0.1l-53.7-10.6c-4.1-0.8-6.7-4.8-5.9-8.8c0.8-4.1,4.8-6.7,8.8-5.9
		l53.7,10.6C572.7,1372,575.4,1376,574.6,1380z"/>
	<path class="st1" d="M845.2,1350.5l-4.6-0.9l-49.9,55.7c-6.8,7.6-10.5,17.3-10.5,27.5v156.9c0.6,1.3,0.8,2.7,0.7,4.1l36.9,7.4
		c0.1-0.1,0.2-0.1,0.4-0.2c9-5.4,18.1-10.8,27.1-16.2V1350.5z"/>
	<path class="st1" d="M845.2,1602.1c-1.9,1.1-3.8,2.2-5.7,3.4l5.7,1.1V1602.1z"/>
	<path class="st1" d="M795.1,1340.7c-9.9,11.1-24.2,18-39,18.9c-1,0.1-2,0.1-3,0.1c-4.1,0-7.5-0.6-10.7-1.9
		c-5.7-2.3-10-6.9-11.4-12.4c-1.4-5.1-0.2-11,3.2-15.9c0.1-0.2,0.3-0.4,0.5-0.6l-20.6-4l-49.6,55.2c-6.8,7.6-10.5,17.4-10.5,27.5
		v156.9c0.6,1.2,0.8,2.5,0.7,3.8l110.5,22.3v-157.8c0-13.9,5.1-27.2,14.4-37.5l44-49L795.1,1340.7z M738.4,1408.2
		c-0.7,3.6-3.8,6-7.3,6c-0.5,0-1,0-1.5-0.1l-53.7-10.6c-4.1-0.8-6.7-4.8-5.9-8.8c0.8-4.1,4.8-6.7,8.8-5.9l53.7,10.6
		C736.6,1400.2,739.2,1404.1,738.4,1408.2z"/>
	<path class="st1" d="M678.7,1318c-0.3,1.1-0.9,2.2-1.7,3.2l-50.1,55.9c-6.8,7.6-10.5,17.4-10.5,27.5v156l22.6,4.5v-157.5
		c0-13.9,5.1-27.2,14.4-37.5l43.6-48.6L678.7,1318z"/>
	<path class="st1" d="M2674.7,1786.6v155.1l24.9,5V1791c0-13.9,5.1-27.2,14.4-37.5l43.3-48.3l-20.6-4c-0.3,0.7-0.8,1.5-1.3,2.1
		l-50.1,55.9C2678.4,1766.7,2674.7,1776.4,2674.7,1786.6z"/>
	<path class="st1" d="M2840.8,1816.1V1973c0.4,0.7,0.6,1.5,0.7,2.3l19.6,3.9v-152.6c0-13.9,5.1-27.2,14.4-37.6l46.4-51.8l-20.9-4.1
		l-49.7,55.4C2844.5,1796.1,2840.8,1805.9,2840.8,1816.1z"/>
	<polygon class="st1" points="2868.2,1228.2 2868.2,1228.2 2884.9,1231.1 2884.9,1174.3 2868.2,1171.3 2868.2,1171.3 	"/>
	<path class="st1" d="M2347.4,1299c-43.6,40.4-88.7,82.1-133.8,122.6v941.5c0.7,0.2,1.4,0.5,2.3,0.8c0.6,0.2,1,0.4,1.2,0.4
		c6.1,2.4,11.1,4,16.4,5.7c3.2,1,6.6,2.1,10.2,3.4v-941.1c0-2.1,0.9-4.1,2.4-5.5c46.6-43.1,93.4-86.1,138.7-127.7
		c41.6-38.2,84.6-77.7,127.4-117.3l-31.2-5.1C2435.9,1217.1,2390.9,1258.7,2347.4,1299z"/>
	<path class="st1" d="M2380.2,2172.3l-30.5,11.8l30.5,6.1C2381,2184.2,2380.9,2178.3,2380.2,2172.3z"/>
	<path class="st1" d="M2808.6,1727.3c1.7,0.7,3.9,0.9,7,0.7c7.6-0.5,14.9-3.1,21.2-7.3l-24.2-4.7c-2.2,1.8-4.2,3.5-5.5,5.4
		c-1,1.5-1.3,2.9-1.1,3.6C2806.2,1725.7,2807.2,1726.7,2808.6,1727.3z"/>
	<path class="st1" d="M2387.8,2137.4c4.9,18,10,36.5,7.1,55.8l160.8,32.4c2-15.7-2.3-31.5-6.9-48.3c-1.9-6.9-3.8-14.1-5.3-21.2
		c-12.6-60.8,14.8-132.5,64.4-172.2l-157.4-30.7c-50.1,34-79.9,105.9-67.8,163.9C2384.1,2123.8,2386,2130.7,2387.8,2137.4z
		 M2444,1984.4c1.8-1.8,4.3-2.7,6.8-2.2c16.1,3,33.2,5.9,49.8,8.7c16.7,2.8,33.9,5.7,50.1,8.8c2.5,0.5,4.6,2.2,5.6,4.6
		c0.9,2.4,0.6,5.1-1,7.2c-28.5,38.2-40.4,92.3-30.3,137.8c0.6,2.6-0.3,5.3-2.2,7.1c-1.4,1.3-3.2,2-5.1,2c-0.7,0-1.5-0.1-2.2-0.3
		c-35.5-10.9-71.6-18.2-101.6-20.5c-3.1-0.2-5.8-2.4-6.6-5.4C2392.7,2080.8,2407.1,2022.9,2444,1984.4z"/>
	<path class="st1" d="M3002.4,1851.7v156l22.6,4.5v-157.4c0-13.9,5.1-27.2,14.4-37.6l43.6-48.6l-18.2-3.5c-0.3,1.1-0.8,2.2-1.7,3.2
		l-50.1,55.9C3006.1,1831.7,3002.4,1841.5,3002.4,1851.7z"/>
	<path class="st1" d="M3134,1791c1.7,0.7,3.9,0.9,7,0.7c7.7-0.5,15.2-3.2,21.5-7.6l-24.2-4.7c-2.3,1.9-4.5,3.7-5.8,5.6
		c-1,1.5-1.3,2.9-1.1,3.6C3131.6,1789.4,3132.6,1790.5,3134,1791z"/>
	<path class="st1" d="M2508.1,2140.3c-3-21.2-2-43.9,3-66.2c5-22.3,13.7-43.5,25.5-61.8c-12.6-2.3-25.7-4.5-38.4-6.6
		c-15.3-2.6-31-5.2-46-8c-30,33.4-42.2,81.7-31.8,125.4C2446.9,2125.6,2477.5,2131.6,2508.1,2140.3z"/>
	<path class="st1" d="M2970.2,1762.9c1.7,0.7,3.9,0.9,7,0.7c9.4-0.6,18.4-4.4,25.4-10.6l-25.7-5c-0.5,1.2-1.2,2.4-2.3,3.3
		c-2.3,1.9-4.5,3.7-5.9,5.7c-1,1.5-1.3,2.9-1.1,3.6C2967.8,1761.3,2968.7,1762.3,2970.2,1762.9z"/>
	<path class="st1" d="M2876.1,1826.6v155.7l111.3,22.4v-153c0-13.9,5.1-27.2,14.4-37.6l46.8-52.2l-29.5-5.8
		c-0.3,1.2-0.8,2.3-1.7,3.2c-9.9,11.2-24.2,18.2-39.2,19.1c-1,0.1-2,0.1-3,0.1c-4.1,0-7.5-0.6-10.7-1.9c-5.7-2.3-10-6.9-11.4-12.4
		c-1.4-5.1-0.2-10.9,3.2-15.9c1-1.4,2.1-2.7,3.2-3.9l-21.2-4.1c-0.3,1-0.8,1.9-1.6,2.7l-50.1,55.9
		C2879.8,1806.6,2876.1,1816.4,2876.1,1826.6z M2892.1,1813.6c0.8-4.1,4.8-6.7,8.8-5.9l53.7,10.6c4.1,0.8,6.7,4.8,5.9,8.8
		c-0.7,3.6-3.8,6-7.3,6c-0.5,0-1,0-1.5-0.1l-53.7-10.6C2894,1821.6,2891.3,1817.6,2892.1,1813.6z"/>
	<polygon class="st1" points="2799.8,1216.3 2799.8,1216.3 2853.2,1225.6 2853.2,1168.7 2799.8,1159.4 2799.8,1159.4 	"/>
	<path class="st1" d="M2642.5,1697.8c1.7,0.7,3.9,0.9,7,0.7c8.9-0.6,17.4-4,24.3-9.6l-25.1-4.9c-0.4,0.8-1.1,1.6-1.8,2.2
		c-2.3,1.9-4.5,3.7-5.9,5.7c-1,1.5-1.3,2.9-1.1,3.6C2640.1,1696.2,2641,1697.2,2642.5,1697.8z"/>
	<path class="st1" d="M2476.4,1664.8c1.7,0.7,3.9,0.9,7,0.7c8.6-0.5,16.9-3.8,23.7-9.2l-24.8-4.8c-0.4,0.6-0.9,1.2-1.5,1.7
		c-2.3,1.9-4.5,3.7-5.9,5.7c-1,1.5-1.3,2.9-1.1,3.6C2474,1663.2,2474.9,1664.2,2476.4,1664.8z"/>
	<path class="st1" d="M2909.2,2220.7c1.4,6.7,3.3,13.6,5.1,20.3c5,18.2,10.2,37.1,7,56.6c-0.1,0.5-0.2,1-0.4,1.5l166.9,33.6
		c-0.2-0.9-0.3-1.9-0.1-2.9c2.7-16.3-1.9-32.8-6.6-50.2c-1.9-6.9-3.9-14-5.3-21.2c-12.5-60.2,14.3-131.1,63-171.1L2978,2056
		c-0.2,0.2-0.5,0.4-0.7,0.6C2927.1,2090.4,2897.1,2162.5,2909.2,2220.7z M2972.8,2094.5c16,3,33.2,5.9,49.8,8.7
		c16.7,2.8,33.9,5.7,50.1,8.8c2.5,0.5,4.6,2.2,5.6,4.6c0.9,2.4,0.6,5.1-1,7.2c-28.5,38.2-40.4,92.3-30.4,137.8
		c0.6,2.6-0.3,5.3-2.2,7.1c-1.4,1.3-3.2,2-5.1,2c-0.7,0-1.5-0.1-2.2-0.3c-35.5-10.9-71.6-18.2-101.6-20.6c-3.1-0.2-5.8-2.4-6.6-5.4
		c-14.5-51.3,0-109.2,36.8-147.7C2967.7,2094.8,2970.3,2094,2972.8,2094.5z"/>
	<path class="st1" d="M2508.5,1753.6v154.6l24.9,5v-151.7c0-13.9,5.1-27.2,14.4-37.6l45.5-50.8l-23-4.5c-0.3,0.5-0.6,1.1-1.1,1.5
		l-50.1,55.9C2512.3,1733.7,2508.5,1743.5,2508.5,1753.6z"/>
	<path class="st1" d="M3030.1,2252.6c-3-21.2-2-43.9,3-66.2c5-22.3,13.7-43.5,25.5-61.8c-12.6-2.3-25.7-4.5-38.4-6.6
		c-15.3-2.6-31-5.2-46-8c-30.1,33.4-42.2,81.7-31.8,125.4C2968.9,2237.9,2999.5,2243.9,3030.1,2252.6z"/>
	<path class="st1" d="M2493.5,1753.6c0-13.9,5.1-27.2,14.4-37.6l45.5-50.7l-28.8-5.6c-0.3,0.6-0.6,1.1-1.1,1.6
		c-10,11.2-24.2,18.2-39.2,19.1c-1,0.1-2,0.1-3,0.1c-4.1,0-7.5-0.6-10.7-1.9c-5.7-2.3-10-6.9-11.4-12.3c-1.4-5.1-0.2-11,3.2-16
		c0.6-0.8,1.2-1.6,1.8-2.4l-20.6-4c-0.2,0.4-0.5,0.8-0.8,1.1l-50.1,55.9c-6.8,7.6-10.5,17.4-10.5,27.5v154.2l111.3,22.4V1753.6z
		 M2466.8,1729.1c-0.7,3.6-3.8,6-7.3,6c-0.5,0-1,0-1.5-0.1l-53.7-10.6c-4.1-0.8-6.7-4.8-5.9-8.8c0.8-4.1,4.8-6.7,8.8-5.9l53.7,10.6
		C2464.9,1721.1,2467.6,1725,2466.8,1729.1z"/>
	<path class="st1" d="M2857,2220.8c-3-21.2-2-43.9,3-66.2c5-22.3,13.7-43.5,25.5-61.8c-12.6-2.3-25.7-4.5-38.4-6.6
		c-15.3-2.6-31-5.2-46-8c-30.1,33.4-42.3,81.7-31.8,125.4C2795.8,2206.1,2826.4,2212.2,2857,2220.8z"/>
	<path class="st1" d="M2714.5,1791v156.9c0.3,0.6,0.5,1.3,0.6,2l110.6,22.3v-156c0-13.9,5.1-27.2,14.4-37.6l43.7-48.7l-28.5-5.6
		c-9.9,10.9-24,17.7-38.8,18.7c-1,0.1-2,0.1-3,0.1c-4.1,0-7.5-0.6-10.7-1.9c-5.7-2.3-10-6.9-11.4-12.4c-1.4-5.1-0.2-10.9,3.2-15.9
		c0.1-0.1,0.2-0.2,0.3-0.4l-20.7-4l-49.3,55C2718.3,1771,2714.5,1780.8,2714.5,1791z M2730.6,1778c0.8-4.1,4.8-6.7,8.8-5.9
		l53.7,10.6c4.1,0.8,6.7,4.8,5.9,8.8c-0.7,3.6-3.8,6-7.3,6c-0.5,0-1,0-1.5-0.1l-53.7-10.6C2732.4,1786,2729.8,1782.1,2730.6,1778z"
		/>
	<path class="st1" d="M2548.4,1761.5v154.7l111.3,22.4v-152c0-13.9,5.1-27.2,14.4-37.5l45.9-51.2l-29-5.6c-0.3,0.8-0.8,1.5-1.3,2.1
		c-10,11.2-24.2,18.2-39.2,19.1c-1,0.1-2,0.1-2.9,0.1c-4.1,0-7.5-0.6-10.7-1.9c-5.7-2.3-10-6.9-11.4-12.4
		c-1.4-5.1-0.2-10.9,3.2-15.9c0.7-1,1.5-2,2.3-2.9l-20.8-4c-0.3,0.6-0.7,1.1-1.1,1.6l-50.1,55.9
		C2552.1,1741.6,2548.4,1751.3,2548.4,1761.5z M2564.4,1748.5c0.8-4.1,4.8-6.7,8.8-5.9l53.7,10.6c4.1,0.8,6.7,4.8,5.9,8.8
		c-0.7,3.6-3.8,6-7.3,6c-0.5,0-1,0-1.5-0.1l-53.7-10.6C2566.3,1756.5,2563.6,1752.6,2564.4,1748.5z"/>
	<path class="st1" d="M2558.2,2153c1.4,6.7,3.3,13.6,5.1,20.3c4.9,17.8,9.9,36.2,7.1,55.2l166.9,33.6c2.2-15.9-2.1-32-6.8-48.9
		c-1.9-6.9-3.8-14-5.3-21.2c-12.6-61,15-133,64.9-172.6l-162.5-31.7c-0.4,0.5-0.9,0.9-1.4,1.2
		C2576.1,2022.8,2546.2,2094.9,2558.2,2153z M2626.7,2024c16,3,33.2,5.9,49.8,8.7c16.7,2.8,33.9,5.7,50.1,8.8
		c2.5,0.5,4.6,2.2,5.6,4.6c0.9,2.4,0.6,5.1-1,7.2c-28.5,38.2-40.4,92.3-30.3,137.8c0.6,2.6-0.3,5.3-2.2,7.1c-1.4,1.3-3.2,2-5.1,2
		c-0.7,0-1.5-0.1-2.2-0.3c-35.5-10.9-71.6-18.2-101.6-20.6c-3.1-0.2-5.8-2.4-6.6-5.4c-14.5-51.3,0-109.3,36.8-147.7
		C2621.6,2024.3,2624.2,2023.5,2626.7,2024z"/>
	<path class="st1" d="M2740,2188.9c1.4,6.7,3.3,13.6,5.1,20.3c4.9,18,10,36.6,7.1,55.9l154.2,31.1c0-0.3,0-0.7,0.1-1
		c2.7-16.3-1.8-32.8-6.6-50.2c-1.9-6.9-3.9-14.1-5.3-21.2c-12.5-60.4,14.5-131.8,63.6-171.6l-148.3-28.9c-0.5,0.6-1.1,1.2-1.8,1.6
		C2757.8,2058.7,2727.9,2130.8,2740,2188.9z M2799.7,2062.7c16,3,33.2,5.9,49.8,8.7c16.7,2.8,33.9,5.7,50.1,8.8
		c2.5,0.5,4.7,2.2,5.6,4.6c0.9,2.4,0.6,5.1-1,7.2c-28.5,38.2-40.4,92.3-30.4,137.8c0.6,2.6-0.3,5.3-2.2,7.1c-1.4,1.3-3.2,2-5.1,2
		c-0.7,0-1.5-0.1-2.2-0.3c-35.5-10.9-71.6-18.2-101.6-20.6c-3.1-0.2-5.8-2.4-6.6-5.4c-14.5-51.3,0-109.2,36.8-147.7
		C2794.7,2063.1,2797.2,2062.3,2799.7,2062.7z"/>
	<path class="st1" d="M2684,2182.1c-3-21.2-2-43.8,3-66.2c5-22.3,13.7-43.5,25.5-61.8c-12.6-2.3-25.7-4.5-38.5-6.6
		c-15.3-2.6-31-5.2-46-8c-30,33.4-42.2,81.7-31.8,125.4C2622.8,2167.4,2653.4,2173.4,2684,2182.1z"/>
	<polygon class="st1" points="2367.3,1869.4 2349.5,1876.2 2367.3,1879.8 	"/>
	<polygon class="st1" points="1152.9,1365.2 1152.9,1392 1156,1392.6 2053.2,1567.6 2053.2,1546.5 1156,1365.8 	"/>
	<path class="st1" d="M1998.7,1637.6c-6.8,7.6-10.5,17.4-10.5,27.5V1822c0.6,1.3,0.8,2.7,0.7,4.1l36.9,7.4c0.1-0.1,0.2-0.2,0.3-0.2
		c9-5.4,18.1-10.8,27.1-16.2v-234.2l-4.6-0.9L1998.7,1637.6z"/>
	<path class="st1" d="M2352.1,1146.8c1-0.9,2-1.9,3.1-2.8l-15.3-2.7c-45.7,42.2-91.5,83.1-135.9,122.7
		c-42.1,37.6-85.6,76.4-128.9,116.3l10,3.4l7.1,2.4c2.8-2.6,5.6-5.2,8.4-7.8c2.4-2.2,4.8-4.5,7.2-6.7c2.9-2.7,5.9-5.4,8.8-8.2
		c2.9-2.6,5.7-5.3,8.6-7.9c2.6-2.4,5.1-4.7,7.7-7.1c3.2-3,6.4-5.9,9.6-8.9c2.2-2.1,4.5-4.1,6.7-6.2c3.5-3.2,6.9-6.4,10.4-9.6
		c2.3-2.1,4.5-4.1,6.8-6.2c3.4-3.1,6.8-6.3,10.2-9.4c2.8-2.6,5.5-5.1,8.3-7.6c2.9-2.6,5.7-5.3,8.6-7.9c4.6-4.2,9.2-8.5,13.8-12.7
		c1-0.9,2-1.8,2.9-2.7c5.7-5.2,11.3-10.4,16.9-15.5c34.5-31.7,70.2-64.5,105.5-97C2339.2,1158.8,2345.6,1152.8,2352.1,1146.8z"/>
	<polygon class="st1" points="2068.2,2330.7 2086.6,2336.9 2086.6,1400 2068.2,1393.9 	"/>
	<path class="st1" d="M2053.2,1839v-4.5c-1.9,1.1-3.8,2.3-5.6,3.4L2053.2,1839z"/>
	<polygon class="st1" points="1152.9,1673 1152.9,1699.8 1156,1700.4 2053.2,1875.4 2053.2,1854.3 1156,1673.6 	"/>
	<path class="st1" d="M1980.5,1876.5c-50.2,33.9-80.1,106-68.1,164.1c1.4,6.7,3.3,13.6,5.1,20.3c5,18.2,10.2,37,7,56.6
		c-0.2,1.2-0.7,2.3-1.3,3.2l130,26.2v-202.6c-8.3-1.4-16.7-2.9-24.9-4.2c-15.3-2.6-31.1-5.2-46.2-8c-30.1,33.4-42.2,81.7-31.8,125.4
		c19.9,1.9,41.7,5.7,64.7,11.2c4,1,6.5,5,5.5,9c-0.8,3.4-3.9,5.7-7.3,5.7c-0.6,0-1.2-0.1-1.8-0.2c-24.4-5.9-47.1-9.7-67.7-11.3
		c-3.1-0.2-5.8-2.4-6.6-5.4c-14.5-51.3,0-109.2,36.8-147.7c1.8-1.8,4.3-2.7,6.8-2.2c16.1,3.1,33.3,6,49.9,8.8
		c7.4,1.2,14.9,2.5,22.4,3.8v-38.4L1980.5,1876.5C1980.5,1876.5,1980.5,1876.5,1980.5,1876.5z"/>
	<path class="st1" d="M1842.1,1903.3c-15.3-2.6-31-5.2-46-8c-30.1,33.4-42.3,81.7-31.8,125.4c26.6,2.5,57.2,8.6,87.8,17.2
		c-3-21.2-2-43.9,3-66.2c5-22.3,13.7-43.5,25.5-61.8C1867.9,1907.6,1854.9,1905.4,1842.1,1903.3z"/>
	<path class="st1" d="M1903.1,2064.9c-1.9-6.9-3.9-14-5.3-21.2c-12.5-60.2,14.3-131.1,63-171.1l-160.7-31.3
		c-0.2,0.2-0.5,0.4-0.7,0.6c-50.2,33.9-80.2,106-68.1,164.1c1.4,6.7,3.3,13.6,5.1,20.3c5,18.2,10.2,37,7,56.6
		c-0.1,0.5-0.2,1-0.4,1.5l166.9,33.6c-0.2-0.9-0.2-1.9-0.1-2.9C1912.4,2098.8,1907.8,2082.3,1903.1,2064.9z M1866.7,2054
		c-1.4,1.3-3.2,2-5.1,2c-0.7,0-1.5-0.1-2.2-0.3c-35.5-10.9-71.6-18.2-101.6-20.5c-3.1-0.2-5.8-2.4-6.6-5.4
		c-14.5-51.3,0-109.3,36.8-147.7c1.8-1.8,4.3-2.6,6.8-2.2c16,3,33.2,5.9,49.8,8.7c16.7,2.8,33.9,5.7,50.1,8.8
		c2.5,0.5,4.7,2.2,5.6,4.6c0.9,2.4,0.6,5.1-1,7.2c-28.5,38.2-40.4,92.3-30.4,137.8C1869.5,2049.5,1868.7,2052.2,1866.7,2054z"/>
	<path class="st1" d="M1716.5,2009c-12.5-60.4,14.5-131.8,63.6-171.6l-148.3-28.9c-0.5,0.6-1.1,1.2-1.7,1.6
		c-50.2,33.9-80.1,106-68.1,164.1c1.4,6.7,3.3,13.6,5.1,20.3c4.9,18,10,36.6,7.1,55.9l154.2,31.1c0-0.4,0-0.7,0.1-1
		c2.7-16.3-1.9-32.8-6.6-50.2C1720,2023.3,1718,2016.2,1716.5,2009z M1693.7,2022.3c-1.4,1.3-3.2,2-5.1,2c-0.7,0-1.5-0.1-2.2-0.3
		c-35.5-10.9-71.6-18.2-101.6-20.6c-3.1-0.2-5.8-2.4-6.6-5.4c-14.5-51.3,0-109.2,36.8-147.7c1.8-1.8,4.3-2.6,6.8-2.2
		c16,3,33.2,5.9,49.8,8.7c16.7,2.8,33.9,5.7,50.1,8.8c2.5,0.5,4.6,2.2,5.6,4.6c0.9,2.4,0.6,5.1-1,7.2
		c-28.5,38.2-40.4,92.3-30.3,137.8C1696.5,2017.7,1695.6,2020.5,1693.7,2022.3z"/>
	<path d="M3152.1,2133.4c-36.8,38.5-51.3,96.5-36.8,147.7c0.9,3,3.5,5.2,6.6,5.4c20.6,1.6,43.4,5.4,67.7,11.3
		c0.6,0.1,1.2,0.2,1.8,0.2c3.4,0,6.5-2.3,7.3-5.8c1-4-1.5-8.1-5.5-9c-23-5.5-44.8-9.3-64.7-11.2c-10.5-43.7,1.7-92,31.8-125.4
		c13,2.4,26.5,4.7,39.8,7v-15.2c-13.8-2.3-27.9-4.8-41.1-7.3C3156.4,2130.7,3153.8,2131.5,3152.1,2133.4z"/>
	<path d="M2961,1424.5c4,1.1,8.1-1.2,9.2-5.2c1.1-4-1.2-8.1-5.2-9.2c-46.6-12.9-96.3-11.4-140,4c-45.4,16.1-85.1,48.3-108.7,88.2
		c-19.1,32.2-22.1,65.1-8,88.2c10.2,16.8,29.9,27.5,49.5,27.5c2.3,0,4.6-0.1,6.9-0.5c4.1-0.5,7-4.3,6.5-8.4c-0.5-4.1-4.3-7-8.4-6.5
		c-16.1,2.1-33.2-6.1-41.7-19.9c-16.4-27,2.1-62.5,8.1-72.7c21.9-37,58.6-66.7,100.8-81.7C2870.8,1413.7,2917.3,1412.4,2961,1424.5z
		"/>
	<path d="M3124.6,1457.1c4,1.2,8.1-1.1,9.3-5c1.2-4-1.1-8.1-5-9.3c-35.7-10.7-74.6-11.3-112.3-1.7c-37.8,9.6-71.6,28.6-97.9,55
		c-17,17.1-28.8,35.2-35,53.6c-7.6,22.5-6.6,46.3,2.6,65.3c10.5,21.6,32.4,36.5,54.6,37c0.1,0,0.1,0,0.2,0c4.1,0,7.4-3.2,7.5-7.3
		c0.1-4.1-3.2-7.6-7.3-7.7c-16.7-0.4-33.4-11.9-41.5-28.6c-7.5-15.5-8.2-35.1-1.9-54c5.5-16.3,16-32.3,31.4-47.8
		C2978.9,1456.8,3057.4,1436.9,3124.6,1457.1z"/>
	<path d="M3071.4,1548.8c-19.6,26.1-28.2,51.4-25.8,74.9c2.1,20.4,13,40.1,29.9,54.1c15.3,12.7,34.9,20.6,56.7,22.8
		c0.3,0,0.5,0,0.8,0c3.8,0,7.1-2.9,7.5-6.8c0.4-4.1-2.6-7.8-6.7-8.2c-18.5-1.9-35.8-8.8-48.6-19.4c-13.9-11.5-22.8-27.6-24.5-44.1
		c-2-19.7,5.7-41.4,22.9-64.4c28.4-38,70.7-64.8,116.6-76.8v-15.5c-8.4,2-16.7,4.6-25,7.6
		C3132.8,1488.4,3096.9,1514.6,3071.4,1548.8z"/>
	<path d="M2992.7,1563.6c-1.1-4-5.3-6.3-9.3-5.1c-8.7,2.5-16.7,6.8-23.7,12.5c-5.1-3-10.3-5.7-15.7-8c-2-0.9-4.3-0.8-6.3,0.2
		c-2.7,1.3-4.5,4-4.6,7.1s1.3,5.9,3.8,7.5c1.7,1.1,3.7,1.4,5.6,1c2.1,1,4.2,2.1,6.3,3.3c-5.5,7-9.7,14.9-12.1,23.5
		c-1.1,4,1.2,8.1,5.2,9.3c0.7,0.2,1.4,0.3,2,0.3c3.3,0,6.3-2.2,7.2-5.5c2-7.1,5.6-13.7,10.4-19.4c6.7,4.9,12.9,10.5,18.3,16.6
		c1.5,1.7,3.5,2.5,5.6,2.5c1.8,0,3.6-0.6,5-1.9c3.1-2.8,3.4-7.5,0.6-10.6c-5.5-6.2-11.6-11.8-18.2-16.9c4.5-3.1,9.5-5.5,14.8-7
		C2991.6,1571.8,2993.9,1567.6,2992.7,1563.6z"/>
	<path d="M3173.9,1593.2c-1.1-4-5.3-6.3-9.3-5.1c-8.7,2.5-16.7,6.8-23.7,12.5c-5.1-3-10.3-5.7-15.7-8c-2-0.9-4.3-0.8-6.3,0.2
		c-2.7,1.3-4.5,4-4.6,7.1s1.3,5.9,3.8,7.5c1.7,1.1,3.7,1.4,5.6,1c2.1,1,4.2,2.1,6.3,3.3c-5.5,7-9.7,14.9-12.1,23.5
		c-1.1,4,1.2,8.1,5.2,9.3c0.7,0.2,1.4,0.3,2,0.3c3.3,0,6.3-2.2,7.2-5.5c2-7.1,5.6-13.7,10.4-19.4c6.7,4.9,12.9,10.5,18.3,16.6
		c1.5,1.7,3.5,2.5,5.6,2.5c1.8,0,3.6-0.6,5-1.9c3.1-2.8,3.4-7.5,0.6-10.6c-5.5-6.2-11.6-11.8-18.2-16.9c4.5-3.1,9.5-5.5,14.8-7
		C3172.8,1601.4,3175.1,1597.2,3173.9,1593.2z"/>
	<path d="M2822,1526c-1.1-4-5.3-6.3-9.3-5.1c-8.7,2.5-16.7,6.8-23.7,12.5c-5.1-3-10.3-5.7-15.7-8c-2-0.9-4.3-0.8-6.3,0.2
		c-2.7,1.3-4.5,4-4.6,7.1s1.3,5.9,3.8,7.5c1.7,1.1,3.7,1.4,5.6,1c2.1,1,4.2,2.1,6.3,3.3c-5.5,7-9.7,14.9-12.1,23.5
		c-1.1,4,1.2,8.1,5.2,9.3c0.7,0.2,1.4,0.3,2,0.3c3.3,0,6.3-2.2,7.2-5.5c2-7.1,5.6-13.7,10.4-19.4c6.7,4.9,12.9,10.5,18.3,16.6
		c1.5,1.7,3.5,2.5,5.6,2.5c1.8,0,3.6-0.6,5-1.9c3.1-2.8,3.4-7.5,0.6-10.6c-5.5-6.2-11.6-11.8-18.2-16.9c4.5-3.1,9.5-5.5,14.8-7
		C2820.9,1534.1,2823.2,1529.9,2822,1526z"/>
	<path d="M2642.5,1500.6c-1.1-4-5.3-6.3-9.3-5.1c-8.7,2.5-16.7,6.8-23.7,12.5c-5.1-3-10.3-5.7-15.7-8c-2-0.9-4.3-0.8-6.3,0.2
		c-2.7,1.3-4.5,4-4.6,7.1c-0.2,3,1.3,5.9,3.8,7.5c1.7,1.1,3.7,1.4,5.6,1c2.1,1,4.2,2.1,6.3,3.3c-5.5,7-9.7,14.9-12.1,23.5
		c-1.1,4,1.2,8.1,5.2,9.3c0.7,0.2,1.4,0.3,2,0.3c3.3,0,6.3-2.2,7.2-5.5c2-7.1,5.6-13.7,10.4-19.4c6.7,4.9,12.9,10.5,18.3,16.6
		c1.5,1.7,3.5,2.5,5.6,2.5c1.8,0,3.6-0.6,5-1.9c3.1-2.8,3.4-7.5,0.6-10.6c-5.5-6.2-11.6-11.8-18.2-16.9c4.5-3.1,9.5-5.5,14.8-7
		C2641.3,1508.7,2643.6,1504.6,2642.5,1500.6z"/>
	<path d="M2472.7,1478.3c-1.1-4-5.3-6.3-9.3-5.1c-8.7,2.5-16.7,6.8-23.7,12.5c-5.1-3-10.3-5.7-15.7-8c-2-0.9-4.3-0.8-6.3,0.2
		c-2.7,1.3-4.5,4-4.6,7.1c-0.2,3,1.3,5.9,3.8,7.5c1.7,1.1,3.7,1.4,5.6,1c2.1,1,4.2,2.1,6.3,3.3c-5.5,7-9.7,14.9-12.1,23.5
		c-1.1,4,1.2,8.1,5.2,9.3c0.7,0.2,1.4,0.3,2,0.3c3.3,0,6.3-2.2,7.2-5.5c2-7.1,5.6-13.7,10.4-19.4c6.7,4.9,12.9,10.5,18.3,16.6
		c1.5,1.7,3.5,2.5,5.6,2.5c1.8,0,3.6-0.6,5-1.9c3.1-2.8,3.4-7.5,0.6-10.6c-5.5-6.2-11.6-11.8-18.2-16.9c4.5-3.1,9.5-5.5,14.8-7
		C2471.5,1486.4,2473.8,1482.3,2472.7,1478.3z"/>
	<path d="M2820.4,1389.4c4,1.1,8.1-1.3,9.2-5.3c1.1-4-1.3-8.1-5.3-9.2c-40.9-10.8-87.4-10.7-142.4,0.3c-44,8.8-76.6,21.5-102.4,40
		c-33.4,24-54.9,59.3-57.5,94.4c-1.5,20.5,3.4,40.5,13.7,56.2c12,18.3,32,31.5,53.6,35.1c4.2,0.7,8.5,1.1,12.8,1.1
		c17.6,0,35.4-5.9,49.3-16.7c3.3-2.5,3.9-7.2,1.3-10.5c-2.5-3.3-7.2-3.9-10.5-1.3c-14.1,10.9-32.9,15.6-50.5,12.7
		c-17.5-3-33.8-13.6-43.5-28.5c-8.5-13-12.5-29.7-11.3-47c2.2-30.8,21.4-61.9,51.2-83.3c24-17.2,54.7-29.1,96.6-37.5
		C2737.4,1379.4,2781.8,1379.2,2820.4,1389.4z"/>
	<path d="M2460.9,1720.3l-53.7-10.6c-4.1-0.8-8,1.8-8.8,5.9c-0.8,4.1,1.8,8,5.9,8.8l53.7,10.6c0.5,0.1,1,0.1,1.5,0.1
		c3.5,0,6.6-2.5,7.3-6C2467.6,1725,2464.9,1721.1,2460.9,1720.3z"/>
	<path d="M2570.3,1757.3l53.7,10.6c0.5,0.1,1,0.1,1.5,0.1c3.5,0,6.6-2.5,7.3-6c0.8-4.1-1.8-8-5.9-8.8l-53.7-10.6
		c-4.1-0.8-8,1.8-8.8,5.9C2563.6,1752.6,2566.3,1756.5,2570.3,1757.3z"/>
	<path d="M2736.5,1786.8l53.7,10.6c0.5,0.1,1,0.1,1.5,0.1c3.5,0,6.6-2.5,7.3-6c0.8-4.1-1.8-8-5.9-8.8l-53.7-10.6
		c-4.1-0.8-8,1.8-8.8,5.9C2729.8,1782.1,2732.4,1786,2736.5,1786.8z"/>
	<path d="M2898,1822.4l53.7,10.6c0.5,0.1,1,0.1,1.5,0.1c3.5,0,6.6-2.5,7.3-6c0.8-4.1-1.8-8-5.9-8.8l-53.7-10.6
		c-4.1-0.8-8,1.8-8.8,5.9C2891.3,1817.6,2894,1821.6,2898,1822.4z"/>
	<path d="M3064.8,1835.9c-4.1-0.8-8,1.8-8.8,5.9c-0.8,4.1,1.8,8,5.9,8.8l53.7,10.6c0.5,0.1,1,0.1,1.5,0.1c3.5,0,6.6-2.5,7.3-6
		c0.8-4.1-1.8-8-5.9-8.8L3064.8,1835.9z"/>
	<path d="M2413.8,2137.5c30,2.4,66.1,9.7,101.6,20.5c0.7,0.2,1.5,0.3,2.2,0.3c1.9,0,3.7-0.7,5.1-2c2-1.8,2.8-4.5,2.2-7.1
		c-10.1-45.5,1.9-99.5,30.3-137.8c1.5-2.1,1.9-4.8,1-7.2c-0.9-2.4-3.1-4.2-5.6-4.6c-16.2-3.1-33.4-6-50.1-8.8
		c-16.6-2.8-33.8-5.7-49.8-8.7c-2.5-0.5-5.1,0.4-6.8,2.2c-36.8,38.5-51.3,96.5-36.8,147.7C2408,2135.1,2410.7,2137.3,2413.8,2137.5z
		 M2452.1,1997.7c15,2.8,30.8,5.4,46,8c12.7,2.1,25.8,4.3,38.4,6.6c-11.8,18.3-20.5,39.5-25.5,61.8c-5,22.3-6,45-3,66.2
		c-30.6-8.7-61.2-14.7-87.8-17.2C2409.8,2079.4,2422,2031.1,2452.1,1997.7z"/>
	<path d="M2583.1,2173.9c0.9,3,3.5,5.2,6.6,5.4c30,2.4,66.1,9.7,101.6,20.6c0.7,0.2,1.5,0.3,2.2,0.3c1.9,0,3.7-0.7,5.1-2
		c2-1.8,2.8-4.5,2.2-7.1c-10.1-45.5,1.8-99.6,30.3-137.8c1.5-2.1,1.9-4.8,1-7.2c-0.9-2.4-3.1-4.2-5.6-4.6c-16.2-3.1-33.4-6-50.1-8.8
		c-16.6-2.8-33.7-5.7-49.8-8.7c-2.5-0.5-5.1,0.4-6.8,2.2C2583,2064.7,2568.6,2122.7,2583.1,2173.9z M2628,2039.5
		c15,2.8,30.7,5.4,46,8c12.7,2.1,25.8,4.4,38.5,6.6c-11.8,18.3-20.5,39.5-25.5,61.8c-5,22.3-6,45-3,66.2
		c-30.6-8.7-61.2-14.7-87.8-17.2C2585.7,2121.2,2597.9,2072.9,2628,2039.5z"/>
	<path d="M2756.1,2212.7c0.9,3,3.5,5.2,6.6,5.4c30,2.4,66.1,9.7,101.6,20.6c0.7,0.2,1.5,0.3,2.2,0.3c1.9,0,3.7-0.7,5.1-2
		c2-1.8,2.8-4.5,2.2-7.1c-10.1-45.5,1.9-99.6,30.4-137.8c1.5-2.1,1.9-4.8,1-7.2c-0.9-2.4-3.1-4.2-5.6-4.6c-16.2-3.1-33.4-6-50.1-8.8
		c-16.6-2.8-33.8-5.7-49.8-8.7c-2.5-0.5-5.1,0.3-6.8,2.2C2756.1,2103.4,2741.7,2161.4,2756.1,2212.7z M2801,2078.2
		c15,2.8,30.7,5.4,46,8c12.7,2.1,25.8,4.3,38.4,6.6c-11.8,18.3-20.5,39.5-25.5,61.8c-5,22.3-6,45-3,66.2
		c-30.6-8.7-61.2-14.7-87.8-17.2C2758.8,2159.9,2771,2111.7,2801,2078.2z"/>
	<path d="M2929.2,2244.4c0.9,3,3.5,5.2,6.6,5.4c30,2.4,66.1,9.7,101.6,20.6c0.7,0.2,1.5,0.3,2.2,0.3c1.9,0,3.7-0.7,5.1-2
		c2-1.8,2.8-4.5,2.2-7.1c-10.1-45.5,1.9-99.5,30.4-137.8c1.5-2.1,1.9-4.8,1-7.2c-0.9-2.4-3-4.2-5.6-4.6c-16.2-3.1-33.4-6-50.1-8.8
		c-16.6-2.8-33.8-5.7-49.8-8.7c-2.5-0.5-5.1,0.3-6.8,2.2C2929.1,2135.1,2914.7,2193.1,2929.2,2244.4z M2974.1,2110
		c15,2.8,30.7,5.4,46,8c12.7,2.1,25.8,4.3,38.4,6.6c-11.8,18.3-20.5,39.5-25.5,61.8c-5,22.3-6,45-3,66.2
		c-30.6-8.7-61.2-14.7-87.8-17.2C2931.8,2191.7,2944,2143.4,2974.1,2110z"/>
	<path d="M1787,1195.3c-46.6-12.9-96.3-11.4-140,4c-45.4,16.1-85.1,48.3-108.7,88.2c-19.1,32.2-22.1,65.1-8,88.2
		c10.2,16.8,29.9,27.5,49.5,27.5c2.3,0,4.6-0.1,6.9-0.5c4.1-0.5,7-4.3,6.5-8.4c-0.5-4.1-4.3-7-8.4-6.5c-16.1,2.1-33.2-6.1-41.7-19.9
		c-16.4-27,2.1-62.5,8.1-72.7c21.9-37,58.6-66.7,100.8-81.7c40.8-14.5,87.3-15.8,131-3.7c4,1.1,8.1-1.2,9.2-5.2
		C1793.3,1200.5,1791,1196.4,1787,1195.3z"/>
	<path d="M1950.9,1228c-35.7-10.7-74.6-11.3-112.3-1.7c-37.8,9.6-71.6,28.6-97.9,55c-17,17.1-28.8,35.2-35,53.6
		c-7.6,22.5-6.6,46.3,2.6,65.3c10.5,21.6,32.4,36.5,54.6,37c0.1,0,0.1,0,0.2,0c4.1,0,7.4-3.2,7.5-7.3c0.1-4.1-3.2-7.6-7.3-7.7
		c-16.7-0.4-33.4-11.9-41.5-28.6c-7.5-15.5-8.2-35.1-1.9-54c5.5-16.3,16-32.3,31.4-47.8c49.5-49.8,128-69.7,195.3-49.5
		c4,1.2,8.1-1.1,9.3-5C1957.2,1233.4,1954.9,1229.2,1950.9,1228z"/>
	<path d="M2121.6,1264.5c4,0.9,8.1-1.5,9-5.6c1-4-1.5-8.1-5.6-9c-41.6-9.8-85.9-6.9-128.1,8.4c-42.2,15.3-78.1,41.5-103.6,75.7
		c-19.6,26.2-28.2,51.4-25.8,74.9c2.1,20.4,13,40.1,29.9,54.1c15.3,12.7,34.9,20.6,56.7,22.8c0.3,0,0.5,0,0.8,0
		c3.8,0,7.1-2.9,7.5-6.8c0.4-4.1-2.6-7.8-6.7-8.2c-18.5-1.9-35.8-8.7-48.6-19.4c-13.9-11.5-22.8-27.6-24.5-44.1
		c-2-19.7,5.7-41.4,22.9-64.4C1953.9,1278.2,2042.8,1245.9,2121.6,1264.5z"/>
	<path d="M1814.7,1348.9c-1.1-4-5.3-6.3-9.3-5.1c-8.7,2.5-16.7,6.8-23.7,12.5c-5.1-3-10.3-5.7-15.7-8c-2-0.9-4.3-0.8-6.3,0.2
		c-2.7,1.3-4.5,4-4.6,7.1s1.3,5.9,3.8,7.5c1.7,1.1,3.7,1.4,5.6,1c2.1,1,4.2,2.1,6.3,3.3c-5.5,7-9.7,14.9-12.1,23.5
		c-1.1,4,1.2,8.1,5.2,9.3c0.7,0.2,1.4,0.3,2,0.3c3.3,0,6.3-2.2,7.2-5.5c2-7.1,5.6-13.7,10.4-19.4c6.7,4.9,12.9,10.5,18.3,16.6
		c1.5,1.7,3.5,2.5,5.6,2.5c1.8,0,3.6-0.6,5-1.9c3.1-2.8,3.4-7.5,0.6-10.6c-5.5-6.2-11.6-11.8-18.2-16.9c4.5-3.1,9.5-5.5,14.8-7
		C1813.6,1357,1815.9,1352.9,1814.7,1348.9z"/>
	<path d="M1995.9,1378.5c-1.1-4-5.3-6.3-9.3-5.1c-8.7,2.5-16.7,6.8-23.7,12.5c-5.1-3-10.3-5.7-15.7-8c-2-0.9-4.3-0.8-6.3,0.2
		c-2.7,1.3-4.5,4-4.6,7.1c-0.2,3,1.3,5.9,3.8,7.5c1.7,1.1,3.7,1.4,5.6,1c2.1,1,4.2,2.1,6.3,3.3c-5.5,7-9.7,14.9-12.1,23.5
		c-1.1,4,1.2,8.1,5.2,9.3c0.7,0.2,1.4,0.3,2,0.3c3.3,0,6.3-2.2,7.2-5.5c2-7.1,5.6-13.7,10.4-19.4c6.7,4.9,12.9,10.5,18.3,16.6
		c1.5,1.7,3.5,2.5,5.6,2.5c1.8,0,3.6-0.6,5-1.9c3.1-2.8,3.4-7.5,0.6-10.6c-5.5-6.2-11.6-11.8-18.2-16.9c4.5-3.1,9.5-5.5,14.8-7
		C1994.8,1386.7,1997.1,1382.5,1995.9,1378.5z"/>
	<path d="M1644,1311.2c-1.1-4-5.3-6.3-9.3-5.1c-8.7,2.5-16.7,6.8-23.7,12.5c-5.1-3-10.3-5.7-15.7-8c-2-0.9-4.3-0.8-6.3,0.2
		c-2.7,1.3-4.5,4-4.6,7.1s1.3,5.9,3.8,7.5c1.7,1.1,3.7,1.4,5.6,1c2.1,1,4.2,2.1,6.3,3.3c-5.5,7-9.7,14.9-12.1,23.5
		c-1.1,4,1.2,8.1,5.2,9.3c0.7,0.2,1.4,0.3,2,0.3c3.3,0,6.3-2.2,7.2-5.5c2-7.1,5.6-13.7,10.4-19.4c6.7,4.9,12.9,10.5,18.3,16.6
		c1.5,1.7,3.5,2.5,5.6,2.5c1.8,0,3.6-0.6,5-1.9c3.1-2.8,3.4-7.5,0.6-10.6c-5.5-6.2-11.6-11.8-18.2-16.9c4.5-3.1,9.5-5.5,14.8-7
		C1642.9,1319.4,1645.2,1315.2,1644,1311.2z"/>
	<path d="M1464.5,1285.9c-1.1-4-5.3-6.3-9.3-5.1c-8.7,2.5-16.7,6.8-23.7,12.5c-5.1-3-10.3-5.7-15.7-8c-2-0.9-4.3-0.8-6.3,0.2
		c-2.7,1.3-4.5,4-4.6,7.1s1.3,5.9,3.8,7.5c1.7,1.1,3.7,1.4,5.6,1c2.1,1,4.2,2.1,6.3,3.3c-5.5,7-9.7,14.9-12.1,23.5
		c-1.1,4,1.2,8.1,5.2,9.3c0.7,0.2,1.4,0.3,2,0.3c3.3,0,6.3-2.2,7.2-5.5c2-7.1,5.6-13.7,10.4-19.4c6.7,4.9,12.9,10.5,18.3,16.6
		c1.5,1.7,3.5,2.5,5.6,2.5c1.8,0,3.6-0.6,5-1.9c3.1-2.8,3.4-7.5,0.6-10.6c-5.5-6.2-11.6-11.8-18.2-16.9c4.5-3.1,9.5-5.5,14.8-7
		C1463.3,1294,1465.6,1289.9,1464.5,1285.9z"/>
	<path d="M1294.7,1263.6c-1.1-4-5.3-6.3-9.3-5.1c-8.7,2.5-16.7,6.8-23.7,12.5c-5.1-3-10.3-5.7-15.7-8c-2-0.9-4.3-0.8-6.3,0.2
		c-2.7,1.3-4.5,4-4.6,7.1s1.3,5.9,3.8,7.5c1.7,1.1,3.7,1.4,5.6,1c2.1,1,4.2,2.1,6.3,3.3c-5.5,7-9.7,14.9-12.1,23.5
		c-1.1,4,1.2,8.1,5.2,9.3c0.7,0.2,1.4,0.3,2,0.3c3.3,0,6.3-2.2,7.2-5.5c2-7.1,5.6-13.7,10.4-19.4c6.7,4.9,12.9,10.5,18.3,16.6
		c1.5,1.7,3.5,2.5,5.6,2.5c1.8,0,3.6-0.6,5-1.9c3.1-2.8,3.4-7.5,0.6-10.6c-5.5-6.2-11.6-11.8-18.2-16.9c4.5-3.1,9.5-5.5,14.8-7
		C1293.5,1271.7,1295.8,1267.5,1294.7,1263.6z"/>
	<path d="M1646.2,1160.2c-40.9-10.8-87.4-10.7-142.4,0.3c-44,8.8-76.6,21.5-102.4,40c-33.4,24-54.9,59.3-57.5,94.4
		c-1.5,20.5,3.4,40.5,13.7,56.2c12,18.3,32,31.4,53.6,35.1c4.2,0.7,8.5,1.1,12.8,1.1c17.6,0,35.4-5.9,49.3-16.7
		c3.3-2.5,3.9-7.2,1.3-10.5c-2.5-3.3-7.2-3.9-10.5-1.3c-14.1,10.9-32.9,15.6-50.5,12.7c-17.5-3-33.8-13.6-43.5-28.5
		c-8.5-13-12.5-29.7-11.3-47c2.2-30.8,21.4-61.9,51.2-83.3c24-17.2,54.7-29.1,96.6-37.5c52.7-10.5,97-10.7,135.6-0.5
		c4,1.1,8.1-1.3,9.2-5.3C1652.6,1165.4,1650.2,1161.3,1646.2,1160.2z"/>
	<path d="M1282.9,1505.6l-53.7-10.6c-4.1-0.8-8,1.8-8.8,5.9c-0.8,4.1,1.8,8,5.9,8.8l53.7,10.6c0.5,0.1,1,0.1,1.5,0.1
		c3.5,0,6.6-2.5,7.3-6C1289.6,1510.3,1286.9,1506.4,1282.9,1505.6z"/>
	<path d="M1386.5,1533.8c-0.8,4.1,1.8,8,5.9,8.8l53.7,10.6c0.5,0.1,1,0.1,1.5,0.1c3.5,0,6.6-2.5,7.3-6c0.8-4.1-1.8-8-5.9-8.8
		l-53.7-10.6C1391.2,1527.1,1387.3,1529.7,1386.5,1533.8z"/>
	<path d="M1552.6,1563.3c-0.8,4.1,1.8,8,5.9,8.8l53.7,10.6c0.5,0.1,1,0.1,1.5,0.1c3.5,0,6.6-2.5,7.3-6c0.8-4.1-1.8-8-5.9-8.8
		l-53.7-10.6C1557.3,1556.6,1553.4,1559.2,1552.6,1563.3z"/>
	<path d="M1714.1,1598.9c-0.8,4.1,1.8,8,5.9,8.8l53.7,10.6c0.5,0.1,1,0.1,1.5,0.1c3.5,0,6.6-2.5,7.3-6c0.8-4.1-1.8-8-5.9-8.8
		L1723,1593C1718.9,1592.2,1715,1594.8,1714.1,1598.9z"/>
	<path d="M1878,1627c-0.8,4.1,1.8,8,5.9,8.8l53.7,10.6c0.5,0.1,1,0.1,1.5,0.1c3.5,0,6.6-2.5,7.3-6c0.8-4.1-1.8-8-5.9-8.8l-53.7-10.6
		C1882.7,1620.3,1878.8,1623,1878,1627z"/>
	<path d="M1377.3,1796.8c1.5-2.1,1.9-4.8,1-7.2c-0.9-2.4-3-4.2-5.6-4.6c-16.2-3.1-33.4-6-50.1-8.8c-16.6-2.8-33.8-5.7-49.8-8.7
		c-2.5-0.5-5.1,0.4-6.8,2.2c-36.8,38.5-51.3,96.5-36.8,147.7c0.9,3,3.5,5.2,6.6,5.4c30,2.4,66.1,9.7,101.6,20.6
		c0.7,0.2,1.5,0.3,2.2,0.3c1.9,0,3.7-0.7,5.1-2c2-1.8,2.8-4.5,2.2-7.1C1336.9,1889.1,1348.8,1835,1377.3,1796.8z M1333.1,1859.4
		c-5,22.3-6,45-3,66.2c-30.6-8.7-61.2-14.7-87.8-17.2c-10.5-43.7,1.7-92,31.8-125.4c15,2.8,30.7,5.4,46,8
		c12.7,2.1,25.8,4.3,38.4,6.6C1346.8,1815.9,1338,1837.1,1333.1,1859.4z"/>
	<path d="M1553.2,1838.6c1.5-2.1,1.9-4.8,1-7.2c-0.9-2.4-3.1-4.2-5.6-4.6c-16.2-3.1-33.4-6-50.1-8.8c-16.6-2.8-33.8-5.7-49.8-8.7
		c-2.5-0.5-5.1,0.4-6.8,2.2c-36.8,38.5-51.3,96.5-36.8,147.7c0.9,3,3.5,5.2,6.6,5.4c30,2.4,66.1,9.7,101.6,20.6
		c0.7,0.2,1.5,0.3,2.2,0.3c1.9,0,3.7-0.7,5.1-2c2-1.8,2.8-4.5,2.2-7.1C1512.8,1930.9,1524.7,1876.9,1553.2,1838.6z M1509,1901.2
		c-5,22.3-6,44.9-3,66.2c-30.6-8.7-61.2-14.7-87.8-17.2c-10.5-43.7,1.7-91.9,31.8-125.4c15,2.8,30.8,5.4,46,8
		c12.7,2.1,25.8,4.3,38.4,6.6C1522.7,1857.7,1513.9,1878.9,1509,1901.2z"/>
	<path d="M1726.3,1877.4c1.6-2.1,1.9-4.8,1-7.2c-0.9-2.4-3-4.2-5.6-4.6c-16.2-3.1-33.4-6-50.1-8.8c-16.6-2.8-33.8-5.7-49.8-8.7
		c-2.5-0.5-5.1,0.3-6.8,2.2c-36.8,38.5-51.3,96.5-36.8,147.7c0.9,3,3.5,5.2,6.6,5.4c30,2.4,66.1,9.7,101.6,20.6
		c0.7,0.2,1.5,0.3,2.2,0.3c1.9,0,3.7-0.7,5.1-2c2-1.8,2.8-4.5,2.2-7.1C1685.9,1969.7,1697.8,1915.6,1726.3,1877.4z M1682,1940
		c-5,22.3-6,45-3,66.2c-30.6-8.7-61.2-14.7-87.8-17.2c-10.5-43.7,1.7-92,31.8-125.4c15,2.8,30.7,5.4,46,8
		c12.7,2.1,25.8,4.3,38.4,6.6C1695.7,1896.5,1687,1917.6,1682,1940z"/>
	<path d="M1899.3,1909.1c1.5-2.1,1.9-4.8,1-7.2c-0.9-2.4-3.1-4.2-5.6-4.6c-16.2-3.1-33.4-6-50.1-8.8c-16.6-2.8-33.8-5.7-49.8-8.7
		c-2.5-0.5-5.1,0.4-6.8,2.2c-36.8,38.5-51.3,96.5-36.8,147.7c0.9,3,3.5,5.2,6.6,5.4c30,2.4,66.1,9.7,101.6,20.5
		c0.7,0.2,1.5,0.3,2.2,0.3c1.9,0,3.7-0.7,5.1-2c2-1.8,2.8-4.5,2.2-7.1C1858.9,2001.4,1870.8,1947.3,1899.3,1909.1z M1855.1,1971.7
		c-5,22.3-6,45-3,66.2c-30.6-8.7-61.2-14.7-87.8-17.2c-10.5-43.7,1.7-91.9,31.8-125.4c15,2.8,30.8,5.4,46,8
		c12.7,2.1,25.8,4.3,38.4,6.6C1868.8,1928.2,1860,1949.4,1855.1,1971.7z"/>
	<path d="M1424.1,2257.2v69.5c0,4.1,3.4,7.5,7.5,7.5s7.5-3.4,7.5-7.5v-69.5c0-4.1-3.4-7.5-7.5-7.5S1424.1,2253,1424.1,2257.2z"/>
	<path d="M1348.9,2251.4c-14.3,0-25.9,13.7-25.9,30.6c0,16.8,11.6,30.5,25.9,30.5s26-13.7,26-30.5
		C1374.8,2265.1,1363.2,2251.4,1348.9,2251.4z M1348.9,2297.5c-5.9,0-10.9-7.1-10.9-15.5c0-8.4,5-15.6,10.9-15.6
		c5.9,0,11,7.1,11,15.6C1359.8,2290.3,1354.8,2297.5,1348.9,2297.5z"/>
	<path d="M1830.1,2277.2c-15.9-0.7-34.3-1.9-52.1-3.1c-16.4-1.1-33.2-2.2-48.3-2.9v-102.6c0-0.1,0-0.2,0-0.4c0-0.2,0-0.5,0-0.7
		c-0.1-3.6-2.7-6.6-6.3-7.2l-145.9-24c-1-0.2-2-0.1-3,0.1l-278.9,67.9c-0.1,0-0.1,0-0.2,0.1c-0.1,0-0.1,0-0.1,0
		c-0.2,0.1-0.4,0.1-0.6,0.2c-0.1,0-0.1,0-0.1,0c-0.2,0.1-0.4,0.2-0.7,0.3c0,0,0,0,0,0c-0.2,0.1-0.5,0.3-0.7,0.4c0,0,0,0-0.1,0.1
		c-0.2,0.1-0.4,0.2-0.5,0.4c0,0-0.1,0-0.1,0.1c0,0-0.1,0.1-0.1,0.1c-0.1,0.1-0.3,0.3-0.4,0.4c0,0-0.1,0.1-0.1,0.1
		c-0.3,0.4-0.6,0.8-0.9,1.2c0,0.1-0.1,0.1-0.1,0.2c-0.1,0.2-0.2,0.3-0.3,0.5c0,0.1-0.1,0.1-0.1,0.2c-0.1,0.2-0.1,0.4-0.2,0.5
		c0,0.1,0,0.1-0.1,0.1c-0.1,0.2-0.1,0.5-0.2,0.7v0c0,0.2-0.1,0.5-0.1,0.7c0,0.1,0,0.2,0,0.2c0,0.2,0,0.3,0,0.5v74.5l-88.7,16
		c-4.1,0.7-6.8,4.6-6.1,8.7c0.6,3.6,3.8,6.2,7.4,6.2c0.4,0,0.9,0,1.3-0.1l86.1-15.5v30.3c0,3.7,2.7,6.8,6.3,7.4l133,20.9
		c0,0,0,0,0,0l0.1,0c0.3,0,0.6,0.1,0.9,0.1c0.1,0,0.2,0,0.3,0h0c0.2,0,0.5,0,0.7,0c0,0,0.1,0,0.2,0c0.2,0,0.4-0.1,0.6-0.1
		c0,0,0.1,0,0.1,0l291.7-64.8c3.4-0.8,5.9-3.8,5.9-7.3v-1.4c14.8,0.7,31.3,1.8,47.3,2.9c17.9,1.2,36.4,2.4,52.5,3.1
		c10.9,0.5,36.5,3.2,39,18.3c1.3,7.9-4.8,15.7-11,19.6c-8.1,5.1-18.3,6.9-28.2,8.6l-147.5,25.6c-21.2,3.7-33.4,14.5-31.9,28.3
		c1.1,10.3,9.3,15.9,15.9,20.4c3.6,2.5,7,4.8,8.9,7.4c4.7,6.3,1.5,16.8-4.5,22.6c-7.1,6.9-17.6,10.4-28.7,13.5
		c-150.5,43.1-312.1,54.6-467.1,33.1c-9.3-1.3-17.6-2.7-24.3-6.5c-5.5-3.1-10.9-9.2-10.8-15.7c0.3-12.8,20-19.4,31.6-22.2l67.2-16.1
		c27.5-6.6,33.4-19.5,33.5-29.2c0.2-19.6-21.3-27.5-41.4-28.3l-46.7-1.9c-4.2-0.2-7.6,3-7.8,7.2c-0.2,4.1,3,7.6,7.2,7.8l46.7,1.9
		c9.4,0.4,27.2,3.6,27.1,13.1c-0.1,8.6-15.4,13.2-22,14.8l-67.2,16.1c-35.1,8.4-42.8,24.4-43.1,36.4c-0.3,11.3,6.9,22.7,18.4,29.2
		c9.8,5.5,21.2,7.1,29.6,8.3c51.8,7.2,104.2,10.8,156.8,10.8c27.2,0,54.4-1,81.6-2.9c79.6-5.6,158.7-19.6,234.9-41.4
		c13-3.7,25.5-7.9,35.1-17.3c10.6-10.4,15.7-29,6-42.2c-3.5-4.7-8.3-8-12.5-10.9c-5.6-3.9-9.1-6.4-9.4-9.7
		c-0.6-5.8,9.7-10.2,19.6-11.9l147.5-25.6c10.8-1.9,23.1-4,33.7-10.7c10.6-6.7,20.3-20.1,17.8-34.8
		C1880.2,2289.5,1861.3,2278.6,1830.1,2277.2z M1576.6,2151.2l106.1,17.5l-252.5,56.1l-27.3-4.3l-67.3-10.6L1576.6,2151.2z
		 M1714.7,2281.5l-284.5,63.2l-125.3-19.7v-104.8l124.4,19.6c0.1,0,0.2,0,0.2,0c0.2,0,0.3,0,0.4,0.1c0.1,0,0.2,0,0.3,0h0.1
		c0,0,0.1,0,0.1,0h0c0.1,0,0.1,0,0.2,0c0.1,0,0.2,0,0.3,0h0.1c0.1,0,0.1,0,0.2,0c0.1,0,0.1,0,0.2,0c0.1,0,0.2,0,0.3,0
		c0.1,0,0.2,0,0.3,0l282.6-61.9V2281.5z"/>
	<path d="M1137.4,2407.9c0.3,0,0.7,0,1-0.1c2.4-0.3,4.5-1.8,5.6-3.9c72.5-136.9,81.6-313.2,23.5-460.2c-0.1-0.2-0.2-0.5-0.3-0.7
		l-11.4-22l-9.2-17.8c-2.2-4.4-4.8-9.3-9.1-13.4c-5.6-5.3-13.2-7.4-19.7-5.6c-8.8,2.4-13.2,10.9-15.3,15
		c-6.5,12.5-12,25.5-16.5,38.8c-17.6-3.2-28.7-2.9-47.6,0l-22.2-35.6c-2.5-4-10.1-16.1-22.3-14.4c-9.6,1.3-14.4,10.2-16.5,14.1
		c-8.9,16.4-15.9,32.1-20.6,46.8c-22.1,9.9-38.6,31.1-42.5,55.1c-3.4,20.9,3,42.9,16.5,59c-11.5,13.6-22.5,27.5-33.1,41.9
		c-9.8,13.3-19.2,27-28.1,40.9l-8.3-10.8c-2.5-3.3-7.2-3.9-10.5-1.4c-3.3,2.5-3.9,7.2-1.4,10.5l11.7,15.3c-6,9.9-11.8,19.8-17.4,30
		c-11.9,21.6-24.3,47-31.2,74.4c-1.1-22.8,4.3-47.1,10.9-70.8l1.5-5.3c9.9-35.2,20.1-71.6,10.8-107.7c-11-42.9-51.1-76.1-95.3-79.1
		c-16.1-1.1-30.8,1.9-42.4,8.6c-14.2,8.2-23.8,22.6-25,37.4c-1.4,17.2,9.3,33.9,24.7,38.7c9.1,2.9,18,1.5,26.6,0.2
		c6.5-1,12.7-1.9,18.1-0.8c12.8,2.6,20.7,16.4,22.6,28c2.3,13.8-1,28.6-4.2,42.9l-0.2,1.1c-7.5,33.6-12.5,61.9-12.7,91
		c-0.3,35,6.8,65.6,21.1,90.9c15.6,27.7,59.4,52.9,91.4,60.5c17.8,7.4,37.3,8.1,54.8,8.8l101.6,3.9c2.9,0.1,6,0.2,9,0.2
		c7.1,0,14.5-0.6,21.6-3.2c10.5-3.8,21.4-13.6,22.1-26.9c0.4-7.4-3.2-15-9.5-19.8c-1.3-1-2.6-1.8-4-2.5c3.6-6,7.1-12.3,10.1-18.9
		l8.2,43.3c0.8,4.3,1.7,9.2,4.3,13.8c3.4,6.1,9.2,10.1,15.3,10.6c0.5,0.1,1,0.1,1.5,0.1c5.2,0,10.4-2.4,14.5-6.7
		c3.4-3.6,5.4-7.9,7-11.7c0.8-1.7,1.5-3.5,2.1-5.3c2.9,7.5,7.2,14.5,12.7,20.4C1133.4,2407,1135.4,2407.9,1137.4,2407.9z
		 M910.4,2112.8c6.2,17.2,17.7,32.5,32.7,43.1c1.3,0.9,2.6,1.8,3.9,2.7c7.5,5.1,14.6,9.9,15.2,16.3c0.4,4.7-3.8,10.1-9.4,12
		c-7,2.4-15.1,0.4-20.7-1.8c-20-7.6-35.4-25.8-39.7-46.8C898.2,2129.7,904.2,2121.2,910.4,2112.8z M845.8,2217.9
		c8.4,12.3,20,22.5,33.4,29.1c0.8,0.4,1.5,0.7,2.3,1.1c4.8,2.3,9.9,4.8,11.1,8.2c0.8,2.1,0.1,5-1.6,7.3c-2.4,3.1-6.3,4.9-9.2,5.9
		c-9.5,3.3-20.7,2.1-29.3-3.1c-8.6-5.2-14.8-14.5-16.4-24.4c-0.1-0.5-0.2-0.9-0.4-1.4C838.9,2232.8,842.3,2225.2,845.8,2217.9z
		 M782.1,2331.3c-12.9-23-19.4-51.1-19.1-83.5c0.2-27.8,5.1-55.3,12.4-87.9l0.2-1.1c3.5-15.7,7.1-31.9,4.4-48.6
		c-2.8-17.1-14.6-36.2-34.4-40.3c-8.1-1.7-15.9-0.5-23.4,0.6c-7.2,1.1-14,2.1-19.8,0.3c-8.8-2.8-15.1-13-14.3-23.2
		c0.8-10,7.5-19.8,17.6-25.6c11.4-6.6,24.8-7.2,33.9-6.6c37.9,2.5,72.3,31.1,81.8,67.9c8.3,32.1-1.4,66.6-10.7,99.9l-1.5,5.4
		c-10.7,38.3-18.4,78.7-2.7,113.9c0.2,0.5,0.5,0.9,0.8,1.3c-0.1,9.1,0.7,18.2,2.5,27.4c2.7,13.9,7.8,26.5,14.7,37.2
		C806.3,2358.3,789.8,2344.9,782.1,2331.3z M1126.7,2360.8c2.5-11.1,4-22.6,4.2-33.9c0.1-4.1-3.2-7.6-7.3-7.7
		c-4.1-0.1-7.6,3.2-7.7,7.3c-0.4,19.8-4.8,39.8-12.6,57.9c-1.2,2.7-2.4,5.5-4.2,7.3c-1.2,1.2-2.7,2-3.7,2c-1.1-0.1-2.6-1.4-3.6-3
		c-1.4-2.5-2-5.9-2.7-9.3l-10.9-57.1c-0.5-2.6-2.2-4.6-4.5-5.5c0.3-1.2,0.5-2.5,0.8-3.7c4-22.1-1.7-50.6-23.6-64.8
		c-14.3-9.3-33.4-10.2-48.5-2.4c-3.7,1.9-5.1,6.4-3.2,10.1c1.9,3.7,6.4,5.1,10.1,3.2c10.3-5.3,23.8-4.6,33.5,1.7
		c16.1,10.4,20.1,32.4,17,49.5c-3.6,19.9-15.1,37.8-26.2,55c-2.2,3.5-1.2,8.1,2.2,10.4c1.3,0.8,2.7,1.2,4.1,1.2
		c2.5,0,4.9-1.2,6.3-3.4c0.6-0.9,1.2-1.9,1.8-2.8c1.2,0.1,2.4,0.8,3,1.3c2.3,1.7,3.8,4.6,3.6,7.1c-0.3,6.4-6.6,11.5-12.2,13.6
		c-7.5,2.8-16.4,2.4-24.9,2.1l-101.6-3.9c-18.6-0.7-39.7-1.5-56.4-10.9c-17.5-9.9-30.3-29.4-35.1-53.7c-4.4-22.1-1.9-44.3,3.9-65.4
		c4.1,6.6,9.8,12.3,16.5,16.4c7.8,4.7,16.8,7.1,25.8,7.1c5.4,0,10.9-0.9,16.1-2.6c7-2.4,12.5-6.1,16.2-11c5-6.5,6.4-14.8,3.8-21.8
		c-3.4-9-11.8-13.1-18.6-16.4c-0.7-0.3-1.4-0.7-2.1-1c-13.7-6.8-25-17.9-32.1-31.4c1.1-2,2.1-4,3.2-5.9c7.8-14.2,16-28.1,24.7-41.8
		c8.2,20.1,24.7,36.8,45.1,44.5c6.7,2.6,13.1,3.9,19,3.9c4.2,0,8.1-0.6,11.9-1.9c12.4-4.2,20.6-15.8,19.5-27.6
		c-1.2-13.4-12.6-21.1-21.7-27.3c-1.3-0.9-2.5-1.7-3.7-2.5c-15-10.6-25.6-26.6-29.8-44.3c-0.1-0.5-0.2-1-0.3-1.4
		c6.6-8.4,13.3-16.8,20.2-24.9c0.9,0.4,1.9,0.6,2.9,0.6c2.2,0,4.3-0.9,5.8-2.7c2.6-3.2,2.2-7.9-1-10.6
		c-15.6-12.9-23.6-34.1-20.4-54.2c3.3-20,17.6-37.6,36.5-44.9c2.2-0.8,3.8-2.6,4.5-4.8c4.5-14.6,11.4-30.6,20.5-47.4
		c2.8-5.1,4.4-6.2,5.4-6.4c0.6-0.1,3,0.2,7.5,7.5l24.9,39.8c1.6,2.5,4.6,3.9,7.5,3.4c20-3.2,29.7-3.9,45.7-1.1c-1,3.6-2,7.3-2.9,11
		c-1,4,1.5,8.1,5.6,9c4,1,8.1-1.5,9-5.6c1.3-5.5,2.8-11,4.4-16.4c0.4-0.7,0.7-1.4,0.9-2.2c0.1-0.3,0.1-0.7,0.1-1
		c4.5-14.2,10.2-27.9,17.1-41.1c1-2,3.5-6.7,6-7.4c1.4-0.4,3.6,0.5,5.4,2.1c2.4,2.3,4.3,5.9,6.1,9.3l20.3,39.5
		c0.7,1.9,1.5,3.7,2.2,5.6c52.4,138,44.9,301.4-19.7,431.1c-3.4-6-5.5-12.8-6-19.6C1130.1,2364.1,1128.7,2362,1126.7,2360.8z"/>
	<path d="M1127,1988.9c-19.2,1.5-38.3,7-55.4,15.8c-3.7,1.9-5.1,6.4-3.2,10.1c1.3,2.6,4,4.1,6.7,4.1c1.2,0,2.3-0.3,3.4-0.8
		c15.3-7.9,32.5-12.8,49.7-14.2c4.1-0.3,7.2-3.9,6.9-8.1C1134.8,1991.6,1131.2,1988.5,1127,1988.9z"/>
	<path d="M1122.2,2040.8l-46.4-8c-4.1-0.7-8,2-8.7,6.1c-0.7,4.1,2,8,6.1,8.7l46.4,8c0.4,0.1,0.9,0.1,1.3,0.1c3.6,0,6.8-2.6,7.4-6.2
		C1129,2045.4,1126.3,2041.5,1122.2,2040.8z"/>
	<path d="M975.3,1989c-4,0-7.3,5-7.3,11.2s3.3,11.2,7.3,11.2s7.3-5,7.3-11.2S979.3,1989,975.3,1989z"/>
	<path d="M1026.7,1989c-4,0-7.3,5-7.3,11.2s3.3,11.2,7.3,11.2c4,0,7.3-5,7.3-11.2S1030.7,1989,1026.7,1989z"/>
	<path d="M1001,2013.1c-4.4,0-7.9,2.3-7.9,5.2s3.6,8,7.9,8s7.9-5.1,7.9-8S1005.3,2013.1,1001,2013.1z"/>
	<path d="M898.1,1994.8c0.9-4-1.6-8.1-5.6-9l-27.3-6.4c-4-0.9-8.1,1.6-9,5.6c-0.9,4,1.6,8.1,5.6,9l27.3,6.4c0.6,0.1,1.2,0.2,1.7,0.2
		C894.2,2000.6,897.3,1998.3,898.1,1994.8z"/>
	<path d="M884,2017.6c-6.1,4-13.4,6-20.7,5.5c-4.1-0.3-7.7,2.8-8,6.9c-0.3,4.1,2.8,7.7,6.9,8c1.1,0.1,2.3,0.1,3.4,0.1
		c9.4,0,18.8-2.8,26.7-8.1c3.4-2.3,4.4-7,2.1-10.4C892.1,2016.2,887.5,2015.3,884,2017.6z"/>
	<path d="M1793.5,2380.6c-21.4-3.3-44.5-0.6-64.9,7.6c-9.9,4-14.9,11.2-12.9,18.9c2,7.6,9.8,10.3,12.3,11.1
		c12.3,4.1,25.4,6.2,38.6,6.2c9.7,0,19.3-1.1,28.6-3.4c15.9-3.9,21.2-13.4,20.8-21C1815.6,2390.3,1806.8,2382.7,1793.5,2380.6z
		 M1791.6,2406.5c-19.2,4.7-40.1,3.8-58.8-2.5c-0.5-0.2-0.9-0.3-1.3-0.5c0.7-0.4,1.5-0.9,2.7-1.4c13-5.2,27.1-7.9,41.1-7.9
		c5.4,0,10.7,0.4,15.9,1.2c6.8,1.1,9.8,3.9,9.8,5.3C1801.1,2401.8,1798.8,2404.7,1791.6,2406.5z"/>
	<path d="M2329.6,1188c4.4-4.1,8.8-8.2,13.2-12.2c6.3-5.8,12.7-11.7,19-17.6c0.7-0.6,1.4-1.2,2-1.9v50.4h0.2
		c0.2,3.9,3.4,7.1,7.4,7.1c4.1,0,7.4-3.3,7.4-7.4c0,0,0,0,0,0h0.1v-67.2c0,0,0,0,0,0c0-0.4,0-0.7-0.1-1.1c0-0.1,0-0.2-0.1-0.4
		c0-0.2-0.1-0.4-0.1-0.7c0,0,0,0,0,0c-0.1-0.2-0.1-0.3-0.2-0.5c-0.1-0.2-0.1-0.3-0.2-0.5c-0.1-0.1-0.1-0.2-0.2-0.4
		c-0.1-0.2-0.2-0.4-0.3-0.5c-0.1-0.1-0.2-0.2-0.2-0.3c-0.1-0.2-0.2-0.3-0.4-0.5c-0.1-0.1-0.2-0.2-0.3-0.3c-0.1-0.1-0.3-0.3-0.4-0.4
		c-0.1-0.1-0.2-0.2-0.4-0.3c-0.2-0.1-0.3-0.2-0.5-0.4c-0.1-0.1-0.3-0.1-0.4-0.2c-0.2-0.1-0.4-0.2-0.5-0.3c0,0-0.1-0.1-0.1-0.1
		c-0.1,0-0.2-0.1-0.3-0.1c-0.2-0.1-0.4-0.1-0.6-0.2c-0.2,0-0.3-0.1-0.5-0.1c-0.1,0-0.2-0.1-0.3-0.1l-31.7-5.5
		c-0.1-0.1-0.2-0.1-0.4-0.2c-1.2-0.5-2.4-0.6-3.6-0.5l-340.8-59.1v-49.7l373.9,66.1c0,0,0.1,0,0.1,0c0.1,0,0.1,0,0.2,0
		c0.3,0,0.6,0.1,0.9,0.1c0,0,0,0,0.1,0c0.4,0,0.7,0,1.1-0.1c0.1,0,0.2,0,0.3,0c0.1,0,0.2,0,0.3-0.1c0.1,0,0.2-0.1,0.4-0.1
		c0.1,0,0.2-0.1,0.3-0.1c0.1-0.1,0.3-0.1,0.4-0.1c0,0,0.1,0,0.1,0l34.6-13.7c2.9-1.1,4.7-3.9,4.7-7V770.9c0-3.6-2.6-6.8-6.2-7.4
		L1345.2,578.8c-1.7-0.3-3.4,0-4.9,0.8l-42.7,23.7c-0.1,0.1-0.2,0.1-0.3,0.2c-0.1,0.1-0.2,0.1-0.3,0.2c-0.2,0.1-0.3,0.2-0.5,0.4
		c0,0-0.1,0-0.1,0.1c0,0,0,0,0,0c-0.4,0.4-0.8,0.7-1.1,1.2c0,0-0.1,0.1-0.1,0.1c-0.1,0.2-0.2,0.4-0.4,0.5c0,0.1-0.1,0.1-0.1,0.2
		c-0.1,0.1-0.2,0.3-0.2,0.5c0,0.1-0.1,0.2-0.1,0.3c-0.1,0.1-0.1,0.3-0.2,0.4c0,0.1-0.1,0.2-0.1,0.3c0,0.1-0.1,0.3-0.1,0.4
		c0,0.1-0.1,0.2-0.1,0.3c0,0.2-0.1,0.3-0.1,0.5c0,0.1,0,0.2,0,0.3c0,0.2,0,0.4,0,0.6c0,0,0,0.1,0,0.1v276.5c0,3.6,2.6,6.8,6.2,7.4
		l308.6,54.6v51l-256.8-44.5l-50-8.2c-2.2-0.4-4.5,0.3-6.2,1.8c-45.9,41.2-91.9,83.7-136.3,124.9c-1.1,1-2.1,2-3.2,3
		c-43.4,40.2-88.2,81.6-132.9,121.7c-1.6,1.4-2.5,3.5-2.5,5.6v680.9c0,4.1,3.4,7.5,7.5,7.5c4.1,0,7.5-3.4,7.5-7.5v-677.5
		c40.5-36.4,81-73.7,120.4-110.2c4.5-4.2,9-8.3,13.4-12.4c43.5-40.3,88.5-81.9,133.5-122.3l31.2,5.1c-42.8,39.6-85.7,79-127.3,117.2
		c-16.8,15.4-33.7,31-50.8,46.7c-29.1,26.8-58.6,53.9-88,81.1c-1.5,1.4-2.4,3.4-2.4,5.5v692.5c0,4.1,3.4,7.5,7.5,7.5
		c4.1,0,7.5-3.4,7.5-7.5v-689.2c25.1-23.3,50.3-46.5,75.4-69.5c20.5-18.9,40.9-37.6,60.9-56c41.2-37.9,83.7-76.9,126.1-116v96.2
		c0,4.1,3.4,7.5,7.5,7.5c4.1,0,7.5-3.4,7.5-7.5V971.1l963.3,167c-42.8,39.4-85.6,77.7-127.2,114.8c-45.2,40.3-91.9,82-138.4,125.1
		c0,0,0,0,0,0c0,0-0.1,0.1-0.1,0.1c-0.2,0.2-0.4,0.4-0.6,0.6c-0.1,0.1-0.1,0.2-0.2,0.3c-0.1,0.2-0.2,0.3-0.4,0.5
		c-0.1,0.1-0.1,0.2-0.2,0.3c-0.1,0.2-0.2,0.3-0.3,0.5c-0.1,0.1-0.1,0.2-0.1,0.4c-0.1,0.2-0.1,0.3-0.2,0.5c0,0.1-0.1,0.2-0.1,0.4
		c-0.1,0.2-0.1,0.3-0.1,0.5c0,0.1,0,0.3-0.1,0.4c0,0.2,0,0.4-0.1,0.5c0,0.1,0,0.3,0,0.4c0,0.1,0,0.1,0,0.2v147.8l-881.7-177.6
		c2.5-1,5-2,7.4-3c10-4.1,20.3-8.3,28.3-11.4c0,0,0,0,0,0c13.7,11.4,31.2,17.6,48.3,17.6c9.1,0,18-1.7,26.2-5.3
		c3.8-1.7,5.5-6.1,3.9-9.9c-1.7-3.8-6.1-5.5-9.9-3.9c-19.6,8.6-45.1,3.4-61.8-12.6c-15.9-15.2-24-38.7-21.7-63
		c2-21.8,12.4-44.3,29.2-63.5c14.2-16.2,33.1-30.6,57.8-44.1c35.7-19.5,70.7-30.3,104.1-32c38.5-2,74.5,8.3,101.5,29.1
		c3.3,2.5,8,1.9,10.5-1.4c2.5-3.3,1.9-8-1.4-10.5c-29.8-22.9-69.4-34.4-111.5-32.2c-35.6,1.8-72.8,13.2-110.5,33.8
		c-26.3,14.4-46.5,29.9-61.9,47.4c-18.9,21.5-30.5,47.1-32.9,71.9c-2.3,24.7,4.6,48.9,18.7,66.9c-7,2.8-14.9,6-22.6,9.1
		c-5.9,2.4-11.8,4.8-17.3,7c-3.9,1.6-7.6,3-11,4.3c-0.4,0.2-0.8,0.4-1.2,0.6c-1.1,0.2-2.2,0.8-3.1,1.5c-1.7,1.4-2.8,3.5-2.8,5.8
		v42.1c0,3.6,2.6,6.7,6.1,7.4l12,2.3l92.8,18.1l-45.1,50.3c-9.3,10.3-14.4,23.7-14.4,37.5v124.7l-33.3,12.8l-11,4.2
		c-0.7,0.3-1.4,0.7-2,1.1c-0.8,0.3-1.6,0.7-2.4,1.3c-1.7,1.4-2.8,3.5-2.8,5.8v42.1c0,3.6,2.6,6.7,6.1,7.4l12,2.3l96.8,18.9
		c-48.5,40-75.1,110.8-62.7,170.8c1.5,7.2,3.5,14.3,5.3,21.2c1.5,5.4,2.9,10.7,4.1,15.9l-12.2,4.7c-3.9,1.5-5.8,5.8-4.3,9.7
		c1.1,3,4,4.8,7,4.8c0.9,0,1.8-0.2,2.7-0.5l9.5-3.7c0.7,6,0.8,12-0.1,17.9l-2.6-0.5c-4.1-0.8-8,1.8-8.8,5.9c-0.8,4.1,1.8,8,5.9,8.8
		l856.6,172.5v21L1352,2046.5c0,0-0.1,0-0.1,0l-143.1-27.9c-4.1-0.8-8,1.9-8.8,5.9c-0.8,4.1,1.9,8,5.9,8.8l137,26.7v42.9
		l-117.2,25.9c-4,0.9-6.6,4.9-5.7,8.9c0.8,3.5,3.9,5.9,7.3,5.9c0.5,0,1.1-0.1,1.6-0.2l123.1-27.2c3.4-0.8,5.9-3.8,5.9-7.3v-46
		l695.2,135.5v137.7c0,3.2,2.1,6.1,5.1,7.1l33.3,11.2c0.2,0.1,0.5,0.1,0.7,0.2c0.2,0,0.3,0.1,0.4,0.1c0.4,0.1,0.8,0.1,1.2,0.1
		c0.4,0,0.7,0,1-0.1c0.1,0,0.2,0,0.3,0c0.1,0,0.2,0,0.3-0.1l76-16.8v-0.1c4.2,0,7.6-3.4,7.6-7.6s-3.4-7.6-7.6-7.6v-0.1l-0.4,0.1
		c-0.8,0-1.6,0.2-2.3,0.5c0,0,0,0,0,0l-67.4,14.9v-940c2.5-2.3,4.9-4.6,7.4-6.8c3-2.7,5.9-5.5,8.9-8.2c2.7-2.5,5.4-4.9,8-7.4
		c3.1-2.8,6.2-5.7,9.2-8.5c2.7-2.5,5.5-5,8.2-7.6c3-2.8,6-5.5,8.9-8.2c3.1-2.9,6.2-5.7,9.4-8.6c2.6-2.4,5.2-4.8,7.8-7.1
		c4.4-4.1,8.9-8.1,13.3-12.2c1.2-1.1,2.4-2.2,3.6-3.3c17.2-15.8,34.3-31.5,51.1-47C2267.6,1245.1,2298.7,1216.5,2329.6,1188z
		 M1345.2,594l1053.3,183.2v279.5l-19.6,7.8V795c0-3.6-2.6-6.8-6.2-7.4L1323.5,606.1L1345.2,594z M1308.7,880V618.8l1055.2,182.5
		v265.3L1308.7,880z M1649.5,1006.4l-26-4.5v-51l26,4.6V1006.4z M1675.3,1010.9l-10.8-1.9v-50.8l10.8,1.9V1010.9z M1914.7,1052.4
		l-224.4-38.9v-50.8l224.5,39.7L1914.7,1052.4z M1955.6,1059.1l-25.9-4.5l0.1-49.1l25.9,4.6L1955.6,1059.1z M1981.2,1063.9
		l-10.6-1.8l0.1-49.8l10.5,1.9V1063.9z M1204.3,1513.8c0-10.2,3.7-20,10.5-27.5l50.1-55.9c0.3-0.4,0.6-0.7,0.8-1.1l20.6,4
		c-0.6,0.8-1.3,1.5-1.8,2.4c-3.4,5-4.6,10.8-3.2,15.9c1.4,5.4,5.7,10,11.4,12.4c3.1,1.3,6.6,1.9,10.7,1.9c0.9,0,1.9,0,2.9-0.1
		c15-0.9,29.2-7.9,39.2-19.1c0.4-0.5,0.8-1,1.1-1.6l28.8,5.6l-45.5,50.7c-9.3,10.3-14.4,23.7-14.4,37.5v151.6l-111.3-22.4V1513.8z
		 M1296.9,1444.2c1.3-2,3.5-3.8,5.9-5.7c0.6-0.5,1.1-1,1.5-1.7l24.8,4.8c-6.7,5.3-15,8.6-23.7,9.2c-3.1,0.2-5.3,0-7-0.7
		c-1.5-0.6-2.4-1.6-2.6-2.3C1295.6,1447.1,1295.9,1445.7,1296.9,1444.2z M1447.4,1484.6c1.4,5.4,5.7,10,11.4,12.3
		c3.2,1.3,6.6,1.9,10.7,1.9c1,0,1.9,0,3-0.1c15-1,29.2-7.9,39.2-19.1c0.6-0.6,1-1.4,1.3-2.1l29,5.6l-45.9,51.2
		c-9.3,10.3-14.4,23.7-14.4,37.5v152l-111.3-22.4v-154.7c0-10.2,3.7-20,10.5-27.5l50.1-55.9c0.5-0.5,0.8-1.1,1.1-1.6l20.8,4
		c-0.8,0.9-1.6,1.8-2.3,2.9C1447.2,1473.7,1446.1,1479.5,1447.4,1484.6z M1463,1477.2c1.4-2,3.6-3.8,5.9-5.7
		c0.8-0.6,1.4-1.4,1.8-2.2l25.1,4.9c-6.8,5.6-15.4,9.1-24.3,9.6c-3.1,0.2-5.3,0-7-0.7c-1.4-0.6-2.4-1.6-2.6-2.3
		C1461.7,1480.1,1462,1478.7,1463,1477.2z M1613.6,1514.1c1.4,5.4,5.7,10,11.4,12.3c3.1,1.3,6.6,1.9,10.7,1.9c0.9,0,1.9,0,2.9-0.1
		c14.8-0.9,28.8-7.7,38.8-18.7l28.5,5.6l-43.7,48.7c-9.3,10.3-14.4,23.7-14.4,37.5v156l-110.6-22.3c-0.1-0.7-0.3-1.3-0.6-2v-156.9
		c0-10.2,3.7-20,10.5-27.5l49.3-55l20.7,4c-0.1,0.1-0.2,0.2-0.3,0.4C1613.4,1503.2,1612.2,1509,1613.6,1514.1z M1629.2,1506.6
		c1.3-1.9,3.3-3.6,5.5-5.4l24.1,4.7c-6.2,4.2-13.6,6.8-21.2,7.3c-3.1,0.2-5.3,0-7-0.7c-1.5-0.6-2.4-1.6-2.6-2.3
		C1627.9,1509.5,1628.1,1508.1,1629.2,1506.6z M1775.1,1549.7c1.4,5.4,5.7,10,11.4,12.3c3.1,1.3,6.6,1.9,10.7,1.9c1,0,1.9,0,3-0.1
		c15-1,29.2-7.9,39.2-19.1c0.8-0.9,1.4-2.1,1.7-3.2l29.5,5.8l-46.8,52.2c-9.3,10.3-14.4,23.7-14.4,37.6v153l-111.3-22.4v-155.6
		c0-10.2,3.7-20,10.5-27.5l50.1-55.9c0.7-0.8,1.2-1.8,1.6-2.7l21.2,4.1c-1.1,1.2-2.2,2.4-3.2,3.9
		C1774.9,1538.8,1773.8,1544.6,1775.1,1549.7z M1790.7,1542.2c1.4-2,3.6-3.8,5.9-5.7c1.1-0.9,1.9-2,2.3-3.3l25.7,5
		c-7,6.2-16,10-25.4,10.6c-3.1,0.2-5.3,0-7-0.7c-1.4-0.6-2.4-1.6-2.6-2.3C1789.4,1545.1,1789.7,1543.7,1790.7,1542.2z M1939,1577.9
		c1.4,5.4,5.7,10,11.4,12.3c3.1,1.3,6.6,1.9,10.7,1.9c0.9,0,1.9,0,2.9-0.1c14.9-1,29.1-7.9,39-19l28.5,5.5l-43.9,49
		c-9.3,10.3-14.4,23.7-14.4,37.5v157.8l-110.6-22.3c0.1-1.3-0.1-2.6-0.7-3.8v-156.9c0-10.2,3.8-20,10.5-27.5l49.6-55.2l20.6,4
		c-0.2,0.2-0.3,0.4-0.5,0.7C1938.8,1566.9,1937.6,1572.7,1939,1577.9z M1954.6,1570.4c1.3-2,3.5-3.8,5.9-5.6l24.2,4.7
		c-6.3,4.4-13.8,7.1-21.5,7.6c-3.1,0.2-5.4,0-7.1-0.7c-1.4-0.6-2.4-1.6-2.6-2.3C1953.3,1573.3,1953.5,1571.9,1954.6,1570.4z
		 M1861.3,1602.5c-9.3,10.3-14.4,23.7-14.4,37.6v157.4l-22.6-4.5v-156c0-10.2,3.8-20,10.6-27.5l50.1-55.9c0.8-0.9,1.4-2,1.7-3.2
		l18.2,3.5L1861.3,1602.5z M1697.5,1574.3c-9.3,10.3-14.4,23.7-14.4,37.6v152.6l-19.6-4c-0.1-0.8-0.3-1.6-0.7-2.3v-156.9
		c0-10.2,3.7-20,10.5-27.5l49.7-55.4l20.9,4.1L1697.5,1574.3z M1535.9,1538.7c-9.3,10.3-14.4,23.7-14.4,37.5V1732l-24.9-5v-155.1
		c0-10.2,3.7-20,10.5-27.5l50.1-55.9c0.6-0.6,1-1.3,1.3-2.1l20.6,4L1535.9,1538.7z M1369.8,1509.3c-9.3,10.3-14.4,23.7-14.4,37.5
		v151.7l-24.8-5v-154.6c0-10.2,3.7-19.9,10.5-27.5l50.1-55.9c0.4-0.5,0.8-1,1.1-1.5l23.1,4.5L1369.8,1509.3z M1189.3,1654.6v10.4
		l-17.8-3.6L1189.3,1654.6z M1377.8,2010.8l-160.8-32.4c2.9-19.2-2.1-37.8-7.1-55.8c-1.8-6.7-3.7-13.6-5.1-20.3
		c-12-58,17.8-130,67.8-163.9l157.4,30.7c-49.6,39.7-77,111.5-64.4,172.2c1.5,7.2,3.4,14.3,5.3,21.2
		C1375.5,1979.3,1379.8,1995.2,1377.8,2010.8z M1559.4,2047.4l-166.9-33.6c2.8-19-2.3-37.4-7.1-55.2c-1.8-6.7-3.7-13.6-5.1-20.3
		c-12-58.1,17.9-130.2,68.1-164.1c0.5-0.4,1-0.8,1.4-1.2l162.5,31.7c-49.9,39.6-77.5,111.7-64.9,172.6c1.5,7.2,3.4,14.3,5.3,21.2
		C1557.3,2015.5,1561.7,2031.5,1559.4,2047.4z M1728.5,2080.4c-0.1,0.3-0.1,0.7-0.1,1l-154.2-31.1c3-19.3-2.1-37.9-7.1-55.9
		c-1.8-6.7-3.7-13.6-5.1-20.3c-12.1-58.1,17.9-130.2,68.1-164.1c0.7-0.5,1.3-1,1.7-1.6l148.3,28.9c-49.1,39.8-76.1,111.2-63.6,171.6
		c1.5,7.2,3.4,14.3,5.3,21.2C1726.6,2047.6,1731.2,2064.1,1728.5,2080.4z M1909.8,2118l-166.9-33.6c0.2-0.5,0.3-1,0.4-1.5
		c3.2-19.5-2-38.4-7-56.6c-1.8-6.7-3.7-13.6-5.1-20.3c-12.1-58.1,17.9-130.2,68.1-164.1c0.3-0.2,0.5-0.4,0.7-0.6l160.7,31.3
		c-48.7,39.9-75.5,110.9-63,171.1c1.5,7.2,3.5,14.3,5.3,21.2c4.8,17.4,9.3,33.9,6.6,50.2C1909.5,2116.1,1909.6,2117,1909.8,2118z
		 M2053.2,1929c-7.5-1.3-15-2.6-22.4-3.8c-16.6-2.8-33.9-5.7-49.9-8.8c-2.5-0.5-5.1,0.4-6.8,2.2c-36.8,38.5-51.3,96.5-36.8,147.7
		c0.9,3,3.5,5.2,6.6,5.4c20.6,1.6,43.4,5.4,67.7,11.3c0.6,0.1,1.2,0.2,1.8,0.2c3.4,0,6.5-2.3,7.3-5.7c1-4-1.5-8.1-5.5-9
		c-23.1-5.5-44.8-9.3-64.7-11.2c-10.5-43.7,1.7-91.9,31.8-125.4c15,2.8,30.8,5.4,46.2,8c8.2,1.4,16.6,2.8,24.9,4.2v202.6l-130-26.2
		c0.6-0.9,1.1-2,1.3-3.2c3.2-19.5-2-38.4-7-56.6c-1.8-6.7-3.7-13.6-5.1-20.3c-12.1-58.1,17.9-130.2,68.1-164.1c0,0,0,0,0.1,0
		l72.7,14.2V1929z M2053.2,1875.4L1156,1700.4l-3.1-0.6V1673l3.1,0.6l897.3,180.7V1875.4z M2053.2,1839l-5.6-1.1
		c1.9-1.1,3.8-2.2,5.6-3.4V1839z M2053.2,1817c-9,5.4-18.1,10.8-27.1,16.2c-0.1,0.1-0.2,0.2-0.3,0.2l-36.9-7.4
		c0.1-1.4-0.1-2.8-0.7-4.1v-156.9c0-10.2,3.7-20,10.5-27.5l49.9-55.7l4.6,0.9V1817z M2053.2,1567.6L1156,1392.6l-3.1-0.6v-26.8
		l3.1,0.6l897.3,180.7V1567.6z M2086.6,2336.9l-18.3-6.1v-936.9l18.3,6.2V2336.9z M2210.4,1277.3c-1,0.9-2,1.8-2.9,2.7
		c-4.6,4.2-9.2,8.4-13.8,12.7c-2.9,2.6-5.7,5.2-8.6,7.9c-2.8,2.5-5.5,5.1-8.3,7.6c-3.4,3.1-6.8,6.3-10.2,9.4
		c-2.2,2.1-4.5,4.1-6.8,6.2c-3.5,3.2-6.9,6.4-10.4,9.6c-2.2,2.1-4.5,4.1-6.7,6.2c-3.2,3-6.4,5.9-9.6,8.9c-2.6,2.4-5.1,4.7-7.7,7.1
		c-2.9,2.6-5.7,5.3-8.6,7.9c-2.9,2.7-5.9,5.4-8.8,8.2c-2.4,2.2-4.8,4.5-7.2,6.7c-2.8,2.6-5.6,5.2-8.4,7.8l-7.1-2.4l-10-3.4
		c43.4-39.9,86.8-78.7,128.9-116.3c44.4-39.6,90.2-80.5,135.9-122.7l15.3,2.7c-1,0.9-2.1,1.9-3.1,2.8c-6.5,6-13,12-19.4,17.9
		c-35.3,32.6-71,65.3-105.5,97C2221.6,1266.9,2216,1272.1,2210.4,1277.3z"/>
	<path d="M579,962.9c-46.6-12.9-96.3-11.4-140,4c-45.4,16.1-85.1,48.3-108.7,88.2c-19.1,32.2-22.1,65.1-8,88.2
		c10.2,16.8,29.9,27.5,49.5,27.5c2.3,0,4.6-0.1,6.9-0.5c4.1-0.5,7-4.3,6.5-8.4c-0.5-4.1-4.3-7-8.4-6.5c-16.1,2.1-33.2-6.1-41.7-19.9
		c-16.4-27,2.1-62.5,8.1-72.7c21.9-37,58.6-66.7,100.8-81.7c40.8-14.5,87.3-15.8,131-3.7c4,1.1,8.1-1.2,9.2-5.2
		C585.3,968.1,583,964,579,962.9z"/>
	<path d="M743,995.6c-35.7-10.7-74.6-11.3-112.3-1.7c-37.8,9.6-71.6,28.6-97.9,55c-17,17.1-28.8,35.2-35,53.6
		c-7.6,22.5-6.6,46.3,2.6,65.3c10.5,21.6,32.4,36.5,54.6,37c0.1,0,0.1,0,0.2,0c4.1,0,7.4-3.2,7.5-7.3c0.1-4.1-3.2-7.6-7.3-7.7
		c-16.7-0.4-33.4-11.9-41.5-28.6c-7.5-15.5-8.2-35.1-1.9-54c5.5-16.3,16-32.3,31.4-47.8c49.5-49.8,128-69.7,195.3-49.5
		c4,1.2,8.1-1.1,9.3-5C749.2,1001,746.9,996.8,743,995.6z"/>
	<path d="M913.6,1032.1c4,0.9,8.1-1.5,9-5.6c1-4-1.5-8.1-5.6-9c-41.6-9.8-85.9-6.9-128.1,8.4c-42.2,15.3-78.1,41.5-103.6,75.7
		c-19.6,26.2-28.2,51.4-25.8,74.9c2.1,20.4,13,40.1,29.9,54.1c15.3,12.7,34.9,20.6,56.7,22.8c0.3,0,0.5,0,0.8,0
		c3.8,0,7.1-2.9,7.5-6.8c0.4-4.1-2.6-7.8-6.7-8.2c-18.5-1.9-35.8-8.7-48.6-19.4c-13.9-11.5-22.8-27.6-24.5-44.1
		c-2-19.7,5.7-41.4,22.9-64.4C745.9,1045.8,834.8,1013.5,913.6,1032.1z"/>
	<path d="M606.7,1116.5c-1.1-4-5.3-6.3-9.3-5.1c-8.7,2.5-16.7,6.8-23.7,12.5c-5.1-3-10.3-5.7-15.7-8c-2-0.9-4.3-0.8-6.3,0.2
		c-2.7,1.3-4.5,4-4.6,7.1s1.3,5.9,3.8,7.5c1.7,1.1,3.7,1.4,5.6,1c2.1,1,4.2,2.1,6.3,3.3c-5.5,7-9.7,14.9-12.1,23.5
		c-1.1,4,1.2,8.1,5.2,9.3c0.7,0.2,1.4,0.3,2,0.3c3.3,0,6.3-2.2,7.2-5.5c2-7.1,5.6-13.7,10.4-19.4c6.7,4.9,12.9,10.5,18.3,16.6
		c1.5,1.7,3.5,2.5,5.6,2.5c1.8,0,3.6-0.6,5-1.9c3.1-2.8,3.4-7.5,0.6-10.6c-5.5-6.2-11.6-11.8-18.2-16.9c4.5-3.1,9.5-5.5,14.8-7
		C605.6,1124.7,607.9,1120.5,606.7,1116.5z"/>
	<path d="M788,1146.1c-1.1-4-5.3-6.3-9.3-5.1c-8.7,2.5-16.7,6.8-23.7,12.5c-5.1-3-10.3-5.7-15.7-8c-2-0.9-4.3-0.8-6.3,0.2
		c-2.7,1.3-4.5,4-4.6,7.1c-0.2,3,1.3,5.9,3.8,7.5c1.7,1.1,3.7,1.4,5.6,1c2.1,1,4.2,2.1,6.3,3.3c-5.5,7-9.7,14.9-12.1,23.5
		c-1.1,4,1.2,8.1,5.2,9.3c0.7,0.2,1.4,0.3,2,0.3c3.3,0,6.3-2.2,7.2-5.5c2-7.1,5.6-13.7,10.4-19.4c6.7,4.9,12.9,10.5,18.3,16.6
		c1.5,1.7,3.5,2.5,5.6,2.5c1.8,0,3.6-0.6,5-1.9c3.1-2.8,3.4-7.5,0.6-10.6c-5.5-6.2-11.6-11.8-18.2-16.9c4.5-3.1,9.5-5.5,14.8-7
		C786.8,1154.3,789.1,1150.1,788,1146.1z"/>
	<path d="M436.1,1078.8c-1.1-4-5.3-6.3-9.3-5.1c-8.7,2.5-16.7,6.8-23.7,12.5c-5.1-3-10.3-5.7-15.7-8c-2-0.9-4.3-0.8-6.3,0.2
		c-2.7,1.3-4.5,4-4.6,7.1s1.3,5.9,3.8,7.5c1.7,1.1,3.7,1.4,5.6,1c2.1,1,4.2,2.1,6.3,3.3c-5.5,7-9.7,14.9-12.1,23.5
		c-1.1,4,1.2,8.1,5.2,9.3c0.7,0.2,1.4,0.3,2,0.3c3.3,0,6.3-2.2,7.2-5.5c2-7.1,5.6-13.7,10.4-19.4c6.7,4.9,12.9,10.5,18.3,16.6
		c1.5,1.7,3.5,2.5,5.6,2.5c1.8,0,3.6-0.6,5-1.9c3.1-2.8,3.4-7.5,0.6-10.6c-5.5-6.2-11.6-11.8-18.2-16.9c4.5-3.1,9.5-5.5,14.8-7
		C434.9,1087,437.2,1082.8,436.1,1078.8z"/>
	<path d="M256.5,1053.5c-1.1-4-5.3-6.3-9.3-5.1c-8.7,2.5-16.7,6.8-23.7,12.5c-5.1-3-10.3-5.7-15.7-8c-2-0.9-4.3-0.8-6.3,0.2
		c-2.7,1.3-4.5,4-4.6,7.1s1.3,5.9,3.8,7.5c1.7,1.1,3.7,1.4,5.6,1c2.1,1,4.2,2.1,6.3,3.3c-5.5,7-9.7,14.9-12.1,23.5
		c-1.1,4,1.2,8.1,5.2,9.3c0.7,0.2,1.4,0.3,2,0.3c3.3,0,6.3-2.2,7.2-5.5c2-7.1,5.6-13.7,10.4-19.4c6.7,4.9,12.9,10.5,18.3,16.6
		c1.5,1.7,3.5,2.5,5.6,2.5c1.8,0,3.6-0.6,5-1.9c3.1-2.8,3.4-7.5,0.6-10.6c-5.5-6.2-11.6-11.8-18.2-16.9c4.5-3.1,9.5-5.5,14.8-7
		C255.3,1061.6,257.6,1057.5,256.5,1053.5z"/>
	<path d="M86.7,1031.2c-1.1-4-5.3-6.3-9.3-5.1c-8.7,2.5-16.7,6.8-23.7,12.5c-5.1-3-10.3-5.7-15.7-8c-2-0.9-4.3-0.8-6.3,0.2
		c-2.7,1.3-4.5,4-4.6,7.1s1.3,5.9,3.8,7.5c1.7,1.1,3.7,1.4,5.6,1c2.1,1,4.2,2.1,6.3,3.3c-5.5,7-9.7,14.9-12.1,23.5
		c-1.1,4,1.2,8.1,5.2,9.3c0.7,0.2,1.4,0.3,2,0.3c3.3,0,6.3-2.2,7.2-5.5c2-7.1,5.6-13.7,10.4-19.4c6.7,4.9,12.9,10.5,18.3,16.6
		c1.5,1.7,3.5,2.5,5.6,2.5c1.8,0,3.6-0.6,5-1.9c3.1-2.8,3.4-7.5,0.6-10.6c-5.5-6.2-11.6-11.8-18.2-16.9c4.5-3.1,9.5-5.5,14.8-7
		C85.5,1039.3,87.8,1035.2,86.7,1031.2z"/>
	<path d="M438.2,927.8c-40.9-10.8-87.4-10.7-142.4,0.3c-44,8.8-76.6,21.5-102.4,40c-33.4,24-54.9,59.3-57.5,94.4
		c-1.5,20.5,3.4,40.5,13.7,56.2c12,18.3,32,31.4,53.6,35.1c4.2,0.7,8.5,1.1,12.8,1.1c17.6,0,35.4-5.9,49.3-16.7
		c3.3-2.5,3.9-7.2,1.3-10.5c-2.5-3.3-7.2-3.9-10.5-1.3c-14.1,10.9-32.9,15.6-50.5,12.7c-17.5-3-33.8-13.6-43.5-28.5
		c-8.5-13-12.5-29.7-11.3-47c2.2-30.8,21.4-61.9,51.2-83.3c24-17.2,54.7-29.1,96.6-37.5c52.7-10.5,97-10.7,135.6-0.5
		c4,1.1,8.1-1.3,9.2-5.3C444.6,933,442.2,928.9,438.2,927.8z"/>
	<path d="M72,1287.9c0.5,0.1,1,0.1,1.5,0.1c3.5,0,6.6-2.5,7.3-6c0.8-4.1-1.8-8-5.9-8.8l-53.7-10.6c-4.1-0.8-8,1.8-8.8,5.9
		c-0.8,4.1,1.8,8,5.9,8.8L72,1287.9z"/>
	<path d="M241,1306.1l-53.7-10.6c-4.1-0.8-8,1.8-8.8,5.9c-0.8,4.1,1.8,8,5.9,8.8l53.7,10.6c0.5,0.1,1,0.1,1.5,0.1
		c3.5,0,6.6-2.5,7.3-6C247.7,1310.9,245.1,1306.9,241,1306.1z"/>
	<path d="M407.1,1335.6l-53.7-10.6c-4.1-0.8-8,1.8-8.8,5.9c-0.8,4.1,1.8,8,5.9,8.8l53.7,10.6c0.5,0.1,1,0.1,1.5,0.1
		c3.5,0,6.6-2.5,7.3-6C413.8,1340.4,411.2,1336.4,407.1,1335.6z"/>
	<path d="M568.7,1371.2l-53.7-10.6c-4.1-0.8-8,1.8-8.8,5.9c-0.8,4.1,1.8,8,5.9,8.8l53.7,10.6c0.5,0.1,1,0.1,1.5,0.1
		c3.5,0,6.6-2.5,7.3-6C575.4,1376,572.7,1372,568.7,1371.2z"/>
	<path d="M732.5,1399.4l-53.7-10.6c-4.1-0.8-8,1.8-8.8,5.9c-0.8,4.1,1.8,8,5.9,8.8l53.7,10.6c0.5,0.1,1,0.1,1.5,0.1
		c3.5,0,6.6-2.5,7.3-6C739.2,1404.1,736.6,1400.2,732.5,1399.4z"/>
	<path d="M170.3,1557.2c-0.9-2.4-3.1-4.2-5.6-4.6c-16.2-3.1-33.4-6-50.1-8.8c-16.6-2.8-33.8-5.7-49.8-8.7c-2.5-0.5-5,0.4-6.8,2.2
		c-36.8,38.5-51.3,96.5-36.8,147.7c0.8,3,3.5,5.2,6.6,5.4c30,2.4,66.1,9.7,101.6,20.5c0.7,0.2,1.5,0.3,2.2,0.3c1.9,0,3.7-0.7,5.1-2
		c2-1.8,2.8-4.5,2.2-7.1c-10.1-45.5,1.8-99.5,30.3-137.8C170.9,1562.3,171.2,1559.6,170.3,1557.2z M125.1,1627c-5,22.3-6,45-3,66.2
		c-30.6-8.7-61.2-14.7-87.8-17.2c-10.5-43.7,1.7-92,31.8-125.4c15,2.8,30.7,5.4,46,8c12.7,2.1,25.8,4.3,38.4,6.6
		C138.8,1583.5,130,1604.7,125.1,1627z"/>
	<path d="M345.2,1606.2c1.5-2.1,1.9-4.8,1-7.2s-3.1-4.2-5.6-4.6c-16.2-3.1-33.4-6-50.1-8.8c-16.6-2.8-33.8-5.7-49.8-8.7
		c-2.5-0.5-5.1,0.4-6.8,2.2c-36.8,38.5-51.3,96.5-36.8,147.7c0.9,3,3.5,5.2,6.6,5.4c30,2.4,66.1,9.7,101.6,20.6
		c0.7,0.2,1.5,0.3,2.2,0.3c1.9,0,3.7-0.7,5.1-2c2-1.8,2.8-4.5,2.2-7.1C304.8,1698.5,316.7,1644.5,345.2,1606.2z M301,1668.8
		c-5,22.3-6,45-3,66.2c-30.6-8.7-61.2-14.7-87.8-17.2c-10.5-43.7,1.7-92,31.8-125.4c15,2.8,30.8,5.4,46,8
		c12.7,2.1,25.8,4.3,38.4,6.6C314.7,1625.3,305.9,1646.5,301,1668.8z"/>
	<path d="M518.3,1645c1.5-2.1,1.9-4.8,1-7.2c-0.9-2.4-3.1-4.2-5.6-4.7c-16.2-3.1-33.4-6-50.1-8.8c-16.6-2.8-33.8-5.7-49.8-8.7
		c-2.5-0.5-5.1,0.4-6.8,2.2c-36.8,38.5-51.3,96.5-36.8,147.7c0.9,3,3.5,5.2,6.6,5.4c30,2.4,66.1,9.7,101.6,20.5
		c0.7,0.2,1.5,0.3,2.2,0.3c1.9,0,3.7-0.7,5.1-2c2-1.8,2.8-4.5,2.2-7.1C477.9,1737.3,489.8,1683.2,518.3,1645z M474,1707.6
		c-5,22.3-6,45-3,66.2c-30.6-8.7-61.2-14.7-87.8-17.2c-10.5-43.7,1.7-91.9,31.8-125.4c15,2.8,30.7,5.4,46,8
		c12.7,2.1,25.8,4.3,38.4,6.6C487.7,1664.1,479,1685.2,474,1707.6z"/>
	<path d="M691.3,1676.7c1.5-2.1,1.9-4.8,1-7.2c-0.9-2.4-3-4.2-5.6-4.6c-16.2-3.1-33.4-6-50.1-8.8c-16.6-2.8-33.8-5.7-49.8-8.7
		c-2.5-0.5-5.1,0.4-6.8,2.2c-36.8,38.5-51.3,96.5-36.8,147.7c0.8,3,3.5,5.2,6.6,5.4c30,2.4,66.1,9.7,101.6,20.6
		c0.7,0.2,1.5,0.3,2.2,0.3c1.9,0,3.7-0.7,5.1-2c2-1.8,2.8-4.5,2.2-7.1C650.9,1769,662.8,1714.9,691.3,1676.7z M647.1,1739.3
		c-5,22.3-6,45-3,66.2c-30.6-8.7-61.2-14.7-87.8-17.2c-10.5-43.7,1.7-92,31.8-125.4c15,2.8,30.8,5.4,46,8
		c12.7,2.1,25.8,4.3,38.4,6.6C660.8,1695.8,652,1717,647.1,1739.3z"/>
	<path d="M73.7,1119.1c3.8-1.7,5.5-6.1,3.9-9.9c-1.7-3.8-6.1-5.5-9.9-3.9c-19.6,8.6-45,3.4-61.8-12.6c-2.1-2-4.1-4.2-5.9-6.5v21.2
		c13.6,11,30.8,16.9,47.5,16.9C56.6,1124.5,65.5,1122.7,73.7,1119.1z"/>
	<path d="M845.2,1971l0.2-0.1l0,0c0.7,3.4,3.7,5.9,7.2,5.9c4.1,0,7.4-3.3,7.4-7.4c0-0.5-0.1-1-0.1-1.4l0,0l0.3-0.1v-806.5l18.3,6.1
		v787h0h0c0.3,3.8,3.5,6.7,7.4,6.7c3.9,0,7.1-3,7.4-6.9h0.3v-789c2.5-2.3,4.9-4.6,7.4-6.8c3-2.7,5.9-5.5,8.9-8.2
		c2.7-2.5,5.4-5,8-7.4c3.1-2.8,6.1-5.7,9.2-8.5c2.7-2.5,5.5-5.1,8.2-7.6c3-2.8,6-5.5,9-8.3c3.1-2.9,6.2-5.7,9.3-8.6
		c2.6-2.4,5.2-4.8,7.8-7.1c4.4-4.1,8.9-8.1,13.3-12.2c1.2-1.1,2.4-2.2,3.6-3.3c17.2-15.8,34.3-31.5,51.1-47
		c30.2-27.7,61.3-56.3,92.2-84.8c4.4-4.1,8.8-8.1,13.3-12.2c6.3-5.9,12.7-11.7,19-17.6l2-1.9v98.1h0c0.3,3.8,3.5,6.8,7.4,6.8
		c4.1,0,7.5-3.3,7.5-7.5h0h0V906.8c0-0.4,0-0.7-0.1-1.1c0-0.1-0.1-0.2-0.1-0.4c0-0.2-0.1-0.4-0.1-0.7c0,0,0,0,0,0
		c0-0.2-0.1-0.3-0.2-0.5c-0.1-0.2-0.1-0.4-0.2-0.5c-0.1-0.1-0.1-0.2-0.2-0.4c-0.1-0.2-0.2-0.4-0.3-0.6c-0.1-0.1-0.2-0.2-0.3-0.4
		c-0.1-0.2-0.2-0.3-0.4-0.5c-0.1-0.1-0.2-0.2-0.3-0.3c-0.1-0.1-0.3-0.3-0.4-0.4c-0.1-0.1-0.2-0.2-0.4-0.3c-0.2-0.1-0.3-0.2-0.5-0.4
		c-0.1-0.1-0.3-0.2-0.4-0.2c-0.2-0.1-0.4-0.2-0.6-0.3c0,0-0.1-0.1-0.1-0.1c-0.1,0-0.2-0.1-0.3-0.1c-0.2-0.1-0.4-0.1-0.6-0.2
		c-0.2-0.1-0.3-0.1-0.5-0.1c-0.1,0-0.2-0.1-0.4-0.1l-31.7-5.5c-0.1,0-0.2-0.1-0.4-0.2c-1.2-0.5-2.4-0.6-3.7-0.5l-340.8-59.1v-49.7
		l373.9,66.1c0,0,0.1,0,0.1,0c0.1,0,0.1,0,0.2,0c0.3,0,0.6,0.1,0.9,0.1h0.1c0.4,0,0.7,0,1.1-0.1c0.1,0,0.2,0,0.3,0
		c0.1,0,0.2,0,0.3-0.1c0.1,0,0.2-0.1,0.4-0.1c0.1,0,0.2-0.1,0.3-0.1c0.1,0,0.3-0.1,0.4-0.1c0,0,0.1,0,0.1,0l34.6-13.7
		c2.9-1.1,4.7-3.9,4.7-7V538.5c0-3.6-2.6-6.8-6.2-7.4L137.2,346.4c-1.7-0.3-3.4,0-4.9,0.8l-42.7,23.7c-0.1,0.1-0.2,0.1-0.3,0.2
		c-0.1,0.1-0.2,0.1-0.3,0.2c-0.2,0.1-0.4,0.2-0.5,0.4c0,0-0.1,0.1-0.1,0.1c0,0,0,0,0,0c-0.4,0.3-0.8,0.7-1.1,1.2
		c0,0-0.1,0.1-0.1,0.1c-0.1,0.2-0.2,0.3-0.4,0.5c-0.1,0.1-0.1,0.1-0.1,0.2c-0.1,0.1-0.2,0.3-0.2,0.5c0,0.1-0.1,0.2-0.1,0.3
		c-0.1,0.2-0.1,0.3-0.2,0.4c0,0.1-0.1,0.2-0.1,0.3c0,0.1-0.1,0.3-0.1,0.4c0,0.1-0.1,0.2-0.1,0.3c0,0.2-0.1,0.3-0.1,0.5
		c0,0.1,0,0.2,0,0.3c0,0.2,0,0.4,0,0.6c0,0,0,0.1,0,0.1v276.5c0,3.6,2.6,6.8,6.2,7.4l308.6,54.5v51l-256.8-44.5l-50-8.2
		c-2.2-0.4-4.5,0.3-6.2,1.8C58.2,742.3,28.9,769.1,0,795.8v20.4c31.3-28.9,63.1-58.1,94.9-86.6l31.2,5.1
		C83.7,773.9,41.2,812.9,0,850.8v20.4c3-2.7,5.9-5.5,8.9-8.2c41.2-37.9,83.7-76.9,126.1-116v96.2c0,4.1,3.3,7.5,7.5,7.5
		c4.1,0,7.5-3.4,7.5-7.5V738.7l963.3,167c-42.8,39.4-85.6,77.7-127.2,114.8c-45.2,40.3-91.9,82-138.4,125.1l0,0l0,0
		c0,0-0.1,0.1-0.1,0.1c-0.2,0.2-0.4,0.4-0.5,0.6c-0.1,0.1-0.1,0.2-0.2,0.3c-0.1,0.2-0.2,0.3-0.3,0.5c-0.1,0.1-0.1,0.2-0.2,0.3
		c-0.1,0.2-0.2,0.3-0.3,0.5l-0.1,0.4c-0.1,0.2-0.1,0.3-0.2,0.5c0,0.1-0.1,0.2-0.1,0.4c0,0.2-0.1,0.3-0.1,0.5c0,0.1-0.1,0.3-0.1,0.4
		c0,0.2-0.1,0.3-0.1,0.5c0,0.1,0,0.3,0,0.4c0,0.1,0,0.1,0,0.2v147.8L0,1128.6v15.3l845.2,170.2v21L0,1170.4v15.3l40.8,8L0,1239v25.3
		c0.2-0.5,0.4-0.9,0.6-1.4c0.6-1.1,1.2-2.3,1.9-3.4c0.2-0.4,0.4-0.7,0.7-1.1c0.1-0.2,0.2-0.3,0.3-0.5c0.2-0.3,0.4-0.6,0.7-1
		c0.1-0.1,0.2-0.3,0.3-0.4c0.2-0.4,0.5-0.7,0.8-1c0.5-0.6,1-1.2,1.5-1.8L57,1198c0.3-0.4,0.6-0.7,0.8-1.1l20.6,4
		c-0.6,0.7-1.3,1.5-1.8,2.4c-3.4,5-4.6,10.8-3.2,16c1.4,5.4,5.7,10,11.4,12.3c3.1,1.3,6.6,1.9,10.7,1.9c0.9,0,1.9,0,2.9-0.1
		c14.9-1,29.2-7.9,39.2-19.1c0.4-0.5,0.8-1,1.1-1.6l28.8,5.6l-45.5,50.7c-9.3,10.3-14.4,23.7-14.4,37.5v151.6L0,1436.4v15.3
		L845.2,1622v21L0,1478.2v15.3l44.8,8.7c-18.4,15.1-33.6,34.7-44.8,56.4v41.9c10.3-37.8,33.6-73.4,64.6-94.5l157.4,30.7
		c-49.6,39.7-77,111.5-64.4,172.2c1.5,7.1,3.5,14.3,5.3,21.2c4.6,16.8,8.9,32.6,6.9,48.3L8.9,1746c2.9-19.2-2.1-37.8-7.1-55.8
		c-0.6-2.3-1.2-4.6-1.9-6.9v76.1l845.2,170.2v21L144,1814.1c0,0-0.1,0-0.1,0L0.9,1786.2c-0.3-0.1-0.6-0.1-0.9-0.1v15.2l135,26.3
		v42.9l-117.2,26c-4,0.9-6.6,4.9-5.7,8.9c0.8,3.5,3.9,5.9,7.3,5.9c0.5,0,1.1-0.1,1.6-0.2l123.1-27.2c3.4-0.8,5.9-3.8,5.9-7.3v-46
		l695.2,135.5V1971z M137.2,361.6l1053.3,183.2v279.5l-19.6,7.8V562.6c0-3.6-2.6-6.8-6.2-7.4L115.5,373.7L137.2,361.6z M100.7,647.6
		V386.4L1156,568.9v265.3L100.7,647.6z M441.5,774l-25.9-4.5v-51l25.9,4.6V774z M467.3,778.5l-10.8-1.9v-50.9l10.8,1.9V778.5z
		 M706.7,820l-224.4-38.9v-50.8L706.8,770L706.7,820z M747.6,826.7l-25.9-4.5l0.1-49.1l26,4.6L747.6,826.7z M773.2,831.5l-10.6-1.8
		l0.1-49.8l10.5,1.9V831.5z M996,1031.6c44.4-39.6,90.2-80.5,135.9-122.7l15.3,2.7c-1,1-2.1,1.9-3.1,2.9c-6.5,6-13,12-19.4,17.9
		c-35.3,32.6-71,65.3-105.5,97c-5.6,5.1-11.2,10.3-16.9,15.5c-1,0.9-2,1.8-2.9,2.7c-4.6,4.2-9.2,8.4-13.8,12.7
		c-2.8,2.6-5.7,5.2-8.6,7.9c-2.8,2.5-5.5,5.1-8.3,7.6c-3.4,3.1-6.8,6.3-10.2,9.4c-2.3,2.1-4.5,4.1-6.8,6.2
		c-3.5,3.2-6.9,6.4-10.4,9.6c-2.2,2.1-4.5,4.1-6.7,6.2c-3.2,3-6.4,5.9-9.6,8.9c-2.6,2.4-5.1,4.7-7.7,7.1c-2.9,2.6-5.7,5.3-8.6,7.9
		c-2.9,2.7-5.9,5.4-8.8,8.2c-2.4,2.2-4.8,4.4-7.2,6.7c-2.8,2.6-5.6,5.2-8.4,7.8l-7.1-2.4l-10-3.3
		C910.5,1108,953.9,1069.2,996,1031.6z M97.4,1218.4c-3.1,0.2-5.3,0-7-0.7c-1.4-0.6-2.4-1.6-2.6-2.3c-0.2-0.7,0.1-2.1,1.1-3.6
		c1.3-2,3.6-3.8,5.9-5.7c0.6-0.5,1.1-1.1,1.5-1.7l24.8,4.8C114.4,1214.6,106,1217.9,97.4,1218.4z M746.6,1338c1.4-2,3.5-3.8,5.9-5.6
		l24.2,4.7c-6.3,4.4-13.8,7.1-21.6,7.6c-3.1,0.2-5.3,0-7-0.7c-1.4-0.6-2.4-1.6-2.6-2.3C745.3,1340.9,745.5,1339.5,746.6,1338z
		 M582.7,1309.8c1.3-2,3.5-3.8,5.9-5.7c1.1-0.9,1.9-2,2.3-3.3l25.7,5c-7,6.2-16,10-25.4,10.6c-3.1,0.2-5.3,0-7-0.7
		c-1.5-0.6-2.4-1.6-2.6-2.3C581.4,1312.7,581.7,1311.3,582.7,1309.8z M421.2,1274.2c1.3-1.9,3.3-3.6,5.5-5.4l24.2,4.7
		c-6.2,4.2-13.6,6.8-21.2,7.3c-3.1,0.2-5.3,0-7-0.7c-1.4-0.6-2.4-1.6-2.6-2.3C419.9,1277.1,420.1,1275.7,421.2,1274.2z
		 M255.1,1244.8c1.4-2,3.6-3.8,5.9-5.7c0.8-0.6,1.4-1.4,1.8-2.2l25.1,4.9c-6.8,5.6-15.4,9.1-24.3,9.6c-3.1,0.2-5.3,0-7-0.7
		c-1.4-0.6-2.4-1.6-2.6-2.3C253.8,1247.7,254,1246.3,255.1,1244.8z M147.4,1314.4v151.7l-24.9-5v-154.6c0-10.2,3.7-20,10.5-27.5
		l50.1-55.9c0.4-0.5,0.8-1,1.1-1.5l23,4.5l-45.5,50.8C152.5,1287.2,147.4,1300.5,147.4,1314.4z M273.7,1339.5v152l-111.3-22.4
		v-154.7c0-10.2,3.7-20,10.5-27.5l50.1-55.9c0.4-0.5,0.8-1.1,1.1-1.6l20.8,4.1c-0.8,0.9-1.6,1.8-2.3,2.9c-3.4,5-4.6,10.8-3.2,15.9
		c1.4,5.4,5.7,10,11.4,12.4c3.1,1.3,6.6,1.9,10.7,1.9c0.9,0,1.9,0,3-0.1c14.9-1,29.2-7.9,39.2-19.1c0.6-0.6,1-1.4,1.3-2.1l29,5.6
		l-45.9,51.2C278.8,1312.3,273.7,1325.6,273.7,1339.5z M313.5,1343.9v155.7l-24.9-5v-155.1c0-10.2,3.8-20,10.5-27.5l50.1-55.9
		c0.6-0.6,1-1.3,1.3-2.1l20.6,4l-43.3,48.3C318.6,1316.7,313.5,1330,313.5,1343.9z M439.8,1369v156l-110.6-22.3
		c-0.1-0.7-0.3-1.4-0.6-2v-156.9c0-10.2,3.8-20,10.5-27.5l49.3-55l20.7,4c-0.1,0.1-0.2,0.2-0.3,0.4c-3.4,5-4.6,10.8-3.2,15.9
		c1.4,5.4,5.7,10,11.4,12.4c3.1,1.3,6.6,1.9,10.7,1.9c0.9,0,1.9,0,2.9-0.1c14.8-1,28.8-7.8,38.8-18.7l28.5,5.6l-43.7,48.7
		C444.9,1341.8,439.8,1355.1,439.8,1369z M475.1,1379.5v152.6l-19.6-3.9c-0.1-0.8-0.3-1.6-0.7-2.3V1369c0-10.2,3.7-20,10.5-27.5
		l49.7-55.4l20.9,4.1l-46.5,51.8C480.2,1352.3,475.1,1365.6,475.1,1379.5z M601.4,1404.6v152.9l-111.3-22.4v-155.7
		c0-10.2,3.7-20,10.5-27.5l50.1-55.9c0.7-0.8,1.2-1.8,1.6-2.7l21.2,4.1c-1.1,1.2-2.2,2.4-3.2,3.9c-3.4,5-4.6,10.8-3.2,15.9
		c1.4,5.4,5.7,10,11.4,12.4c3.1,1.3,6.6,1.9,10.7,1.9c0.9,0,1.9,0,2.9-0.1c14.9-1,29.2-7.9,39.2-19.1c0.9-1,1.4-2.1,1.7-3.2
		l29.5,5.8l-46.8,52.2C606.5,1377.4,601.4,1390.7,601.4,1404.6z M638.9,1407.7v157.5l-22.6-4.5v-156c0-10.2,3.7-20,10.5-27.5
		l50.1-55.9c0.8-0.9,1.4-2,1.7-3.2l18.2,3.5l-43.6,48.6C644,1380.4,638.9,1393.8,638.9,1407.7z M765.2,1432.8v157.8l-110.5-22.3
		c0.1-1.3-0.1-2.6-0.7-3.8v-156.9c0-10.2,3.7-20,10.5-27.5l49.6-55.2l20.6,4c-0.1,0.2-0.3,0.4-0.5,0.6c-3.4,5-4.6,10.8-3.2,15.9
		c1.4,5.4,5.7,10,11.4,12.4c3.1,1.3,6.6,1.9,10.7,1.9c1,0,1.9,0,3-0.1c14.9-0.9,29.1-7.8,39-18.9l28.5,5.5l-44,49
		C770.3,1405.5,765.2,1418.9,765.2,1432.8z M817.8,1601.1l-36.9-7.4c0.1-1.4-0.1-2.8-0.7-4.1v-156.9c0-10.2,3.8-20,10.5-27.5
		l49.9-55.7l4.6,0.9v234.2c-9,5.4-18.1,10.8-27.1,16.2C818,1601,817.9,1601,817.8,1601.1z M839.6,1605.5c1.9-1.1,3.8-2.3,5.7-3.4
		v4.5L839.6,1605.5z M351.4,1815l-166.9-33.6c2.8-19-2.3-37.4-7.1-55.2c-1.8-6.7-3.7-13.6-5.1-20.3
		c-12.1-58.1,17.8-130.2,68.1-164.1c0.5-0.4,1-0.8,1.4-1.2l162.5,31.7c-49.9,39.6-77.5,111.7-64.9,172.6c1.5,7.2,3.4,14.3,5.3,21.2
		C349.3,1783.1,353.7,1799.1,351.4,1815z M520.5,1848c-0.1,0.4-0.1,0.7-0.1,1L366.2,1818c2.9-19.3-2.1-37.9-7.1-55.9
		c-1.8-6.7-3.7-13.6-5.1-20.3c-12.1-58.1,17.9-130.2,68.1-164.1c0.7-0.5,1.3-1,1.8-1.6l148.3,28.9c-49.1,39.9-76.2,111.2-63.6,171.6
		c1.5,7.1,3.4,14.3,5.3,21.2C518.7,1815.2,523.2,1831.7,520.5,1848z M701.8,1885.6L534.9,1852c0.2-0.5,0.3-1,0.4-1.5
		c3.2-19.5-2-38.4-7-56.6c-1.8-6.7-3.7-13.6-5.1-20.3c-12.1-58.1,17.9-130.2,68.1-164.1c0.2-0.2,0.5-0.4,0.7-0.6l160.7,31.3
		c-48.7,39.9-75.5,110.9-63,171.1c1.5,7.2,3.4,14.3,5.3,21.2c4.8,17.4,9.3,33.9,6.6,50.2C701.5,1883.7,701.6,1884.6,701.8,1885.6z
		 M715.2,1888.3c0.7-0.9,1.1-2,1.3-3.2c3.2-19.5-2-38.4-7-56.6c-1.8-6.7-3.7-13.6-5.1-20.3c-12.1-58.1,17.8-130.2,68.1-164.1
		c0,0,0,0,0.1,0l72.7,14.2v38.4c-7.5-1.3-15-2.6-22.4-3.8c-16.6-2.8-33.8-5.7-49.9-8.8c-2.5-0.5-5.1,0.4-6.8,2.2
		c-36.8,38.5-51.3,96.5-36.8,147.7c0.9,3,3.5,5.2,6.6,5.4c20.6,1.6,43.4,5.4,67.7,11.3c0.6,0.1,1.2,0.2,1.8,0.2
		c3.4,0,6.5-2.3,7.3-5.8c1-4-1.5-8.1-5.5-9c-23.1-5.5-44.8-9.3-64.7-11.2c-10.5-43.7,1.7-92,31.8-125.4c15,2.8,30.8,5.5,46.2,8
		c8.2,1.4,16.6,2.8,24.9,4.2v202.6L715.2,1888.3z"/>
	<path d="M71.2,922.2c35.7-19.5,70.7-30.3,104.1-32c38.5-2,74.5,8.3,101.5,29.1c3.3,2.5,8,1.9,10.5-1.4c2.5-3.3,1.9-8-1.4-10.5
		c-29.8-23-69.4-34.4-111.5-32.2c-35.6,1.8-72.8,13.2-110.5,33.8c-26.3,14.4-46.5,29.9-61.9,47.4c-0.7,0.8-1.4,1.6-2.1,2.5v25.6
		c3.8-6.3,8.3-12.4,13.4-18.2C27.6,950.1,46.5,935.7,71.2,922.2z"/>
	<path d="M3200,907.7v-15.2l-677.1-109.1c-1.9-0.3-3.9,0.1-5.4,1.2l-42.5,29.2c-0.1,0-0.1,0.1-0.2,0.1c-0.1,0.1-0.2,0.1-0.3,0.2
		c0,0-0.1,0.1-0.1,0.1c0,0-0.1,0.1-0.1,0.1c-0.1,0.1-0.2,0.2-0.4,0.3c-0.1,0.1-0.2,0.2-0.3,0.3c-0.2,0.2-0.4,0.5-0.6,0.8
		c-0.1,0.1-0.1,0.2-0.2,0.3c0,0.1-0.1,0.1-0.1,0.2c-0.1,0.1-0.1,0.2-0.2,0.3c0,0.1-0.1,0.2-0.1,0.3c-0.1,0.1-0.1,0.3-0.2,0.4
		c-0.1,0.3-0.2,0.6-0.2,0.8c-0.2,0.6-0.2,1.2-0.2,1.8v276c0,3.6,2.6,6.8,6.2,7.4l306.9,53.5v56.9l-255.2-44.2l-50-8.2
		c-2.2-0.4-4.5,0.3-6.2,1.8c-45.9,41.2-91.9,83.7-136.3,124.9c-44.4,41.1-90.3,83.6-136.2,124.7c-1.6,1.4-2.5,3.5-2.5,5.6v949.9
		c0,2,0.8,3.9,2.2,5.3c1.4,1.4,2.6,1.9,10,4.6c0.4,0.1,0.7,0.3,0.8,0.3c6.5,2.5,12,4.3,17.3,6c5.3,1.7,10.4,3.3,16.5,5.7
		c0.1,0,0.3,0.1,0.4,0.1c0.2,0.2,0.4,0.4,0.7,0.6c1.3,1.1,3,1.7,4.7,1.7c0.5,0,1.1-0.1,1.6-0.2l277.4-61.4c3.4-0.8,5.9-3.8,5.9-7.3
		v-46l664,129.4v-15.3l-670-130.6c0,0-0.1,0-0.1,0l-199-38.8v-26.8l869.1,175v-15.3l-98.8-19.9c0.7-0.9,1.1-2,1.3-3.2
		c3.2-19.5-2-38.4-7-56.6c-1.8-6.7-3.7-13.6-5.1-20.3c-12.1-58.1,17.9-130.2,68.1-164.1c0,0,0,0,0.1,0l41.4,8.1V2084l-869.1-169.4
		v-26.8l869.1,175v-15.3l-33.1-6.7c0.1-1.4-0.1-2.8-0.7-4.1v-156.9c0-10.2,3.8-20,10.5-27.5l23.3-25.9v-22.5l-34.4,38.4
		c-9.3,10.3-14.4,23.7-14.4,37.5v157.8l-110.5-22.3c0.1-1.3-0.1-2.6-0.7-3.8v-156.8c0-10.2,3.7-20,10.5-27.5l49.6-55.2l20.6,4
		c-0.2,0.2-0.3,0.4-0.5,0.6c-3.4,5-4.6,10.8-3.2,15.9c1.4,5.4,5.7,10,11.4,12.3c3.1,1.3,6.6,1.9,10.7,1.9c1,0,1.9,0,3-0.1
		c14.9-1,29.1-7.9,39-19l19,3.7v-15.3l-869.1-169.4v-26.8l869.1,175v-15.3l-850.5-171.3c2.5-1,5-2,7.4-3c10-4.1,20.3-8.3,28.3-11.4
		c0,0,0,0,0,0c13.7,11.4,31.2,17.6,48.3,17.6c9.1,0,18-1.7,26.2-5.3c3.8-1.7,5.5-6.1,3.9-9.9c-1.7-3.8-6.1-5.5-9.9-3.9
		c-19.6,8.6-45,3.4-61.8-12.6c-15.9-15.2-24-38.7-21.7-63c2-21.8,12.4-44.3,29.2-63.5c14.2-16.2,33.1-30.6,57.8-44.1
		c35.7-19.5,70.7-30.3,104.1-32c38.5-2,74.5,8.4,101.5,29.1c3.3,2.5,8,1.9,10.5-1.4c2.5-3.3,1.9-8-1.4-10.5
		c-29.8-23-69.4-34.4-111.5-32.2c-35.6,1.8-72.8,13.2-110.5,33.8c-26.3,14.4-46.5,29.9-61.9,47.4c-18.9,21.5-30.5,47.1-32.9,71.9
		c-2.3,24.7,4.6,48.9,18.7,66.9c-7,2.8-14.9,6-22.6,9.2c-10,4.1-20.3,8.3-28.3,11.4c-0.4,0.2-0.8,0.4-1.2,0.6
		c-1.1,0.2-2.2,0.8-3.1,1.5c-1.7,1.4-2.8,3.6-2.8,5.8v42.1c0,3.6,2.5,6.7,6.1,7.4l104.8,20.4l-45.1,50.3
		c-9.3,10.3-14.4,23.7-14.4,37.6v124.7l-44.3,17.1c-0.7,0.3-1.4,0.7-2,1.1c-0.9,0.3-1.6,0.7-2.4,1.3c-1.7,1.4-2.8,3.6-2.8,5.8v42.1
		c0,3.6,2.5,6.7,6.1,7.4l108.8,21.2c-48.5,40-75.1,110.8-62.7,170.8c1.5,7.2,3.4,14.3,5.3,21.2c1.5,5.4,2.9,10.7,4.1,15.9l-54.6,21
		c-0.6,0.2-1.2,0.6-1.7,1c-1,0.3-1.9,0.7-2.6,1.4c-1.7,1.4-2.8,3.6-2.8,5.8v42.1c0,3.6,2.5,6.7,6.1,7.4l199,38.8v42.9l-262.4,58.1
		v-940.1c45.8-42.3,91.8-84.6,136.3-125.5c41.2-37.9,83.7-76.9,126.1-116.1v96.2c0,4.1,3.4,7.5,7.5,7.5c4.1,0,7.5-3.4,7.5-7.5
		v-104.4l351.9,61h0c1.3,1,2.9,1.6,4.6,1.6c0.8,0,1.6-0.1,2.3-0.4l305.2,52.9v-15.2l-300.1-52l0,0v-56.8l0,0l300.1,52.3v-15.2
		l-406.1-70.7c0,0-0.1,0-0.2,0l-307-53.5V828.9l713.3,120v-15.2l-701.2-118l24.7-17L3200,907.7z M3132.6,1785.1
		c1.3-2,3.5-3.8,5.8-5.6l24.2,4.7c-6.3,4.4-13.8,7.1-21.5,7.6c-3.1,0.2-5.3,0-7-0.7c-1.4-0.6-2.4-1.6-2.6-2.3
		C3131.3,1788,3131.5,1786.6,3132.6,1785.1z M3064.7,1765.1l18.2,3.5l-43.6,48.6c-9.3,10.3-14.4,23.7-14.4,37.6v157.4l-22.6-4.5
		v-156c0-10.2,3.7-20,10.5-27.5l50.1-55.9C3063.9,1767.3,3064.4,1766.2,3064.7,1765.1z M2968.7,1756.9c1.4-2,3.5-3.8,5.9-5.7
		c1.1-0.9,1.9-2,2.3-3.3l25.7,5c-7,6.2-16,10-25.4,10.6c-3.1,0.2-5.3,0-7-0.7c-1.5-0.6-2.4-1.6-2.6-2.3
		C2967.4,1759.8,2967.7,1758.4,2968.7,1756.9z M2938.3,1740.5l21.2,4.1c-1.1,1.2-2.2,2.4-3.2,3.9c-3.4,5-4.6,10.8-3.2,15.9
		c1.4,5.4,5.7,10,11.4,12.4c3.1,1.3,6.6,1.9,10.7,1.9c1,0,1.9,0,3-0.1c14.9-1,29.2-7.9,39.2-19.1c0.9-1,1.4-2.1,1.7-3.2l29.5,5.8
		l-46.8,52.2c-9.3,10.3-14.4,23.7-14.4,37.6v153l-111.3-22.4v-155.7c0-10.2,3.7-20,10.5-27.5l50.1-55.9
		C2937.5,1742.4,2938,1741.4,2938.3,1740.5z M2921.9,1737.3l-46.4,51.8c-9.3,10.3-14.4,23.7-14.4,37.6v152.6l-19.6-3.9
		c-0.1-0.8-0.3-1.6-0.7-2.3v-156.9c0-10.2,3.7-20,10.5-27.5l49.7-55.4L2921.9,1737.3z M2807.2,1721.3c1.3-1.9,3.3-3.6,5.5-5.4
		l24.2,4.7c-6.2,4.2-13.6,6.8-21.2,7.3c-3.1,0.2-5.3,0-7-0.7c-1.4-0.6-2.4-1.6-2.6-2.3C2805.9,1724.3,2806.1,1722.9,2807.2,1721.3z
		 M2795,1712.5c-0.1,0.1-0.2,0.2-0.3,0.4c-3.4,5-4.6,10.8-3.2,15.9c1.4,5.4,5.7,10,11.4,12.4c3.1,1.3,6.6,1.9,10.7,1.9
		c1,0,1.9,0,3-0.1c14.8-0.9,28.8-7.8,38.8-18.7l28.5,5.6l-43.7,48.7c-9.3,10.3-14.4,23.7-14.4,37.6v156l-110.6-22.3
		c-0.1-0.7-0.3-1.4-0.6-2V1791c0-10.2,3.8-20,10.5-27.5l49.3-55L2795,1712.5z M2736.6,1701.1l20.6,4l-43.3,48.3
		c-9.3,10.3-14.4,23.7-14.4,37.5v155.7l-24.9-5v-155.1c0-10.2,3.7-19.9,10.5-27.5l50.1-55.9
		C2735.9,1702.6,2736.3,1701.9,2736.6,1701.1z M2641,1691.9c1.4-2,3.5-3.8,5.9-5.7c0.8-0.6,1.4-1.4,1.8-2.2l25.1,4.9
		c-6.8,5.6-15.4,9.1-24.3,9.6c-3.1,0.2-5.3,0-7-0.7c-1.5-0.6-2.4-1.6-2.6-2.3C2639.7,1694.8,2640,1693.4,2641,1691.9z
		 M2610.2,1676.5l20.8,4c-0.8,0.9-1.6,1.8-2.3,2.9c-3.4,5-4.6,10.8-3.2,15.9c1.4,5.4,5.7,10,11.4,12.4c3.1,1.3,6.6,1.9,10.7,1.9
		c0.9,0,1.9,0,2.9-0.1c15-1,29.2-7.9,39.2-19.1c0.6-0.6,1-1.4,1.3-2.1l29,5.6l-45.9,51.2c-9.3,10.3-14.4,23.7-14.4,37.5v152
		l-111.3-22.4v-154.7c0-10.2,3.7-20,10.5-27.5l50.1-55.9C2609.5,1677.6,2609.9,1677.1,2610.2,1676.5z M2570.3,1668.7l23,4.5
		l-45.5,50.8c-9.3,10.3-14.4,23.7-14.4,37.6v151.7l-24.9-5v-154.6c0-10.2,3.7-20,10.5-27.5l50.1-55.9
		C2569.6,1669.8,2570,1669.2,2570.3,1668.7z M2474.9,1658.9c1.4-2,3.6-3.8,5.9-5.7c0.6-0.5,1.1-1.1,1.5-1.7l24.8,4.8
		c-6.7,5.3-15.1,8.6-23.7,9.2c-3.1,0.2-5.3,0-7-0.7c-1.4-0.6-2.4-1.6-2.6-2.3C2473.6,1661.8,2473.9,1660.4,2474.9,1658.9z
		 M2382.3,1728.5c0-10.2,3.8-20,10.5-27.5l50.1-55.9c0.3-0.4,0.6-0.7,0.8-1.1l20.6,4c-0.6,0.7-1.2,1.5-1.8,2.4
		c-3.4,5-4.6,10.8-3.2,16c1.4,5.4,5.7,10,11.4,12.3c3.1,1.3,6.6,1.9,10.7,1.9c1,0,1.9,0,3-0.1c15-1,29.2-7.9,39.2-19.1
		c0.4-0.5,0.8-1,1.1-1.6l28.8,5.6l-45.5,50.7c-9.3,10.3-14.4,23.7-14.4,37.6v151.6l-111.3-22.4V1728.5z M2367.3,1869.4v10.4
		l-17.8-3.6L2367.3,1869.4z M2978,2056l160.7,31.3c-48.7,39.9-75.5,110.9-63,171.1c1.5,7.2,3.4,14.3,5.3,21.2
		c4.8,17.4,9.3,33.9,6.6,50.2c-0.2,1-0.1,2,0.1,2.9l-166.9-33.6c0.2-0.5,0.3-1,0.4-1.5c3.2-19.5-2-38.4-7-56.6
		c-1.8-6.7-3.7-13.6-5.1-20.3c-12-58.1,17.9-130.2,68.1-164.1C2977.5,2056.4,2977.8,2056.2,2978,2056z M2809.8,2023.2l148.3,28.9
		c-49.1,39.9-76.2,111.2-63.6,171.6c1.5,7.1,3.4,14.3,5.3,21.2c4.8,17.4,9.3,33.9,6.6,50.2c-0.1,0.4-0.1,0.7-0.1,1l-154.2-31.1
		c3-19.3-2.1-37.9-7.1-55.9c-1.8-6.7-3.7-13.6-5.1-20.3c-12-58.1,17.9-130.2,68.1-164.1C2808.7,2024.4,2809.3,2023.8,2809.8,2023.2z
		 M2627.7,1987.7l162.5,31.7c-49.9,39.6-77.5,111.7-64.9,172.6c1.5,7.2,3.5,14.3,5.3,21.2c4.7,17,9.1,33,6.8,48.9l-166.9-33.6
		c2.8-19-2.3-37.4-7.1-55.2c-1.8-6.7-3.7-13.6-5.1-20.3c-12.1-58.1,17.9-130.2,68.1-164.1
		C2626.8,1988.6,2627.3,1988.1,2627.7,1987.7z M2450.6,1953.2l157.4,30.7c-49.6,39.7-77,111.5-64.4,172.2c1.5,7.1,3.5,14.3,5.3,21.2
		c4.6,16.8,8.9,32.6,6.9,48.3l-160.8-32.4c2.9-19.2-2.1-37.8-7.1-55.8c-1.8-6.7-3.7-13.6-5.1-20.3
		C2370.7,2059.1,2400.5,1987.1,2450.6,1953.2z M2380.2,2172.3c0.7,6,0.8,12,0,17.9l-30.5-6.1L2380.2,2172.3z M2384.7,1299.1
		c-45.3,41.6-92.2,84.6-138.7,127.7c-1.5,1.4-2.4,3.4-2.4,5.5v941.1c-3.6-1.2-6.9-2.3-10.2-3.4c-5.3-1.7-10.3-3.3-16.4-5.7
		c-0.1-0.1-0.6-0.2-1.2-0.4c-0.9-0.3-1.7-0.6-2.3-0.8v-941.5c45.1-40.5,90.2-82.2,133.8-122.6c43.5-40.3,88.5-82,133.5-122.3
		l31.2,5.1C2469.3,1221.4,2426.3,1260.8,2384.7,1299.1z M2884.9,1174.3v56.8l-16.8-2.9h0v-56.8h0L2884.9,1174.3z M2853.2,1168.7
		v56.8l-53.3-9.2l0,0v-56.9l0,0L2853.2,1168.7z"/>
</g>
</svg>
