<?xml version="1.0" encoding="UTF-8"?>
<svg version="1.1" xmlns="http://www.w3.org/2000/svg" width="550" height="500">
<path d="M0 0 C10.47019411 8.97445209 12.57692722 26.30264231 13.80322266 39.26074219 C14.01050501 42.14623602 14.10956094 45.01806642 14.17578125 47.91015625 C14.19962891 48.92013672 14.22347656 49.93011719 14.24804688 50.97070312 C14.29109263 53.03559509 14.32230114 55.10076704 14.34179688 57.16601562 C14.58670507 66.07953489 16.71253481 72.88187518 22.625 79.6875 C34.41029799 93.88243141 48.91760319 111.8027323 48 131.25 C47.38031985 135.58079836 45.77629371 138.67206554 43.25390625 142.2109375 C41.31547886 144.94280595 41.31547886 144.94280595 40 148 C40.941867 150.33681739 40.941867 150.33681739 42.625 152.625 C48.7669593 162.28872495 51.41179386 170.36681863 50 182 C48.56695943 186.38685889 46.05927359 189.69974497 42 192 C41.34 192 40.68 192 40 192 C40.3609375 193.07636719 40.721875 194.15273438 41.09375 195.26171875 C44.58089458 206.05201131 47.81611916 216.60707822 42.875 227.5 C40.48107931 231.67575938 38.0287236 234.37257156 34 237 C33.01 237 32.02 237 31 237 C31.04640625 237.8971875 31.0928125 238.794375 31.140625 239.71875 C31.85245296 264.32765961 21.03632619 284.63340487 4.52734375 302.46875 C-24.76671357 331.80808407 -65.6913849 347.80272884 -106.125 353.875 C-107.31258911 354.05554932 -107.31258911 354.05554932 -108.52416992 354.23974609 C-120.56251235 355.84718443 -132.39794505 354.99773762 -144.375 353.3125 C-145.67066895 353.13315918 -146.96633789 352.95381836 -148.30126953 352.76904297 C-166.06057349 350.25523233 -183.51158199 347.25656732 -200 340 C-200.70205566 339.69690918 -201.40411133 339.39381836 -202.12744141 339.08154297 C-211.71684 334.90383598 -220.55271045 330.2290358 -229 324 C-229.53657227 323.61005859 -230.07314453 323.22011719 -230.62597656 322.81835938 C-249.2815363 309.16270469 -262.70738316 293.0992712 -274 273 C-275.093125 273.0825 -276.18625 273.165 -277.3125 273.25 C-285.50941257 273.23546647 -294.04809442 269.62556089 -300 264 C-306.29588794 256.8478713 -307.37890919 249.88057901 -307.26953125 240.50390625 C-306.91380556 235.87947224 -305.76741227 232.27124631 -304 228 C-304.68707031 227.68546875 -305.37414062 227.3709375 -306.08203125 227.046875 C-306.98308594 226.61890625 -307.88414062 226.1909375 -308.8125 225.75 C-309.70582031 225.33234375 -310.59914063 224.9146875 -311.51953125 224.484375 C-314.73605144 222.55952827 -316.43355065 220.65186128 -317.65234375 217.09765625 C-319.56528634 203.44501117 -311.26242782 190.89364173 -304 180 C-304.66386719 179.85304687 -305.32773437 179.70609375 -306.01171875 179.5546875 C-312.33326048 177.94892362 -315.39047697 176.47250266 -319 171 C-320.93918227 167.12163545 -320.21495428 162.92204071 -319.2578125 158.81640625 C-314.5100227 145.17878934 -306.64809914 133.69426886 -297.71484375 122.453125 C-297.12123047 121.67787476 -297.12123047 121.67787476 -296.515625 120.88696289 C-295.30727754 119.38256252 -294.02432368 117.93817931 -292.71875 116.51733398 C-286.07091672 108.77268698 -284.79602578 102.57524221 -285.06628418 92.76394653 C-285.16670259 88.99893459 -285.11337673 85.23460609 -285.0859375 81.46875 C-285.08468872 80.73040421 -285.08343994 79.99205841 -285.08215332 79.2313385 C-285.04435126 69.99773158 -283.85141039 61.03669081 -282 52 C-281.7527417 50.78618652 -281.7527417 50.78618652 -281.50048828 49.54785156 C-278.93556525 37.5086106 -275.06569434 21.06034324 -265 13 C-262.921875 12.28515625 -262.921875 12.28515625 -260.75 12.0625 C-260.04359375 11.97097656 -259.3371875 11.87945312 -258.609375 11.78515625 C-251.63656412 12.35926493 -245.24083699 16.29992096 -239.1875 19.5625 C-238.37361816 19.99216064 -237.55973633 20.42182129 -236.72119141 20.86450195 C-232.39559604 23.15259503 -228.1091038 25.49477207 -223.85546875 27.9140625 C-223.02055908 28.37868896 -222.18564941 28.84331543 -221.32543945 29.32202148 C-219.73387762 30.20890057 -218.15216557 31.11377908 -216.58276367 32.03930664 C-210.0368952 35.6508949 -205.7249729 34.93706637 -198.6083374 33.52568054 C-188.90352945 31.73951923 -179.15197882 31.18516379 -169.3203125 30.5625 C-167.38497441 30.436013 -165.44966202 30.30913219 -163.51437378 30.18188477 C-159.4481364 29.91588356 -155.38165481 29.65412673 -151.31494141 29.39550781 C-146.25516877 29.07349154 -141.19607391 28.74204992 -136.13713455 28.40722656 C-132.15484156 28.1446514 -128.17224072 27.8870012 -124.18953705 27.6307373 C-122.19247259 27.5018534 -120.19548805 27.37172526 -118.19858551 27.24035645 C-106.87482512 26.49935681 -95.57090898 25.92007351 -84.22558594 25.6484375 C-82.13156733 25.58978223 -80.03756271 25.53062537 -77.943573 25.47094727 C-74.00792059 25.35935341 -70.07568793 25.2961731 -66.13870239 25.26147461 C-54.20705625 25.01424974 -46.80672433 22.91140375 -37 16 C-35.05114936 14.8175611 -33.09414262 13.64832831 -31.125 12.5 C-29.69414063 11.66082031 -29.69414063 11.66082031 -28.234375 10.8046875 C-21.94679097 7.29639786 -15.46600643 4.16355923 -9 1 C-5.82121306 -0.58939347 -3.5043228 -0.41576711 0 0 Z M-29.875 23.1875 C-31.97531241 24.43221666 -34.076108 25.6761113 -36.17724609 26.91943359 C-37.72068386 27.83441559 -39.26107473 28.75453425 -40.80078125 29.67578125 C-52.09002019 35.93936881 -65.77596513 35.29005981 -78.35232544 35.46386719 C-91.25442463 35.64866674 -104.07129782 36.04285102 -116.921875 37.27392578 C-123.07822122 37.86163605 -129.19479805 38.18185078 -135.375 38.375 C-144.11686423 38.67860966 -152.74221582 39.60031806 -161.41622925 40.67126465 C-163.63749251 40.93900579 -165.86014684 41.18752723 -168.08422852 41.43066406 C-174.75804247 42.17131849 -181.26506451 42.99484418 -187.82421875 44.48046875 C-211.91028828 49.15709475 -233.81264319 34.92521345 -254 23 C-254.495 22.505 -254.495 22.505 -255 22 C-256.99958364 21.95919217 -259.00045254 21.95745644 -261 22 C-265.31083556 29.61539539 -268.59378957 37.03035897 -270.8125 45.5 C-271.00674561 46.23323486 -271.20099121 46.96646973 -271.40112305 47.72192383 C-274.85983068 61.70105705 -275.37908945 75.55839507 -275.625 89.875 C-275.66328471 91.73829739 -275.70234205 93.60157908 -275.7421875 95.46484375 C-275.8370146 99.9764313 -275.92144889 104.48810094 -276 109 C-276.66 109 -277.32 109 -278 109 C-279.37754158 110.87070214 -279.37754158 110.87070214 -280.8125 113.375 C-284.06602242 118.66197394 -287.62442717 123.63361518 -291.3125 128.625 C-295.73993758 134.66752592 -299.88168715 140.79607915 -303.6875 147.25 C-304.30202026 148.28568115 -304.30202026 148.28568115 -304.92895508 149.34228516 C-308.51763354 155.56490519 -310.29216023 160.69599418 -310 168 C-305.85603117 169.10999165 -301.89557049 170.06981433 -297.625 170.5 C-294 171 -294 171 -292 173 C-291.47723101 179.74520861 -294.0953372 184.6861744 -297.8125 190.0625 C-305.30787125 201.13606531 -305.30787125 201.13606531 -308 214 C-307.34 214.99 -306.68 215.98 -306 217 C-302.91113966 217.21333136 -299.93676764 216.99266689 -296.84765625 216.8125 C-294 217 -294 217 -292.1171875 218.3359375 C-291 220 -291 220 -291.0625 222.625 C-292.06793079 226.24455083 -293.44784005 229.46790011 -295.0625 232.8515625 C-297.59949984 238.66552046 -297.60339809 244.74812539 -297 251 C-294.84062362 255.47870656 -292.07047061 258.18198188 -288 261 C-283.69427735 262.43524088 -279.37901136 261.93551905 -274.89257812 261.69726562 C-271.66994776 261.6166252 -269.52111495 261.64009328 -266.828125 263.5 C-264.29019377 266.97067518 -261.96694097 270.54300586 -259.6875 274.1875 C-244.82922639 297.44743862 -224.60973648 316.09838946 -199 327 C-197.96939453 327.45511963 -197.96939453 327.45511963 -196.91796875 327.91943359 C-175.16104884 337.45051574 -150.65348858 341.71709892 -127 343 C-126.26007813 343.04125 -125.52015625 343.0825 -124.7578125 343.125 C-110.35498297 343.512955 -96.57854076 340.63696113 -82.6875 337.1875 C-82.00862732 337.0210498 -81.32975464 336.85459961 -80.63031006 336.68310547 C-54.5566248 330.24006552 -29.49188258 318.51665462 -9 301 C-8.34128906 300.48566406 -7.68257813 299.97132813 -7.00390625 299.44140625 C7.26053999 287.93226552 18.81706408 269.08839193 22 251 C22.11483829 248.40465466 22.14153367 245.81595274 22.16381836 243.21826172 C22.26308538 231.8240448 22.26308538 231.8240448 24.94921875 228.8203125 C27.375 227.625 27.375 227.625 29.83203125 226.76953125 C32.29866157 226.11529833 32.29866157 226.11529833 34.0625 223.3125 C37.11847979 212.51470474 33.35505014 203.42207974 28.31640625 193.77734375 C27 191 27 191 27.25 188.3125 C29.64589294 185.14649862 32.14635188 184.81798326 35.86328125 183.72265625 C38.12372377 183.08551949 38.12372377 183.08551949 40.125 181.375 C42.39769958 175.20624398 39.81708772 168.47491907 37.38671875 162.68359375 C35.20410054 158.45976639 32.43484462 154.67479018 29.609375 150.859375 C27.78243241 147.61344787 27.67471867 145.66483628 28 142 C29.093125 141.484375 30.18625 140.96875 31.3125 140.4375 C34.21752646 138.74290123 35.12231841 137.81466907 37.0625 134.875 C39.63591011 124.23823821 33.3263661 113.93975029 28 105 C24.63766032 99.83350595 20.99277072 94.86766479 17.36279297 89.88769531 C15.50948766 87.32055868 13.73465635 84.71111507 12 82.0625 C11.505 81.31097656 11.01 80.55945313 10.5 79.78515625 C5.69634414 70.86586815 4.46227474 63.55660603 4.4375 53.4375 C4.12572791 37.92177713 2.91049035 24.17606519 -4 10 C-11.65209572 10 -23.42657311 19.33939674 -29.875 23.1875 Z " fill="#000000" transform="translate(399,74)"/>
<path d="M0 0 C2.625 0.9375 2.625 0.9375 5 2 C7.03907638 19.44138544 7.03907638 19.44138544 4 24 C-1.83439232 25.21203262 -6.87307342 23.72041002 -12 21 C-12.66 20.34 -13.32 19.68 -14 19 C-13.92646932 13.28911756 -11.34362788 10.5454996 -7.5625 6.6875 C-6.80743164 5.8821582 -6.80743164 5.8821582 -6.03710938 5.06054688 C-2.34534439 1.17267219 -2.34534439 1.17267219 0 0 Z " fill="#000000" transform="translate(388,94)"/>
<path d="M0 0 C3.20100022 1.28040009 4.86850887 3.33515257 7.1875 5.875 C7.73277344 6.42800781 8.27804688 6.98101562 8.83984375 7.55078125 C11.48179526 10.35435803 13.02605529 12.20231372 13.9375 16 C12.83166342 20.23904023 10.748632 21.3822076 7.1875 23.875 C4.86063547 25.03843227 3.34028587 25.07395988 0.75 25.125 C-0.03246094 25.15078125 -0.81492188 25.1765625 -1.62109375 25.203125 C-3.8125 24.875 -3.8125 24.875 -5.57421875 23.67578125 C-8.13579099 19.9505926 -7.23904387 15.19095047 -6.8125 10.875 C-6.09146911 7.43161532 -5.25512003 4.09111622 -3.8125 0.875 C-1.8125 -0.125 -1.8125 -0.125 0 0 Z " fill="#000000" transform="translate(145.8125,105.125)"/>
<path d="M0 0 C1 1 1 1 1.25 3.375 C0.95519863 6.47041443 0.23079732 6.99228242 -2 9 C-1.37351562 8.97679687 -0.74703125 8.95359375 -0.1015625 8.9296875 C0.71570313 8.91164062 1.53296875 8.89359375 2.375 8.875 C3.18710937 8.85179687 3.99921875 8.82859375 4.8359375 8.8046875 C7 9 7 9 9 11 C9.08203125 13.71484375 9.08203125 13.71484375 8.8125 16.9375 C8.73644531 17.99839844 8.66039062 19.05929688 8.58203125 20.15234375 C7.9669558 23.16167261 7.38611174 24.15413998 5 26 C6.98 27.32 8.96 28.64 11 30 C10.125 34.875 10.125 34.875 9 36 C4.4882692 35.58224715 0.12723487 34.82926884 -4.3125 33.9375 C-15.76784038 31.88181563 -29.97683581 32.31789054 -40 39 C-42.76653462 38.7925099 -44.53071623 38.29721306 -46.875 36.8125 C-48 35 -48 35 -48.0625 32.3125 C-43.3770241 17.70483983 -25.62248406 8.45383332 -12.75854492 1.83276367 C-8.21920449 -0.31685318 -4.88456138 -1.53514786 0 0 Z " fill="#000000" transform="translate(364,177)"/>
<path d="M0 0 C16.58060824 0.43234963 31.21317985 4.87570622 43.24951172 16.72583008 C48.17802993 21.94972468 51.27558708 27.11054868 52.375 34.3125 C51.055 35.6325 49.735 36.9525 48.375 38.3125 C45.93476966 37.18623984 43.92449819 35.97998676 41.75 34.375 C32.11346671 28.48600743 20.42486086 27.71314713 9.375 29.3125 C5.67192897 30.39935708 2.39057959 32.08990055 -0.9609375 34 C-3.83076587 35.41387439 -5.47320333 35.74573666 -8.625 35.3125 C-10.625 33.3125 -10.625 33.3125 -10.8125 30.8125 C-10.625 28.3125 -10.625 28.3125 -9.625 26.3125 C-10.40875 26.18875 -11.1925 26.065 -12 25.9375 C-14.625 25.3125 -14.625 25.3125 -16.625 23.3125 C-16.97965932 20.54615727 -17.13965113 18.98652696 -15.4140625 16.7265625 C-13.18784 14.96697179 -11.47116988 14.61475846 -8.6875 14.125 C-7.83285156 13.96644531 -6.97820312 13.80789062 -6.09765625 13.64453125 C-3.625 13.3125 -3.625 13.3125 0.375 13.3125 C0.375 12.3225 0.375 11.3325 0.375 10.3125 C-0.40875 10.18875 -1.1925 10.065 -2 9.9375 C-4.625 9.3125 -4.625 9.3125 -6.625 7.3125 C-6.875 4.8125 -6.875 4.8125 -6.625 2.3125 C-4.1502919 -0.1622081 -3.41744504 0.01548691 0 0 Z " fill="#000000" transform="translate(184.625,182.6875)"/>
<path d="M0 0 C4.15109942 0.54056086 5.32591474 1.92440268 8.0546875 5.0390625 C8.83585937 5.89757812 9.61703125 6.75609375 10.421875 7.640625 C12.46192281 10.85936711 12.54156086 12.67470444 12.1796875 16.4140625 C10.5296875 17.0740625 8.8796875 17.7340625 7.1796875 18.4140625 C5.55050743 17.14859237 3.92648108 15.87648522 2.3046875 14.6015625 C1.39976562 13.89386719 0.49484375 13.18617188 -0.4375 12.45703125 C-3.18804758 10.09877488 -4.71170812 8.52725744 -5.0703125 4.8515625 C-4.69364912 1.1790945 -3.57653743 0.52508721 0 0 Z " fill="#000000" transform="translate(420.8203125,190.5859375)"/>
<path d="M0 0 C2.375 0.6875 2.375 0.6875 3.375 1.6875 C3.9375 4.75 3.9375 4.75 3.375 8.6875 C1.57572514 10.95842943 -0.38824314 12.81830171 -2.5390625 14.7578125 C-4.38157389 16.46230806 -5.73942397 18.09380611 -7.1875 20.125 C-10.24582294 23.34016001 -12.27725494 23.51700019 -16.625 23.6875 C-18.625 20.6875 -18.625 20.6875 -18.6171875 18.44921875 C-17.16534646 14.40807067 -14.58315112 11.67485436 -11.75 8.5 C-10.93595703 7.55737305 -10.93595703 7.55737305 -10.10546875 6.59570312 C-3.92619422 -0.46740407 -3.92619422 -0.46740407 0 0 Z " fill="#000000" transform="translate(110.625,214.3125)"/>
<path d="M0 0 C5.47508058 3.90930987 8.98418315 8.10545701 10.58984375 14.7421875 C11.04983625 20.60989669 9.07010704 25.08485651 5.46484375 29.6171875 C-1.04243562 34.823011 -6.15188546 36.51858783 -14.58203125 36.1796875 C-21.0485438 35.44900812 -24.20474989 32.30144329 -28.1484375 27.48828125 C-31.07724268 23.52914721 -30.88115242 19.63054617 -30.34765625 14.8671875 C-28.47954885 8.64391406 -24.68362289 4.44016957 -19.34765625 0.8671875 C-13.64422174 -1.98452976 -5.85367352 -2.82456792 0 0 Z M-21.34765625 12.6171875 C-22.87118382 16.04512453 -23.10891703 19.24042624 -22.34765625 22.8671875 C-20.38825505 25.9935988 -20.38825505 25.9935988 -17.34765625 27.8671875 C-14.13703837 28.28608968 -14.13703837 28.28608968 -11.34765625 27.8671875 C-11.67765625 27.3515625 -12.00765625 26.8359375 -12.34765625 26.3046875 C-13.72757075 22.9411459 -13.72740471 20.47479791 -13.34765625 16.8671875 C-11.74796848 13.86777293 -10.53260984 12.30136897 -7.30078125 11.1171875 C-5.33615747 10.61558143 -3.34206384 10.23282889 -1.34765625 9.8671875 C-2.40395887 8.22148591 -2.40395887 8.22148591 -4.34765625 6.8671875 C-11.0722218 5.94420791 -16.34652142 8.24119453 -21.34765625 12.6171875 Z " fill="#000000" transform="translate(356.34765625,216.1328125)"/>
<path d="M0 0 C3.79044366 3.19876465 5.63616777 6.29414234 6.25 11.296875 C6.53034812 17.63975111 5.7150519 22.56199852 1.9375 27.75 C-2.50674763 32.08029257 -7.05523835 34.03349687 -13.25 34.125 C-19.69836446 33.97706181 -26.07612129 32.7707049 -30.76171875 28.03125 C-34.86651197 22.4797818 -35.85654458 17.46023591 -35.0625 10.75 C-32.97668491 4.74285254 -28.62826595 0.64276244 -23.09765625 -2.29296875 C-15.51607529 -5.43253844 -6.89744129 -4.49135712 0 0 Z M-25.4375 9 C-27.55107708 12.57682275 -27.64753686 14.65474201 -27.0625 18.75 C-24.94122756 22.15918784 -22.93574937 24.53269305 -19.0625 25.75 C-16.73046188 25.8277346 -14.39410941 25.83967728 -12.0625 25.75 C-12.866875 25.04875 -13.67125 24.3475 -14.5 23.625 C-17.39076999 20.38169708 -18.0625 19.05225122 -18.0625 14.75 C-16.39107467 8.58661908 -16.39107467 8.58661908 -13.30078125 6.640625 C-11.375 5.8125 -11.375 5.8125 -8.0625 4.75 C-8.0625 4.42 -8.0625 4.09 -8.0625 3.75 C-15.24189169 3.3192365 -19.98843424 3.83772717 -25.4375 9 Z " fill="#000000" transform="translate(222.0625,221.25)"/>
<path d="M0 0 C5.7040336 3.18406979 10.65316787 7.70950362 12.75 14 C13.3445053 18.30451937 13.71192644 22.30445244 11.515625 26.17578125 C9.03770396 29.13824625 7.46755296 30.76081568 3.75 32 C1.41700175 32.03954234 -0.91708189 32.04401732 -3.25 32 C-0.70455494 39.44168349 1.89249101 46.19988937 8.97265625 50.28125 C17.73874814 54.17111645 26.4627536 55.1378483 35.59765625 52.03515625 C38.58293537 50.59940495 40.49362023 48.38531575 42.75 46 C45.4375 45.5625 45.4375 45.5625 47.75 46 C49.75 48 49.75 48 49.8125 50.25 C47.81733992 55.41394375 43.2408014 58.1522894 38.5625 60.8125 C29.01173366 64.84504579 18.60512669 63.17278384 8.75 61 C8.4096875 61.79664063 8.069375 62.59328125 7.71875 63.4140625 C3.81970732 71.93803347 0.14276016 76.46870442 -8.3125 80.4375 C-12.70558586 81.27872921 -16.13860343 81.20207662 -20.109375 78.94140625 C-25.35001161 74.98853291 -27.29820246 70.13422083 -29.25 64 C-30.14138672 64.79664063 -30.14138672 64.79664063 -31.05078125 65.609375 C-38.10774019 71.62370393 -44.68861276 75.24591359 -53.9375 76.5 C-59.42675875 75.67143264 -63.58288572 73.62205714 -67.5625 69.75 C-69.67156631 66.31300306 -71.44015778 62.97704696 -72.25 59 C-71.4375 56 -71.4375 56 -70.25 54 C-67.875 53.875 -67.875 53.875 -65.25 54 C-63.12731977 56.12268023 -62.78464337 57.14660435 -61.9375 59.9375 C-60.89620695 62.77270384 -60.31472445 63.93897409 -58.0625 66.0625 C-52.95140722 67.76619759 -49.31096046 67.00155981 -44.60546875 64.71484375 C-31.67530106 57.06524804 -25.03071869 45.92023468 -18.25 33 C-19.11818359 33.48533203 -19.11818359 33.48533203 -20.00390625 33.98046875 C-23.37168151 35.50914587 -26.64772142 35.45118002 -30.25 35 C-33.73733302 33.63539143 -34.88789365 32.69129394 -36.625 29.375 C-37.85788007 22.71744762 -36.91893243 16.74799415 -33.25 11 C-25.21105809 -0.2858683 -13.31063934 -5.9292848 0 0 Z " fill="#000000" transform="translate(288.25,225)"/>
<path d="M0 0 C4.22653194 2.7810266 8.01030118 5.82202308 9.625 10.75 C10 14 10 14 8 17 C5.73046875 17.9453125 5.73046875 17.9453125 3 18 C0.17578125 16.3046875 0.17578125 16.3046875 -2.6875 13.875 C-3.64011719 13.08867187 -4.59273438 12.30234375 -5.57421875 11.4921875 C-7.99946594 9.00054868 -9.11319463 7.33528057 -10 4 C-9.25 1.75 -9.25 1.75 -8 0 C-4.89303638 -1.55348181 -3.33143054 -0.98709053 0 0 Z " fill="#000000" transform="translate(427,236)"/>
<path d="M0 0 C3.125 0.5 3.125 0.5 5.4375 2.875 C8.68050764 9.84146086 8.9065858 16.53763504 6.38671875 23.80078125 C-0.86616158 39.31700512 -13.34558685 50.07954465 -27.875 58.5 C-28.7721875 59.03238281 -29.669375 59.56476563 -30.59375 60.11328125 C-66.87352444 79.90709936 -114.11765203 84.97447887 -153.77734375 73.75732422 C-166.89586393 69.68139245 -177.89793602 63.38811597 -184.6875 51.08203125 C-187.81486445 44.28207104 -188.04081582 37.43274283 -188.125 30.0625 C-188.13450684 29.36366699 -188.14401367 28.66483398 -188.15380859 27.94482422 C-188.12947934 24.24767891 -187.97874871 22.65562306 -185.875 19.5 C-183.25 19.3125 -183.25 19.3125 -180.875 19.5 C-177.38608429 25.29326587 -177.4410609 30.15177334 -177.43554688 36.69140625 C-177.26979172 43.42449511 -175.38725541 48.37680975 -171.15625 53.63671875 C-153.99272177 68.57952732 -123.2661504 70.39218646 -101.40234375 69.77734375 C-70.95419197 67.38330302 -33.87338372 56.86834621 -12.4375 34.0625 C-7.85936208 28.57638065 -3.66922705 22.47211055 -3.4375 15.125 C-3.83123202 11.86264897 -4.42122781 10.31062623 -5.875 7.5 C-5.44945926 3.0318222 -4.70744899 0.81868678 0 0 Z " fill="#000000" transform="translate(366.875,256.5)"/>
<path d="M0 0 C2.25 1.9375 2.25 1.9375 2.64453125 4.13671875 C2.10809369 7.94489427 0.33141994 10.59497366 -1.8125 13.6875 C-2.3684082 14.57115234 -2.3684082 14.57115234 -2.93554688 15.47265625 C-5.20176777 18.78629017 -6.52380058 19.87513325 -10.43359375 20.953125 C-13.75 20.9375 -13.75 20.9375 -15.75 18.9375 C-16.06167284 11.61318822 -11.45806515 6.20459329 -6.75 0.9375 C-3.37910457 -1.30556313 -3.37910457 -1.30556313 0 0 Z " fill="#000000" transform="translate(111.75,265.0625)"/>
<path d="M0 0 C6.30739933 1.15850192 10.1400349 3.83157215 14 9 C14.84765625 11.0546875 14.84765625 11.0546875 15 13 C12.5625 15.75 12.5625 15.75 10 18 C4.99673124 16.43647851 0.73420747 13.64776748 -3 10 C-4.25 6.875 -4.25 6.875 -4 4 C-2.0625 1.625 -2.0625 1.625 0 0 Z " fill="#000000" transform="translate(415,278)"/>
<path d="M0 0 C1 1 1 1 1.375 3.4375 C0.77148863 9.17085804 -1.89769189 14.89769189 -6 19 C-8.5 19.25 -8.5 19.25 -11 19 C-13 17 -13 17 -13.3046875 14.23828125 C-12.95811747 10.5548639 -11.95373293 8.38559514 -10.125 5.1875 C-9.59132813 4.23230469 -9.05765625 3.27710938 -8.5078125 2.29296875 C-5.9590251 -1.58303696 -4.21391113 -1.08049003 0 0 Z " fill="#000000" transform="translate(120,306)"/>
</svg>
