<?xml version="1.0" encoding="UTF-8"?>
<svg version="1.1" xmlns="http://www.w3.org/2000/svg" width="550" height="500">
<path d="M0 0 C1.27729477 -0.00807175 2.55458954 -0.01614349 3.87059021 -0.02445984 C6.56419734 -0.03937865 9.25777923 -0.04926635 11.95141602 -0.05688477 C14.67723148 -0.06571299 17.40253195 -0.08653271 20.12817383 -0.1184082 C38.04754683 -0.32333585 54.41001502 -0.4453224 70.79296875 7.62109375 C72.61589524 8.47324727 72.61589524 8.47324727 74.99609375 7.48828125 C76.23359375 6.86953125 76.23359375 6.86953125 77.49609375 6.23828125 C83.84806185 5.66559007 90.10085393 6.63688428 96.37109375 7.55078125 C104.54694061 8.67419529 112.69305148 9.4375602 120.92578125 9.96484375 C121.85151947 10.02469955 122.77725769 10.08455536 123.73104858 10.14622498 C128.37428283 10.44205783 133.01784561 10.71841393 137.66357422 10.97192383 C162.22499722 12.41470628 187.04955153 16.36832042 204.6875 35.1796875 C205.28433594 35.85902344 205.88117188 36.53835937 206.49609375 37.23828125 C207.12386719 37.94855469 207.75164062 38.65882812 208.3984375 39.390625 C218.71609732 51.80235531 219.70370698 66.0471915 218.28131104 81.58441162 C217.71837792 86.36078689 216.9787117 91.10918803 216.21881104 95.85766602 C213.75504597 111.28176645 211.88215061 126.69535866 210.40811157 142.2428894 C206.64710379 181.49373439 198.94501719 234.38991747 169.00390625 263.1015625 C163.76113423 267.05401498 154.71932278 265.75995232 148.49609375 265.23828125 C135.6268917 261.25310539 128.30740323 243.22421999 122.49609375 232.23828125 C117.28512758 221.90459914 113.24413179 211.48354217 110.49609375 200.23828125 C108.51598504 206.08885833 106.63819366 211.9603441 104.859375 217.875 C90.08994135 266.64057962 90.08994135 266.64057962 79.49609375 286.23828125 C79.08488281 287.01381348 78.67367188 287.7893457 78.25 288.58837891 C64.21577827 315.04830066 48.09985363 345.28030036 18.49609375 356.23828125 C2.74174105 360.17686943 -12.77072261 354.5699708 -26.50390625 347.11328125 C-33.32930162 342.99312733 -38.90210077 337.83629789 -44.50390625 332.23828125 C-45.39722656 331.36816406 -46.29054687 330.49804688 -47.2109375 329.6015625 C-80.49302464 295.44234861 -103.32441784 238.18433271 -114.50390625 192.23828125 C-114.72304687 192.78613281 -114.9421875 193.33398438 -115.16796875 193.8984375 C-115.86355345 195.63739926 -116.56480169 197.37409914 -117.26953125 199.109375 C-118.09054118 201.19047929 -118.87224661 203.28753248 -119.61328125 205.3984375 C-122.72599017 213.91995853 -126.79322478 221.68736713 -131.31640625 229.55078125 C-132.16887939 231.05342529 -132.16887939 231.05342529 -133.03857422 232.58642578 C-141.20921166 246.49237698 -153.63377023 261.15882948 -169.62890625 265.86328125 C-176.77981111 267.20407591 -182.16914802 264.20908042 -188.06640625 260.55078125 C-201.58819908 251.01826521 -207.23033923 236.12047981 -210.13378906 220.41162109 C-213.14224934 202.74584709 -213.66322232 184.81266453 -213.671875 166.9296875 C-213.67510858 165.30907668 -213.67847399 163.68846613 -213.68196106 162.06785583 C-213.68789531 158.6870761 -213.68980734 155.30632167 -213.68920898 151.92553711 C-213.68912847 148.53941417 -213.69596022 145.1534287 -213.7097168 141.76733398 C-213.78061766 124.02656189 -213.65090066 106.34221276 -212.58203125 88.62890625 C-212.54068243 87.94139849 -212.49933361 87.25389072 -212.4567318 86.54554939 C-210.17469009 49.58043033 -210.17469009 49.58043033 -205.50390625 44.23828125 C-200.59164174 40.5062085 -195.16254735 38.01832636 -189.44140625 35.80078125 C-188.62631592 35.48077148 -187.81122559 35.16076172 -186.97143555 34.83105469 C-178.15593903 31.41820372 -169.27907279 28.16141799 -160.39627075 24.92843628 C-158.70143505 24.31080372 -157.00761184 23.69038434 -155.31491089 23.06692505 C-134.7866756 15.52347363 -112.76175033 7.82184365 -91.50390625 17.23828125 C-90.16049551 18.22470173 -88.82451166 19.22153195 -87.50390625 20.23828125 C-84.69503907 20.14767263 -83.54829771 19.27483893 -81.37890625 17.48828125 C-69.87677373 8.48661232 -54.84025869 6.00037568 -40.75244141 3.85522461 C-38.73968348 3.54861465 -36.72921448 3.22947798 -34.71875 2.90820312 C-23.06982086 1.08193679 -11.79457086 0.07215474 0 0 Z M-44.50390625 13.23828125 C-46.26537407 13.54312018 -48.02708062 13.84658403 -49.7890625 14.1484375 C-63.82494569 16.72363473 -77.75377902 22.07189177 -86.4934082 33.93994141 C-88.56659903 37.34113243 -89.46122385 40.01158358 -90.3203125 43.8828125 C-90.46195831 44.51656296 -90.60360413 45.15031342 -90.74954224 45.80326843 C-91.20578264 47.88249213 -91.63830787 49.96559193 -92.06640625 52.05078125 C-92.21864655 52.77491211 -92.37088684 53.49904297 -92.52774048 54.24511719 C-95.48548352 68.4432142 -96.88839468 82.58463653 -97.98898315 97.02400208 C-98.59312015 104.7453389 -99.49404013 112.42751663 -100.44140625 120.11328125 C-100.5672258 121.13625809 -100.5672258 121.13625809 -100.69558716 122.17990112 C-101.89936562 131.90172541 -103.21560872 141.60712088 -104.62890625 151.30078125 C-104.78738037 152.39438965 -104.94585449 153.48799805 -105.10913086 154.61474609 C-105.75819197 158.93568727 -106.41938619 163.1114374 -107.68359375 167.296875 C-109.8479103 175.57754597 -107.24319377 184.29820476 -104.484375 192.1328125 C-104.1757402 193.03167679 -103.86710541 193.93054108 -103.54911804 194.85664368 C-100.08904449 204.73722597 -96.00506151 214.33673319 -91.81640625 223.92578125 C-91.01865067 225.76736209 -90.22120996 227.60907936 -89.42407227 229.45092773 C-73.86136854 266.12537952 -73.86136854 266.12537952 -53.50390625 300.23828125 C-52.72472818 301.36812272 -51.94610466 302.49834678 -51.16796875 303.62890625 C-40.2328998 319.38596113 -27.75629875 336.37617456 -8.50390625 342.23828125 C-5.57065926 342.5846587 -4.16936054 342.73248997 -1.7734375 340.953125 C1.62872944 336.8030286 3.41983645 333.51194201 4.49609375 328.23828125 C3.93921875 328.09132813 3.38234375 327.944375 2.80859375 327.79296875 C-10.80734151 323.79098778 -19.32068499 312.9949029 -26.50390625 301.23828125 C-28.73214455 296.78180464 -27.99652902 291.07391165 -27.50390625 286.23828125 C-25.40450008 280.30722345 -21.0303887 276.11897568 -15.50390625 273.23828125 C-8.94518872 270.96134656 -0.46058031 271.69622434 6.24609375 272.92578125 C9.59579793 273.24786819 11.17193668 272.8382536 14.30859375 271.80078125 C20.94207728 269.62652868 27.21586942 268.92053021 33.74609375 271.80078125 C38.7493946 274.64241256 42.67066793 278.76200378 44.49609375 284.23828125 C45.47001366 295.47827498 43.58382906 305.44364339 36.4140625 314.3828125 C32.12465177 318.5324461 26.81508039 321.57878793 21.49609375 324.23828125 C22.93330504 329.26852076 25.16982601 331.49276519 29.49609375 334.23828125 C40.29042926 332.01591806 46.69748975 319.80270058 52.43359375 311.23828125 C68.66588812 286.5802977 80.81863084 261.63960639 89.43359375 233.42578125 C89.82803177 232.13994141 89.82803177 232.13994141 90.23043823 230.828125 C94.20399942 217.85017225 97.95041184 204.86192943 100.94970703 191.61865234 C101.46471189 189.37499847 102.01994301 187.14529698 102.5859375 184.9140625 C102.88628906 183.63917969 103.18664062 182.36429688 103.49609375 181.05078125 C103.86734375 179.51357422 103.86734375 179.51357422 104.24609375 177.9453125 C104.63141892 172.23166268 103.53233382 166.84248362 102.49609375 161.23828125 C102.34628052 160.4271286 102.19646729 159.61597595 102.04211426 158.78024292 C101.33494557 154.96971448 100.62179215 151.16033029 99.90560913 147.35148621 C94.80394922 120.19173827 90.97689279 93.26713451 88.92733765 65.71487427 C88.74057756 63.2066215 88.54891869 60.6987755 88.35693359 58.19091797 C88.11813515 55.0633858 87.90482656 51.93569445 87.70947266 48.80517578 C86.89404329 36.88179197 84.24123238 29.99170247 75.44921875 21.63671875 C58.04529565 7.5017865 36.05582187 8.69715069 14.87109375 8.80078125 C13.60385468 8.80315796 12.3366156 8.80553467 11.03097534 8.8079834 C-7.82366936 8.86344569 -25.97438512 9.61203244 -44.50390625 13.23828125 Z M138.49609375 24.23828125 C139.15609375 25.55828125 139.81609375 26.87828125 140.49609375 28.23828125 C140.49609375 26.91828125 140.49609375 25.59828125 140.49609375 24.23828125 C139.83609375 24.23828125 139.17609375 24.23828125 138.49609375 24.23828125 Z M150.49609375 25.23828125 C150.49609375 27.54828125 150.49609375 29.85828125 150.49609375 32.23828125 C152.24236853 29.61886908 152.88331763 28.20003248 153.49609375 25.23828125 C152.50609375 25.23828125 151.51609375 25.23828125 150.49609375 25.23828125 Z M161.49609375 26.23828125 C161.82609375 28.87828125 162.15609375 31.51828125 162.49609375 34.23828125 C162.88796875 33.74328125 163.27984375 33.24828125 163.68359375 32.73828125 C165.49609375 31.23828125 165.49609375 31.23828125 168.05859375 30.86328125 C169.26515625 31.04890625 169.26515625 31.04890625 170.49609375 31.23828125 C173.06226007 35.08753073 173.04707051 37.67321165 173.49609375 42.23828125 C175.66483627 41.73224133 177.49577002 41.23844312 179.49609375 40.23828125 C179.16609375 37.26828125 178.83609375 34.29828125 178.49609375 31.23828125 C176.03894828 30.40129739 173.58050518 29.56855701 171.12109375 28.73828125 C170.42242187 28.49980469 169.72375 28.26132813 169.00390625 28.015625 C165.33206296 26.70092213 165.33206296 26.70092213 161.49609375 26.23828125 Z M-93.50390625 27.23828125 C-93.50390625 27.89828125 -93.50390625 28.55828125 -93.50390625 29.23828125 C-92.84390625 29.23828125 -92.18390625 29.23828125 -91.50390625 29.23828125 C-91.50390625 28.57828125 -91.50390625 27.91828125 -91.50390625 27.23828125 C-92.16390625 27.23828125 -92.82390625 27.23828125 -93.50390625 27.23828125 Z M-107.50390625 29.23828125 C-107.17390625 30.55828125 -106.84390625 31.87828125 -106.50390625 33.23828125 C-105.51390625 31.58828125 -104.52390625 29.93828125 -103.50390625 28.23828125 C-105.57844185 28.08921005 -105.57844185 28.08921005 -107.50390625 29.23828125 Z M102.49609375 36.23828125 C102.40102312 42.67139421 102.34292649 48.8958613 103.49609375 55.23828125 C103.82609375 55.23828125 104.15609375 55.23828125 104.49609375 55.23828125 C104.60264953 48.79757654 104.45814463 42.61186836 103.49609375 36.23828125 C103.16609375 36.23828125 102.83609375 36.23828125 102.49609375 36.23828125 Z M132.49609375 43.23828125 C129.95174413 45.78263087 130.50060129 52.00755147 130.43359375 55.4375 C130.43359375 58.37177856 130.45208487 61.30435593 130.49609375 64.23828125 C131.81609375 64.23828125 133.13609375 64.23828125 134.49609375 64.23828125 C134.59342467 57.14393892 134.59696568 50.25633982 133.49609375 43.23828125 C133.16609375 43.23828125 132.83609375 43.23828125 132.49609375 43.23828125 Z M194.49609375 44.23828125 C195.57010483 47.15345417 196.27419551 49.01638301 198.49609375 51.23828125 C198.49609375 49.91828125 198.49609375 48.59828125 198.49609375 47.23828125 C196.57586672 45.46418317 196.57586672 45.46418317 194.49609375 44.23828125 Z M-198.50390625 50.23828125 C-198.17390625 50.89828125 -197.84390625 51.55828125 -197.50390625 52.23828125 C-196.51390625 51.24828125 -195.52390625 50.25828125 -194.50390625 49.23828125 C-196.57844185 49.08921005 -196.57844185 49.08921005 -198.50390625 50.23828125 Z M181.49609375 57.23828125 C181.49609375 61.85828125 181.49609375 66.47828125 181.49609375 71.23828125 C183.47609375 70.57828125 185.45609375 69.91828125 187.49609375 69.23828125 C187.07014787 67.79731539 186.62982742 66.36059413 186.18359375 64.92578125 C185.81814453 63.72501953 185.81814453 63.72501953 185.4453125 62.5 C184.51152045 59.8753382 184.51152045 59.8753382 181.49609375 57.23828125 Z M-133.50390625 65.23828125 C-132.50390625 67.23828125 -132.50390625 67.23828125 -132.50390625 67.23828125 Z M-107.50390625 68.23828125 C-108.73031905 70.21465872 -109.91013655 72.22006505 -111.06640625 74.23828125 C-111.70707031 75.35203125 -112.34773438 76.46578125 -113.0078125 77.61328125 C-113.50152344 78.47953125 -113.99523437 79.34578125 -114.50390625 80.23828125 C-113.51390625 81.22828125 -112.52390625 82.21828125 -111.50390625 83.23828125 C-107.05834301 76.29379154 -107.05834301 76.29379154 -106.50390625 68.23828125 C-106.83390625 68.23828125 -107.16390625 68.23828125 -107.50390625 68.23828125 Z M105.49609375 71.23828125 C101.39786768 83.19144062 102.07880834 94.83703389 103.49609375 107.23828125 C104.48609375 106.74328125 104.48609375 106.74328125 105.49609375 106.23828125 C105.98157493 104.45574638 105.98157493 104.45574638 106.1640625 102.29296875 C106.25316895 101.46958008 106.34227539 100.64619141 106.43408203 99.79785156 C106.5164209 98.91194336 106.59875977 98.02603516 106.68359375 97.11328125 C106.77108887 96.21706055 106.85858398 95.32083984 106.94873047 94.39746094 C107.63055197 86.5586051 107.37222845 79.05245556 106.49609375 71.23828125 C106.16609375 71.23828125 105.83609375 71.23828125 105.49609375 71.23828125 Z M136.49609375 76.23828125 C136.07883697 79.86427547 136.07883697 79.86427547 136.49609375 83.23828125 C138.47609375 82.57828125 140.45609375 81.91828125 142.49609375 81.23828125 C142.82609375 78.59828125 143.15609375 75.95828125 143.49609375 73.23828125 C140.37195983 73.23828125 138.89350293 74.28250008 136.49609375 76.23828125 Z M-201.50390625 74.23828125 C-202.16163053 77.26762616 -202.16163053 77.26762616 -202.50390625 80.23828125 C-200.00352891 78.06404008 -199.06762039 76.50782327 -198.50390625 73.23828125 C-199.72751305 73.16374565 -199.72751305 73.16374565 -201.50390625 74.23828125 Z M198.49609375 77.23828125 C195.47892532 77.54662824 195.47892532 77.54662824 192.49609375 79.23828125 C191.33679587 82.17409578 190.86903809 85.11326486 190.49609375 88.23828125 C191.05296875 87.49578125 191.60984375 86.75328125 192.18359375 85.98828125 C194.42636553 83.3212013 196.7168435 81.32271893 199.49609375 79.23828125 C199.16609375 78.57828125 198.83609375 77.91828125 198.49609375 77.23828125 Z M-194.50390625 83.23828125 C-196.70926804 87.26546365 -197.96050833 90.67373874 -198.50390625 95.23828125 C-197.51390625 94.90828125 -196.52390625 94.57828125 -195.50390625 94.23828125 C-194.66186698 92.47166678 -194.66186698 92.47166678 -194.25390625 90.36328125 C-194.08375 89.66460937 -193.91359375 88.9659375 -193.73828125 88.24609375 C-193.33625872 86.03440815 -193.33625872 86.03440815 -194.50390625 83.23828125 Z M-171.50390625 85.23828125 C-170.50390625 87.23828125 -170.50390625 87.23828125 -170.50390625 87.23828125 Z M154.49609375 87.23828125 C153.94860582 90.21317961 153.94860582 90.21317961 153.74609375 93.67578125 C153.648125 94.85011719 153.55015625 96.02445313 153.44921875 97.234375 C153.14939213 100.35557154 153.14939213 100.35557154 155.49609375 102.23828125 C156.68698361 96.858011 157.78804565 91.78536741 157.49609375 86.23828125 C156.27248695 86.16374565 156.27248695 86.16374565 154.49609375 87.23828125 Z M-202.50390625 103.23828125 C-202.83390625 105.21828125 -203.16390625 107.19828125 -203.50390625 109.23828125 C-202.12827771 107.94862949 -200.79624232 106.61138832 -199.50390625 105.23828125 C-199.50390625 104.57828125 -199.50390625 103.91828125 -199.50390625 103.23828125 C-200.49390625 103.23828125 -201.48390625 103.23828125 -202.50390625 103.23828125 Z M-167.50390625 118.23828125 C-168.49390625 118.89828125 -169.48390625 119.55828125 -170.50390625 120.23828125 C-172.15940156 120.62328016 -173.82614955 120.9662126 -175.50390625 121.23828125 C-175.36206929 122.98860969 -175.21527196 124.73853659 -175.06640625 126.48828125 C-174.98519531 127.4628125 -174.90398437 128.43734375 -174.8203125 129.44140625 C-174.55316041 131.80289878 -174.15018657 133.9572919 -173.50390625 136.23828125 C-172.51390625 136.23828125 -171.52390625 136.23828125 -170.50390625 136.23828125 C-170.38273437 135.32304687 -170.2615625 134.4078125 -170.13671875 133.46484375 C-169.88535156 131.68207031 -169.88535156 131.68207031 -169.62890625 129.86328125 C-169.46648437 128.67992187 -169.3040625 127.4965625 -169.13671875 126.27734375 C-168.50390625 123.23828125 -168.50390625 123.23828125 -166.50390625 121.23828125 C-166.83390625 120.24828125 -167.16390625 119.25828125 -167.50390625 118.23828125 Z M183.49609375 131.23828125 C183.49609375 131.89828125 183.49609375 132.55828125 183.49609375 133.23828125 C184.98109375 134.22828125 184.98109375 134.22828125 186.49609375 135.23828125 C187.68359375 137.36328125 187.68359375 137.36328125 188.49609375 139.23828125 C189.15609375 136.59828125 189.81609375 133.95828125 190.49609375 131.23828125 C188.18609375 131.23828125 185.87609375 131.23828125 183.49609375 131.23828125 Z M-123.50390625 133.23828125 C-122.50390625 135.23828125 -122.50390625 135.23828125 -122.50390625 135.23828125 Z M-199.50390625 135.23828125 C-201.02189877 148.2767527 -200.73642815 161.18675474 -199.50390625 174.23828125 C-193.74279624 164.5377561 -197.95099105 146.15982694 -198.50390625 135.23828125 C-198.83390625 135.23828125 -199.16390625 135.23828125 -199.50390625 135.23828125 Z M-143.50390625 140.23828125 C-142.50390625 143.23828125 -142.50390625 143.23828125 -142.50390625 143.23828125 Z M-169.50390625 143.23828125 C-171.71298096 145.9002164 -171.71298096 145.9002164 -171.39550781 148.12353516 C-171.23018555 148.81366699 -171.06486328 149.50379883 -170.89453125 150.21484375 C-170.71664062 150.96765625 -170.53875 151.72046875 -170.35546875 152.49609375 C-170.15695313 153.27726563 -169.9584375 154.0584375 -169.75390625 154.86328125 C-169.57085937 155.6521875 -169.3878125 156.44109375 -169.19921875 157.25390625 C-168.70778024 159.26811198 -168.11304547 161.25649268 -167.50390625 163.23828125 C-166.84390625 163.56828125 -166.18390625 163.89828125 -165.50390625 164.23828125 C-166.06893946 154.18439401 -166.06893946 154.18439401 -167.50390625 144.23828125 C-168.16390625 143.90828125 -168.82390625 143.57828125 -169.50390625 143.23828125 Z M111.49609375 143.23828125 C112.75519569 152.30062524 114.50177205 161.15267218 116.62109375 170.05078125 C116.89824219 171.23220703 117.17539062 172.41363281 117.4609375 173.63085938 C118.13491427 176.50107081 118.81334226 179.37014691 119.49609375 182.23828125 C121.51398821 178.55893935 121.60778529 176.38192146 121.18359375 172.17578125 C120.49925559 165.31702126 120.49925559 165.31702126 120.375 162.22265625 C119.99599428 153.99938063 117.29676331 148.96091489 111.49609375 143.23828125 Z M152.49609375 162.23828125 C152.49609375 163.88828125 152.49609375 165.53828125 152.49609375 167.23828125 C152.82609375 167.23828125 153.15609375 167.23828125 153.49609375 167.23828125 C153.49609375 165.58828125 153.49609375 163.93828125 153.49609375 162.23828125 C153.16609375 162.23828125 152.83609375 162.23828125 152.49609375 162.23828125 Z M139.49609375 168.23828125 C140.49609375 172.23828125 140.49609375 172.23828125 140.49609375 172.23828125 Z M151.49609375 168.23828125 C152.49609375 170.23828125 152.49609375 170.23828125 152.49609375 170.23828125 Z M-187.50390625 185.23828125 C-186.50390625 187.23828125 -186.50390625 187.23828125 -186.50390625 187.23828125 Z M-198.50390625 191.23828125 C-199.82390625 191.56828125 -201.14390625 191.89828125 -202.50390625 192.23828125 C-202.17390625 197.18828125 -201.84390625 202.13828125 -201.50390625 207.23828125 C-199.13886808 204.87324308 -198.95469566 203.59792083 -198.31640625 200.36328125 C-198.13722656 199.49960937 -197.95804688 198.6359375 -197.7734375 197.74609375 C-197.50471555 195.24581128 -197.72694855 193.60772673 -198.50390625 191.23828125 Z M-178.50390625 194.23828125 C-182.21228037 204.88216423 -184.50338362 215.00853471 -185.50390625 226.23828125 C-182.43378223 222.79974234 -181.41752964 219.12496209 -180.37890625 214.73828125 C-180.20713867 214.03574219 -180.03537109 213.33320313 -179.85839844 212.609375 C-178.43672027 206.52514456 -177.74049638 200.48426057 -177.50390625 194.23828125 C-177.83390625 194.23828125 -178.16390625 194.23828125 -178.50390625 194.23828125 Z M144.49609375 207.23828125 C144.10429267 208.817541 143.73328639 210.40196919 143.37109375 211.98828125 C143.05785156 213.31085938 143.05785156 213.31085938 142.73828125 214.66015625 C142.46521071 217.56703618 142.96101347 218.80489473 144.49609375 221.23828125 C144.82609375 219.25828125 145.15609375 217.27828125 145.49609375 215.23828125 C146.81609375 214.90828125 148.13609375 214.57828125 149.49609375 214.23828125 C149.49609375 212.25828125 149.49609375 210.27828125 149.49609375 208.23828125 C147.84609375 207.90828125 146.19609375 207.57828125 144.49609375 207.23828125 Z M127.49609375 208.23828125 C129.31830751 214.85070847 131.54832979 221.04348796 134.49609375 227.23828125 C136.06063534 223.21813464 134.95833349 219.53902444 134.05859375 215.48828125 C133.91099609 214.79089844 133.76339844 214.09351563 133.61132812 213.375 C133.24741342 211.66107915 132.87280307 209.94943544 132.49609375 208.23828125 C130.84609375 208.23828125 129.19609375 208.23828125 127.49609375 208.23828125 Z M181.49609375 214.23828125 C179.91354178 218.5639233 179.04464723 222.66700225 178.49609375 227.23828125 C181.19879298 224.53558202 182.20179633 221.81300745 183.49609375 218.23828125 C183.31236587 215.89347079 183.31236587 215.89347079 182.49609375 214.23828125 C182.16609375 214.23828125 181.83609375 214.23828125 181.49609375 214.23828125 Z M-183.50390625 240.23828125 C-185.19478847 242.21785067 -186.86221097 244.21773321 -188.50390625 246.23828125 C-186.85846845 247.92590976 -185.19102048 249.59231615 -183.50390625 251.23828125 C-183.17390625 251.23828125 -182.84390625 251.23828125 -182.50390625 251.23828125 C-182.50390625 247.60828125 -182.50390625 243.97828125 -182.50390625 240.23828125 C-182.83390625 240.23828125 -183.16390625 240.23828125 -183.50390625 240.23828125 Z M147.49609375 247.23828125 C148.19948941 249.74793739 148.19948941 249.74793739 149.49609375 252.23828125 C151.53715014 253.12521428 151.53715014 253.12521428 153.49609375 253.23828125 C152.01109375 250.26828125 152.01109375 250.26828125 150.49609375 247.23828125 C149.50609375 247.23828125 148.51609375 247.23828125 147.49609375 247.23828125 Z M12.49609375 329.23828125 C11.68004376 331.15343915 10.86838743 333.07046959 10.05859375 334.98828125 C9.60613281 336.055625 9.15367187 337.12296875 8.6875 338.22265625 C7.75629822 340.57966535 7.01768655 342.7682096 6.49609375 345.23828125 C8.58003405 345.12384522 10.66325868 344.99632578 12.74609375 344.86328125 C14.48632812 344.75886719 14.48632812 344.75886719 16.26171875 344.65234375 C19.20303709 344.27579817 20.99558386 343.76086895 23.49609375 342.23828125 C22.10556795 339.0817877 20.47576232 336.99838619 17.99609375 334.61328125 C17.38765625 334.02289063 16.77921875 333.4325 16.15234375 332.82421875 C15.60578125 332.30085938 15.05921875 331.7775 14.49609375 331.23828125 C13.83609375 330.57828125 13.17609375 329.91828125 12.49609375 329.23828125 Z " fill="#000000" transform="translate(277.50390625,76.76171875)"/>
<path d="M0 0 C2 3 2 3 1.625 5.6875 C1.41875 6.450625 1.2125 7.21375 1 8 C1.61875 8.20625 2.2375 8.4125 2.875 8.625 C5 10 5 10 6.4375 12.8125 C7 16 7 16 5.9375 18.75 C2.09388909 23.21354815 -3.58330663 23.63617706 -9.15234375 24.61328125 C-9.93009659 24.75074265 -10.70784943 24.88820404 -11.50917053 25.02983093 C-13.14837014 25.31619533 -14.78815306 25.59923832 -16.4284668 25.87915039 C-18.929155 26.31105869 -21.42407594 26.76956316 -23.91992188 27.22851562 C-25.51794321 27.5042665 -27.11624306 27.77840914 -28.71484375 28.05078125 C-29.82604836 28.26145988 -29.82604836 28.26145988 -30.95970154 28.47639465 C-36.90266692 29.43765733 -40.15951173 28.01583038 -44.9375 24.625 C-46 23 -46 23 -45.7890625 20.60546875 C-43.99875625 14.69391297 -37.46531192 11.76782151 -32.3359375 8.9140625 C-10.17035035 -2.8995698 -10.17035035 -2.8995698 0 0 Z " fill="#000000" transform="translate(356,190)"/>
<path d="M0 0 C0.6300293 0.24371338 1.26005859 0.48742676 1.90917969 0.73852539 C6.21942378 2.55665845 9.01265603 4.85991771 12.125 8.3125 C12.785 8.9725 13.445 9.6325 14.125 10.3125 C13.88688505 14.71762659 12.20294217 17.23707121 9.125 20.3125 C5.84448242 21.0637207 5.84448242 21.0637207 1.98046875 21.23828125 C1.29245682 21.2755986 0.60444489 21.31291595 -0.10441589 21.35136414 C-2.29835703 21.4648875 -4.49210019 21.54520673 -6.6875 21.625 C-8.15179878 21.69642526 -9.61599572 21.7699719 -11.08007812 21.84570312 C-30.76628323 22.81699372 -30.76628323 22.81699372 -34.875 19.3125 C-35.9375 16.9375 -35.9375 16.9375 -35.875 14.3125 C-33.83512491 10.80391485 -32.40562623 9.52679136 -28.625 8 C-27.26375 7.6596875 -27.26375 7.6596875 -25.875 7.3125 C-26.205 5.6625 -26.535 4.0125 -26.875 2.3125 C-18.40867299 -4.78090911 -9.84420362 -3.88084145 0 0 Z " fill="#000000" transform="translate(218.875,199.6875)"/>
<path d="M0 0 C0.75635742 0.00491455 1.51271484 0.0098291 2.29199219 0.01489258 C9.41362366 0.16421711 14.99958542 0.98992769 20.5625 5.6875 C21.284375 6.55375 22.00625 7.42 22.75 8.3125 C23.45125 9.116875 24.1525 9.92125 24.875 10.75 C30.01989297 17.78135372 30.69768946 23.70958566 29.75 32.3125 C28.83686093 35.34156884 27.55233898 37.72498365 25.75 40.3125 C24.698125 41.859375 24.698125 41.859375 23.625 43.4375 C18.48871289 49.22174949 10.50034153 53.66433977 2.75 54.3125 C-5.93504441 54.39487847 -12.95271843 53.33003087 -19.41015625 47.29296875 C-26.55343394 39.68297964 -28.98570169 33.29816617 -28.71875 22.8203125 C-27.68680243 15.09790485 -23.59788012 10.12580287 -17.6875 5.3125 C-11.94094216 1.05123786 -7.11304161 -0.05393405 0 0 Z M-13.25 12.3125 C-14.28161048 13.40858614 -15.27583996 14.54005187 -16.25 15.6875 C-16.78625 16.31398437 -17.3225 16.94046875 -17.875 17.5859375 C-20.56326958 20.96154874 -20.58810563 23.66786651 -20.52734375 27.8671875 C-19.9021251 33.37967865 -17.33655937 37.63897327 -13.1875 41.25 C-7.15770016 45.48368925 -0.37183435 45.00731311 6.75 44.3125 C12.48928478 42.25133271 16.26169369 38.17498758 19.75 33.3125 C20.71306898 30.42329306 20.9455936 28.39002119 21 25.375 C21.03867187 24.09302734 21.03867187 24.09302734 21.078125 22.78515625 C20.68876562 19.85105522 19.68350171 18.50549799 17.75 16.3125 C17.65203125 16.89257812 17.5540625 17.47265625 17.453125 18.0703125 C16.18506548 24.69483032 14.30595804 29.11318727 9.0625 33.625 C3.76284187 36.32482584 -0.81409973 37.00190574 -6.5625 35.375 C-10.20649537 32.57844542 -11.84732809 29.65677527 -13.25 25.3125 C-13.63780728 20.81393556 -13.11256236 16.73313208 -12.25 12.3125 C-12.58 12.3125 -12.91 12.3125 -13.25 12.3125 Z " fill="#000000" transform="translate(335.25,222.6875)"/>
<path d="M0 0 C6.81354463 4.76088371 10.62678224 11.22231341 12.52734375 19.21875 C13.95290306 28.31670153 11.6599403 36.10381467 6.69140625 43.7421875 C1.42191108 50.77629422 -5.54590511 54.90381057 -14.25390625 56.3828125 C-22.42028633 56.82107977 -30.22355953 53.83408393 -36.4375 48.625 C-41.61425742 43.67101287 -44.68053983 39.15821924 -45.23828125 31.8984375 C-45.4990397 19.51927324 -42.96284679 12.14490677 -34.37890625 3.13671875 C-24.04771977 -6.14268848 -12.08178763 -5.29510446 0 0 Z M-29 11 C-34.20953559 16.71368419 -35.44586377 22.0507224 -35.2421875 29.609375 C-34.62125293 35.73860013 -31.27508152 39.00043387 -26.81640625 42.80078125 C-22.24739148 45.81731358 -16.26093335 45.80107916 -11 45 C-5.67569937 42.68148651 -1.24317772 39.27597312 1.359375 34.01171875 C2.60447999 30.10178538 2.83581893 26.07989951 3 22 C2.34 21.67 1.68 21.34 1 21 C0.46375 21.9075 -0.0725 22.815 -0.625 23.75 C-3.45874821 28.01574909 -7.16277081 30.38759027 -12 32 C-16.8123112 32.49754404 -20.71957114 32.72024124 -25 30.3125 C-28.95650425 25.73779197 -29.31946077 21.9632677 -29 16 C-28.71479595 14.32442621 -28.40044304 12.65182755 -28 11 C-28.33 11 -28.66 11 -29 11 Z " fill="#000000" transform="translate(230,230)"/>
<path d="M0 0 C2.5625 0.1875 2.5625 0.1875 4.5625 2.1875 C4.75 4.75 4.75 4.75 4.5625 7.1875 C3.5625 8.1875 3.5625 8.1875 0.5625 8.3125 C-2.4375 8.1875 -2.4375 8.1875 -3.4375 7.1875 C-3.5625 4.1875 -3.5625 4.1875 -3.4375 1.1875 C-2.4375 0.1875 -2.4375 0.1875 0 0 Z " fill="#000000" transform="translate(343.4375,310.8125)"/>
<path d="M0 0 C2.625 0.625 2.625 0.625 5 2 C6 3.875 6 3.875 6 6 C4.5625 8.25 4.5625 8.25 3 10 C-1.75 9.25 -1.75 9.25 -4 7 C-3.8125 4.5 -3.8125 4.5 -3 2 C-2.01 1.34 -1.02 0.68 0 0 Z " fill="#000000" transform="translate(324,319)"/>
<path d="M0 0 C2.5625 0.1875 2.5625 0.1875 4.5625 2.1875 C4.00694444 6.74305556 4.00694444 6.74305556 2.5625 8.1875 C0.125 8.375 0.125 8.375 -2.4375 8.1875 C-3.0975 7.5275 -3.7575 6.8675 -4.4375 6.1875 C-3.71780303 0.28598485 -3.71780303 0.28598485 0 0 Z " fill="#000000" transform="translate(218.4375,319.8125)"/>
<path d="M0 0 C2.6875 0.875 2.6875 0.875 5 2 C5.125 4.375 5.125 4.375 5 7 C4.34 7.66 3.68 8.32 3 9 C-1.55555556 8.44444444 -1.55555556 8.44444444 -3 7 C-3.25 4.5625 -3.25 4.5625 -3 2 C-2.01 1.34 -1.02 0.68 0 0 Z " fill="#000000" transform="translate(243,323)"/>
<path d="M0 0 C2.5 0.125 2.5 0.125 5 1 C6.3125 3.0625 6.3125 3.0625 7 5 C6.01 6.32 5.02 7.64 4 9 C-0.875 8.125 -0.875 8.125 -2 7 C-2.1875 4.5625 -2.1875 4.5625 -2 2 C-1.34 1.34 -0.68 0.68 0 0 Z " fill="#000000" transform="translate(348,329)"/>
<path d="M0 0 C1.2684375 0.12375 1.2684375 0.12375 2.5625 0.25 C4.5625 3.25 4.5625 3.25 4.4375 5.3125 C3.3038007 7.82283417 2.07631062 8.27691202 -0.4375 9.25 C-1.7575 8.26 -3.0775 7.27 -4.4375 6.25 C-3.37788848 0.3464501 -3.37788848 0.3464501 0 0 Z " fill="#000000" transform="translate(229.4375,333.75)"/>
<path d="M0 0 C2.625 0.375 2.625 0.375 5 1 C5.625 3.375 5.625 3.375 6 6 C4 8 4 8 1.4375 8.1875 C-1 8 -1 8 -2 7 C-2.1875 4.5625 -2.1875 4.5625 -2 2 C-1.34 1.34 -0.68 0.68 0 0 Z " fill="#000000" transform="translate(213,337)"/>
<path d="M0 0 C1.2065625 0.0309375 1.2065625 0.0309375 2.4375 0.0625 C3.5 1.875 3.5 1.875 4.4375 4.0625 C4.1075 5.0525 3.7775 6.0425 3.4375 7.0625 C1.125 7.75 1.125 7.75 -1.5625 8.0625 C-3.4375 6.875 -3.4375 6.875 -4.5625 5.0625 C-4.13825523 1.45641945 -3.76992241 0.09194933 0 0 Z " fill="#000000" transform="translate(332.5625,336.9375)"/>
<path d="M0 0 C0.598125 0.226875 1.19625 0.45375 1.8125 0.6875 C2.4375 3.0625 2.4375 3.0625 2.8125 5.6875 C2.1525 6.3475 1.4925 7.0075 0.8125 7.6875 C-1.8125 7.3125 -1.8125 7.3125 -4.1875 6.6875 C-4.875 4.875 -4.875 4.875 -5.1875 2.6875 C-3.58493056 0.24147296 -2.95482043 -0.4221172 0 0 Z " fill="#000000" transform="translate(238.1875,343.3125)"/>
<path d="M0 0 C2.375 -0.125 2.375 -0.125 5 0 C5.66 0.66 6.32 1.32 7 2 C6.625 4.625 6.625 4.625 6 7 C3.625 7.625 3.625 7.625 1 8 C0.34 7.34 -0.32 6.68 -1 6 C-0.625 2.875 -0.625 2.875 0 0 Z " fill="#000000" transform="translate(227,360)"/>
</svg>
