<?xml version="1.0" encoding="UTF-8"?>
<svg version="1.1" xmlns="http://www.w3.org/2000/svg" width="550" height="500">
<path d="M0 0 C4.66036002 3.92101472 8.00650825 8.16474495 11.30371094 13.26538086 C11.81804687 14.05050049 12.33238281 14.83562012 12.86230469 15.64453125 C22.595409 30.77798766 28.95618893 46.19443335 32.36621094 63.89038086 C33.32720703 64.11081055 33.32720703 64.11081055 34.30761719 64.33569336 C41.15669662 66.11175867 46.82609426 68.58395789 50.54589844 74.89038086 C51.66547782 77.62002203 51.49063296 79.9664634 51.36621094 82.89038086 C51.02496559 85.92844197 51.02496559 85.92844197 53.01855469 87.65991211 C53.77265625 88.3340918 54.52675781 89.00827148 55.30371094 89.70288086 C61.90615665 96.11698422 69.11085765 104.69468188 70.74121094 114.01538086 C70.36621094 117.89038086 70.36621094 117.89038086 67.92871094 120.45288086 C67.08308594 120.92725586 66.23746094 121.40163086 65.36621094 121.89038086 C66.57277344 123.18975586 66.57277344 123.18975586 67.80371094 124.51538086 C70.31909417 127.57852663 71.54024718 129.80052912 71.36621094 133.89038086 C68.92871094 136.76538086 68.92871094 136.76538086 66.36621094 138.89038086 C68.41741786 145.99259581 68.41741786 145.99259581 71.05371094 152.89038086 C72.78190123 157.38001809 73.22544981 162.14771923 72.36621094 166.89038086 C70.96777344 168.68334961 70.96777344 168.68334961 69.36621094 169.89038086 C68.70621094 169.89038086 68.04621094 169.89038086 67.36621094 169.89038086 C67.51058594 170.49881836 67.65496094 171.10725586 67.80371094 171.73413086 C69.04248272 177.5838865 69.63146399 183.30063412 69.74121094 189.26538086 C69.76699219 189.9427832 69.79277344 190.62018555 69.81933594 191.31811523 C69.83345537 194.87974287 69.41981513 196.80477247 67.51464844 199.84741211 C65.36621094 201.89038086 65.36621094 201.89038086 62.61621094 202.20288086 C61.50246094 202.04819336 61.50246094 202.04819336 60.36621094 201.89038086 C60.69621094 202.55038086 61.02621094 203.21038086 61.36621094 203.89038086 C61.86936042 210.35391656 62.29196274 216.42236942 58.36621094 221.89038086 C56.03499399 224.22159781 55.04914363 224.8721423 51.73339844 224.96069336 C50.95222656 224.93749023 50.17105469 224.91428711 49.36621094 224.89038086 C48.95371094 225.87135742 48.54121094 226.85233398 48.11621094 227.86303711 C47.53408738 229.22683537 46.95064968 230.59007313 46.36621094 231.95288086 C46.05876953 232.67515869 45.75132812 233.39743652 45.43457031 234.14160156 C43.82926246 237.83276408 42.14856633 241.3770486 40.08496094 244.83569336 C35.70399843 252.18422056 33.65113452 257.24786108 34.97167969 266.01928711 C35.64655322 270.93049551 34.82486421 274.61433984 32.10449219 278.85913086 C28.87821949 282.99146964 26.37998284 284.2950898 21.36621094 285.89038086 C20.18229871 288.26663431 20.18229871 288.26663431 19.36621094 290.89038086 C16.43686475 294.55206359 13.86714445 295.72500682 9.36621094 296.89038086 C5.75781924 297.05912494 2.15940178 296.84311813 -1.44433594 296.63647461 C-6.63466867 296.47933186 -8.70008055 297.27111235 -12.63378906 300.89038086 C-45.40407888 318.56696576 -83.49322443 324.80686052 -119.63378906 314.89038086 C-126.71494062 312.64941023 -133.39100944 309.72777843 -139.75878906 305.89038086 C-142.73651429 304.0733436 -142.73651429 304.0733436 -146.13378906 304.32788086 C-147.37128906 305.10131836 -147.37128906 305.10131836 -148.63378906 305.89038086 C-150.14628654 306.59603068 -151.66807114 307.28195592 -153.19628906 307.95288086 C-154.31197266 308.4652832 -154.31197266 308.4652832 -155.45019531 308.98803711 C-162.91720343 312.07368805 -169.04726476 311.03293385 -176.39941406 308.15600586 C-179.00184553 306.68190132 -180.18544497 305.50492409 -181.63378906 302.89038086 C-181.82128906 300.14038086 -181.82128906 300.14038086 -181.63378906 297.89038086 C-182.52839844 297.91358398 -183.42300781 297.93678711 -184.34472656 297.96069336 C-200.09854812 298.19582502 -200.09854812 298.19582502 -205.63378906 295.89038086 C-207.41503906 294.00366211 -207.41503906 294.00366211 -208.63378906 291.89038086 C-208.48158079 289.40431235 -208.14030001 287.30741557 -207.63378906 284.89038086 C-207.50746094 284.00350586 -207.38113281 283.11663086 -207.25097656 282.20288086 C-206.12044841 274.63861976 -204.28777345 269.71482864 -198.00878906 265.01538086 C-194.63378906 262.89038086 -194.63378906 262.89038086 -192.63378906 262.89038086 C-192.92624512 262.24601074 -193.21870117 261.60164063 -193.52001953 260.93774414 C-194.86036829 257.96834794 -196.18461999 254.99202539 -197.50878906 252.01538086 C-197.96898437 251.00217773 -198.42917969 249.98897461 -198.90332031 248.94506836 C-201.68675683 242.65208145 -203.63788328 236.70676063 -204.63378906 229.89038086 C-206.95736418 229.70548079 -206.95736418 229.70548079 -209.63378906 231.89038086 C-212.07128906 232.32788086 -212.07128906 232.32788086 -214.63378906 231.89038086 C-218.69846739 228.07204667 -220.55592699 222.963459 -222.63378906 217.89038086 C-222.99730469 218.3840918 -223.36082031 218.87780273 -223.73535156 219.38647461 C-226.2201496 222.55299929 -227.91350802 224.5963886 -231.69628906 226.14038086 C-234.63378906 225.89038086 -234.63378906 225.89038086 -237.32128906 223.82788086 C-241.41442089 218.62849719 -243.01827081 214.06306818 -243.82128906 207.51538086 C-243.97984375 206.27014648 -244.13839844 205.02491211 -244.30175781 203.74194336 C-244.41132813 202.80092773 -244.52089844 201.85991211 -244.63378906 200.89038086 C-244.96378906 201.22038086 -245.29378906 201.55038086 -245.63378906 201.89038086 C-246.77425088 202.89650256 -247.92098674 203.89552479 -249.07128906 204.89038086 C-249.99748047 205.69475586 -249.99748047 205.69475586 -250.94238281 206.51538086 C-254.15439843 209.12653443 -256.5363362 209.30848829 -260.63378906 208.89038086 C-264.49807537 205.02609455 -264.81113079 200.96455092 -264.88378906 195.70288086 C-264.81800831 185.1341071 -262.63527601 175.00408686 -259.63378906 164.89038086 C-260.29378906 165.22038086 -260.95378906 165.55038086 -261.63378906 165.89038086 C-268.87516837 166.4650935 -268.87516837 166.4650935 -271.69628906 164.32788086 C-273.07330018 160.74765195 -272.54181152 158.61745213 -271.63378906 154.89038086 C-269.90305802 152.06897233 -267.80513804 149.63164455 -265.63378906 147.14038086 C-264.75944214 146.10300781 -264.75944214 146.10300781 -263.86743164 145.04467773 C-262.69020978 143.64825351 -261.50772166 142.25625066 -260.31982422 140.86889648 C-257.94184646 138.07840535 -255.63265353 135.2362714 -253.32128906 132.39038086 C-252.09241574 130.89014053 -250.86337809 129.39003466 -249.63378906 127.89038086 C-250.33246094 127.76920898 -251.03113281 127.64803711 -251.75097656 127.52319336 C-253.11609375 127.27182617 -253.11609375 127.27182617 -254.50878906 127.01538086 C-255.86617187 126.77174805 -255.86617187 126.77174805 -257.25097656 126.52319336 C-259.63378906 125.89038086 -259.63378906 125.89038086 -261.63378906 123.89038086 C-262.15774891 120.60322222 -261.90719849 119.28078109 -259.98144531 116.53100586 C-259.22734375 115.74209961 -258.47324219 114.95319336 -257.69628906 114.14038086 C-256.45685547 112.83520508 -256.45685547 112.83520508 -255.19238281 111.50366211 C-254.34804687 110.6412793 -253.50371094 109.77889648 -252.63378906 108.89038086 C-251.90289062 108.12081055 -251.17199219 107.35124023 -250.41894531 106.55834961 C-241.28957553 97.13182132 -230.13688169 86.46306668 -217.63378906 81.89038086 C-217.79234375 81.26518555 -217.95089844 80.63999023 -218.11425781 79.99584961 C-220.48495971 65.82511268 -218.53877789 51.56635305 -214.63378906 37.89038086 C-214.31023437 36.7340918 -213.98667969 35.57780273 -213.65332031 34.38647461 C-211.11237412 26.09987866 -208.01545198 18.87799094 -200.63378906 13.89038086 C-196.879723 12.01334783 -192.72208679 12.37180622 -188.63378906 12.89038086 C-182.81261376 15.22321141 -178.06950932 19.92967808 -173.26660156 23.85131836 C-169.806032 26.53146274 -166.15221252 28.80035466 -162.43066406 31.09741211 C-159.5022677 32.97469414 -156.73233237 34.99604463 -153.94628906 37.07788086 C-149.667664 40.24381751 -145.47748103 42.69701091 -140.63378906 44.89038086 C-140.66859375 44.27549805 -140.70339844 43.66061523 -140.73925781 43.02709961 C-140.76632813 42.21885742 -140.79339844 41.41061523 -140.82128906 40.57788086 C-140.85609375 39.77737305 -140.89089844 38.97686523 -140.92675781 38.15209961 C-140.63378906 35.89038086 -140.63378906 35.89038086 -139.40722656 34.15209961 C-135.32837348 31.25018431 -129.84614248 31.54301439 -125.07128906 32.29272461 C-112.02173032 35.73862371 -101.71428064 45.69863611 -94.63378906 56.89038086 C-94.63378906 57.55038086 -94.63378906 58.21038086 -94.63378906 58.89038086 C-93.97378906 58.89038086 -93.31378906 58.89038086 -92.63378906 58.89038086 C-92.37082031 58.16592773 -92.10785156 57.44147461 -91.83691406 56.69506836 C-87.83963929 47.376746 -80.18304887 36.88370769 -70.63378906 32.89038086 C-67.75878906 33.45288086 -67.75878906 33.45288086 -65.63378906 34.89038086 C-65.30378906 35.88038086 -64.97378906 36.87038086 -64.63378906 37.89038086 C-63.34408203 36.78243164 -63.34408203 36.78243164 -62.02832031 35.65209961 C-59.54123357 33.51635646 -57.0511013 31.38421831 -54.55957031 29.25366211 C-52.13184566 27.17724838 -49.71225834 25.09222156 -47.30175781 22.99584961 C-11.61190061 -7.88644475 -11.61190061 -7.88644475 0 0 Z M-32.63378906 21.89038086 C-33.75765722 22.85654276 -34.88273742 23.82129593 -36.00878906 24.78491211 C-37.82548296 26.33968245 -39.6404485 27.8961427 -41.44873047 29.46069336 C-44.8959658 32.43780832 -48.3999392 35.29629043 -52.00878906 38.07788086 C-55.43132468 40.73860822 -58.08739269 43.52920425 -60.82128906 46.89038086 C-64.05557492 50.73068362 -64.05557492 50.73068362 -66.68457031 51.45678711 C-68.63378906 51.45288086 -68.63378906 51.45288086 -71.63378906 50.89038086 C-71.96378906 48.91038086 -72.29378906 46.93038086 -72.63378906 44.89038086 C-81.70509392 51.54993228 -87.43608514 63.2313678 -90.63378906 73.89038086 C-92.28378906 73.89038086 -93.93378906 73.89038086 -95.63378906 73.89038086 C-96.106875 72.99577148 -96.57996094 72.10116211 -97.06738281 71.17944336 C-101.41676075 63.15119338 -106.08165425 56.34738485 -112.63378906 49.89038086 C-113.230625 49.28323242 -113.82746094 48.67608398 -114.44238281 48.05053711 C-118.53771208 44.18220068 -123.03094217 41.81210613 -128.63378906 40.89038086 C-130.83540681 41.26112851 -130.83540681 41.26112851 -132.63378906 41.89038086 C-132.59253906 43.12788086 -132.55128906 44.36538086 -132.50878906 45.64038086 C-132.52023119 48.87278154 -132.54004064 51.27319534 -134.63378906 53.89038086 C-138.96465547 55.55682294 -141.73211176 53.99168606 -145.80175781 52.24584961 C-155.73158813 47.49322737 -164.67723438 41.23319883 -173.63378906 34.89038086 C-176.20679908 33.10346725 -178.78051165 31.3176085 -181.35644531 29.53491211 C-182.87964559 28.43496817 -184.36787804 27.28498727 -185.81738281 26.08959961 C-189.84192037 22.70591906 -189.84192037 22.70591906 -194.88378906 21.70288086 C-198.36729772 23.20712323 -199.48570721 24.76743278 -201.63378906 27.89038086 C-202.6200842 30.39104416 -203.45360858 32.76028402 -204.19628906 35.32788086 C-204.5098938 36.38458984 -204.5098938 36.38458984 -204.82983398 37.46264648 C-205.45135135 39.60014767 -206.04770527 41.74291747 -206.63378906 43.89038086 C-206.95863281 45.07760742 -207.28347656 46.26483398 -207.61816406 47.48803711 C-210.459967 59.16355766 -210.4472559 70.81748604 -208.46191406 82.65600586 C-208.63378906 84.89038086 -208.63378906 84.89038086 -210.33300781 87.01928711 C-212.5508177 88.82290499 -214.69363467 90.20492549 -217.19628906 91.57788086 C-227.95855119 97.86771981 -239.14103583 106.90004321 -246.63378906 116.89038086 C-242.01378906 116.89038086 -237.39378906 116.89038086 -232.63378906 116.89038086 C-231.63378906 121.89038086 -231.63378906 121.89038086 -232.63378906 124.89038086 C-233.68566406 125.26163086 -233.68566406 125.26163086 -234.75878906 125.64038086 C-245.27044086 130.21066425 -253.53453185 144.50580946 -259.63378906 153.89038086 C-258.74691406 153.56038086 -257.86003906 153.23038086 -256.94628906 152.89038086 C-253.91338801 151.97478809 -251.76243957 151.62221082 -248.63378906 151.89038086 C-247.63378906 152.89038086 -247.63378906 152.89038086 -247.25878906 155.70288086 C-247.29657295 159.40570197 -248.47212191 162.20456142 -249.94628906 165.57788086 C-254.88095821 176.87715169 -256.08303527 186.71081697 -255.63378906 198.89038086 C-252.38834706 195.76740837 -249.60542095 192.67470332 -247.07128906 188.95288086 C-246.47445312 188.09049805 -245.87761719 187.22811523 -245.26269531 186.33959961 C-244.29642288 184.88671515 -243.35558803 183.41547203 -242.47363281 181.90991211 C-241.50878906 180.26538086 -241.50878906 180.26538086 -239.63378906 177.89038086 C-236.88378906 177.51538086 -236.88378906 177.51538086 -234.63378906 177.89038086 C-233.74836676 181.41968656 -233.63142963 183.76394377 -234.57128906 187.26538086 C-236.55680232 196.33618457 -237.4598067 206.64593406 -232.63378906 214.89038086 C-229.43253453 211.96629122 -227.48867219 209.11112244 -225.50878906 205.26538086 C-222.82823351 200.0848253 -222.82823351 200.0848253 -220.63378906 197.89038086 C-218.00878906 197.76538086 -218.00878906 197.76538086 -215.63378906 197.89038086 C-215.58480469 198.74760742 -215.53582031 199.60483398 -215.48535156 200.48803711 C-215.08844662 206.55794542 -214.64170507 212.13435496 -212.63378906 217.89038086 C-211.97378906 217.89038086 -211.31378906 217.89038086 -210.63378906 217.89038086 C-209.97378906 215.25038086 -209.31378906 212.61038086 -208.63378906 209.89038086 C-205.00378906 209.89038086 -201.37378906 209.89038086 -197.63378906 209.89038086 C-197.71628906 211.68475586 -197.79878906 213.47913086 -197.88378906 215.32788086 C-197.81679497 230.80351723 -192.25696172 244.14569003 -185.63378906 257.89038086 C-181.46541436 257.317512 -178.70617306 255.93051793 -175.19628906 253.64038086 C-174.23464844 253.01518555 -173.27300781 252.38999023 -172.28222656 251.74584961 C-170.1361344 250.24231896 -168.23986245 248.72426211 -166.32128906 246.95288086 C-163.15242656 244.52096313 -161.53482444 244.42597189 -157.63378906 244.89038086 C-157.57645771 247.69961713 -157.62535949 249.31795319 -158.63378906 251.89038086 C-164.21137684 257.46556416 -171.41608128 261.28678411 -178.25878906 265.07788086 C-179.16113281 265.58512695 -180.06347656 266.09237305 -180.99316406 266.61499023 C-187.5841149 270.31879716 -187.5841149 270.31879716 -190.8046875 272.07250977 C-194.3246401 273.84838082 -194.3246401 273.84838082 -196.63378906 276.89038086 C-196.86129057 278.76094877 -197.04341717 280.63724044 -197.19628906 282.51538086 C-197.28007812 283.51827148 -197.36386719 284.52116211 -197.45019531 285.55444336 C-197.54107422 286.71073242 -197.54107422 286.71073242 -197.63378906 287.89038086 C-191.50299258 289.60757154 -186.90488667 290.00299495 -180.63378906 288.89038086 C-173.82891101 287.79281988 -173.82891101 287.79281988 -171.63378906 288.89038086 C-171.96378906 292.52038086 -172.29378906 296.15038086 -172.63378906 299.89038086 C-168.33461671 302.03996704 -165.30516342 302.67762861 -160.63378906 301.89038086 C-153.67342998 299.09405344 -147.44278031 294.98159679 -141.32128906 290.70288086 C-140.49878662 290.13263184 -139.67628418 289.56238281 -138.82885742 288.97485352 C-109.03290273 268.62839437 -109.03290273 268.62839437 -91.97363281 238.03491211 C-91.86148438 237.3272168 -91.74933594 236.61952148 -91.63378906 235.89038086 C-92.44203125 235.57584961 -93.25027344 235.26131836 -94.08300781 234.93725586 C-95.15164063 234.50928711 -96.22027344 234.08131836 -97.32128906 233.64038086 C-98.90490234 233.01389648 -98.90490234 233.01389648 -100.52050781 232.37475586 C-106.14598221 229.69259742 -109.35108601 226.63680551 -111.90332031 221.04272461 C-113.15453434 217.35599235 -113.14404195 214.78105909 -112.63378906 210.89038086 C-110.13241691 206.5610829 -107.29635918 204.5858609 -102.63378906 202.89038086 C-96.95897086 201.74484302 -92.30396093 201.36348586 -86.88378906 203.57788086 C-84.73997478 204.49835762 -84.73997478 204.49835762 -82.63378906 204.89038086 C-79.42558961 203.29009267 -79.42558961 203.29009267 -77.52050781 201.90600586 C-73.77883744 199.89185618 -69.72133288 200.10192063 -65.63378906 200.89038086 C-61.9314643 203.38378325 -60.89606241 205.00520833 -59.63378906 209.26538086 C-59.63378906 215.2365695 -62.00616427 219.85600301 -65.89550781 224.34741211 C-69.05734409 227.15398588 -72.74897479 229.17717847 -76.40332031 231.27709961 C-77.139375 231.80948242 -77.87542969 232.34186523 -78.63378906 232.89038086 C-78.95259955 236.00551929 -78.95259955 236.00551929 -76.71972656 238.20288086 C-70.00553039 244.85902923 -62.97204464 250.77382719 -55.44970703 256.4934082 C-53.60708136 257.9109269 -51.79170455 259.35758823 -49.98144531 260.81616211 C-43.45904136 266.06459016 -37.01365417 270.88807306 -29.63378906 274.89038086 C-28.59448242 275.46900879 -28.59448242 275.46900879 -27.53417969 276.05932617 C-9.78717086 286.36449939 -9.78717086 286.36449939 10.17871094 287.32788086 C12.76326816 285.99457706 12.76326816 285.99457706 13.11621094 282.45288086 C13.52871094 281.27725586 13.94121094 280.10163086 14.36621094 278.89038086 C16.37792969 278.01147461 16.37792969 278.01147461 18.80371094 277.39038086 C22.78395193 276.35205712 23.14222159 276.24612865 25.49121094 272.51538086 C26.3547643 268.93780264 26.21129269 267.3540258 25.36621094 263.89038086 C24.27904785 263.65702026 24.27904785 263.65702026 23.16992188 263.41894531 C19.81602263 262.69198258 16.4662257 261.94753088 13.11621094 261.20288086 C11.97667969 260.95860352 10.83714844 260.71432617 9.66308594 260.46264648 C-0.43575226 258.19614587 -10.01567947 254.85931609 -18.88378906 249.45288086 C-19.79644531 248.91791992 -20.70910156 248.38295898 -21.64941406 247.83178711 C-23.63378906 245.89038086 -23.63378906 245.89038086 -23.99316406 242.73022461 C-23.63378906 239.89038086 -23.63378906 239.89038086 -22.63378906 238.89038086 C-17.91670008 238.2608761 -15.580153 239.94765454 -11.75878906 242.57788086 C-1.04628404 249.58500664 13.55453185 254.89038086 26.36621094 254.89038086 C28.70002778 250.27605771 31.01609432 245.65355837 33.31005859 241.01928711 C34.24256981 239.13960662 35.18453374 237.26462203 36.12792969 235.39038086 C39.32737748 228.8141859 41.40592557 222.55582672 42.82324219 215.37475586 C43.36621094 212.89038086 43.36621094 212.89038086 44.36621094 211.89038086 C46.74121094 211.64038086 46.74121094 211.64038086 49.36621094 211.89038086 C51.17871094 213.39038086 51.17871094 213.39038086 52.36621094 214.89038086 C53.1983237 209.85183979 53.47406433 205.07781466 53.42871094 199.95288086 C53.42419922 199.2690332 53.4196875 198.58518555 53.41503906 197.88061523 C53.40340654 196.21716482 53.38547788 194.55376036 53.36621094 192.89038086 C56.41884758 191.90917622 58.3135743 191.90917622 61.36621094 192.89038086 C60.93187074 184.52361705 60.31289321 176.49664813 58.57324219 168.28100586 C58.36621094 165.89038086 58.36621094 165.89038086 60.36621094 162.89038086 C61.35621094 162.56038086 62.34621094 162.23038086 63.36621094 161.89038086 C62.77830281 155.86432252 61.01408629 150.65678842 58.86621094 145.01538086 C58.54523438 144.14913086 58.22425781 143.28288086 57.89355469 142.39038086 C56.62895477 138.34362251 56.62895477 138.34362251 54.36621094 134.89038086 C54.11621094 131.95288086 54.11621094 131.95288086 54.36621094 128.89038086 C55.85121094 127.90038086 55.85121094 127.90038086 57.36621094 126.89038086 C56.59083984 125.66061523 56.59083984 125.66061523 55.79980469 124.40600586 C55.14109375 123.32834961 54.48238281 122.25069336 53.80371094 121.14038086 C53.14242188 120.07303711 52.48113281 119.00569336 51.79980469 117.90600586 C50.36621094 114.89038086 50.36621094 114.89038086 50.45996094 112.57788086 C51.36621094 110.89038086 51.36621094 110.89038086 54.42871094 109.64038086 C55.88277344 109.26913086 55.88277344 109.26913086 57.36621094 108.89038086 C51.69490774 99.28252602 45.28910766 92.13356247 34.33496094 88.97241211 C32.36621094 87.89038086 32.36621094 87.89038086 31.51074219 85.38256836 C31.36621094 82.89038086 31.36621094 82.89038086 32.55371094 81.20288086 C34.41947367 79.85181129 36.26608806 78.83181525 38.36621094 77.89038086 C35.74186043 74.60057005 32.8378113 73.93259402 28.86621094 72.82788086 C25.18017614 71.79429678 22.56451564 71.022584 19.36621094 68.89038086 C19.05371094 66.39038086 19.05371094 66.39038086 19.36621094 63.89038086 C20.02621094 63.23038086 20.68621094 62.57038086 21.36621094 61.89038086 C21.6380843 55.82721075 19.68642249 50.23968835 17.30371094 44.76538086 C16.99425537 44.03818848 16.6847998 43.31099609 16.3659668 42.56176758 C7.92190155 22.95239133 7.92190155 22.95239133 -5.63378906 6.89038086 C-15.30038327 6.89038086 -25.73318719 15.84208546 -32.63378906 21.89038086 Z M-60.63378906 264.89038086 C-60.80394531 265.68702148 -60.97410156 266.48366211 -61.14941406 267.30444336 C-63.25928932 276.52953623 -66.00683765 282.21073619 -73.63378906 287.89038086 C-78.77552305 289.60429219 -83.04093873 289.5816178 -87.94628906 287.45288086 C-88.83316406 286.93725586 -89.72003906 286.42163086 -90.63378906 285.89038086 C-91.62378906 285.56038086 -92.61378906 285.23038086 -93.63378906 284.89038086 C-94.65722656 283.21850586 -94.65722656 283.21850586 -95.63378906 280.89038086 C-96.05917969 279.89522461 -96.48457031 278.90006836 -96.92285156 277.87475586 C-97.36371094 276.80741211 -97.80457031 275.74006836 -98.25878906 274.64038086 C-98.70480469 273.56272461 -99.15082031 272.48506836 -99.61035156 271.37475586 C-99.94808594 270.55491211 -100.28582031 269.73506836 -100.63378906 268.89038086 C-102.89234316 268.6617099 -102.89234316 268.6617099 -104.82128906 270.95288086 C-106.26843964 272.45012309 -107.70074143 273.96091723 -109.13427734 275.47119141 C-113.54028677 280.00833991 -118.25815257 283.86192079 -123.32128906 287.64038086 C-124.06701172 288.20370117 -124.81273437 288.76702148 -125.58105469 289.34741211 C-131.22270084 293.60506835 -131.22270084 293.60506835 -133.87524414 295.44604492 C-134.74572388 296.16099121 -134.74572388 296.16099121 -135.63378906 296.89038086 C-135.63378906 297.55038086 -135.63378906 298.21038086 -135.63378906 298.89038086 C-125.59053843 304.21365858 -115.748134 306.87620082 -104.63378906 308.89038086 C-103.67553223 309.06690186 -102.71727539 309.24342285 -101.72998047 309.42529297 C-75.60001751 313.35035049 -49.45683437 307.36216482 -25.50878906 297.20288086 C-24.82727783 296.91767578 -24.1457666 296.6324707 -23.44360352 296.33862305 C-21.35437525 295.44280732 -21.35437525 295.44280732 -18.63378906 293.89038086 C-18.13878906 292.40538086 -18.13878906 292.40538086 -17.63378906 290.89038086 C-18.25721191 290.61476318 -18.88063477 290.33914551 -19.52294922 290.05517578 C-31.19981718 284.83640975 -42.07229438 279.70053736 -51.79394531 271.30053711 C-54.63942029 268.88560168 -57.49711216 266.89915909 -60.63378906 264.89038086 Z " fill="#000000" transform="translate(364.6337890625,82.109619140625)"/>
<path d="M0 0 C7.42844189 7.72797584 14.05785645 22.25798582 14 33 C13 36.0625 13 36.0625 11 38 C4.12292322 40.84292548 -2.68872474 40.22264198 -10 40 C-11.22976563 39.97035156 -12.45953125 39.94070312 -13.7265625 39.91015625 C-14.86867188 39.85730469 -16.01078125 39.80445313 -17.1875 39.75 C-18.21230469 39.70359375 -19.23710937 39.6571875 -20.29296875 39.609375 C-23.73300099 38.83499545 -24.97663724 37.87810072 -27 35 C-27.89597019 29.82328334 -25.98829729 26.62785618 -23.125 22.5 C-22.72659912 21.90485596 -22.32819824 21.30971191 -21.91772461 20.6965332 C-20.62875201 18.78547054 -19.31724839 16.89166601 -18 15 C-17.3191333 14.01265869 -17.3191333 14.01265869 -16.62451172 13.00537109 C-15.27929789 11.05974301 -13.92427289 9.1215686 -12.5625 7.1875 C-12.13791504 6.58292969 -11.71333008 5.97835937 -11.27587891 5.35546875 C-7.85133535 0.5774217 -5.99295712 -0.71915485 0 0 Z " fill="#000000" transform="translate(352,101)"/>
<path d="M0 0 C8.39015042 3.84599596 15.82263588 9.07975946 22.92578125 14.9140625 C23.76737793 15.59082031 23.76737793 15.59082031 24.62597656 16.28125 C27.02152647 18.31963433 28.55702388 19.9265672 29.72265625 22.87109375 C29.67578125 25.2265625 29.67578125 25.2265625 28.61328125 26.80859375 C20.66155997 32.62809944 11.69409938 36.85095776 2.67578125 40.7265625 C1.87527344 41.07678467 1.07476562 41.42700684 0.25 41.7878418 C-4.07303635 43.59198291 -7.55039392 44.78947906 -12.32421875 44.2265625 C-14.88371421 42.37313475 -15.30340673 41.28899857 -16.32421875 38.2265625 C-18.23064428 12.16139999 -18.23064428 12.16139999 -12.44921875 2.6015625 C-8.24281805 -2.09970887 -5.62228235 -2.11640743 0 0 Z " fill="#000000" transform="translate(180.32421875,118.7734375)"/>
<path d="M0 0 C6.20988129 0.44356295 10.60540561 1.91532502 16 5 C15.67 6.98 15.34 8.96 15 11 C10.97459124 12.12017658 8.66841692 11.88170068 4.8125 10.3125 C3.95269531 9.97863281 3.09289062 9.64476562 2.20703125 9.30078125 C-0.33678813 7.80150363 -1.09966296 6.78831652 -2 4 C-1.125 1.75 -1.125 1.75 0 0 Z " fill="#000000" transform="translate(221,149)"/>
<path d="M0 0 C0.66 0.66 1.32 1.32 2 2 C1.875 4.5 1.875 4.5 1 7 C-0.9375 8.0625 -0.9375 8.0625 -3 9 C-3.68041155 10.32637187 -4.34479418 11.66099755 -5 13 C-6.05655812 14.37515941 -7.14250644 15.72802015 -8.25 17.0625 C-11.69318294 21.36468907 -14.15527074 25.85819866 -16.54296875 30.8125 C-18 33 -18 33 -19.98828125 33.9375 C-22 34 -22 34 -25 32 C-23.73824318 20.41637146 -14.76493281 9.29655684 -7 1 C-4.48718205 -0.25640898 -2.78302919 -0.20872719 0 0 Z " fill="#000000" transform="translate(313,151)"/>
<path d="M0 0 C0.80859375 2.1953125 0.80859375 2.1953125 1 5 C-1.02734375 7.4296875 -1.02734375 7.4296875 -3.9375 9.875 C-4.69160156 10.52190796 -4.69160156 10.52190796 -5.4609375 11.18188477 C-6.96287237 12.46765376 -8.48129492 13.73408328 -10 15 C-11.50346656 16.30852762 -13.00399099 17.62045281 -14.5 18.9375 C-15.1084375 19.46214844 -15.716875 19.98679688 -16.34375 20.52734375 C-18.03281053 21.98294637 -18.03281053 21.98294637 -19.55859375 23.671875 C-21 25 -21 25 -23.5625 25.3125 C-26 25 -26 25 -28 23 C-27.70467003 16.83182253 -25.05414578 14.43785316 -20.7421875 10.39453125 C-17.80590192 7.8305098 -14.86481194 5.29972484 -11.8125 2.875 C-10.36810547 1.72644531 -10.36810547 1.72644531 -8.89453125 0.5546875 C-5.39619664 -1.32431004 -3.75427214 -1.05675809 0 0 Z " fill="#000000" transform="translate(343,156)"/>
<path d="M0 0 C11.44393015 6.28526734 16.04096763 18.59612349 21 30 C21.53238281 31.18335938 22.06476563 32.36671875 22.61328125 33.5859375 C26.49581702 42.4446811 26.49581702 42.4446811 26 47 C24 49 24 49 21.375 49.125 C20.59125 49.08375 19.8075 49.0425 19 49 C16.28838068 43.2887139 13.5978009 37.59001124 11.2890625 31.703125 C7.70308874 22.56113059 4.07654383 14.07654383 -3 7 C-3.3125 4.5 -3.3125 4.5 -3 2 C-2.01 1.34 -1.02 0.68 0 0 Z " fill="#000000" transform="translate(251,159)"/>
<path d="M0 0 C1.10085938 -0.00322266 2.20171875 -0.00644531 3.3359375 -0.00976562 C11.48278061 0.04528061 11.48278061 0.04528061 13.75 2.3125 C13.625 4.8125 13.625 4.8125 12.75 7.3125 C9.48596902 9.52775103 6.61689899 9.56984444 2.7421875 9.578125 C1.59105469 9.58070313 0.43992187 9.58328125 -0.74609375 9.5859375 C-2.54240234 9.57433594 -2.54240234 9.57433594 -4.375 9.5625 C-6.18291016 9.57410156 -6.18291016 9.57410156 -8.02734375 9.5859375 C-9.17589844 9.58335937 -10.32445312 9.58078125 -11.5078125 9.578125 C-13.08780029 9.57474121 -13.08780029 9.57474121 -14.69970703 9.57128906 C-17.25 9.3125 -17.25 9.3125 -19.25 7.3125 C-19.25 5.375 -19.25 5.375 -18.25 3.3125 C-12.58800727 -0.65474661 -6.62476872 -0.0983487 0 0 Z " fill="#000000" transform="translate(363.25,166.6875)"/>
<path d="M0 0 C12.52100805 0.25501035 28.44777267 8.52408338 37.1875 17.3125 C38.375 20 38.375 20 38.1875 22.3125 C37.0625 24.1875 37.0625 24.1875 35.1875 25.3125 C30.52458201 24.97011791 27.7495699 22.79836022 24.0625 20.0625 C15.42347687 13.85301031 6.46326418 10.05418979 -3.8125 7.3125 C-3.85504356 5.31295254 -3.85330783 3.31208364 -3.8125 1.3125 C-2.8125 0.3125 -2.8125 0.3125 0 0 Z " fill="#000000" transform="translate(212.8125,168.6875)"/>
<path d="M0 0 C2 3 2 3 1.9296875 4.98828125 C0.60743534 7.84945714 -1.15814989 8.62896701 -3.875 10.1875 C-9.21704521 13.4094646 -13.92614485 17.06117755 -18.6875 21.08203125 C-21 23 -21 23 -24 25 C-26.6875 24.625 -26.6875 24.625 -29 24 C-29.8125 21.8125 -29.8125 21.8125 -30 19 C-23.33127127 11.5821139 -10.96293358 -1.78466361 0 0 Z " fill="#000000" transform="translate(171,178)"/>
<path d="M0 0 C1.7941422 1.58629808 3.37662412 3.23211907 5 5 C3.125 9.875 3.125 9.875 2 11 C-2.40485117 11.51326092 -4.50685821 10.32772776 -8.0625 7.8125 C-21.9734166 -1.41165141 -34.58645224 -3.52624134 -50.91577148 -2.28271484 C-51.80079346 -2.22035645 -52.68581543 -2.15799805 -53.59765625 -2.09375 C-54.39695557 -2.02865234 -55.19625488 -1.96355469 -56.01977539 -1.89648438 C-58 -2 -58 -2 -60 -4 C-60.125 -6.625 -60.125 -6.625 -60 -9 C-41.98827241 -19.3913813 -15.92703498 -10.08587003 0 0 Z " fill="#000000" transform="translate(388,196)"/>
<path d="M0 0 C0.66 0.66 1.32 1.32 2 2 C1.67028521 5.29714793 1.3773161 6.6226839 -1 9 C-3.46213668 9.48185014 -5.89607927 9.88310146 -8.375 10.25 C-22.17743207 12.59681568 -34.47682654 19.41344899 -42.8125 30.875 C-45.59017225 35.07078127 -47.73699935 39.42261874 -49.6640625 44.06640625 C-51 46 -51 46 -53.5234375 46.90234375 C-54.34070313 46.93457031 -55.15796875 46.96679688 -56 47 C-56.66 46.34 -57.32 45.68 -58 45 C-56.34175704 31.94133671 -48.56280379 21.35275519 -38.65625 13.03125 C-27.34663299 4.65919585 -14.23056861 -1.01646919 0 0 Z " fill="#000000" transform="translate(204,188)"/>
<path d="M0 0 C1.65 0.99 3.3 1.98 5 3 C4.28759937 7.52066574 2.71586301 11.63255776 1.0625 15.875 C-0.8784422 20.87139136 -2.60100012 25.8230246 -4 31 C-6.375 31.625 -6.375 31.625 -9 32 C-11 30 -11 30 -11.1171875 28.0390625 C-10.21271957 19.02355954 -7.72414573 9.80511034 -3 2 C-2.01 1.34 -1.02 0.68 0 0 Z " fill="#000000" transform="translate(297,190)"/>
<path d="M0 0 C1.61841797 0.0009668 1.61841797 0.0009668 3.26953125 0.00195312 C11.20205357 0.04651786 11.20205357 0.04651786 14.625 1.1875 C15.25 4 15.25 4 15.625 7.1875 C14.965 8.1775 14.305 9.1675 13.625 10.1875 C12.95855469 10.1153125 12.29210937 10.043125 11.60546875 9.96875 C1.82973427 8.98434037 -7.21693394 8.67591565 -16.8671875 10.75 C-19.42125309 11.19556907 -21.78797226 11.26168001 -24.375 11.1875 C-25.035 9.8675 -25.695 8.5475 -26.375 7.1875 C-19.65983936 -1.04398723 -9.91610735 -0.115022 0 0 Z " fill="#000000" transform="translate(224.375,201.8125)"/>
<path d="M0 0 C7.02802887 1.8210993 12.09930297 3.48602172 17.29296875 8.6796875 C16.73741319 13.23524306 16.73741319 13.23524306 15.29296875 14.6796875 C13.04296875 14.9921875 13.04296875 14.9921875 10.29296875 14.6796875 C9.55046875 14.0609375 8.80796875 13.4421875 8.04296875 12.8046875 C4.8022024 10.30045896 2.35501041 9.87341055 -1.62109375 9.26953125 C-4.09825775 8.56905978 -5.13920676 7.69976906 -6.70703125 5.6796875 C-6.58203125 3.6171875 -6.58203125 3.6171875 -5.70703125 1.6796875 C-2.70703125 -0.3203125 -2.70703125 -0.3203125 0 0 Z " fill="#000000" transform="translate(396.70703125,213.3203125)"/>
<path d="M0 0 C1.216875 -0.03738281 2.43375 -0.07476562 3.6875 -0.11328125 C7.62014341 0.39221183 8.46999254 1.39114062 11 4.3125 C12.216875 4.786875 13.43375 5.26125 14.6875 5.75 C15.780625 6.265625 16.87375 6.78125 18 7.3125 C18.9375 10 18.9375 10 19 12.3125 C21.97 13.3025 21.97 13.3025 25 14.3125 C25.6875 17.125 25.6875 17.125 26 20.3125 C24.75 22.1875 24.75 22.1875 23 23.3125 C22.01 23.3125 21.02 23.3125 20 23.3125 C19.34 24.6325 18.68 25.9525 18 27.3125 C17.175 27.2810791 16.35 27.2496582 15.5 27.21728516 C-2.2753664 26.62956727 -17.19538601 26.16738102 -32.6875 36.25 C-36 38.3125 -36 38.3125 -38.9375 38.1875 C-41 37.3125 -41 37.3125 -42 36.3125 C-41.81584085 27.47286062 -36.58836012 21.66756271 -30.48706055 15.75585938 C-21.33258931 7.18196767 -12.90832865 0.25980746 0 0 Z " fill="#000000" transform="translate(344,217.6875)"/>
<path d="M0 0 C5.98510862 1.83899986 12.85867345 4.9953243 17.09765625 9.64453125 C17.91015625 13.39453125 17.91015625 13.39453125 18.09765625 16.64453125 C15.92578125 17.87109375 15.92578125 17.87109375 13.09765625 18.64453125 C10.51953125 17.23046875 10.51953125 17.23046875 7.84765625 15.01953125 C3.62318296 11.68803606 -0.15280297 9.39704013 -5.22265625 7.62890625 C-6.90234375 6.64453125 -6.90234375 6.64453125 -7.70703125 4.6484375 C-7.90234375 2.64453125 -7.90234375 2.64453125 -6.90234375 0.83203125 C-4.43921322 -0.6304525 -2.77771614 -0.53667127 0 0 Z " fill="#000000" transform="translate(385.90234375,224.35546875)"/>
<path d="M0 0 C11.11514462 0.41794751 21.03276192 4.86965766 30.96875 9.51953125 C31.96455078 9.97755127 32.96035156 10.43557129 33.98632812 10.9074707 C39.56208073 13.60365305 43.44261101 15.90260668 46.84375 21.14453125 C47.41644578 25.31702907 47.20461122 26.60323941 44.84375 30.14453125 C43.46797639 30.02835481 42.09313955 29.90107348 40.71875 29.76953125 C39.95304687 29.69992187 39.18734375 29.6303125 38.3984375 29.55859375 C35.84375 29.14453125 35.84375 29.14453125 33.1484375 28.12890625 C28.74787849 26.81810144 24.66346248 26.76158683 20.09375 26.76953125 C19.17650146 26.77041748 18.25925293 26.77130371 17.31420898 26.7722168 C6.0362136 26.96363276 -5.11913518 28.82733689 -15.15625 34.14453125 C-16.703125 34.63953125 -16.703125 34.63953125 -18.28125 35.14453125 C-21.18309668 35.96918511 -21.18309668 35.96918511 -23.21875 37.83203125 C-25.15625 39.14453125 -25.15625 39.14453125 -27.78125 39.14453125 C-30.15625 38.14453125 -30.15625 38.14453125 -31.53125 35.83203125 C-32.17544746 33.06198218 -32.00713552 31.79173065 -31.15625 29.14453125 C-31.48625 28.81453125 -31.81625 28.48453125 -32.15625 28.14453125 C-32.40625 24.70703125 -32.40625 24.70703125 -32.15625 21.14453125 C-28.7210452 18.85439472 -27.170919 18.96610152 -23.15625 19.14453125 C-23.11886719 18.38527344 -23.08148438 17.62601563 -23.04296875 16.84375 C-22.97722656 15.84988281 -22.91148437 14.85601562 -22.84375 13.83203125 C-22.78574219 12.84589844 -22.72773438 11.85976562 -22.66796875 10.84375 C-22.15625 8.14453125 -22.15625 8.14453125 -20.9609375 6.3046875 C-18.4356362 4.68127952 -16.57075261 4.81525022 -13.59375 4.89453125 C-12.13775391 4.91773438 -12.13775391 4.91773438 -10.65234375 4.94140625 C-8.15625 5.14453125 -8.15625 5.14453125 -6.15625 6.14453125 C-5.846875 5.34015625 -5.5375 4.53578125 -5.21875 3.70703125 C-3.75294528 0.17185517 -3.75294528 0.17185517 0 0 Z " fill="#000000" transform="translate(199.15625,227.85546875)"/>
<path d="M0 0 C0.7321875 0.10054687 1.464375 0.20109375 2.21875 0.3046875 C3.40625 1.9921875 3.40625 1.9921875 4.21875 4.3046875 C2.36891964 7.82230142 0.05518606 10.97221169 -2.28125 14.1796875 C-5.82312719 19.20542482 -8.06600265 23.72979704 -9.71875 29.6796875 C-10.78125 32.3046875 -10.78125 32.3046875 -12.71875 33.3671875 C-14.78125 33.3046875 -14.78125 33.3046875 -16.41015625 32.0546875 C-18.12888494 29.86098251 -18.09895154 28.97739919 -17.78125 26.2421875 C-16.4844212 17.88034348 -9.24641 1.01294941 0 0 Z " fill="#000000" transform="translate(163.78125,228.6953125)"/>
<path d="M0 0 C0.66 0.66 1.32 1.32 2 2 C3.98356483 2.71408334 5.98315437 3.38617742 8 4 C7.66228702 11.93625512 3.69812956 17.24054931 -1.75 22.8125 C-10.41596198 28.64535902 -18.58022672 30.22950841 -29 29 C-35.56095488 27.07997095 -39.82289158 22.90281123 -43.875 17.5 C-45.28666042 14.36297685 -45.17614536 13.21479732 -44 10 C-40.40952455 2.66294148 -33.64833808 -0.66227604 -26.25 -3.375 C-16.9689947 -5.18592786 -8.0264579 -5.24806863 0 0 Z M-11 4 C-11 8.62 -11 13.24 -11 18 C-6.14659219 15.11091314 -6.14659219 15.11091314 -3 11 C-4.38877354 7.64379729 -5.91677965 5.92701272 -9 4 C-9.66 4 -10.32 4 -11 4 Z M-34 10 C-34.66 10.66 -35.32 11.32 -36 12 C-35.9049261 14.0480428 -35.9049261 14.0480428 -35 16 C-33.515 16.99 -33.515 16.99 -32 18 C-32.33 15.36 -32.66 12.72 -33 10 C-33.33 10 -33.66 10 -34 10 Z " fill="#000000" transform="translate(355,254)"/>
<path d="M0 0 C4.78934876 2.51040214 7.95116681 5.83300021 10.9375 10.3125 C11.60030349 14.85964023 11.64658103 18.95599716 9.5 23.0625 C1.75765744 29.86065444 -4.29810578 32.73096066 -14.6484375 32.5703125 C-24.44887566 31.83023365 -29.6259903 27.37333198 -36.12890625 20.26171875 C-38.354384 16.86730319 -38.77842787 14.32439582 -39.0625 10.3125 C-37.70125 9.9721875 -37.70125 9.9721875 -36.3125 9.625 C-32.96684193 8.59732856 -32.96684193 8.59732856 -31.3125 6 C-23.73901494 -3.04610715 -10.57202043 -4.29928831 0 0 Z M-25 12.8125 C-26.23937097 14.26994089 -26.23937097 14.26994089 -26.125 16.25 C-24.52810912 19.349847 -21.99968429 20.56268808 -19.0625 22.3125 C-18.4025 21.9825 -17.7425 21.6525 -17.0625 21.3125 C-17.08570313 20.72082031 -17.10890625 20.12914062 -17.1328125 19.51953125 C-17.23661464 14.97448041 -17.19958357 11.45309941 -15.0625 7.3125 C-18.94051647 7.3125 -22.03159887 10.514383 -25 12.8125 Z " fill="#000000" transform="translate(225.0625,259.6875)"/>
<path d="M0 0 C0.70125 0.28875 1.4025 0.5775 2.125 0.875 C2.97265625 2.9609375 2.97265625 2.9609375 3.125 5.875 C1.34437286 8.35526648 -0.32353171 10.34419532 -2.4375 12.5 C-2.96408203 13.07234375 -3.49066406 13.6446875 -4.03320312 14.234375 C-7.31108061 17.68477235 -10.34368844 20.16062193 -14.875 21.875 C-17.75 21.0625 -17.75 21.0625 -19.875 19.875 C-19.72259391 17.20789346 -19.38135081 15.4244129 -17.54296875 13.4296875 C-13.36875 9.875 -13.36875 9.875 -10.875 9.875 C-10.66875 9.33875 -10.4625 8.8025 -10.25 8.25 C-7.8490511 4.10290644 -5.10152393 -0.22180539 0 0 Z " fill="#000000" transform="translate(372.875,268.125)"/>
<path d="M0 0 C4.24073008 0.37061843 6.01928688 1.6216013 8.8125 4.75 C12.50239497 8.65777448 16.31263941 11.40699201 21 14 C20.67 15.65 20.34 17.3 20 19 C16.47234344 20.2827842 15.16395124 20.07424207 11.6875 18.5 C6.42532558 15.18806127 1.45641883 11.18462825 -2 6 C-1.45945946 1.45945946 -1.45945946 1.45945946 0 0 Z " fill="#000000" transform="translate(180,283)"/>
<path d="M0 0 C2.66015625 0.296875 2.66015625 0.296875 4.5390625 1.90625 C5.09464844 2.61265625 5.65023438 3.3190625 6.22265625 4.046875 C7.10824219 5.13742187 7.10824219 5.13742187 8.01171875 6.25 C8.55570312 6.92546875 9.0996875 7.6009375 9.66015625 8.296875 C10.97650649 9.64697781 12.29989527 10.99102446 13.66015625 12.296875 C12.84765625 14.734375 12.84765625 14.734375 11.66015625 17.296875 C8.66015625 18.296875 8.66015625 18.296875 6.28515625 17.234375 C3.12019033 14.89832873 1.13283707 12.35519075 -1.33984375 9.296875 C-2.32984375 8.636875 -3.31984375 7.976875 -4.33984375 7.296875 C-3.31573166 0.42069383 -3.31573166 0.42069383 0 0 Z " fill="#000000" transform="translate(313.33984375,303.703125)"/>
<path d="M0 0 C1 1 1 1 1.34765625 3.33984375 C1 6 1 6 -0.94140625 7.87890625 C-1.80636719 8.43449219 -2.67132813 8.99007813 -3.5625 9.5625 C-4.47644531 10.15289062 -5.39039063 10.74328125 -6.33203125 11.3515625 C-7.21246094 11.89554687 -8.09289062 12.43953125 -9 13 C-9.66386719 13.44085938 -10.32773438 13.88171875 -11.01171875 14.3359375 C-14.79328741 16.7323473 -17.54802637 17.43433889 -22 17 C-22.33 15.35 -22.66 13.7 -23 12 C-18.49443116 8.39980551 -13.93973606 4.85769338 -9.25 1.5 C-8.55390625 0.9946875 -7.8578125 0.489375 -7.140625 -0.03125 C-4.36722164 -1.28636685 -2.85937899 -0.89477166 0 0 Z " fill="#000000" transform="translate(235,316)"/>
<path d="M0 0 C2.56475613 0.99712956 3.04183539 1.95023777 4.33203125 4.34765625 C6.65538716 8.37191135 9.40277704 11.63285228 12.56640625 15.0234375 C14.01953125 16.78515625 14.01953125 16.78515625 15.01953125 19.78515625 C14.35953125 20.77515625 13.69953125 21.76515625 13.01953125 22.78515625 C10.64453125 23.19140625 10.64453125 23.19140625 8.01953125 22.78515625 C2.66781003 18.97408205 -2.48075056 12.90820334 -4.98046875 6.78515625 C-4.91796875 3.34765625 -4.91796875 3.34765625 -3.98046875 0.78515625 C-1.98046875 -0.21484375 -1.98046875 -0.21484375 0 0 Z " fill="#000000" transform="translate(304.98046875,316.21484375)"/>
<path d="M0 0 C0.8125 1.6875 0.8125 1.6875 1 4 C-1.5575378 7.06904536 -4.12729689 9.78978028 -8 11 C-10.75 10.625 -10.75 10.625 -13 10 C-13.33 8.35 -13.66 6.7 -14 5 C-12.61765122 3.96097967 -11.21844209 2.94436554 -9.8125 1.9375 C-9.03519531 1.36902344 -8.25789062 0.80054688 -7.45703125 0.21484375 C-4.48016155 -1.25702664 -3.112514 -0.96747771 0 0 Z " fill="#000000" transform="translate(251,321)"/>
<path d="M0 0 C3.18037993 1.10943486 4.37229747 2.7408033 6.3515625 5.39453125 C7.81843772 7.24923654 7.81843772 7.24923654 11 8.9375 C13.6875 10.9375 13.6875 10.9375 14.1875 14.0625 C13.6875 16.9375 13.6875 16.9375 11.6875 18.9375 C8.46982464 19.42176552 7.08017232 19.19449816 4.3359375 17.3984375 C-3.69105725 10.03346294 -3.69105725 10.03346294 -5.3125 4.9375 C-5.125 2.625 -5.125 2.625 -4.3125 0.9375 C-2.3125 -0.0625 -2.3125 -0.0625 0 0 Z " fill="#000000" transform="translate(330.3125,330.0625)"/>
<path d="M0 0 C1 1 1 1 1.5 3.125 C0.70617062 7.68951894 -2.33649819 10.32049661 -6 13 C-8.9375 13.4375 -8.9375 13.4375 -11 13 C-11.66 11.35 -12.32 9.7 -13 8 C-12.04578192 6.85073734 -11.08647955 5.70569459 -10.125 4.5625 C-9.59132812 3.92441406 -9.05765625 3.28632813 -8.5078125 2.62890625 C-5.85914995 -0.23247273 -3.76526007 -0.19309026 0 0 Z " fill="#000000" transform="translate(248,338)"/>
<path d="M0 0 C0.66 1.65 1.32 3.3 2 5 C-1.27508505 8.55208229 -4.85577861 11.13025272 -8.875 13.75 C-9.47441406 14.16121094 -10.07382813 14.57242187 -10.69140625 14.99609375 C-14.59172838 17.5427249 -17.34424976 18.67868079 -22 18 C-24 16 -24 16 -24.125 13.375 C-24.08375 12.59125 -24.0425 11.8075 -24 11 C-23.05640625 10.56300781 -23.05640625 10.56300781 -22.09375 10.1171875 C-17.61530692 7.97239097 -13.60693964 5.83434416 -9.75 2.6875 C-6.44515965 0.06109232 -4.31194289 -0.64679143 0 0 Z " fill="#000000" transform="translate(228,344)"/>
<path d="M0 0 C1.08667969 0.06670898 1.08667969 0.06670898 2.1953125 0.13476562 C5.88132113 0.41019616 7.8711653 0.7266102 11 2.8125 C11.25 5.875 11.25 5.875 11 8.8125 C9.16799239 10.64450761 6.33438305 9.9859944 3.875 10 C-1.17526868 9.97222074 -5.28065085 9.56853689 -10 7.8125 C-10.6875 5.5 -10.6875 5.5 -11 2.8125 C-8.51755971 -1.44028615 -4.28670382 -0.37756555 0 0 Z " fill="#000000" transform="translate(366,345.1875)"/>
<path d="M0 0 C0.66 0.28875 1.32 0.5775 2 0.875 C2.33 2.525 2.66 4.175 3 5.875 C-2.89111421 11.73125555 -2.89111421 11.73125555 -7.375 12.3125 C-10 11.875 -10 11.875 -11 10.875 C-11.29296875 8.5234375 -11.29296875 8.5234375 -11 5.875 C-8.02882953 2.40986323 -4.62484891 -0.19270204 0 0 Z " fill="#000000" transform="translate(191,354.125)"/>
<path d="M0 0 C4.54609591 0.36080126 8.31835158 1.45249003 11.9375 4.3125 C12.7265625 6.33984375 12.7265625 6.33984375 12.9375 8.3125 C11.9375 10.125 11.9375 10.125 9.9375 11.3125 C4.94625484 11.12415113 -0.39201567 9.98298433 -4.0625 6.3125 C-4.1875 3.8125 -4.1875 3.8125 -4.0625 1.3125 C-3.0625 0.3125 -3.0625 0.3125 0 0 Z " fill="#000000" transform="translate(355.0625,354.6875)"/>
<path d="M0 0 C2.125 0.8125 2.125 0.8125 3.125 1.8125 C3.515625 4.1328125 3.515625 4.1328125 3.125 6.8125 C0.859375 8.8671875 0.859375 8.8671875 -2.125 10.6875 C-3.09953125 11.30367188 -4.0740625 11.91984375 -5.078125 12.5546875 C-7.875 13.8125 -7.875 13.8125 -10.15625 13.63671875 C-12.48434657 12.52029062 -12.96363183 11.16686777 -13.875 8.8125 C-10.50810879 3.96417666 -6.29987434 -0.41086137 0 0 Z " fill="#000000" transform="translate(214.875,364.1875)"/>
</svg>
