<?xml version="1.0" encoding="UTF-8"?>
<svg version="1.1" xmlns="http://www.w3.org/2000/svg" width="550" height="500">
<path d="M0 0 C2.57088849 0.05915319 3.85147102 0.16818322 5.82421875 1.85546875 C8.07990386 4.88674759 10.0347649 8.11594397 12.02954102 11.32324219 C20.42922756 23.97112466 31.56133378 34.14201375 42.375 44.6875 C45.3598408 47.60228434 48.34095298 50.52068985 51.31114197 53.45040894 C53.14675807 55.25921531 54.98947811 57.06085471 56.84083557 58.85354614 C65.74592729 67.62067158 72.73691908 77.52160019 79.6875 87.875 C83.14593947 92.9935711 86.63572215 98.05397827 90.38037109 102.9675293 C107.1036767 124.97270076 118.17821805 149.14131448 128.05595398 174.75024414 C129.58970991 178.71940648 131.15011132 182.67692079 132.73071289 186.62765503 C144.04123445 214.90269018 144.04123445 214.90269018 146.3125 228.5625 C146.60060547 230.109375 146.60060547 230.109375 146.89453125 231.6875 C147.25876479 235.06431934 147.27772049 238.1392508 147.1953125 241.5234375 C147.14078788 248.58942394 148.3342162 255.24791702 149.7633667 262.13458252 C150.48882406 265.64598822 151.167124 269.16640776 151.84375 272.6875 C151.97607025 273.37462067 152.1083905 274.06174133 152.24472046 274.76968384 C158.98347688 310.25882611 153.76121249 342.69150428 133.44213867 372.78173828 C129.400301 378.60301565 125.02532864 384.16236144 120.63305664 389.72119141 C116.62612873 394.80847442 112.81952596 399.99470417 109.125 405.3125 C100.37930264 417.85848807 90.78124911 429.52332279 80.68115234 440.99853516 C79.58366759 442.25263564 78.5020478 443.52061223 77.42578125 444.79296875 C69.08418077 454.64740357 59.77713198 463.62009955 49.64453125 471.6015625 C46.94838129 473.86867687 44.82956679 476.34454096 42.62890625 479.078125 C40.5349446 481.4392687 37.98100366 482.90802773 35.3125 484.5625 C34.80976563 485.01238281 34.30703125 485.46226562 33.7890625 485.92578125 C17.52741349 500.1639219 -10.79934729 500.74721699 -31.16479492 500.85766602 C-32.62941169 500.86915257 -34.09398769 500.8895518 -35.55834961 500.91918945 C-64.08631772 501.49263205 -87.43182178 489.04073974 -108.8125 470.88671875 C-112.34091779 468.03426144 -116.02384527 465.46053806 -119.75 462.875 C-132.59885983 453.92758669 -144.87177165 444.26671781 -156.75 434.0703125 C-159.51047817 431.71362768 -162.306103 429.41125658 -165.125 427.125 C-169.98420344 423.17115033 -174.74118308 419.10883354 -179.48046875 415.01293945 C-183.1340762 411.86381552 -186.8497627 408.81611815 -190.625 405.8125 C-194.4814314 402.67668644 -197.80201816 399.45329007 -200.96484375 395.625 C-202.84946437 393.36858348 -204.85670753 391.26244033 -206.875 389.125 C-222.7348867 371.47884619 -234.32492493 351.25463931 -237.8125 327.625 C-237.97717773 326.53799805 -238.14185547 325.45099609 -238.31152344 324.33105469 C-244.85764726 279.96000153 -244.85764726 279.96000153 -240.6875 259.5625 C-240.46619071 257.15480155 -240.27707791 254.74405641 -240.109375 252.33203125 C-240.00336117 250.88769683 -239.89621809 249.44344495 -239.78808594 247.99926758 C-239.73164917 247.2451358 -239.6752124 246.49100403 -239.61706543 245.71401978 C-235.94551424 197.88838394 -222.04646106 144.62861329 -188.5 108.5 C-183.47457446 102.90666292 -179.11599071 97.06119267 -174.9375 90.8125 C-170.19539813 83.7210614 -165.26323327 77.03147891 -159.6875 70.5625 C-158.69532416 69.37607796 -157.70452835 68.18850097 -156.71484375 67 C-155.66467254 65.74948744 -154.61389612 64.49948287 -153.5625 63.25 C-153.08353271 62.67467529 -152.60456543 62.09935059 -152.11108398 61.5065918 C-149.09507056 57.96176005 -145.91386801 54.9096633 -142.29907227 51.97558594 C-140.58735164 50.47468623 -139.19519664 48.88225808 -137.75 47.125 C-135.65848695 44.59680875 -133.49532479 42.4455054 -130.9921875 40.32421875 C-126.74068277 36.64917276 -122.72090883 32.78728336 -118.75 28.8125 C-118.05269775 28.11584229 -117.35539551 27.41918457 -116.63696289 26.70141602 C-111.96234839 21.97892928 -107.70033463 17.11586856 -103.5703125 11.91015625 C-96.46155615 3.04633349 -96.46155615 3.04633349 -91.25 1.625 C-90.404375 1.604375 -89.55875 1.58375 -88.6875 1.5625 C-85.56052246 4.99043226 -85.14835192 7.76697729 -84.70776367 12.32666016 C-84.60432065 13.33951725 -84.60432065 13.33951725 -84.49878788 14.37283611 C-84.27255027 16.61474551 -84.06423117 18.85796416 -83.85546875 21.1015625 C-83.69823367 22.68561173 -83.53965826 24.26952841 -83.37982178 25.85331726 C-83.04209859 29.21685639 -82.71122642 32.5809669 -82.38571167 35.94570923 C-81.53842826 44.68233668 -80.63602977 53.4133768 -79.734375 62.14453125 C-79.64605345 63.00267363 -79.5577319 63.860816 -79.46673393 64.74496269 C-78.08389682 78.15443922 -76.57718643 91.53450074 -74.625 104.875 C-74.50833984 105.67307068 -74.39167969 106.47114136 -74.27148438 107.293396 C-72.17324673 121.45396427 -69.65365026 135.55218177 -66.95874023 149.6105957 C-65.2519129 158.61476036 -64.08892141 167.38767837 -63.6875 176.5625 C-63.039021 176.47685791 -62.39054199 176.39121582 -61.72241211 176.30297852 C-49.38999123 174.68595193 -37.11780315 173.14019037 -24.6875 172.5625 C-21.38301261 152.30793609 -19.15700576 132.02290235 -17.625 111.5625 C-17.38289741 108.40078162 -17.13904488 105.23920245 -16.89476013 102.07765198 C-16.73405624 99.99596651 -16.57426585 97.91421031 -16.41542053 95.8323822 C-15.78577066 87.63714169 -15.08249566 79.44941691 -14.32749939 71.26477051 C-13.82382504 65.67432128 -13.52145549 60.11056629 -13.375 54.5 C-13.0448361 45.96455979 -11.72476843 37.59940389 -10.3125 29.1875 C-9.99865356 27.3156604 -9.99865356 27.3156604 -9.6784668 25.40600586 C-5.40680159 0.82476634 -5.40680159 0.82476634 0 0 Z M-106.6875 54.5625 C-118.22206313 60.78080025 -126.34914301 71.74316895 -134.40625 81.7578125 C-135.96232645 83.67093388 -137.54717592 85.56092108 -139.15625 87.4296875 C-144.46177189 93.60308797 -149.00569737 99.84243884 -153.2890625 106.75 C-157.86215464 114.11051046 -162.7942225 121.24806537 -167.65234375 128.421875 C-171.71823806 134.43355417 -175.72344364 140.48321892 -179.6875 146.5625 C-180.16429199 147.28953125 -180.64108398 148.0165625 -181.13232422 148.765625 C-194.2896035 169.17833735 -212.04593912 210.11653855 -207.21875 234.9765625 C-207.0434375 235.49992188 -206.868125 236.02328125 -206.6875 236.5625 C-205.97207031 235.88445312 -205.25664062 235.20640625 -204.51953125 234.5078125 C-192.17633763 222.92833169 -178.6264097 213.11952084 -164.6875 203.5625 C-163.15609375 202.49708984 -163.15609375 202.49708984 -161.59375 201.41015625 C-148.26160531 192.64749663 -132.8924023 186.90950042 -118.0625 181.1875 C-112.34385346 178.93881187 -106.98321368 176.79736927 -103.3125 171.625 C-101.23701968 164.77591494 -101.49563059 157.76788866 -101.5 150.6875 C-101.50008057 149.47384766 -101.50016113 148.26019531 -101.50024414 147.00976562 C-101.54897566 139.3235221 -102.03561534 131.99173107 -103.17578125 124.390625 C-103.78059176 119.86608837 -104.07918369 115.36913605 -104.3125 110.8125 C-104.35238037 110.06806641 -104.39226074 109.32363281 -104.43334961 108.55664062 C-105.01446361 96.30627445 -104.57189025 84.06139201 -104.1875 71.8125 C-104.13915658 70.22917174 -104.09097839 68.64583842 -104.04296875 67.0625 C-103.92637997 63.22910586 -103.80756962 59.39578663 -103.6875 55.5625 C-104.6775 55.2325 -105.6675 54.9025 -106.6875 54.5625 Z M14.3125 62.5625 C9.6584479 98.10741033 10.01724209 133.98169435 14.3125 169.5625 C14.40571533 170.46991943 14.49893066 171.37733887 14.5949707 172.31225586 C15.82827613 176.18002588 18.90484296 177.13138161 22.29882812 179.01806641 C27.64776081 181.75926441 33.08650384 184.27439419 38.5625 186.75 C41.06070712 187.8938644 43.5560344 189.04392353 46.05078125 190.1953125 C46.97982018 190.62370171 46.97982018 190.62370171 47.92762756 191.06074524 C62.9926149 198.02404365 77.57280246 205.66948125 91.90625 214.03125 C99.56870538 218.6528627 99.56870538 218.6528627 108.3125 219.5625 C103.99414321 205.01022916 97.99706421 191.2540145 91.86985779 177.39848328 C89.95029159 173.04671201 88.0883282 168.67516994 86.2578125 164.28515625 C80.08448212 149.50747283 73.25065696 135.2985354 65.68701172 121.18408203 C64.48560131 118.89265308 63.3482532 116.59000225 62.25390625 114.24609375 C58.58836713 106.39862317 54.44435357 100.65823072 48.3125 94.5625 C47.18746031 93.40364487 46.06385769 92.24339351 44.94140625 91.08203125 C39.35458353 85.34956427 33.81697171 79.96489309 27.3515625 75.21875 C23.15035176 71.80627231 18.75212097 67.44174194 16.3125 62.5625 C15.6525 62.5625 14.9925 62.5625 14.3125 62.5625 Z M-91.6875 171.5625 C-90.6875 173.5625 -90.6875 173.5625 -90.6875 173.5625 Z M-92.6875 173.5625 C-91.6875 175.5625 -91.6875 175.5625 -91.6875 175.5625 Z M-93.6875 175.5625 C-92.6875 177.5625 -92.6875 177.5625 -92.6875 177.5625 Z M1.3125 193.5625 C1.3125 194.2225 1.3125 194.8825 1.3125 195.5625 C2.3025 195.2325 3.2925 194.9025 4.3125 194.5625 C3.3225 194.2325 2.3325 193.9025 1.3125 193.5625 Z M-110.6875 198.5625 C-111.7135734 199.87587396 -112.71477325 201.20914105 -113.6875 202.5625 C-113.3575 203.2225 -113.0275 203.8825 -112.6875 204.5625 C-112.0275 204.5625 -111.3675 204.5625 -110.6875 204.5625 C-110.3575 202.5825 -110.0275 200.6025 -109.6875 198.5625 C-110.0175 198.5625 -110.3475 198.5625 -110.6875 198.5625 Z M48.3125 200.5625 C49.3025 201.5525 50.2925 202.5425 51.3125 203.5625 C52.3025 203.2325 53.2925 202.9025 54.3125 202.5625 C52.3325 201.9025 50.3525 201.2425 48.3125 200.5625 Z M-90.6875 201.5625 C-92.40427553 204.32855639 -92.40427553 204.32855639 -93.6875 207.5625 C-93.01325833 209.91710678 -93.01325833 209.91710678 -91.6875 211.5625 C-90.3675 210.9025 -89.0475 210.2425 -87.6875 209.5625 C-87.6875 205.29423127 -88.06363513 204.62367568 -90.6875 201.5625 Z M-137.6875 202.5625 C-141.1525 205.5325 -141.1525 205.5325 -144.6875 208.5625 C-143.6975 210.0475 -143.6975 210.0475 -142.6875 211.5625 C-140.7075 209.2525 -138.7275 206.9425 -136.6875 204.5625 C-137.0175 203.9025 -137.3475 203.2425 -137.6875 202.5625 Z M-35.6875 205.5625 C-35.3575 206.2225 -35.0275 206.8825 -34.6875 207.5625 C-34.3575 206.9025 -34.0275 206.2425 -33.6875 205.5625 C-34.3475 205.5625 -35.0075 205.5625 -35.6875 205.5625 Z M3.3125 206.5625 C4.3025 208.0475 4.3025 208.0475 5.3125 209.5625 C6.9625 208.9025 8.6125 208.2425 10.3125 207.5625 C10.3125 207.2325 10.3125 206.9025 10.3125 206.5625 C8.0025 206.5625 5.6925 206.5625 3.3125 206.5625 Z M-49.6875 208.5625 C-50.0175 210.8725 -50.3475 213.1825 -50.6875 215.5625 C-49.3675 214.2425 -48.0475 212.9225 -46.6875 211.5625 C-47.6775 210.5725 -48.6675 209.5825 -49.6875 208.5625 Z M-120.6875 215.5625 C-122.36664014 217.57682569 -122.36664014 217.57682569 -123.6875 219.5625 C-122.06026701 219.11215877 -120.43576336 218.65194646 -118.8125 218.1875 C-117.90757812 217.93226563 -117.00265625 217.67703125 -116.0703125 217.4140625 C-113.54180274 216.7020685 -113.54180274 216.7020685 -111.6875 214.5625 C-115.52808173 213.28230609 -117.0273408 213.96118035 -120.6875 215.5625 Z M-12.6875 217.5625 C-13.0175 218.2225 -13.3475 218.8825 -13.6875 219.5625 C-12.6975 220.8825 -11.7075 222.2025 -10.6875 223.5625 C-10.6875 221.9125 -10.6875 220.2625 -10.6875 218.5625 C-11.3475 218.2325 -12.0075 217.9025 -12.6875 217.5625 Z M34.3125 217.5625 C32.60717677 219.50259522 32.60717677 219.50259522 31.3125 221.5625 C34.7775 221.0675 34.7775 221.0675 38.3125 220.5625 C37.9825 219.5725 37.6525 218.5825 37.3125 217.5625 C36.3225 217.5625 35.3325 217.5625 34.3125 217.5625 Z M-106.6875 222.5625 C-106.6875 224.8725 -106.6875 227.1825 -106.6875 229.5625 C-103.72345495 226.75445732 -101.24250981 224.37934226 -99.6875 220.5625 C-102.3340335 220.5625 -104.2683163 221.54389634 -106.6875 222.5625 Z M53.3125 239.5625 C55.9525 239.8925 58.5925 240.2225 61.3125 240.5625 C60.6525 239.5725 59.9925 238.5825 59.3125 237.5625 C56.12759993 237.2851499 56.12759993 237.2851499 53.3125 239.5625 Z M-142.6875 240.5625 C-143.3475 241.2225 -144.0075 241.8825 -144.6875 242.5625 C-143.0375 242.2325 -141.3875 241.9025 -139.6875 241.5625 C-140.6775 241.2325 -141.6675 240.9025 -142.6875 240.5625 Z M-124.3125 245.5625 C-126.09527344 246.119375 -126.09527344 246.119375 -127.9140625 246.6875 C-129.28691406 247.120625 -129.28691406 247.120625 -130.6875 247.5625 C-130.6875 247.8925 -130.6875 248.2225 -130.6875 248.5625 C-126.3975 248.8925 -122.1075 249.2225 -117.6875 249.5625 C-117.0275 247.5825 -116.3675 245.6025 -115.6875 243.5625 C-118.74694506 243.5625 -121.4026803 244.64961539 -124.3125 245.5625 Z M-70.6875 247.5625 C-70.6875 249.8725 -70.6875 252.1825 -70.6875 254.5625 C-70.3575 254.5625 -70.0275 254.5625 -69.6875 254.5625 C-69.6875 252.2525 -69.6875 249.9425 -69.6875 247.5625 C-70.0175 247.5625 -70.3475 247.5625 -70.6875 247.5625 Z M-108.6875 249.5625 C-109.0175 250.2225 -109.3475 250.8825 -109.6875 251.5625 C-109.0275 251.5625 -108.3675 251.5625 -107.6875 251.5625 C-108.0175 250.9025 -108.3475 250.2425 -108.6875 249.5625 Z M-96.6875 251.5625 C-97.0175 252.8825 -97.3475 254.2025 -97.6875 255.5625 C-95.7075 256.2225 -93.7275 256.8825 -91.6875 257.5625 C-91.88221111 255.61250871 -91.88221111 255.61250871 -92.6875 253.5625 C-94.6712767 252.27813266 -94.6712767 252.27813266 -96.6875 251.5625 Z M-191.6875 258.5625 C-190.6875 260.5625 -190.6875 260.5625 -190.6875 260.5625 Z M-42.4375 220.125 C-46.92411819 224.98550304 -49.92861444 230.7004731 -50.375 237.375 C-49.83898309 248.77754154 -45.21019645 260.49746795 -41.3125 271.125 C-39.0744803 277.66114122 -38.01768355 284.90431749 -40.95703125 291.34375 C-42.6875 293.5625 -42.6875 293.5625 -44.6328125 294.41015625 C-54.77518115 295.40985209 -60.95694039 290.55470939 -68.6105957 284.48583984 C-88.89858104 268.47934325 -112.639674 257.98768356 -138.6875 259.5625 C-147.72330667 260.69587506 -154.40347167 264.23377131 -161.6875 269.5625 C-162.52023438 270.160625 -163.35296875 270.75875 -164.2109375 271.375 C-186.15031243 287.98525231 -204.58937526 314.98624007 -210.21875 342.02734375 C-210.79109405 346.3437718 -211.00667653 350.58637079 -211.0625 354.9375 C-211.07651855 355.68684814 -211.09053711 356.43619629 -211.10498047 357.20825195 C-210.97404995 372.26693978 -197.38007146 383.26229026 -187.6875 393.5625 C-187.07132813 394.22121094 -186.45515625 394.87992188 -185.8203125 395.55859375 C-181.75973393 399.76488686 -177.30351108 403.39805638 -172.75390625 407.0625 C-169.47339256 409.73705894 -166.26505309 412.48325171 -163.0625 415.25 C-146.22463132 429.72722456 -128.82604381 443.15847222 -110.67407227 455.94848633 C-107.23475627 458.39198698 -103.92627101 460.95211982 -100.65185547 463.61181641 C-80.13257354 480.22711647 -59.64674693 489.9962128 -32.875 489.875 C-31.6183252 489.87153564 -30.36165039 489.86807129 -29.06689453 489.86450195 C-13.52108238 489.68652649 1.38081923 487.89032869 16.3125 483.5625 C17.35921875 483.29050781 18.4059375 483.01851563 19.484375 482.73828125 C29.26942412 479.46177238 34.85819364 472.02976355 41.49169922 464.55126953 C46.67143953 458.89369852 52.5282066 453.83785901 58.453125 448.98046875 C60.70108879 447.07952669 62.60801213 445.29433555 64.5 443.0625 C65.09167969 442.36640625 65.68335938 441.6703125 66.29296875 440.953125 C67.29263672 439.76976562 67.29263672 439.76976562 68.3125 438.5625 C69.09238281 437.67046875 69.87226563 436.7784375 70.67578125 435.859375 C82.88266489 421.82365805 93.66072554 406.71615084 104.02929688 391.29223633 C107.38569516 386.31744801 110.82467829 381.50692063 114.5625 376.8125 C123.06718193 365.93672979 134.14964993 351.74927091 135.3125 337.5625 C134.026677 333.03416683 131.92563535 329.33671704 129.42822266 325.40429688 C127.87167527 322.83480158 126.5987999 320.15577009 125.3046875 317.44702148 C118.71202857 303.67933045 110.08596158 292.20822326 100.3125 280.5625 C99.57644531 279.66917969 98.84039062 278.77585937 98.08203125 277.85546875 C87.14442328 264.97840864 72.35261125 254.90920375 56.3125 249.5625 C40.75802493 248.54006144 29.09538533 251.12203461 17.03515625 261.52734375 C11.84111447 266.437267 8.06282373 271.78626388 4.1953125 277.76953125 C-1.29991523 285.92116575 -9.41346993 292.25039759 -18.875 295.2578125 C-21.88517746 295.76383371 -24.99109217 296.06050435 -27.6875 294.5625 C-31.37001165 286.82922553 -29.42742326 279.76530583 -26.9375 272.0625 C-26.38501159 270.28829113 -25.83424534 268.5135451 -25.28515625 266.73828125 C-25.0133252 265.86510254 -24.74149414 264.99192383 -24.46142578 264.09228516 C-23.36142223 260.49662685 -22.3483246 256.88175245 -21.375 253.25 C-21.06949219 252.11949219 -20.76398438 250.98898438 -20.44921875 249.82421875 C-17.79144712 238.44350433 -18.29109231 230.16398389 -23 219.625 C-28.56392053 212.82465268 -36.0657284 216.50467523 -42.4375 220.125 Z M-171.6875 262.5625 C-172.0175 263.2225 -172.3475 263.8825 -172.6875 264.5625 C-171.6975 264.2325 -170.7075 263.9025 -169.6875 263.5625 C-170.3475 263.2325 -171.0075 262.9025 -171.6875 262.5625 Z M110.3125 268.5625 C109.9825 270.2125 109.6525 271.8625 109.3125 273.5625 C110.6325 274.5525 111.9525 275.5425 113.3125 276.5625 C112.86546014 272.08366304 112.86546014 272.08366304 110.3125 268.5625 Z M-190.6875 280.5625 C-191.6775 282.0475 -191.6775 282.0475 -192.6875 283.5625 C-192.3575 284.5525 -192.0275 285.5425 -191.6875 286.5625 C-190.3675 284.5825 -189.0475 282.6025 -187.6875 280.5625 C-188.6775 280.5625 -189.6675 280.5625 -190.6875 280.5625 Z M120.3125 285.5625 C121.28748145 287.0652237 122.26759389 288.56461963 123.25 290.0625 C123.79527344 290.8978125 124.34054687 291.733125 124.90234375 292.59375 C125.36769531 293.2434375 125.83304687 293.893125 126.3125 294.5625 C126.6425 294.5625 126.9725 294.5625 127.3125 294.5625 C126.82765724 289.91663108 126.82765724 289.91663108 125.3125 285.5625 C123.6625 285.5625 122.0125 285.5625 120.3125 285.5625 Z M139.3125 308.5625 C140.3125 311.5625 140.3125 311.5625 140.3125 311.5625 Z " fill="#000000" transform="translate(296.6875,-0.5625)"/>
<path d="M0 0 C2.97030128 2.09730951 5.64273284 4.26461104 8.0625 7 C9.7125 6.01 11.3625 5.02 13.0625 4 C15.5625 5.1875 15.5625 5.1875 18.0625 7 C18.63789597 10.30154386 18.30576819 11.6422865 16.41015625 14.4296875 C7.54478947 23.91638767 -2.16243019 33.0755566 -15.71484375 34.23828125 C-27.82051066 34.52259234 -39.2954745 31.60571325 -48.9375 24 C-52.82339927 19.96342301 -55.0760426 16.58495416 -55.9375 11 C-48.45184633 4.20459738 -41.61421114 -1.5663283 -31.9375 -5 C-30.74125 -5.433125 -29.545 -5.86625 -28.3125 -6.3125 C-17.7380318 -8.46655834 -9.0097657 -5.82897814 0 0 Z M-40.5625 9.3125 C-41.37976563 9.92738281 -42.19703125 10.54226563 -43.0390625 11.17578125 C-43.66554688 11.77777344 -44.29203125 12.37976563 -44.9375 13 C-44.9375 13.99 -44.9375 14.98 -44.9375 16 C-36.50973389 23.17256691 -26.89292122 25.2129851 -15.9375 25 C-9.14498786 23.94191744 -4.24551269 21.26948846 1.0625 17 C0.29413306 12.79606135 -1.48582597 11.47812494 -4.9375 9 C-5.22882813 9.53109375 -5.52015625 10.0621875 -5.8203125 10.609375 C-8.55295034 15.31844902 -10.82318736 18.68408484 -15.9375 21 C-20.81783581 21.75323511 -24.58775563 21.75923121 -28.9375 19.3125 C-32.45663905 15.24349548 -33.20528775 11.24752114 -33.9375 6 C-36.8984794 6 -38.24082642 7.53255026 -40.5625 9.3125 Z " fill="#000000" transform="translate(362.9375,272)"/>
<path d="M0 0 C2 2 2 2 2.25 4.5 C2 7 2 7 0 9 C-0.99 9 -1.98 9 -3 9 C-3.2784375 9.99 -3.2784375 9.99 -3.5625 11 C-7.63500978 19.49915085 -14.67407032 24.84914378 -23.25 28.3125 C-33.85618559 30.25696736 -43.32080676 29.29005724 -52.51171875 23.38671875 C-57.01874705 20.02693402 -60.56026244 16.42251972 -64 12 C-64.70125 11.34 -65.4025 10.68 -66.125 10 C-68.47182807 7.49671673 -69.75993732 5.19805639 -71 2 C-70.6097561 -2.3902439 -70.6097561 -2.3902439 -69 -4 C-66.125 -4.3125 -66.125 -4.3125 -63 -4 C-61.3046875 -1.98046875 -61.3046875 -1.98046875 -60 0 C-59.43152344 -0.39832031 -58.86304688 -0.79664063 -58.27734375 -1.20703125 C-39.81699218 -13.87348283 -18.30797546 -12.9975485 0 0 Z M-51.6875 5 C-52.89986328 5.8353125 -52.89986328 5.8353125 -54.13671875 6.6875 C-54.75160156 7.120625 -55.36648437 7.55375 -56 8 C-54.10978535 13.67064396 -47.54196562 16.21549118 -42.4375 18.8125 C-34.76662389 21.46243902 -29.30063589 21.53584804 -22 18 C-17.59050446 15.24982683 -13.86878289 12.38703107 -11 8 C-10.91431497 5.84267868 -10.91431497 5.84267868 -12 4 C-14.58152302 2.27898465 -15.84918025 2 -19 2 C-19.5259375 3.85625 -19.5259375 3.85625 -20.0625 5.75 C-21.57963545 9.76720374 -23.24108791 11.54640249 -27.1015625 13.37890625 C-31.27695369 14.74492929 -34.64834997 14.46078978 -38.75 13.0625 C-42.09601821 9.99531664 -42.88828273 6.31129379 -44 2 C-47.63195496 2 -48.74713911 2.95453155 -51.6875 5 Z " fill="#000000" transform="translate(208,287)"/>
<path d="M0 0 C4.54283193 3.44887792 8.24222362 7.51987363 10 13 C11.08155898 21.37296783 9.9739216 28.09376354 5 35 C-0.90553101 41.30313112 -5.56130755 44.14229486 -14.25 44.625 C-15.51328125 44.69976562 -16.7765625 44.77453125 -18.078125 44.8515625 C-19.04234375 44.90054688 -20.0065625 44.94953125 -21 45 C-23.31158258 57.06238429 -23.31158258 57.06238429 -19.79296875 68.12109375 C-16.95787381 70.31098636 -14.07934268 72.17457248 -11 74 C-8.71757826 75.9509497 -7.58942872 77.38879568 -6 80 C-6.1875 83.875 -6.1875 83.875 -7 87 C-11.18139395 88.01807853 -13.17715222 88.4926188 -16.94921875 86.234375 C-17.85285156 85.41453125 -18.75648438 84.5946875 -19.6875 83.75 C-20.59886719 82.94046875 -21.51023437 82.1309375 -22.44921875 81.296875 C-23.71185547 80.15992188 -23.71185547 80.15992188 -25 79 C-26.32021746 77.98274702 -27.64828387 76.97500835 -29 76 C-30.54363101 77.37279438 -32.08479814 78.7483594 -33.625 80.125 C-34.53894531 80.9396875 -35.45289063 81.754375 -36.39453125 82.59375 C-38.49459406 84.5332383 -40.40575925 86.50306278 -42.3125 88.625 C-45 91 -45 91 -47.6875 91.0625 C-50.14709475 89.93241592 -51.53075909 89.28548586 -53 87 C-52.34483315 80.4810898 -47.85934495 75.45408346 -43.015625 71.296875 C-41.82659015 70.36333524 -40.61760974 69.45414141 -39.3828125 68.58203125 C-36.60551079 65.4046098 -36.98912949 61.45260836 -37.0859375 57.421875 C-37.18132812 56.21015625 -37.27671875 54.9984375 -37.375 53.75 C-37.46523438 52.52796875 -37.55546875 51.3059375 -37.6484375 50.046875 C-37.81411046 47.08699319 -37.81411046 47.08699319 -39 45 C-39.66644531 45.02320313 -40.33289063 45.04640625 -41.01953125 45.0703125 C-49.82885003 45.24280266 -59.44110951 45.03926033 -67 40 C-71.53072542 35.50631048 -73.15068886 31.78513674 -73.25 25.4375 C-73.16875356 17.97185517 -71.86855303 11.96770187 -67.875 5.625 C-60.30318141 -1.28839958 -51.37689039 -2.09201148 -41.5625 -2.5 C-7.02897128 -3.94223554 -7.02897128 -3.94223554 0 0 Z " fill="#000000" transform="translate(301,388)"/>
</svg>
