<?xml version="1.0" encoding="UTF-8"?>
<svg version="1.1" xmlns="http://www.w3.org/2000/svg" width="550" height="500">
<path d="M0 0 C1.40295714 1.09641375 2.79895349 2.20179849 4.1875 3.31640625 C4.8170459 3.82099365 5.4465918 4.32558105 6.09521484 4.84545898 C15.57263103 12.75405399 22.27446453 21.49673031 27.8125 32.50390625 C28.4113501 33.67920898 29.0102002 34.85451172 29.62719727 36.06542969 C36.83355057 50.43035698 41.9627905 65.43638281 46.41015625 80.85229492 C49.68554343 92.16856719 54.02199891 102.26712077 59.58251953 112.64404297 C71.49531547 134.89481902 78.19146005 156.11439355 71.06640625 181.25 C68.00526862 190.26176032 63.23264843 195.55561942 54.8125 199.94140625 C46.1023039 204.17619772 36.2196522 204.35433946 27.0625 201.37890625 C15.4465298 196.54733603 6.24849378 186.57478728 -0.1875 175.94140625 C-0.1153125 176.6271875 -0.043125 177.31296875 0.03125 178.01953125 C1.74152243 197.30760361 2.79358788 217.31556481 -3.1875 235.94140625 C-3.42887695 236.69647461 -3.67025391 237.45154297 -3.91894531 238.22949219 C-12.70643686 264.94567718 -23.41440171 284.14421532 -49.04223633 297.57739258 C-67.74690134 306.884467 -87.54075055 310.80554592 -108.0859375 313.65032959 C-110.23230248 313.94761161 -112.3778863 314.25012763 -114.5234375 314.55322266 C-125.73098164 316.12742276 -136.95432249 317.56314032 -148.1875 318.94140625 C-149.56038177 319.11023315 -149.56038177 319.11023315 -150.96099854 319.2824707 C-190.38740621 324.11520494 -190.38740621 324.11520494 -205.3125 324.87890625 C-206.08972412 324.9243457 -206.86694824 324.96978516 -207.66772461 325.01660156 C-222.9981273 325.53588629 -237.65594033 322.17263734 -252.30053711 318.0480957 C-255.11463857 317.2568197 -257.93440393 316.48919759 -260.75585938 315.72460938 C-269.84664695 313.22949412 -278.81984573 310.50864879 -287.68359375 307.29296875 C-288.83830421 306.87843193 -288.83830421 306.87843193 -290.01634216 306.45552063 C-296.64371407 303.97594691 -301.81507469 300.58203941 -307.1875 295.94140625 C-307.98414063 295.29171875 -308.78078125 294.64203125 -309.6015625 293.97265625 C-314.83502432 289.56184562 -319.46387879 284.71242048 -323.1875 278.94140625 C-323.1875 278.28140625 -323.1875 277.62140625 -323.1875 276.94140625 C-323.79464844 276.68488281 -324.40179688 276.42835938 -325.02734375 276.1640625 C-327.43890136 274.79911217 -328.31586923 273.72179315 -329.75 271.37890625 C-330.14316406 270.75886719 -330.53632813 270.13882812 -330.94140625 269.5 C-334.98787849 261.1914128 -336.34024132 252.39044419 -337.6875 243.31640625 C-337.8465834 242.2634285 -337.8465834 242.2634285 -338.00888062 241.18917847 C-339.82933399 229.00047842 -341.05115383 216.78901441 -342 204.50390625 C-342.06316406 203.70563416 -342.12632812 202.90736206 -342.19140625 202.0848999 C-343.07555251 190.68770202 -343.33275535 179.37070879 -343.1875 167.94140625 C-343.9388623 168.78010254 -344.69022461 169.61879883 -345.46435547 170.48291016 C-359.75202033 186.37003833 -376.30472504 202.08088711 -398.57739258 204.16503906 C-413.24394501 204.84934925 -425.87262285 203.58613115 -437.8046875 194.2109375 C-445.86327446 186.53546369 -448.13397323 177.72919577 -448.46850586 166.95996094 C-448.65745176 153.72495974 -445.90539167 141.89996825 -440.1875 129.94140625 C-439.75695312 129.0390625 -439.32640625 128.13671875 -438.8828125 127.20703125 C-432.32038315 114.37877953 -422.68378895 104.07620574 -412.80078125 93.765625 C-410.34005873 91.19414847 -407.97628659 88.56610428 -405.65625 85.8671875 C-402.43194971 82.15039266 -399.00327919 78.76062548 -395.375 75.44140625 C-394.80330078 74.90515625 -394.23160156 74.36890625 -393.64257812 73.81640625 C-389.43642379 69.94140625 -389.43642379 69.94140625 -387.1875 69.94140625 C-387.1875 69.28140625 -387.1875 68.62140625 -387.1875 67.94140625 C-386.5275 67.94140625 -385.8675 67.94140625 -385.1875 67.94140625 C-384.93871094 67.36132812 -384.68992187 66.78125 -384.43359375 66.18359375 C-383.00832932 63.61901137 -381.39776176 62.06269837 -379.25 60.06640625 C-371.20577626 52.19085172 -364.29972741 43.27879044 -358.70703125 33.51171875 C-346.22090929 12.39123481 -327.11544186 -1.32617987 -303.24609375 -7.60546875 C-287.0947397 -11.16060551 -271.96211988 -7.00786537 -256.67797852 -1.77954102 C-254.72978445 -1.11418969 -252.77659952 -0.465427 -250.82226562 0.18164062 C-240.49892539 3.64333896 -240.49892539 3.64333896 -235.83984375 6.2578125 C-228.35630547 10.19414763 -220.35042673 7.49389005 -212.6875 5.31640625 C-210.65157883 4.76364271 -208.61509905 4.21293337 -206.578125 3.6640625 C-205.00514648 3.23697998 -205.00514648 3.23697998 -203.40039062 2.80126953 C-171.38026132 -5.7682514 -137.11933843 -14.62041998 -106.36181641 2.29882812 C-102.92286138 4.18744189 -101.21634169 4.94140625 -97.1875 4.94140625 C-94.39583203 3.19019857 -94.39583203 3.19019857 -91.4375 0.87890625 C-63.43043312 -19.37377405 -28.0307152 -20.99065341 0 0 Z M-32.1875 -3.05859375 C-32.90824419 1.41356489 -33.31650196 5.77226092 -33.47729492 10.29736328 C-34.68342305 43.30172898 -34.68342305 43.30172898 -43.1875 51.94140625 C-43.76371094 52.55757812 -44.33992188 53.17375 -44.93359375 53.80859375 C-54.21961392 62.80502909 -64.84835758 66.21651117 -77.42358398 66.18579102 C-89.27272174 65.99489725 -99.14112244 62.38692686 -109.75390625 57.46484375 C-114.31289687 55.44208341 -117.76750914 54.82271792 -122.74609375 54.765625 C-146.59062585 54.31592626 -170.94522575 53.04564403 -189.0078125 35.5 C-193.08799 30.71054433 -196.13448164 25.42084095 -199.1875 19.94140625 C-199.92821949 18.64108974 -200.67039952 17.3416041 -201.4140625 16.04296875 C-201.99929688 15.01945312 -202.58453125 13.9959375 -203.1875 12.94140625 C-204.41984375 13.23015625 -205.6521875 13.51890625 -206.921875 13.81640625 C-230.22291614 19.12228041 -230.22291614 19.12228041 -236.38085938 15.73486328 C-237.11111328 15.22810059 -237.84136719 14.72133789 -238.59375 14.19921875 C-244.42329507 10.54633354 -250.59026543 8.6243961 -257.1550293 6.75341797 C-259.12311726 6.19194338 -261.08405182 5.60956847 -263.04492188 5.0234375 C-285.20966951 -1.51996525 -301.14797031 -0.05065201 -321.55078125 10.83203125 C-326.57404856 13.65330051 -330.93460314 17.06724603 -335.1875 20.94140625 C-335.83074219 21.48152344 -336.47398437 22.02164063 -337.13671875 22.578125 C-345.22428932 29.82360579 -348.98171408 40.81298117 -352.1875 50.94140625 C-352.51041016 51.95847656 -352.51041016 51.95847656 -352.83984375 52.99609375 C-354.00948961 57.38440013 -354.29929415 61.66089451 -354.47241211 66.17675781 C-355.27574904 86.92854001 -361.36956585 103.69908136 -376.51220703 118.39355469 C-381.44015257 122.94662591 -386.79225914 126.96450191 -392.1875 130.94140625 C-415.50590687 147.83892671 -415.50590687 147.83892671 -428.1875 172.94140625 C-428.82423403 179.30874652 -427.16152912 184.38084366 -424.1875 189.94140625 C-419.89195137 194.57607714 -415.63017244 194.80599157 -409.5234375 195.14453125 C-387.06171325 195.41035047 -373.13033987 186.31500072 -357.33374023 171.16333008 C-353.89144296 167.77730511 -350.73816894 164.3054898 -347.75 160.50390625 C-345.04492286 157.1156825 -342.34422002 154.08870427 -339.125 151.19140625 C-335.16519451 147.35607401 -332.9049934 142.93926448 -330.47290039 138.07446289 C-327.76153599 132.75704885 -324.55560556 127.96316271 -321.0625 123.12890625 C-311.84572823 110.59245638 -311.84572823 110.59245638 -307.1875 95.94140625 C-304.8125 95.31640625 -304.8125 95.31640625 -302.1875 94.94140625 C-300.1875 96.94140625 -300.1875 96.94140625 -299.75 100.62890625 C-300.06946667 113.85482641 -307.17578181 127.48004992 -315.6875 137.19140625 C-321.05559274 143.52647866 -323.59695703 150.1614743 -326.1875 157.94140625 C-326.5278125 158.87082031 -326.868125 159.80023438 -327.21875 160.7578125 C-334.4076705 183.62257354 -328.59180976 213.75563036 -324.8125 236.87890625 C-324.61567627 238.09199463 -324.41885254 239.30508301 -324.21606445 240.55493164 C-321.92331644 256.37161966 -321.92331644 256.37161966 -313.1875 268.94140625 C-311.87598998 270.36082532 -310.58632145 271.80056942 -309.3125 273.25390625 C-308.61640625 274.0325 -307.9203125 274.81109375 -307.203125 275.61328125 C-305.96255567 277.04618691 -304.75562471 278.51011331 -303.609375 280.01953125 C-294.28777886 291.97753842 -279.28184785 295.9492814 -265.32128906 299.87939453 C-262.45073994 300.68767817 -259.58845677 301.52101756 -256.7265625 302.359375 C-252.08583199 303.70831055 -247.4317915 304.99751297 -242.76342773 306.24731445 C-241.12796024 306.68799629 -239.494938 307.13793919 -237.86547852 307.6003418 C-216.90038917 313.51357212 -195.13351615 311.17606389 -173.75 308.87890625 C-172.70087433 308.76980927 -171.65174866 308.66071228 -170.5708313 308.54830933 C-112.43398992 303.92330029 -112.43398992 303.92330029 -57.1875 286.94140625 C-56.56198242 286.65040039 -55.93646484 286.35939453 -55.29199219 286.05957031 C-39.27503086 278.5028911 -30.15536228 269.11363746 -23.1875 252.94140625 C-22.55281636 251.53742881 -21.91740121 250.13378183 -21.28125 248.73046875 C-19.41580797 244.52579068 -17.74053777 240.27084139 -16.1875 235.94140625 C-15.8464624 234.99104492 -15.8464624 234.99104492 -15.49853516 234.02148438 C-5.1535912 203.45579292 -14.37117427 170.42320498 -24.91796875 141.43896484 C-26.80254227 136.24696478 -28.62424843 131.03366794 -30.4375 125.81640625 C-30.75807373 124.8944043 -31.07864746 123.97240234 -31.40893555 123.02246094 C-33.56996262 116.78184729 -35.70043008 110.53207527 -37.75 104.25390625 C-38.01393555 103.46935059 -38.27787109 102.68479492 -38.54980469 101.87646484 C-39.74538928 98.14627408 -40.45425178 95.67291925 -39.1875 91.94140625 C-38.1875 90.94140625 -38.1875 90.94140625 -35.625 90.87890625 C-34.820625 90.89953125 -34.01625 90.92015625 -33.1875 90.94140625 C-32.74019531 91.85921875 -32.29289062 92.77703125 -31.83203125 93.72265625 C-31.22157645 94.96234907 -30.61088661 96.20192616 -30 97.44140625 C-29.70802734 98.04210937 -29.41605469 98.6428125 -29.11523438 99.26171875 C-27.11232733 103.31060612 -24.86368155 107.10952104 -22.43920898 110.91894531 C-20.39933286 114.21489495 -18.60681548 117.63235381 -16.8125 121.06640625 C-16.42602295 121.79996338 -16.0395459 122.53352051 -15.64135742 123.28930664 C-13.19404038 127.95439439 -10.82900049 132.65377221 -8.5 137.37890625 C-6.17752471 142.05559909 -3.72588094 146.55375402 -0.97265625 150.98828125 C0.50674084 153.43559898 1.92114892 155.8991174 3.31640625 158.39453125 C14.20687705 178.59868034 14.20687705 178.59868034 32.8125 190.94140625 C40.45596208 191.64148311 47.36727382 191.44668317 53.8125 186.94140625 C61.06421444 180.31349521 61.63890698 172.35130883 62.0625 163.0234375 C62.11125529 161.20460328 62.15284938 159.38556384 62.1875 157.56640625 C62.21376465 156.71731689 62.2400293 155.86822754 62.26708984 154.9934082 C62.30334357 140.28415598 55.05991362 128.06157967 48.2331543 115.53344727 C43.16089661 106.18096007 39.2020658 97.1160799 36.34890747 86.85940552 C35.48840799 83.78257036 34.5585744 80.72688176 33.63671875 77.66796875 C33.11331909 75.91963745 33.11331909 75.91963745 32.5793457 74.13598633 C23.1763403 43.03864589 10.94827153 17.60946777 -18.1875 0.94140625 C-23.00983872 -1.41280635 -26.78638113 -3.05859375 -32.1875 -3.05859375 Z M-146.1875 3.94140625 C-147.5798579 5.57148379 -148.96486918 7.2085118 -150.30859375 8.87890625 C-152.45237448 11.23216243 -154.77226909 13.02594495 -157.3125 14.94140625 C-161.60254617 18.26231548 -164.00617376 20.98384662 -166.1875 25.94140625 C-166.1875 26.60140625 -166.1875 27.26140625 -166.1875 27.94140625 C-160.9627644 27.34429361 -157.95425464 25.15049206 -154.67700195 21.05273438 C-153.05816421 18.83209541 -151.48981886 16.58400929 -149.9375 14.31640625 C-149.39609375 13.54039063 -148.8546875 12.764375 -148.296875 11.96484375 C-145.54593268 8.07137674 -145.54593268 8.07137674 -143.1875 3.94140625 C-144.1775 3.94140625 -145.1675 3.94140625 -146.1875 3.94140625 Z M-167.4375 9.12890625 C-168.41847656 9.94617188 -169.39945312 10.7634375 -170.41015625 11.60546875 C-171.78494141 12.76175781 -171.78494141 12.76175781 -173.1875 13.94140625 C-174.41629753 14.96268389 -175.64536673 15.983635 -176.875 17.00390625 C-177.638125 17.64328125 -178.40125 18.28265625 -179.1875 18.94140625 C-178.8575 19.60140625 -178.5275 20.26140625 -178.1875 20.94140625 C-171.4319783 16.12071843 -165.27123436 11.57850388 -160.1875 4.94140625 C-163.40999925 4.94140625 -165.01863763 7.10327424 -167.4375 9.12890625 Z M-66.1875 8.94140625 C-68.21894641 9.8758716 -70.22283587 10.87365401 -72.1875 11.94140625 C-71.1975 13.26140625 -70.2075 14.58140625 -69.1875 15.94140625 C-67.5375 13.96140625 -65.8875 11.98140625 -64.1875 9.94140625 C-64.8475 9.61140625 -65.5075 9.28140625 -66.1875 8.94140625 Z M-89.1875 12.94140625 C-91.2218459 14.3566034 -92.09160393 15.49122748 -92.609375 17.921875 C-92.85023952 19.92317579 -93.02282741 21.93240065 -93.1875 23.94140625 C-91.8675 23.94140625 -90.5475 23.94140625 -89.1875 23.94140625 C-88.5275 20.64140625 -87.8675 17.34140625 -87.1875 13.94140625 C-87.8475 13.61140625 -88.5075 13.28140625 -89.1875 12.94140625 Z M-81.1875 14.94140625 C-80.8575 16.59140625 -80.5275 18.24140625 -80.1875 19.94140625 C-79.1975 19.94140625 -78.2075 19.94140625 -77.1875 19.94140625 C-77.1875 17.96140625 -77.1875 15.98140625 -77.1875 13.94140625 C-79.2620356 13.79233505 -79.2620356 13.79233505 -81.1875 14.94140625 Z M-136.1875 14.94140625 C-138.32593195 16.80274561 -140.44739202 18.67887318 -142.5625 20.56640625 C-143.16578125 21.08847656 -143.7690625 21.61054688 -144.390625 22.1484375 C-148.07687354 25.46606118 -150.06128941 27.94103125 -151.1875 32.94140625 C-147.05445956 31.59492792 -144.87956386 29.91548076 -142.0625 26.62890625 C-141.06863281 25.49001953 -141.06863281 25.49001953 -140.0546875 24.328125 C-138.18816894 21.94226132 -136.56995452 19.63854792 -135.1875 16.94140625 C-135.5175 16.28140625 -135.8475 15.62140625 -136.1875 14.94140625 Z M-177.75 29.44140625 C-178.224375 29.93640625 -178.69875 30.43140625 -179.1875 30.94140625 C-176.7125 32.42640625 -176.7125 32.42640625 -174.1875 33.94140625 C-174.5175 31.96140625 -174.8475 29.98140625 -175.1875 27.94140625 C-176.42826302 27.82598428 -176.42826302 27.82598428 -177.75 29.44140625 Z M-132.1875 27.94140625 C-135.09921789 31.61120829 -135.09921789 31.61120829 -136.1875 35.94140625 C-133.12354785 35.26116699 -133.12354785 35.26116699 -131.9375 33.06640625 C-130.89332012 30.80071153 -130.89332012 30.80071153 -132.1875 27.94140625 Z M-168.1875 36.94140625 C-167.39450294 39.11179102 -167.39450294 39.11179102 -165.33984375 39.57421875 C-164.60894531 39.73664063 -163.87804687 39.8990625 -163.125 40.06640625 C-162.39152344 40.23398438 -161.65804688 40.4015625 -160.90234375 40.57421875 C-160.33644531 40.69539063 -159.77054687 40.8165625 -159.1875 40.94140625 C-159.5175 38.96140625 -159.8475 36.98140625 -160.1875 34.94140625 C-162.82326683 34.94140625 -165.67263411 36.2098089 -168.1875 36.94140625 Z M-94.1875 36.94140625 C-95.54368499 38.0667473 -95.54368499 38.0667473 -95.25 41.00390625 C-95.229375 41.97328125 -95.20875 42.94265625 -95.1875 43.94140625 C-93.1250006 42.12918091 -93.1250006 42.12918091 -91.1875 39.94140625 C-91.1875 38.95140625 -91.1875 37.96140625 -91.1875 36.94140625 C-92.1775 36.94140625 -93.1675 36.94140625 -94.1875 36.94140625 Z M-147.75 41.44140625 C-148.224375 41.93640625 -148.69875 42.43140625 -149.1875 42.94140625 C-147.5375 42.94140625 -145.8875 42.94140625 -144.1875 42.94140625 C-144.5175 41.95140625 -144.8475 40.96140625 -145.1875 39.94140625 C-146.42826302 39.82598428 -146.42826302 39.82598428 -147.75 41.44140625 Z M-105.1875 44.94140625 C-105.5175 45.93140625 -105.8475 46.92140625 -106.1875 47.94140625 C-105.1975 47.61140625 -104.2075 47.28140625 -103.1875 46.94140625 C-103.8475 46.28140625 -104.5075 45.62140625 -105.1875 44.94140625 Z M-87.1875 46.94140625 C-87.5175 47.60140625 -87.8475 48.26140625 -88.1875 48.94140625 C-87.1975 48.94140625 -86.2075 48.94140625 -85.1875 48.94140625 C-85.1875 48.28140625 -85.1875 47.62140625 -85.1875 46.94140625 C-85.8475 46.94140625 -86.5075 46.94140625 -87.1875 46.94140625 Z " fill="currentColor" transform="translate(458.1875,108.05859375)"/>
<path d="M0 0 C3.04035523 1.81127546 4.54069457 3.21261926 6.3125 6.25 C7.758152 12.03260801 7.84885506 16.12257023 4.8125 21.25 C2.16186833 25.08287364 -0.80258151 27.90129075 -5 30 C-9.08555854 30.51436888 -13.21847627 30.92098732 -16.95703125 28.98828125 C-19.59384934 26.85188119 -20.92211726 25.23364822 -22 22 C-22.50442239 16.7325072 -22.6716659 12.36820832 -20.3125 7.5625 C-14.11121875 0.69080996 -9.10927732 -2.2447862 0 0 Z " fill="currentColor" transform="translate(217,182)"/>
<path d="M0 0 C4.24157009 2.60278165 6.26794181 5.35079117 8 10 C8.53544952 14.28359614 8.31035287 16.40228336 6.3125 20.25 C3.44149906 23.66416328 1.4025954 25.63961069 -3.109375 26.31640625 C-8.54422541 26.59909142 -11.79128051 25.69546101 -16 22 C-18.60058575 18.57195514 -18.41840674 15.1840674 -18 11 C-16.35450284 6.38582241 -14.42849721 2.42853073 -10 0 C-6.18323682 -1.27225439 -3.91280349 -0.87700768 0 0 Z " fill="currentColor" transform="translate(369,184)"/>
<path d="M0 0 C3.7160297 -0.07590597 7.43135852 -0.12461605 11.14794922 -0.16308594 C12.27700684 -0.1845166 13.40606445 -0.20594727 14.56933594 -0.22802734 C25.73630789 -0.27272834 35.88558817 1.16519398 44.21044922 9.08691406 C49.27951967 14.42998832 51.37303221 19.64510561 51.77294922 26.89941406 C51.5529067 34.89095825 47.84340233 40.72723094 42.33544922 46.33691406 C32.62155798 53.90645845 15.30777141 58.49090627 3.21044922 58.08691406 C11.62341921 69.69428243 26.30281426 78.00464626 40.21044922 81.08691406 C54.07073057 82.05713376 64.66925211 81.05030349 75.71044922 71.77441406 C79.79335801 67.86162647 82.02903115 64.26778197 84.21044922 59.08691406 C86.21044922 57.08691406 86.21044922 57.08691406 88.71044922 56.83691406 C91.21044922 57.08691406 91.21044922 57.08691406 93.21044922 59.08691406 C94.21015671 65.08515899 92.22592844 68.67439156 88.95654297 73.67285156 C81.9390335 83.37491164 70.9606048 90.52019511 59.21044922 93.08691406 C56.56749265 93.21710897 53.91869625 93.25874144 51.27294922 93.21191406 C50.58910156 93.20289063 49.90525391 93.19386719 49.20068359 93.18457031 C47.53711635 93.16130364 45.87373291 93.12544573 44.21044922 93.08691406 C44.18466797 94.01890625 44.15888672 94.95089844 44.13232422 95.91113281 C43.33306903 113.87620957 37.69220641 128.70731512 24.21044922 141.08691406 C14.65158341 148.63773886 3.30076551 155.0256958 -9.22705078 154.40332031 C-23.21602182 152.67602358 -33.77129212 146.96091548 -42.78955078 136.08691406 C-55.78955078 117.78366497 -55.78955078 117.78366497 -55.78955078 108.08691406 C-56.77955078 108.58191406 -57.76955078 109.07691406 -58.78955078 109.58691406 C-66.7769358 112.5573117 -77.30515215 112.39187611 -85.28955078 109.52441406 C-92.80198578 105.93864677 -98.57500518 100.19895977 -102.78955078 93.08691406 C-103.22705078 90.27441406 -103.22705078 90.27441406 -102.78955078 88.08691406 C-101.79955078 87.09691406 -101.79955078 87.09691406 -100.78955078 86.08691406 C-98.47705078 86.08691406 -98.47705078 86.08691406 -95.78955078 87.08691406 C-94.52446026 88.51419567 -93.26491911 89.95018523 -92.10205078 91.46191406 C-88.52813302 95.88676462 -84.42275971 98.93940854 -78.78955078 100.08691406 C-67.0339784 101.19432305 -58.92469371 98.3223041 -49.89501953 90.86816406 C-49.20021484 90.28035156 -48.50541016 89.69253906 -47.78955078 89.08691406 C-46.97744141 88.4771875 -46.16533203 87.86746094 -45.32861328 87.23925781 C-36.61967989 79.85676197 -30.50703911 68.84497375 -24.78955078 59.08691406 C-26.09408203 59.12171875 -27.39861328 59.15652344 -28.74267578 59.19238281 C-43.11263226 59.46624044 -55.59550763 59.2968655 -66.78955078 49.08691406 C-70.96461631 44.45009014 -72.60529487 39.73853115 -72.91845703 33.53222656 C-72.53548768 26.26741399 -68.70193847 20.26989937 -63.78955078 15.08691406 C-50.9537254 3.87882016 -34.91333336 0.92341847 -18.41455078 0.46191406 C-16.67516235 0.40825684 -16.67516235 0.40825684 -14.90063477 0.35351562 C-9.93420424 0.21355046 -4.9670714 0.11392072 0 0 Z M19.21044922 31.08691406 C15.11533394 35.93559822 15.11533394 35.93559822 13.89794922 42.02441406 C14.00107422 43.03503906 14.10419922 44.04566406 14.21044922 45.08691406 C15.20044922 45.08691406 16.19044922 45.08691406 17.21044922 45.08691406 C20.43030966 39.70471089 20.43030966 39.70471089 20.96044922 33.58691406 C20.58919922 32.34941406 20.58919922 32.34941406 20.21044922 31.08691406 C19.88044922 31.08691406 19.55044922 31.08691406 19.21044922 31.08691406 Z M-36.49267578 33.17285156 C-38.37984621 35.95813323 -38.34754457 38.38134475 -38.53955078 41.71191406 C-38.61689453 42.87980469 -38.69423828 44.04769531 -38.77392578 45.25097656 C-38.77908203 46.18683594 -38.78423828 47.12269531 -38.78955078 48.08691406 C-37.72976145 49.37304082 -37.72976145 49.37304082 -35.28564453 49.18457031 C-34.27630859 49.17296875 -33.26697266 49.16136719 -32.22705078 49.14941406 C-31.21513672 49.14039063 -30.20322266 49.13136719 -29.16064453 49.12207031 C-28.37818359 49.11046875 -27.59572266 49.09886719 -26.78955078 49.08691406 C-26.87727533 47.1902488 -26.98546379 45.29452414 -27.10205078 43.39941406 C-27.16005859 42.34367187 -27.21806641 41.28792969 -27.27783203 40.20019531 C-27.83930371 36.78421878 -28.61037805 34.77472666 -30.78955078 32.08691406 C-34.56407437 31.72849667 -34.56407437 31.72849667 -36.49267578 33.17285156 Z M-18.78955078 39.08691406 C-17.78955078 41.08691406 -17.78955078 41.08691406 -17.78955078 41.08691406 Z M-48.78955078 46.08691406 C-48.78955078 46.74691406 -48.78955078 47.40691406 -48.78955078 48.08691406 C-48.12955078 48.08691406 -47.46955078 48.08691406 -46.78955078 48.08691406 C-46.78955078 47.42691406 -46.78955078 46.76691406 -46.78955078 46.08691406 C-47.44955078 46.08691406 -48.10955078 46.08691406 -48.78955078 46.08691406 Z M-11.78955078 59.08691406 C-13.20717999 60.45503606 -13.20717999 60.45503606 -14.27001953 62.38378906 C-14.70693115 63.08930908 -15.14384277 63.7948291 -15.59399414 64.52172852 C-16.05040283 65.28573975 -16.50681152 66.04975098 -16.97705078 66.83691406 C-17.95839224 68.41042462 -18.9427913 69.98203223 -19.93017578 71.55175781 C-20.41550781 72.3276123 -20.90083984 73.1034668 -21.40087891 73.90283203 C-28.34775975 84.82878071 -37.12618958 95.56430533 -47.78955078 103.08691406 C-47.31260124 108.9087267 -45.64237103 112.99635966 -42.72705078 118.02441406 C-42.32147949 118.72880615 -41.9159082 119.43319824 -41.49804688 120.15893555 C-35.47676757 130.29972841 -26.33365167 139.0385224 -14.78955078 142.58691406 C-4.91632551 144.35645342 3.09761979 141.69086272 11.21044922 136.08691406 C21.33983175 128.15320693 30.00904223 118.36520739 32.77685547 105.44238281 C33.41716632 100.16589721 33.08208935 95.31675484 32.21044922 90.08691406 C31.38802734 89.79558594 30.56560547 89.50425781 29.71826172 89.20410156 C14.00295607 83.43335422 2.65886448 76.03936591 -5.96533203 61.43066406 C-6.56732422 60.65722656 -7.16931641 59.88378906 -7.78955078 59.08691406 C-9.10955078 59.08691406 -10.42955078 59.08691406 -11.78955078 59.08691406 Z " fill="currentColor" transform="translate(289.78955078125,219.9130859375)"/>
<path d="M0 0 C1 1 1 1 1.01953125 2.9609375 C0.46620532 9.41292663 0.46620532 9.41292663 -1.6875 12.125 C-4.85602553 13.32390155 -6.78673186 12.97795117 -10 12 C-12 9 -12 9 -11.75 6 C-11 3 -11 3 -9 0 C-5.50340123 -1.16553292 -3.55568859 -0.77297578 0 0 Z " fill="currentColor" transform="translate(361,256)"/>
<path d="M0 0 C3 -0.3125 3 -0.3125 6 0 C8 2 8 2 8.375 4.4375 C8 7 8 7 6.3125 8.9375 C4 10 4 10 1.3125 9.5 C-1 8 -1 8 -1.9375 5.5625 C-2 3 -2 3 0 0 Z " fill="currentColor" transform="translate(373,258)"/>
<path d="M0 0 C2.83268842 2.36057369 2.98743809 3.88066188 3.375 7.5625 C3 11 3 11 1.8125 12.875 C-0.63483251 14.39403397 -2.08811916 15 -5 15 C-7.875 13 -7.875 13 -10 10 C-10 6.43116591 -9.68455497 4.11690548 -7.8125 1.0625 C-5.05704321 -0.55276777 -3.12326414 -0.45547602 0 0 Z " fill="currentColor" transform="translate(200,273)"/>
<path d="M0 0 C2.3125 1.25 2.3125 1.25 3.3125 2.25 C3.77235401 8.4580292 3.77235401 8.4580292 2.1875 11.1875 C-0.60912472 12.77225401 -2.5368196 12.70947423 -5.6875 12.25 C-7.6875 10.625 -7.6875 10.625 -8.6875 8.25 C-8.05706966 4.81765702 -7.22010483 2.83770188 -4.875 0.25 C-2.6875 -0.75 -2.6875 -0.75 0 0 Z " fill="currentColor" transform="translate(328.6875,277.75)"/>
<path d="M0 0 C3.17503023 1.50396169 4.05278075 2.89290851 5.375 6.125 C5.19148295 9.88709962 4.14664507 12.54450287 1.375 15.125 C-1.6875 15.5 -1.6875 15.5 -4.625 15.125 C-7.08386984 12.66613016 -7.43065072 10.58010358 -7.78515625 7.171875 C-7.625 5.125 -7.625 5.125 -5.5 2.0625 C-2.625 0.125 -2.625 0.125 0 0 Z " fill="currentColor" transform="translate(352.625,278.875)"/>
<path d="M0 0 C3.375 0.9375 3.375 0.9375 5.375 2.9375 C5.76731652 5.91910554 5.59780384 7.51534535 4.1875 10.1875 C1.90068939 12.39545507 0.53336434 12.78343345 -2.625 12.9375 C-4.875 12.375 -4.875 12.375 -6.625 10.9375 C-7.625 8.125 -7.625 8.125 -7.625 4.9375 C-5.52118673 0.81753234 -4.70457599 -0.08111338 0 0 Z " fill="currentColor" transform="translate(237.625,285.0625)"/>
<path d="M0 0 C1.0725 0.268125 2.145 0.53625 3.25 0.8125 C5.39373717 6.05274641 5.39373717 6.05274641 4.8125 9.125 C3.25 10.8125 3.25 10.8125 -0.1875 11.6875 C-3.75 11.8125 -3.75 11.8125 -6.75 9.8125 C-7.6875 7.5 -7.6875 7.5 -7.75 4.8125 C-5.57163067 0.63729212 -4.80426235 -0.24021312 0 0 Z " fill="currentColor" transform="translate(185.75,288.1875)"/>
<path d="M0 0 C2 2 2 2 2.4375 4.875 C2 8 2 8 -0.5 10.375 C-1.325 10.91125 -2.15 11.4475 -3 12 C-7.875 10.125 -7.875 10.125 -9 9 C-9.3125 5.625 -9.3125 5.625 -9 2 C-6.17266771 -1.35091234 -4.03066587 -1.37891201 0 0 Z " fill="currentColor" transform="translate(220,295)"/>
</svg>
