<?xml version="1.0" encoding="UTF-8"?>
<svg version="1.1" xmlns="http://www.w3.org/2000/svg" width="550" height="500">
<path d="M0 0 C12.88862525 10.91765107 18.09943148 26.70540481 19.890625 43.08203125 C22.00473959 70.09947014 16.73476674 94.33329195 7.93505859 119.72338867 C6.17579111 124.83370336 4.60873341 129.8682974 3.55761719 135.17407227 C3.16796875 137.08203125 3.16796875 137.08203125 2.3515625 139.6953125 C2.07201349 143.32944968 3.67411485 146.0867954 5.23046875 149.26953125 C11.90323887 163.77423851 16.22103629 178.22409653 18.16796875 194.08203125 C18.26150635 194.82114746 18.35504395 195.56026367 18.45141602 196.32177734 C20.44717895 213.81479218 21.268765 233.3692866 15.16796875 250.08203125 C14.70148926 251.38889893 14.70148926 251.38889893 14.22558594 252.72216797 C12.84097727 256.58769728 11.45181083 260.44943811 9.98632812 264.28515625 C4.65365548 278.32066845 4.10532601 291.89499867 3.92944336 306.76342773 C3.36889222 352.07371488 -5.32492806 396.44659158 -38.31298828 429.60205078 C-58.34248476 449.11648467 -83.14198503 460.69851436 -109.83203125 468.08203125 C-111.04890625 468.41976563 -112.26578125 468.7575 -113.51953125 469.10546875 C-152.26534532 478.51250534 -196.63880796 474.52767266 -231.16796875 454.109375 C-259.65162438 435.69384957 -278.04473403 409.78100518 -289.26953125 378.26953125 C-292.19912555 370.54605537 -296.80055164 364.53523879 -302.21875 358.36328125 C-309.58101377 349.94926551 -314.76981433 341.01402386 -319.83203125 331.08203125 C-320.23341309 330.29844238 -320.63479492 329.51485352 -321.04833984 328.70751953 C-326.73507592 317.48424562 -331.33687193 306.16822212 -334.83203125 294.08203125 C-335.14744873 293.05021729 -335.14744873 293.05021729 -335.46923828 291.99755859 C-341.88048542 270.58104896 -339.64638349 248.51343276 -334.87939453 227.03442383 C-334.60466309 225.79200928 -334.32993164 224.54959473 -334.046875 223.26953125 C-333.790271 222.16996094 -333.53366699 221.07039062 -333.26928711 219.9375 C-332.84429277 217.16210423 -332.8151294 215.66430451 -333.83203125 213.08203125 C-335.15177083 211.40457991 -336.48620463 209.73862603 -337.83203125 208.08203125 C-344.95294448 194.9093504 -346.29164457 179.78709908 -346.83203125 165.08203125 C-346.88488281 164.08945313 -346.93773437 163.096875 -346.9921875 162.07421875 C-347.2941593 152.4373797 -345.36443831 143.06181103 -343.30615234 133.68676758 C-339.06458777 113.93203756 -342.68873283 95.23988528 -346.98583984 75.85131836 C-349.99424761 62.06203599 -352.93957453 48.42989643 -345.46484375 35.56640625 C-344.92601562 34.7465625 -344.3871875 33.92671875 -343.83203125 33.08203125 C-343.43757813 32.4684375 -343.043125 31.85484375 -342.63671875 31.22265625 C-338.03578741 24.98083331 -330.40717721 20.32385846 -322.83203125 19.08203125 C-311.23165342 18.28450527 -299.52567964 19.00605465 -289.9387207 26.22729492 C-283.58378621 31.82220016 -280.77543225 39.22086355 -278.45703125 47.14453125 C-273.0610141 64.35041252 -264.87816362 79.4137979 -253.03125 93.03369141 C-245.0035334 102.39292831 -239.03531626 112.94087982 -233.83203125 124.08203125 C-230.5770615 122.62392263 -228.15908463 120.77175957 -225.45703125 118.45703125 C-201.06018107 98.81189317 -170.58458079 91.84670321 -139.83203125 94.08203125 C-133.64870323 94.79459571 -127.75092597 96.17765314 -121.83203125 98.08203125 C-121.17847656 98.29102051 -120.52492188 98.50000977 -119.8515625 98.71533203 C-109.83560915 102.05148416 -101.48559548 107.12525988 -92.83203125 113.08203125 C-90.83579732 114.4210989 -88.83393555 115.75144223 -86.83203125 117.08203125 C-86.71593506 116.20313232 -86.59983887 115.3242334 -86.48022461 114.41870117 C-85.84399487 111.14361571 -84.91058759 108.68587199 -83.4609375 105.6953125 C-82.97367187 104.683479 -82.48640625 103.67164551 -81.984375 102.62915039 C-81.19740234 101.02801392 -81.19740234 101.02801392 -80.39453125 99.39453125 C-79.85828125 98.28907959 -79.32203125 97.18362793 -78.76953125 96.04467773 C-75.41596327 89.17551211 -71.93013801 82.38824315 -68.33203125 75.64453125 C-62.09522426 63.86564713 -59.04751599 53.76280606 -57.18652344 40.58544922 C-52.42844207 6.98395724 -52.42844207 6.98395724 -42.20703125 -1.22265625 C-30.04482662 -8.93664715 -11.68437837 -7.91314452 0 0 Z M-36.83203125 9.08203125 C-43.88890802 19.93674301 -44.9864444 32.54523112 -46.26953125 45.14453125 C-48.08588657 62.32056331 -53.78453808 75.48891381 -61.62597656 90.71630859 C-68.37791053 103.96048676 -74.34532087 117.67790762 -78.6796875 131.91015625 C-80.22426976 134.82130112 -81.85348892 135.74882143 -84.83203125 137.08203125 C-88.51953125 136.51953125 -88.51953125 136.51953125 -91.83203125 135.08203125 C-92.51232573 133.75559933 -93.17690811 132.42107415 -93.83203125 131.08203125 C-106.62773782 117.29223592 -127.50237529 107.34953166 -146.4206543 105.88110352 C-149.22822956 105.77818174 -152.02263999 105.75294689 -154.83203125 105.76953125 C-155.84023926 105.7751709 -156.84844727 105.78081055 -157.88720703 105.78662109 C-183.28194131 106.19354925 -207.94512646 114.85961987 -226.83203125 132.08203125 C-227.42113281 132.52546875 -228.01023437 132.96890625 -228.6171875 133.42578125 C-230.5609825 136.0758426 -230.11497697 138.55619203 -230.01953125 141.76953125 C-229.99246094 142.94902344 -229.96539062 144.12851563 -229.9375 145.34375 C-229.88529297 146.69919922 -229.88529297 146.69919922 -229.83203125 148.08203125 C-233.13203125 148.08203125 -236.43203125 148.08203125 -239.83203125 148.08203125 C-240.05117187 147.08945313 -240.2703125 146.096875 -240.49609375 145.07421875 C-244.57132304 127.30621905 -251.99638071 114.10308353 -263.0859375 99.9140625 C-275.94381269 83.43454001 -285.61056281 66.25492377 -290.45703125 45.70703125 C-291.69830753 40.72611369 -293.91644902 37.40032127 -297.83203125 34.08203125 C-305.6647362 29.38240828 -313.91858595 29.26488716 -322.83203125 30.08203125 C-328.78365732 32.11451611 -333.39272876 36.91212432 -336.83203125 42.08203125 C-341.66003298 52.76653113 -337.71480945 64.55809965 -335.41049194 75.48895264 C-330.56229683 98.79353981 -329.40706987 118.30186997 -334.03613281 141.77783203 C-337.79860471 161.37698918 -338.91147957 188.85567331 -327.33203125 206.20703125 C-325.16832383 208.69529478 -323.91447738 210.05454921 -320.83203125 211.08203125 C-320.38094542 218.39338079 -321.92514666 225.21249436 -323.39797974 232.33322144 C-327.19977102 250.93534904 -328.24834463 267.47364675 -323.83203125 286.08203125 C-323.65462402 286.83645508 -323.4772168 287.59087891 -323.29443359 288.36816406 C-317.36037407 312.55738379 -305.54277442 335.36875658 -289.14599609 354.04785156 C-282.42138806 361.74857747 -277.81074745 369.63498669 -274.16601562 379.17675781 C-261.8364445 411.26276771 -240.10919706 433.86147562 -209.39453125 448.83203125 C-202.7560133 451.71162128 -195.88077107 453.54032663 -188.83203125 455.08203125 C-188.14173828 455.23446289 -187.45144531 455.38689453 -186.74023438 455.54394531 C-155.68980799 462.09651934 -124.46806927 457.3543815 -94.83203125 447.08203125 C-93.08019531 446.48261719 -93.08019531 446.48261719 -91.29296875 445.87109375 C-63.39075288 435.26674756 -39.30883621 412.27616609 -26.74609375 385.5078125 C-17.66672226 365.13695409 -13.00246543 343.35184513 -12.40234375 321.12890625 C-12.32868123 318.79425322 -12.25444444 316.45961825 -12.1796875 314.125 C-12.06649389 310.48075387 -11.95715426 306.83654881 -11.85791016 303.19189453 C-11.75957949 299.64959218 -11.64465874 296.1081243 -11.52734375 292.56640625 C-11.5022171 291.49412781 -11.47709045 290.42184937 -11.45120239 289.31707764 C-11.11659553 279.85727281 -9.22764934 270.97937688 -5.67578125 262.1875 C-5.29292969 261.21103516 -4.91007812 260.23457031 -4.515625 259.22851562 C-3.73060178 257.26595759 -2.94157765 255.30499489 -2.1484375 253.34570312 C3.13065083 239.82803756 4.73063447 226.63185138 4.60546875 212.26953125 C4.60209503 211.51223724 4.59872131 210.75494324 4.59524536 209.97470093 C4.44053532 185.80481678 0.32705027 162.30962702 -8.5078125 139.73046875 C-12.44671445 128.87815481 -8.60724151 119.65980738 -4.78125 109.39453125 C-0.29664869 97.35866904 3.73579105 84.88535478 5.16796875 72.08203125 C5.25191895 71.3866626 5.33586914 70.69129395 5.42236328 69.97485352 C7.43199283 52.09849763 9.21299737 30.90503767 -1.1015625 15.2421875 C-5.81081427 9.36359556 -11.34690715 5.95940843 -18.83203125 5.08203125 C-25.35538193 4.41510722 -31.66779697 4.58305859 -36.83203125 9.08203125 Z " fill="#000000" transform="translate(434.83203125,15.91796875)"/>
<path d="M0 0 C8.58501409 7.48905484 9.36367453 17.34580762 10.12109375 28.19140625 C10.46047611 40.30935271 7.58954636 51.83775735 3.625 63.1875 C3.24666016 64.3115625 2.86832031 65.435625 2.47851562 66.59375 C0.2284722 73.18778588 -2.2659206 79.62401877 -5.03588867 86.01708984 C-7.09294639 91.11741891 -7.25327581 95.78539839 -7.25 101.25 C-7.25209473 102.08926025 -7.25418945 102.92852051 -7.25634766 103.79321289 C-7.21701817 109.44762322 -6.73358381 114.90696814 -5.9375 120.5 C-4.62901319 130.10221203 -4.96286913 138.87015565 -10.703125 147.0078125 C-14.07562545 150.86486762 -18.15243175 152.32728772 -23.140625 152.73046875 C-33.92592902 152.82745889 -41.35868352 149.80384488 -49.375 142.4375 C-50.2103125 141.509375 -50.2103125 141.509375 -51.0625 140.5625 C-51.71347656 139.964375 -52.36445313 139.36625 -53.03515625 138.75 C-59.95703073 131.28131077 -60.80189822 118.47327303 -61.16796875 108.765625 C-60.82625391 100.61509335 -57.06701666 95.35739922 -51.20703125 89.90625 C-50.16074167 88.97703699 -49.11252236 88.04999284 -48.0625 87.125 C-33.7387851 74.39548545 -32.3935777 58.04977973 -30.2019043 39.96142578 C-28.37938783 25.4274953 -25.70987176 10.58026848 -13.9296875 0.83984375 C-9.35778574 -2.28779616 -4.91099576 -2.30516127 0 0 Z M-22.0625 49.5625 C-22.0625 51.2125 -22.0625 52.8625 -22.0625 54.5625 C-21.7325 54.5625 -21.4025 54.5625 -21.0625 54.5625 C-21.0625 52.9125 -21.0625 51.2625 -21.0625 49.5625 C-21.3925 49.5625 -21.7225 49.5625 -22.0625 49.5625 Z M-4.0625 50.5625 C-4.3925 52.8725 -4.7225 55.1825 -5.0625 57.5625 C-2.75578085 54.84700846 -2.75578085 54.84700846 -3.4375 52.375 C-3.64375 51.776875 -3.85 51.17875 -4.0625 50.5625 Z M-23.0625 54.5625 C-23.3925 57.2025 -23.7225 59.8425 -24.0625 62.5625 C-23.4025 62.5625 -22.7425 62.5625 -22.0625 62.5625 C-22.0625 59.9225 -22.0625 57.2825 -22.0625 54.5625 C-22.3925 54.5625 -22.7225 54.5625 -23.0625 54.5625 Z M-15.0625 80.5625 C-14.0625 83.5625 -14.0625 83.5625 -14.0625 83.5625 Z M-52.0625 105.5625 C-52.0625 109.5225 -52.0625 113.4825 -52.0625 117.5625 C-49.95435433 113.34620866 -49.88549645 111.16459225 -50.0625 106.5625 C-50.7225 106.2325 -51.3825 105.9025 -52.0625 105.5625 Z " fill="#000000" transform="translate(426.0625,38.4375)"/>
<path d="M0 0 C7.47236424 1.26889204 12.1867476 7.21050968 16.671875 12.92578125 C21.00640758 19.89199432 23.07575594 27.03051141 24.75 35 C27.98512366 49.06797845 33.02193329 56.64193816 42.93359375 66.96484375 C53.86861058 78.45035117 62.99615903 94.09910992 62.68359375 110.2421875 C61.78402655 118.29094664 57.80579863 123.88049847 51.60546875 128.859375 C48.15250193 131.42409993 44.67446792 133.95199535 41.18359375 136.46484375 C31.399929 143.61290901 23.20015411 150.82618956 17.3125 161.5625 C12.47227739 161.10152642 8.80463745 159.97684231 5.3125 156.5625 C-11.90468839 134.67312587 -6.46068217 101.52493855 -3.75488281 75.56689453 C-2.75318867 65.91517892 -2.11022436 57.31517211 -4 47.75 C-4.13317627 47.05841797 -4.26635254 46.36683594 -4.40356445 45.65429688 C-5.21185362 41.5593439 -6.22491854 37.57683195 -7.375 33.5625 C-9.86275144 23.92739919 -10.42919728 12.5190393 -5.6875 3.5625 C-3.70617367 1.26889941 -3.04289837 0.63688571 0 0 Z M6.3125 65.5625 C6.3125 69.8525 6.3125 74.1425 6.3125 78.5625 C6.6425 78.5625 6.9725 78.5625 7.3125 78.5625 C7.3125 74.2725 7.3125 69.9825 7.3125 65.5625 C6.9825 65.5625 6.6525 65.5625 6.3125 65.5625 Z M5.3125 78.5625 C5.3125 81.8625 5.3125 85.1625 5.3125 88.5625 C7.87937367 84.7121895 7.14538724 82.97680237 6.3125 78.5625 C5.9825 78.5625 5.6525 78.5625 5.3125 78.5625 Z M30.3125 84.5625 C30.6425 85.5525 30.9725 86.5425 31.3125 87.5625 C31.9725 86.9025 32.6325 86.2425 33.3125 85.5625 C32.3225 85.2325 31.3325 84.9025 30.3125 84.5625 Z M12.3125 101.5625 C11.9825 104.2025 11.6525 106.8425 11.3125 109.5625 C11.9725 109.5625 12.6325 109.5625 13.3125 109.5625 C13.3125 106.9225 13.3125 104.2825 13.3125 101.5625 C12.9825 101.5625 12.6525 101.5625 12.3125 101.5625 Z M53.3125 104.5625 C53.3125 106.5425 53.3125 108.5225 53.3125 110.5625 C53.6425 110.5625 53.9725 110.5625 54.3125 110.5625 C54.3125 108.5825 54.3125 106.6025 54.3125 104.5625 C53.9825 104.5625 53.6525 104.5625 53.3125 104.5625 Z M6.3125 138.5625 C7.37125074 141.96562738 8.32152154 144.57603231 10.3125 147.5625 C10.9725 147.5625 11.6325 147.5625 12.3125 147.5625 C12.6425 145.9125 12.9725 144.2625 13.3125 142.5625 C10.21922105 139.58574541 10.21922105 139.58574541 6.3125 138.5625 Z " fill="#000000" transform="translate(118.6875,59.4375)"/>
<path d="M0 0 C4.09210906 3.0215573 5.39840374 6.14561576 6.16015625 11.0546875 C6.08671023 15.3880029 5.9422112 17.27263255 2.84765625 20.3671875 C-2.84344425 23.94066921 -7.09041698 24.95169397 -13.83984375 24.0546875 C-17.34236386 22.01155077 -19.61346077 19.95681517 -20.83984375 16.0546875 C-21.51837169 10.17411202 -20.26359863 5.80101436 -16.83984375 1.0546875 C-11.74405242 -2.85603608 -5.66960128 -2.91304354 0 0 Z " fill="#000000" transform="translate(373.83984375,272.9453125)"/>
<path d="M0 0 C3.09933894 2.59479539 5.37530127 4.54556367 6.12109375 8.6171875 C6.12996991 14.31568474 5.66503588 17.83051568 1.6875 22.25 C-2.53747184 24.82749854 -6.49267095 24.79320077 -11.3125 24.25 C-14.8303347 22.87345599 -16.01532619 21.69063702 -18.125 18.5625 C-19.78853031 13.92212598 -20.31392458 9.87424596 -18.55078125 5.25390625 C-17.217273 2.71865934 -15.78336709 0.63678368 -13.5625 -1.1875 C-8.33184038 -2.49516491 -4.7098314 -2.48821282 0 0 Z " fill="#000000" transform="translate(204.3125,285.75)"/>
<path d="M0 0 C2.79936684 -0.07442369 5.59788939 -0.12387797 8.39794922 -0.16308594 C9.22987793 -0.1845166 10.06180664 -0.20594727 10.91894531 -0.22802734 C16.65865961 -0.2593919 21.71697571 0.66932751 26.96044922 3.08691406 C29.2025749 5.32903975 29.44176062 6.32784374 30.14404297 9.34863281 C30.34755371 10.21238525 30.55106445 11.0761377 30.76074219 11.96606445 C30.97102051 12.89281982 31.18129883 13.8195752 31.39794922 14.77441406 C31.73270264 16.20418579 31.73270264 16.20418579 32.07421875 17.6628418 C33.30358135 22.97413526 34.38178785 28.28284761 35.33544922 33.64941406 C39.68889283 55.72759238 50.33305515 89.334646 66.96044922 105.08691406 C69.6315302 106.04238987 69.6315302 106.04238987 71.96044922 106.08691406 C76.42986218 101.45787921 77.89768333 96.02444412 79.96044922 90.08691406 C83.04428445 81.52209233 83.04428445 81.52209233 86.46044922 79.89941406 C90.78693324 80.22390036 90.78693324 80.22390036 92.96044922 82.08691406 C94.47113751 88.08342168 93.43874591 92.31185103 91.46044922 97.96191406 C91.1878125 98.75549316 90.91517578 99.54907227 90.63427734 100.36669922 C87.87317078 107.98478632 84.11890231 113.20921236 78.14794922 118.64941406 C73.59148989 120.70428788 69.86948843 121.02409427 64.96044922 120.08691406 C52.89921509 115.2705152 46.02652606 101.71470614 41.08154297 90.39941406 C38.28369534 83.61251601 35.92546442 76.66663766 33.58544922 69.71191406 C33.36817169 69.07038391 33.15089417 68.42885376 32.92703247 67.7678833 C30.29514594 59.94339634 28.14840043 52.26331002 26.96044922 44.08691406 C25.94982422 44.54066406 24.93919922 44.99441406 23.89794922 45.46191406 C17.54153393 47.88723708 10.67854657 48.34337464 3.96044922 49.08691406 C3.90610122 51.14911887 3.86749961 53.21174222 3.83544922 55.27441406 C3.81224609 56.42296875 3.78904297 57.57152344 3.76513672 58.75488281 C4.16103458 65.50890031 7.40385348 69.41967251 11.96044922 74.08691406 C13.26058473 75.22618088 14.57354273 76.35095561 15.89794922 77.46191406 C21.27334373 82.08123189 26.37653165 86.79574228 27.64794922 93.96191406 C26.96044922 97.08691406 26.96044922 97.08691406 25.33544922 99.02441406 C22.10244214 100.47075933 20.50394762 100.64357149 16.96044922 100.08691406 C14.07565573 97.95578815 11.70788923 95.39721295 9.27294922 92.77441406 C8.27811523 91.73897461 8.27811523 91.73897461 7.26318359 90.68261719 C6.02935021 89.3965975 4.80179425 88.10450332 3.58276367 86.80444336 C2.06937525 85.20223305 0.5267689 83.63722366 -1.03955078 82.08691406 C-2.76927543 84.44067247 -4.4983427 86.79490921 -6.22705078 89.14941406 C-6.70980469 89.80619141 -7.19255859 90.46296875 -7.68994141 91.13964844 C-8.17011719 91.79384766 -8.65029297 92.44804687 -9.14501953 93.12207031 C-9.6283374 93.77731689 -10.11165527 94.43256348 -10.60961914 95.10766602 C-11.56021076 96.42343284 -12.48850513 97.75560909 -13.39331055 99.10327148 C-16.67742694 103.96620611 -16.67742694 103.96620611 -20.60205078 105.27441406 C-24.03955078 105.08691406 -24.03955078 105.08691406 -26.53955078 103.58691406 C-28.67432907 100.02895024 -27.93707173 98.08836164 -27.03955078 94.08691406 C-25.78190101 91.69794095 -24.55034896 89.60701775 -23.03955078 87.39941406 C-22.64453369 86.79057373 -22.2495166 86.1817334 -21.8425293 85.55444336 C-19.86160596 82.55274807 -17.84627216 79.87067452 -15.44189453 77.18066406 C-8.41119932 69.24745488 -8.12082967 62.99062896 -8.72314453 52.82128906 C-8.87976563 50.97277344 -8.87976563 50.97277344 -9.03955078 49.08691406 C-10.66763672 49.13912109 -10.66763672 49.13912109 -12.32861328 49.19238281 C-13.7739102 49.22053795 -15.21922399 49.24783625 -16.66455078 49.27441406 C-17.37740234 49.29955078 -18.09025391 49.3246875 -18.82470703 49.35058594 C-23.66231494 49.41715852 -26.78693416 48.64250859 -31.03955078 46.08691406 C-31.15169922 47.27800781 -31.26384766 48.46910156 -31.37939453 49.69628906 C-33.34581195 67.24699199 -37.43665032 84.75641915 -42.10205078 101.77441406 C-42.41795166 102.93553711 -42.73385254 104.09666016 -43.05932617 105.29296875 C-49.4519457 127.88906894 -49.4519457 127.88906894 -59.03955078 134.08691406 C-64.8057443 136.00897857 -71.07053577 136.18561736 -76.80517578 134.06347656 C-87.15811654 128.31537142 -92.44057393 119.10692169 -96.03955078 108.08691406 C-97.23024232 102.63515224 -97.23024232 102.63515224 -96.03955078 99.21191406 C-94.03955078 97.08691406 -94.03955078 97.08691406 -90.53955078 96.52441406 C-87.03955078 97.08691406 -87.03955078 97.08691406 -85.43408203 98.75878906 C-83.83814448 101.4231554 -83.06693877 103.91186728 -82.22705078 106.89941406 C-80.27523492 113.02407763 -77.74044716 117.9431463 -72.04345703 121.24316406 C-69.19688969 122.44171873 -67.09071289 122.47642412 -64.03955078 122.08691406 C-60.80387405 118.8012011 -59.67406652 114.64387297 -58.35205078 110.33691406 C-58.09858887 109.52037354 -57.84512695 108.70383301 -57.58398438 107.86254883 C-51.78180622 88.66175952 -47.45128183 68.97923394 -42.85205078 49.46191406 C-42.68372742 48.74778351 -42.51540405 48.03365295 -42.34197998 47.29788208 C-40.70047794 40.32154809 -39.08140617 33.34218818 -37.56689453 26.33691406 C-37.34735107 25.33096191 -37.12780762 24.32500977 -36.90161133 23.28857422 C-36.51178583 21.48825525 -36.13076897 19.68599 -35.76147461 17.88134766 C-34.35979839 11.40791219 -32.7533461 4.89611094 -27.03955078 1.08691406 C-24.82910156 0.76806641 -24.82910156 0.76806641 -22.23486328 0.67285156 C-21.2687915 0.63385742 -20.30271973 0.59486328 -19.30737305 0.5546875 C-18.2702417 0.52407227 -17.23311035 0.49345703 -16.16455078 0.46191406 C-14.5653479 0.40825684 -14.5653479 0.40825684 -12.93383789 0.35351562 C-8.62293843 0.21942855 -4.31119881 0.12327605 0 0 Z " fill="#000000" transform="translate(290.03955078125,298.9130859375)"/>
<path d="M0 0 C2.8125 0.8125 2.8125 0.8125 3.8125 1.8125 C4.27552251 8.98934887 4.27552251 8.98934887 2.6875 11.8125 C-0.11913039 13.30936954 -2.06507843 13.26785315 -5.1875 12.8125 C-7.125 11.125 -7.125 11.125 -8.1875 8.8125 C-8.10677116 5.58334648 -7.37072773 4.07037606 -5.5 1.4375 C-3.1875 -0.1875 -3.1875 -0.1875 0 0 Z " fill="#000000" transform="translate(347.1875,327.1875)"/>
<path d="M0 0 C3.75332133 0.29631484 6.4153447 1.22388875 9 4 C9.49453975 7.32048116 9.30818153 9.31112364 7.9375 12.375 C6 14 6 14 2.5 14.5625 C-1 14 -1 14 -3.0625 11.9375 C-4.32409182 7.98451229 -3.50695998 5.80327994 -2 2 C-1.34 1.34 -0.68 0.68 0 0 Z " fill="#000000" transform="translate(226,334)"/>
<path d="M0 0 C1.875 1.125 1.875 1.125 3 3 C3.54624158 6.66762206 3.47898298 8.3258758 1.3125 11.375 C-1 13 -1 13 -3.5625 13.4375 C-6 13 -6 13 -7.8125 11.9375 C-9.67036623 8.90624457 -9.37133265 6.46577141 -9 3 C-6.84332735 -0.71426957 -4.0099826 -0.50124783 0 0 Z " fill="#000000" transform="translate(373,334)"/>
<path d="M0 0 C2.41882155 1.05823443 3.57239939 1.62089377 5 3.875 C4.875 7.4375 4.875 7.4375 4 10.875 C1 12.875 1 12.875 -1.5625 12.6875 C-4 11.875 -4 11.875 -6 8.875 C-5.80224407 5.71090511 -5.47658012 3.57852303 -3.6875 0.9375 C-2 -0.125 -2 -0.125 0 0 Z " fill="#000000" transform="translate(206,340.125)"/>
<path d="M0 0 C3.4375 0.375 3.4375 0.375 5.4375 2.375 C5.87272403 6.2920163 5.98842928 8.52741649 3.8125 11.875 C1.4375 13.375 1.4375 13.375 -1.6875 13.25 C-4.5625 12.375 -4.5625 12.375 -6.5625 10.375 C-6.91564229 7.12609093 -6.84033078 4.99603352 -5.5 2 C-3.5625 0.375 -3.5625 0.375 0 0 Z " fill="#000000" transform="translate(356.5625,358.625)"/>
<path d="M0 0 C3.465 1.485 3.465 1.485 7 3 C7.32152515 6.53677664 7.4131192 8.3962104 5.375 11.375 C2.33871982 13.45245486 0.60745994 13.54896129 -3 13 C-5.33043558 9.50434664 -5.58763244 8.1134271 -5 4 C-2.5 1.625 -2.5 1.625 0 0 Z " fill="#000000" transform="translate(216,362)"/>
</svg>
