<svg xmlns="http://www.w3.org/2000/svg" viewBox="0 0 256 256">
<path d="M0 0 C18.48 0 36.96 0 56 0 C56.33 4.95 56.66 9.9 57 15 C60.8448453 30.37938121 67.20085309 42.63050196 80.875 51.3125 C82.56557319 52.24141465 84.27415131 53.1383931 86 54 C87.15822266 54.58587891 87.15822266 54.58587891 88.33984375 55.18359375 C97.11288423 58.96722732 106.71521963 59.14483574 116.13330078 59.76635742 C118 60 118 60 119 61 C119.09353163 62.68801985 119.11744791 64.37995207 119.11352539 66.07055664 C119.11344986 67.15160172 119.11337433 68.23264679 119.11329651 69.34645081 C119.10813522 70.5224736 119.10297394 71.6984964 119.09765625 72.91015625 C119.09553383 74.70591347 119.09553383 74.70591347 119.09336853 76.53794861 C119.08774979 80.37949066 119.07519411 84.22097543 119.0625 88.0625 C119.05748741 90.65950437 119.05292409 93.25650965 119.04882812 95.85351562 C119.03777427 102.23569679 119.02101792 108.6178443 119 115 C115.6823159 115.03311005 112.36467524 115.05280945 109.046875 115.0703125 C107.6544458 115.0844519 107.6544458 115.0844519 106.23388672 115.09887695 C89.99983956 115.16290256 74.24954988 111.23212523 59.75610352 103.90014648 C59.04881607 103.54331284 58.34152863 103.18647919 57.61280823 102.8188324 C56.81446815 102.41351036 56.81446815 102.41351036 56 102 C56.00999275 103.49432053 56.00999275 103.49432053 56.02018738 105.01882935 C56.08131892 114.46219744 56.12612522 123.90552476 56.15543652 133.34904671 C56.17101292 138.20267181 56.19210237 143.05613564 56.22631836 147.90966797 C56.25920083 152.60405918 56.27691316 157.29829644 56.28463173 161.99279404 C56.29012389 163.77312514 56.30084674 165.55344897 56.31719017 167.33371353 C56.53372574 191.92539269 50.40310901 213.38715171 33.30859375 231.78125 C14.45419803 249.90188751 -7.63911238 256.5574972 -33.37109375 256.28125 C-41.42844403 256.05335153 -48.39087272 254.66188112 -56 252 C-57.04800781 251.649375 -58.09601563 251.29875 -59.17578125 250.9375 C-80.28744269 243.05143191 -95.17480985 226.25304582 -104.8125 206.4375 C-113.41978963 186.58567038 -113.04907462 164.36372161 -105.6875 144.25 C-96.46924359 121.99062202 -81.16410446 106.53194825 -59.04785156 96.82519531 C-50.80086455 93.50201743 -41.8887571 91.38356738 -33 91 C-31.89205078 90.94005859 -31.89205078 90.94005859 -30.76171875 90.87890625 C-22.90437276 90.66028942 -16.01626005 91.93116533 -8 93 C-8 112.14 -8 131.28 -8 151 C-13.28 149.68 -18.56 148.36 -24 147 C-31.47332874 147 -36.71275097 148.00033128 -43 152 C-43.886875 152.556875 -44.77375 153.11375 -45.6875 153.6875 C-51.15813237 159.15813237 -54.07462106 165.93775436 -54.3125 173.625 C-54.20294016 181.06411316 -51.86171337 187.36783472 -46.8125 192.875 C-41.06718098 198.08016082 -33.79067158 201.1050765 -26 201 C-18.94891088 200.40715351 -13.27563501 197.6916529 -8 193 C-2.919604 186.75867494 -0.85307837 181.80079652 -0.84178162 173.76777649 C-0.83684364 173.02609024 -0.83190566 172.28440399 -0.82681805 171.52024239 C-0.81142669 169.02822703 -0.803078 166.53623747 -0.79467773 164.04418945 C-0.7851005 162.26051607 -0.77509051 160.47684497 -0.76467896 158.69317627 C-0.7376071 153.84434955 -0.71660988 148.99551308 -0.69667697 144.14665246 C-0.67483149 139.08173351 -0.64743577 134.01684471 -0.62062073 128.95195007 C-0.57067438 119.35788092 -0.52574275 109.76379506 -0.48259836 100.16969317 C-0.43324258 89.24840883 -0.3783183 78.32715474 -0.32291877 67.40589964 C-0.2090689 44.93729324 -0.10297156 22.46865907 0 0 Z M16 15 C15.99635437 17.08029007 15.99270874 19.16058014 15.98895264 21.3039093 C15.95268948 40.91719987 15.89445424 60.53033782 15.81609726 80.14350605 C15.77633987 90.22661406 15.74393061 100.3096444 15.72900391 110.39282227 C15.71597028 119.18446739 15.68896198 127.97594137 15.64538693 136.76749009 C15.62281058 141.41972856 15.60708702 146.07175623 15.60811615 150.72405434 C15.60886503 155.10968914 15.59082332 159.49485866 15.55883217 163.880373 C15.55036585 165.48345058 15.54856087 167.08658054 15.55419731 168.68967056 C15.5969642 182.73175201 12.97527745 194.30607118 3.22265625 204.9375 C-6.98339507 214.62176956 -18.61650372 216.57587962 -32.08203125 216.33984375 C-42.46938828 215.85889216 -51.68517382 211.31482618 -59 204 C-67.47961007 194.44147334 -70.82527158 183.15842795 -70.375 170.48046875 C-69.04980308 158.18098488 -63.92378144 147.54540855 -54.25 139.625 C-44.83879346 133.28982984 -35.13988165 131.22538698 -24 130 C-24 122.41 -24 114.82 -24 107 C-39.37118499 107.41172817 -53.23805906 109.74547991 -66 119 C-67.35351562 119.97066406 -67.35351562 119.97066406 -68.734375 120.9609375 C-83.02852736 131.89872812 -91.50715206 146.64738061 -94.52734375 164.31640625 C-96.66798946 180.99928975 -93.13453353 199.06207361 -82.71923828 212.67382812 C-79.68531556 216.33311264 -76.39733179 219.67906997 -73 223 C-72.43925781 223.59296875 -71.87851563 224.1859375 -71.30078125 224.796875 C-60.21467809 235.62110171 -42.08798498 240.98212324 -27 241 C-8.83961404 239.98904734 9.28719568 233.53464218 22 220 C38.8247079 200.40484278 40.45815025 181.13321968 40.29296875 156.44921875 C40.28736495 153.97915404 40.28309856 151.50908597 40.28010559 149.03901672 C40.26871859 142.57657466 40.23930479 136.11433882 40.20599365 129.65197754 C40.17515964 123.04210193 40.16157189 116.43219261 40.14648438 109.82226562 C40.11442881 96.88142306 40.06389434 83.94072256 40 71 C40.74965027 71.54550507 41.49930054 72.09101013 42.27166748 72.65304565 C43.25806213 73.37066071 44.24445679 74.08827576 45.26074219 74.82763672 C46.23726746 75.53814178 47.21379272 76.24864685 48.21990967 76.98068237 C63.2601467 87.90515321 78.81316931 97.00878811 97.828125 98.57421875 C98.80168945 98.65631592 99.77525391 98.73841309 100.77832031 98.82299805 C101.87805176 98.91061401 101.87805176 98.91061401 103 99 C103.02887236 95.18751574 103.04675492 91.3750593 103.0625 87.5625 C103.07087891 86.47388672 103.07925781 85.38527344 103.08789062 84.26367188 C103.09111328 83.22919922 103.09433594 82.19472656 103.09765625 81.12890625 C103.10289307 80.17056885 103.10812988 79.21223145 103.11352539 78.22485352 C103.2505313 76.02714661 103.2505313 76.02714661 102 75 C99.67222097 74.53385037 97.33742603 74.10257863 95 73.6875 C88.85605696 72.51199885 83.50553986 70.97935519 78 68 C77.06800781 67.52949219 76.13601562 67.05898437 75.17578125 66.57421875 C58.44663941 57.59917338 48.50994143 43.32239777 43.0078125 25.5078125 C42.00177894 22.0061918 41.00088455 18.50309594 40 15 C32.08 15 24.16 15 16 15 Z" fill="currentColor" transform="translate(125,0)"/>
</svg>